<?xml version="1.0" encoding="utf-8"?>
<!-- Generator: Adobe Illustrator 22.0.0, SVG Export Plug-In . SVG Version: 6.00 Build 0)  -->
<svg version="1.1" id="Layer_1" xmlns="http://www.w3.org/2000/svg" xmlns:xlink="http://www.w3.org/1999/xlink" x="0px" y="0px"
	 viewBox="0 0 512 256" style="enable-background:new 0 0 512 256;" xml:space="preserve">
<g>
	<rect x="23.5" y="102.7" width="25.3" height="12.6"/>
	<path d="M48.8,90.1v12.6h74.9v12.6h12.6V128H149v12.6h12.6v12.6h12.6v12.6h100.2v-12.6h13.8v-12.6h11.5V128h25.3v12.6h12.6v12.6
		h12.6v12.6h100.2v-12.6h13.8v-12.6H477V128h11.5v-12.5v-12.6V90.3H48.8L48.8,90.1L48.8,90.1z M212.4,140.8h-12.6v-12.6h-12.6v12.6
		h-12.6v-12.6h-12.6v-12.6h-12.6v-12.6h12.6v12.6h12.6v-12.6h12.6v12.6h12.6v12.6h12.6V140.8z M350.7,128.2v-12.6h-12.6v-12.6h12.6
		v12.6h12.6v12.6H376v12.6h-12.6v-12.6H350.7z M401.5,115.5v12.6h12.6v12.6h-12.6v-12.6h-12.6v-12.6h-12.6v-12.6h12.6v12.6H401.5z"
		/>
	<rect x="174.5" y="115.5" width="12.6" height="12.6"/>
</g>
</svg>
