<?xml version="1.0" encoding="utf-8"?>
<!-- Generator: Adobe Illustrator 22.0.0, SVG Export Plug-In . SVG Version: 6.00 Build 0)  -->
<svg version="1.1" id="Layer_1" xmlns="http://www.w3.org/2000/svg" xmlns:xlink="http://www.w3.org/1999/xlink" x="0px" y="0px"
	 viewBox="0 0 512 512" style="enable-background:new 0 0 512 512;" xml:space="preserve">
<style type="text/css">
	.st0{fill:#3EBCAE;}
	.st1{fill:#D8ECF3;}
</style>
<g>
	<g>
		<path class="st0" d="M186.3,350.6C118.5,342.1,34.5,248,10.9,188.8c-17-42.8-2.6-66.8,16.6-74.9c19.4-8.2,47.7-0.8,59.6,25.5
			c52.2,110,77.5,113.5,112.5,118.3l4,0.6l-0.8,5.7l-4-0.6c-35.4-4.9-63.4-8.8-116.9-121.6c-10.5-23.2-35.3-29.8-52.1-22.6
			c-16.7,7.1-29,28.6-13.5,67.5c23,58,104.9,149.9,170.7,158.2L186.3,350.6z"/>
	</g>
	<path class="st1" d="M497.1,256.3H182.3c-6.3,0-11.5,5.1-11.5,11.5v74.9c0,32.4,26.3,58.7,58.7,58.7h145.6
		c73.8,0,133.5-59.8,133.5-133.5C508.6,261.4,503.5,256.3,497.1,256.3z"/>
</g>
</svg>
