<?xml version="1.0" encoding="utf-8"?>
<!-- Generator: Adobe Illustrator 22.0.0, SVG Export Plug-In . SVG Version: 6.00 Build 0)  -->
<svg version="1.1" id="Layer_1" xmlns="http://www.w3.org/2000/svg" xmlns:xlink="http://www.w3.org/1999/xlink" x="0px" y="0px"
	 viewBox="0 0 512 512" style="enable-background:new 0 0 512 512;" xml:space="preserve">
  <g id="Hair">
    <path
			fill="#ff94ab"
      class="hair2"
      d="M413.1,71.9L413.1,71.9c-7.2-28.6-36.3-45.9-64.8-38.6L183.5,75.1c-54.3,13.8-87.1,68.9-73.4,123.2l1.2,4.6
		c7.6,29.8,37.9,47.9,67.7,40.3l155.6-39.4C392.7,189,427.8,130,413.1,71.9z"
    />
    <path
			fill="#ff6485"
      class="hair1"
      d="M393.2,77L393.2,77c-7.2-28.6-36.3-45.9-64.8-38.6L183.5,75.1c-54.3,13.8-87.1,68.9-73.4,123.2l1.2,4.6
		c7.6,29.8,37.9,47.9,67.7,40.3l135.7-34.4C372.7,194.1,407.9,135.1,393.2,77z"
    />
  </g>
</svg>
