<?xml version="1.0" encoding="utf-8"?>
<!-- Generator: Adobe Illustrator 22.0.0, SVG Export Plug-In . SVG Version: 6.00 Build 0)  -->
<svg version="1.1" id="Layer_1" xmlns="http://www.w3.org/2000/svg" xmlns:xlink="http://www.w3.org/1999/xlink" x="0px" y="0px"
	 viewBox="0 0 512 512" enable-background="new 0 0 512 512" xml:space="preserve">
<g>
	<circle fill="#E5E5E5" cx="233" cy="319.6" r="153.2"/>
	<g id="Hair">
		<path fill="#FF94AB" d="M462.1,90.5L462.1,90.5c-9.5-37.9-48-60.7-85.8-51.1L158.2,94.8C86.3,113,42.9,186,61.1,257.8l1.6,6.1
			c10.1,39.4,50.2,63.4,89.6,53.3l205.9-52.1C435.1,245.5,481.5,167.4,462.1,90.5z"/>
		<path fill="#FF6485" d="M435.7,97.3L435.7,97.3c-9.5-37.9-48-60.7-85.8-51.1L158.2,94.8C86.3,113,42.9,186,61.1,257.8l1.6,6.1
			c10.1,39.4,50.2,63.4,89.6,53.3l179.6-45.5C408.6,252.3,455.2,174.2,435.7,97.3z"/>
	</g>
</g>
</svg>
