<?xml version="1.0" encoding="utf-8"?>
<!-- Generator: Adobe Illustrator 22.0.0, SVG Export Plug-In . SVG Version: 6.00 Build 0)  -->
<svg version="1.1" id="Layer_1" xmlns="http://www.w3.org/2000/svg" xmlns:xlink="http://www.w3.org/1999/xlink" x="0px" y="0px"
	 viewBox="0 0 128 128" style="enable-background:new 0 0 128 128;" xml:space="preserve">
<style type="text/css">
	.st0{fill:#FFFFFF;}
</style>
<g>
	<path d="M98.8,59.8c3.1-0.7,5.2-3.8,4.6-7c-0.6-3.2-3.5-5.3-6.7-5c2.7-1.7,3.6-5.3,1.9-8.1c-1.6-2.8-5.1-3.8-8-2.4
		c1.9-2.6,1.5-6.2-0.9-8.3c-2.5-2.1-6.1-1.8-8.3,0.5c0.9-3.1-0.7-6.4-3.7-7.5c-3-1.1-6.4,0.4-7.6,3.3c-0.2-3.2-2.8-5.7-6-5.7
		c-3.2,0-5.9,2.6-6,5.7c-1.3-2.9-4.6-4.4-7.6-3.3c-3,1.1-4.6,4.4-3.7,7.5c-2.2-2.3-5.8-2.6-8.3-0.5c-2.5,2.1-2.8,5.7-0.9,8.3
		c-2.8-1.4-6.4-0.4-8,2.4c-1.6,2.8-0.7,6.4,1.9,8.1c-3.2-0.4-6.1,1.8-6.7,5c-0.6,3.2,1.5,6.2,4.6,7c-3.1,0.7-5.2,3.8-4.6,7v0
		c0.6,3.2,3.5,5.3,6.7,5c-2.7,1.7-3.6,5.3-1.9,8.1c1.6,2.8,5.1,3.8,8,2.4c-1.9,2.6-1.5,6.2,0.9,8.3v0c2.5,2.1,6.1,1.8,8.3-0.5
		c-0.9,3.1,0.7,6.4,3.7,7.5c3,1.1,6.4-0.4,7.6-3.3c0.2,3.2,2.8,5.7,6,5.7c3.2,0,5.9-2.6,6-5.7c1.3,2.9,4.6,4.4,7.6,3.3
		s4.6-4.4,3.7-7.5c2.2,2.3,5.8,2.6,8.3,0.5v0c2.5-2.1,2.8-5.7,0.9-8.3c2.8,1.4,6.4,0.4,8-2.4c1.6-2.8,0.7-6.4-1.9-8.1
		c3.2,0.4,6.1-1.8,6.7-5v0C104,63.6,101.9,60.6,98.8,59.8z"/>
	<path class="st0" d="M64,51L64,51c-9.9,0-18,8.1-18,18v21.2c0,9.9,8.1,18,18,18h0c9.9,0,18-8.1,18-18V69C82,59.1,73.9,51,64,51z"/>
</g>
</svg>
