<?xml version="1.0" encoding="utf-8"?>
<!-- Generator: Adobe Illustrator 22.0.0, SVG Export Plug-In . SVG Version: 6.00 Build 0)  -->
<svg version="1.1" id="Layer_1" xmlns="http://www.w3.org/2000/svg" xmlns:xlink="http://www.w3.org/1999/xlink" x="0px" y="0px"
	 viewBox="0 0 128 128" style="enable-background:new 0 0 128 128;" xml:space="preserve">
<style type="text/css">
	.st0{fill:#FFFFFF;}
</style>
<g>
	<path class="st0" d="M64.9,61.4h36.7c2.7,0,4.9-2.2,4.9-4.9v-11c0-7.3-5.9-13.2-13.2-13.2l-28.4,0c-2.7,0-4.9,2.2-4.9,4.9v19.4
		C60,59.2,62.2,61.4,64.9,61.4z"/>
	<path class="st0" d="M83.5,95.8H47.6c-4,0-7.2-3.2-7.2-7.2V57.4c0-13.9,11.3-25.1,25.1-25.1h0c13.9,0,25.1,11.3,25.1,25.1l0,31.2
		C90.7,92.5,87.5,95.8,83.5,95.8z"/>
	<path class="st0" d="M70,56.5V37.1c0-2.7-2.2-4.9-4.9-4.9H34.7c-7.3,0-13.2,5.9-13.2,13.2v11c0,2.7,2.2,4.9,4.9,4.9h38.7
		C67.8,61.4,70,59.2,70,56.5z"/>
</g>
</svg>
