<?xml version="1.0" encoding="utf-8"?>
<!-- Generator: Adobe Illustrator 22.0.0, SVG Export Plug-In . SVG Version: 6.00 Build 0)  -->
<svg version="1.1" id="Layer_1" xmlns="http://www.w3.org/2000/svg" xmlns:xlink="http://www.w3.org/1999/xlink" x="0px" y="0px"
	 viewBox="0 0 128 128" style="enable-background:new 0 0 128 128;" xml:space="preserve">
<style type="text/css">
	.st0{fill:#FFFFFF;}
</style>
<g>
	<path class="st0" d="M74,58.5h20.6c8.5,0,15.5,6.9,15.5,15.5c0,2.8-2.2,5-5,5H74c-4.4,0-8-3.6-8-8v-4.4C66,62.1,69.5,58.5,74,58.5z
		"/>
	<path class="st0" d="M26,58.5h20.6C55.1,58.5,62,65.5,62,74c0,2.8-2.2,5-5,5H26c-4.4,0-8-3.6-8-8v-4.4C18,62.1,21.5,58.5,26,58.5z"
		/>
	<path class="st0" d="M30.9,49h-4.5c-4.7,0-8.5,3.8-8.5,8.5l0,9.7c0,4.7,3.8,8.5,8.5,8.5h4.5c4.7,0,8.5-3.8,8.5-8.5v-9.7
		C39.4,52.8,35.6,49,30.9,49z"/>
	<path class="st0" d="M78.9,49h-4.5c-4.7,0-8.5,3.8-8.5,8.5v9.7c0,4.7,3.8,8.5,8.5,8.5h4.5c4.7,0,8.5-3.8,8.5-8.5v-9.7
		C87.4,52.8,83.6,49,78.9,49z"/>
</g>
</svg>
