<?xml version="1.0" encoding="utf-8"?>
<!-- Generator: Adobe Illustrator 22.0.0, SVG Export Plug-In . SVG Version: 6.00 Build 0)  -->
<svg version="1.1" id="Layer_1" xmlns="http://www.w3.org/2000/svg" xmlns:xlink="http://www.w3.org/1999/xlink" x="0px" y="0px"
	 viewBox="0 0 512 512" enable-background="new 0 0 512 512" xml:space="preserve">
<g id="Glasses">
	<path d="M264.2,251.1L264.2,251.1c-10.2,0-18.5,8.3-18.5,18.5s8.3,18.5,18.5,18.5l0,0c10.2,0,18.5-8.3,18.5-18.5
		S274.4,251.1,264.2,251.1z"/>
	<ellipse cx="342.6" cy="269.7" rx="18.5" ry="18.5"/>
</g>
<g id="Eyebrows">
	<path fill="#CE3E5D" d="M278.8,218.8l-47.2-5.2c-7.5-0.8-14.2,4.6-15,12c-0.8,7.5,4.6,14.2,12,15l47.2,5.2c7.5,0.8,14.2-4.6,15-12
		C291.7,226.4,286.3,219.7,278.8,218.8z M379.6,219.2c-1-7.4-7.9-12.7-15.3-11.7l-47.1,6.3c-7.4,1-12.7,7.9-11.7,15.3
		s7.9,12.7,15.3,11.7l47.1-6.3C375.4,233.5,380.6,226.6,379.6,219.2z"/>
</g>
</svg>
