<?xml version="1.0" encoding="utf-8"?>
<!-- Generator: Adobe Illustrator 22.0.0, SVG Export Plug-In . SVG Version: 6.00 Build 0)  -->
<svg version="1.1" baseProfile="tiny" id="Layer_1" xmlns="http://www.w3.org/2000/svg" xmlns:xlink="http://www.w3.org/1999/xlink"
	 x="0px" y="0px" viewBox="0 0 512 512" xml:space="preserve">
<image width="54" height="55" xlink:href="6595795A.png"  transform="matrix(1 0 0 1 233 242)">
</image>
<image width="55" height="55" xlink:href="65957959.png"  transform="matrix(1 0 0 1 313 242)">
</image>
<path d="M267.2,294.3h-14.7c-9.6,0-17.3-7.8-17.3-17.3v-14.7c0-9.6,7.8-17.3,17.3-17.3h14.7c9.6,0,17.3,7.8,17.3,17.3V277
	C284.5,286.5,276.7,294.3,267.2,294.3z"/>
<path d="M347.8,294.3h-14.7c-9.6,0-17.3-7.8-17.3-17.3v-14.7c0-9.6,7.8-17.3,17.3-17.3h14.7c9.6,0,17.3,7.8,17.3,17.3V277
	C365.1,286.5,357.3,294.3,347.8,294.3z"/>
<image width="28" height="6" xlink:href="65957956.png"  transform="matrix(1 0 0 1 286 266)">
</image>
</svg>
