<?xml version="1.0" encoding="utf-8"?>
<!-- Generator: Adobe Illustrator 22.0.0, SVG Export Plug-In . SVG Version: 6.00 Build 0)  -->
<svg version="1.1" id="Layer_1" xmlns="http://www.w3.org/2000/svg" xmlns:xlink="http://www.w3.org/1999/xlink" x="0px" y="0px"
	 viewBox="0 0 512 512" style="enable-background:new 0 0 512 512;" xml:space="preserve">
<g>
	<rect x="139.3" y="254.2" width="13.4" height="6.7"/>
	<path d="M152.7,247.5v6.7h39.7v6.7h6.7v6.7h6.7v6.7h6.7v6.7h6.7v6.7h53.1V281h7.3v-6.7h6.1v-6.7h13.4v6.7h6.7v6.7h6.7v6.7h53.1V281
		h7.3v-6.7h6.7v-6.7h6.1V261v-6.7v-6.7h-233V247.5z M239.4,274.4h-6.7v-6.7H226v6.7h-6.7v-6.7h-6.7V261h-6.7v-6.7h6.7v6.7h6.7v-6.7
		h6.7v6.7h6.7v6.7h6.7V274.4z M312.7,267.7V261H306v-6.7h6.7v6.7h6.7v6.7h6.7v6.7h-6.7v-6.7H312.7z M339.6,261v6.7h6.7v6.7h-6.7
		v-6.7h-6.7V261h-6.7v-6.7h6.7v6.7H339.6z"/>
	<rect x="219.3" y="261" width="6.7" height="6.7"/>
</g>
<g id="Eyebrows" fill="#ce3e5d">
	<path d="M278.8,218.8l-47.2-5.2c-7.5-0.8-14.2,4.6-15,12c-0.8,7.5,4.6,14.2,12,15l47.2,5.2c7.5,0.8,14.2-4.6,15-12
		C291.7,226.4,286.3,219.7,278.8,218.8z M379.6,219.2c-1-7.4-7.9-12.7-15.3-11.7l-47.1,6.3c-7.4,1-12.7,7.9-11.7,15.3
		s7.9,12.7,15.3,11.7l47.1-6.3C375.4,233.5,380.6,226.6,379.6,219.2z"/>
</g>
</svg>
