<?xml version="1.0" encoding="utf-8"?>
<!-- Generator: Adobe Illustrator 22.0.0, SVG Export Plug-In . SVG Version: 6.00 Build 0)  -->
<svg version="1.1" id="Layer_1" xmlns="http://www.w3.org/2000/svg" xmlns:xlink="http://www.w3.org/1999/xlink" x="0px" y="0px"
	 viewBox="0 0 512 512" style="enable-background:new 0 0 512 512;" xml:space="preserve">
<g id="Glasses">
	<path d="M264.2,251.1L264.2,251.1c-10.2,0-18.5,8.3-18.5,18.5s8.3,18.5,18.5,18.5l0,0c10.2,0,18.5-8.3,18.5-18.5
		S274.4,251.1,264.2,251.1z"/>
	<ellipse cx="342.6" cy="269.7" rx="18.5" ry="18.5"/>
</g>
<g id="Eyebrows">
	<path style="fill:#CE3E5D;" d="M278.8,218.8l-47.2-5.2c-7.5-0.8-14.2,4.6-15,12c-0.8,7.5,4.6,14.2,12,15l47.2,5.2
		c7.5,0.8,14.2-4.6,15-12C291.7,226.4,286.3,219.7,278.8,218.8z M379.6,219.2c-1-7.4-7.9-12.7-15.3-11.7l-47.1,6.3
		c-7.4,1-12.7,7.9-11.7,15.3s7.9,12.7,15.3,11.7l47.1-6.3C375.4,233.5,380.6,226.6,379.6,219.2z"/>
</g>
<g>
	<path style="fill:#3EBCAE;" d="M224.9,289.6c-13.2-1.8-22.7-3.1-42.3-44.5c-4.5-9.9-15.1-12.7-22.4-9.6
		c-7.2,3.1-12.7,12.1-6.3,28.2c8.9,22.3,40.5,57.7,66,60.9l0.3-2.1c-24.8-3.1-55.6-37.7-64.3-59.6c-5.8-14.7-1.2-22.8,5.1-25.4
		c6.4-2.7,15.7-0.2,19.6,8.5c20.2,42.5,30.7,43.9,44,45.8l1.5,0.2l0.3-2.1L224.9,289.6z"/>
	<g>
		<path style="fill:#D8ECF3;" d="M236.1,342.7c-11.6,0-21.1-9.5-21.1-21.1v-28.2c0-1.8,1.5-3.3,3.3-3.3h118.5c1.8,0,3.3,1.5,3.3,3.3
			c0,27.2-22.1,49.3-49.3,49.3H236.1z"/>
		<path style="fill:#3EBCAE;" d="M336.9,291.1c1.3,0,2.3,1,2.3,2.3c0,26.6-21.7,48.3-48.3,48.3h-54.8c-11.1,0-20.1-9-20.1-20.1
			v-28.2c0-1.3,1-2.3,2.3-2.3H336.9 M336.9,289.1H218.4c-2.4,0-4.3,1.9-4.3,4.3v28.2c0,12.2,9.9,22.1,22.1,22.1h54.8
			c27.8,0,50.3-22.5,50.3-50.3C341.2,291,339.3,289.1,336.9,289.1L336.9,289.1z"/>
	</g>
</g>
<line style="fill:none;stroke:#3EBCAE;stroke-width:2;stroke-linecap:round;stroke-miterlimit:10;" x1="334.3" y1="316.4" x2="216" y2="316.4"/>
<path style="fill:none;stroke:#3EBCAE;stroke-width:2;stroke-miterlimit:10;" d="M215,304.7c0,0,105.2-7.7,124.7-1.2"/>
<path style="fill:none;stroke:#3EBCAE;stroke-width:2;stroke-linecap:round;stroke-miterlimit:10;" d="M328.8,325
	c0,0-11.1,11.8-112.6,2.1"/>
</svg>
