<?xml version="1.0" encoding="utf-8"?>
<!-- Generator: Adobe Illustrator 22.0.0, SVG Export Plug-In . SVG Version: 6.00 Build 0)  -->
<svg version="1.1" id="Layer_1" xmlns="http://www.w3.org/2000/svg" xmlns:xlink="http://www.w3.org/1999/xlink" x="0px" y="0px"
	 viewBox="0 0 512 512" enable-background="new 0 0 512 512" xml:space="preserve">
<path fill="#B58658" d="M166.8,161.4L190.2,352l14.3-16.5l20,12l12-14l13.9,10.6l13.6-23.9l17,19.9l13.7-14.9l13.5,11.3L322,323
	l16.5,9.6l16.2-20.1l16,15.9l10.3-12.1l11.1,9.3V149.3L166.8,161.4z M264,294.3c-13.6,0-24.6-11-24.6-24.6s11-24.6,24.6-24.6
	c13.6,0,24.6,11,24.6,24.6S277.6,294.3,264,294.3z M342.3,293.9c-13.6,0-24.6-11-24.6-24.6s11-24.6,24.6-24.6
	c13.6,0,24.6,11,24.6,24.6S355.9,293.9,342.3,293.9z"/>
<polygon fill="#93673D" points="87.3,127.5 190.2,162.8 190.2,352 184.5,333 174.4,345.1 167.5,333 155,336.7 147.8,317.5 
	131.2,326.4 124.5,313.5 113.7,318.8 107.5,298 96.5,311.3 93.3,301.3 87.3,307.3 "/>
<polygon fill="#C68E5B" points="87.3,127.5 190.2,171.4 391.5,149.6 292.2,106.8 "/>
</svg>
