<?xml version="1.0" encoding="utf-8"?>
<!-- Generator: Adobe Illustrator 22.0.0, SVG Export Plug-In . SVG Version: 6.00 Build 0)  -->
<svg version="1.1" id="Layer_1" xmlns="http://www.w3.org/2000/svg" xmlns:xlink="http://www.w3.org/1999/xlink" x="0px" y="0px"
	 viewBox="0 0 128 128" style="enable-background:new 0 0 128 128;" xml:space="preserve">
<circle style="fill:#2B2B2B;" cx="74" cy="74" r="51"/>
<g>
	<defs>
		<path id="SVGID_1_" d="M-31.3-21.5V74H23c0,28.2,22.8,51,51,51s51-22.8,51-51h31.5v-95.5H-31.3z"/>
	</defs>
	<clipPath id="SVGID_2_">
		<use xlink:href="#SVGID_1_"  style="overflow:visible;"/>
	</clipPath>
	<g style="clip-path:url(#SVGID_2_);">
		<path style="fill:#FF4F5B;" d="M119.8,98.3c-0.4,4.8-12.6,8.9-29.6,10.6c-0.1,0-0.3,0-0.4,0c-4.8,0.5-9.9,0.7-15.2,0.8
			c-5.3,0-10.4-0.1-15.2-0.5c-0.1,0-0.3,0-0.4,0c-17-1.4-29.3-5.4-29.8-10.1c0,0.1,0,0.2,0,0.3c0,0.1,0,0.2,0,0.4
			c0.2,11.8,1.6,23.1,3.9,33.3c0.8,3.3,1.6,6.5,2.6,9.5c2.4,7.6,5.3,14.4,8.7,20.2c0.2,0.3,0.3,0.5,0.5,0.8
			c8.1,13.6,18.7,21.8,30.3,21.7s22-8.5,29.9-22.2c0.2-0.3,0.3-0.5,0.5-0.8c3.3-5.9,6.1-12.8,8.4-20.4c0.9-3.1,1.7-6.3,2.4-9.5
			c2.2-10.3,3.4-21.5,3.4-33.4c0-0.1,0-0.2,0-0.4C119.8,98.6,119.8,98.4,119.8,98.3z"/>
		<path style="fill:#8B3037;" d="M59,109.2c0.1,0,0.3,0,0.4,0c4.8,0.4,9.9,0.6,15.2,0.5c5.3,0,10.4-0.3,15.2-0.8c0.1,0,0.3,0,0.4,0
			c17-1.7,29.3-5.8,29.6-10.6c-0.7-10.5-20.8-18.8-45.5-18.5C49.6,80,29.6,88.6,29.1,99.1C29.6,103.9,41.9,107.8,59,109.2z"/>
		<path style="fill:#1A2E35;" d="M90.4,109.7c-0.1-0.3-0.2-0.5-0.3-0.8c-0.1,0-0.3,0-0.4,0c0.1,0.3,0.2,0.5,0.3,0.8
			c0.6,1.7,0.9,3.5,1,5.3c0.1,9.1-7.2,16.4-16.2,16.5c-9,0.1-16.4-7.2-16.5-16.2c0-1.9,0.3-3.7,0.9-5.3c0.1-0.3,0.2-0.5,0.3-0.8
			c-0.1,0-0.3,0-0.4,0c-0.1,0.3-0.2,0.5-0.3,0.8c-0.6,1.7-0.8,3.5-0.8,5.4c0.1,9.3,7.6,16.7,16.9,16.6s16.7-7.6,16.6-16.9
			C91.3,113.2,91,111.4,90.4,109.7z"/>
		<path style="fill:#1A2E35;" d="M74.9,147.2c-12.5,0.1-23.6,6.3-30.5,15.6c0.2,0.3,0.3,0.5,0.5,0.8c6.7-9.4,17.6-15.5,30-15.6
			s23.4,5.8,30.2,15.1c0.2-0.3,0.3-0.5,0.5-0.8C98.5,153.1,87.4,147.1,74.9,147.2z"/>
		<path style="fill:#F7FAFC;" d="M47.7,133l-14.6,0.1c0.8,3.3,1.6,6.5,2.6,9.5l17.6-0.1L47.7,133z"/>
		<path style="fill:#F7FAFC;" d="M96.4,142.1l17.6-0.1c0.9-3.1,1.7-6.3,2.4-9.5l-14.6,0.1L96.4,142.1z"/>
		<g>
			<g>
				<path style="fill:#8B3037;" d="M29.1,99.6c0,0.1,0,0.2,0,0.2c0-0.1,0-0.2,0-0.4C29.1,99.5,29.1,99.5,29.1,99.6z"/>
				<path style="fill:#8B3037;" d="M119.8,98.6c0,0.1,0,0.2,0,0.4c0-0.1,0-0.2,0-0.2C119.8,98.7,119.8,98.7,119.8,98.6z"/>
				<path style="fill:#FF4F5B;" d="M29.1,98.8c0,0.2,0,0.4,0,0.6c0-0.1,0-0.2,0-0.3C29.1,99,29.1,98.9,29.1,98.8z"/>
				<path style="fill:#FF4F5B;" d="M119.8,98.1c0,0.1,0,0.2,0,0.3c0,0.1,0,0.2,0,0.3C119.8,98.4,119.8,98.3,119.8,98.1z"/>
			</g>
		</g>
		<g>
			<g>
				<circle style="fill:#1A2E35;" cx="36.7" cy="44.9" r="12"/>
				<circle style="fill:#1A2E35;" cx="111.3" cy="44.2" r="12"/>
			</g>
			<g>
				<g>
					<defs>
						<path id="SVGID_7_" d="M73.7,15c-26.7,0.2-48.2,20.5-48,45.2c0,2.8,0.3,5.6,0.9,8.2c10.8,11,28.2,18,47.7,17.8
							c19.5-0.2,36.7-7.5,47.4-18.7c0.5-2.7,0.8-5.4,0.8-8.2C122.3,34.6,100.5,14.8,73.7,15z"/>
					</defs>
					<clipPath id="SVGID_3_">
						<use xlink:href="#SVGID_7_"  style="overflow:visible;"/>
					</clipPath>
					<g style="clip-path:url(#SVGID_3_);">
						<path style="fill:#FF4F5B;" d="M90.5,17.6c-0.1,0-0.2-0.1-0.4-0.1C85,15.8,79.5,15,73.7,15c-5.7,0-11.2,1-16.3,2.8
							c-0.1,0-0.2,0.1-0.4,0.1c-18.4,6.4-31.5,23-31.3,42.3c0,2.8,0.3,5.6,0.9,8.2c10.8,11,28.2,18,47.7,17.8
							c19.5-0.2,36.7-7.5,47.4-18.7c0.5-2.7,0.8-5.4,0.8-8.2C122.4,40.1,109,23.7,90.5,17.6z"/>
						<path style="fill:none;" d="M73.6,0.2c-9.1,0.1-16.3,7.5-16.2,16.5c0,0.4,0,0.7,0,1.1C62.5,16,68,15.1,73.7,15
							c5.7,0,11.2,0.8,16.4,2.5c0-0.4,0-0.7,0-1.1C90.1,7.3,82.7,0.1,73.6,0.2z"/>
						<path style="fill:#1A2E35;" d="M73.9,33.3c8.8-0.1,16-7,16.6-15.7c-0.1,0-0.2-0.1-0.4-0.1c-0.5,8.5-7.5,15.3-16.2,15.4
							c-8.7,0.1-15.8-6.6-16.5-15.1c-0.1,0-0.2,0.1-0.4,0.1C57.8,26.6,65.1,33.4,73.9,33.3z"/>
					</g>
				</g>
				<g>
					<defs>
						<path id="SVGID_9_" d="M73.7,15c-26.7,0.2-48.2,20.5-48,45.2c0,2.8,0.3,5.6,0.9,8.2c10.8,11,28.2,18,47.7,17.8
							c19.5-0.2,36.7-7.5,47.4-18.7c0.5-2.7,0.8-5.4,0.8-8.2C122.3,34.6,100.5,14.8,73.7,15z"/>
					</defs>
					<clipPath id="SVGID_4_">
						<use xlink:href="#SVGID_9_"  style="overflow:visible;"/>
					</clipPath>
					<path style="clip-path:url(#SVGID_4_);fill:#1A2E35;" d="M95.6,72.7l-42.7,0.4c-8.8,0.1-16.1-7-16.1-15.9l0,0
						c-0.1-8.8,7-16.1,15.9-16.1l42.7-0.4c8.8-0.1,16.1,7,16.1,15.9l0,0C111.5,65.4,104.4,72.7,95.6,72.7z"/>
				</g>
				<g>
					<defs>
						<path id="SVGID_11_" d="M73.7,15c-26.7,0.2-48.2,20.5-48,45.2c0,2.8,0.3,5.6,0.9,8.2c10.8,11,28.2,18,47.7,17.8
							c19.5-0.2,36.7-7.5,47.4-18.7c0.5-2.7,0.8-5.4,0.8-8.2C122.3,34.6,100.5,14.8,73.7,15z"/>
					</defs>
					<clipPath id="SVGID_5_">
						<use xlink:href="#SVGID_11_"  style="overflow:visible;"/>
					</clipPath>
				</g>
			</g>
		</g>
		<path style="fill:#FFFFFF;" d="M55.8,50.8c2.3,0,4.2,1.8,4.2,4.2c0,2.3-1.8-2.6-4.2-2.6c-2.3,0-4.2,5-4.2,2.7
			C51.6,52.7,53.5,50.8,55.8,50.8z"/>
		<g>
			<path style="fill:#FFFFFF;" d="M95.2,50.8c2.3,0,4.2,1.8,4.2,4.2c0,2.3-1.8-2.6-4.2-2.6c-2.3,0-4.2,5-4.2,2.7
				C91.1,52.7,92.9,50.8,95.2,50.8z"/>
		</g>
	</g>
</g>
</svg>
