<?xml version="1.0" encoding="utf-8"?>
<!-- Generator: Adobe Illustrator 22.0.0, SVG Export Plug-In . SVG Version: 6.00 Build 0)  -->
<svg version="1.1" id="Layer_1" xmlns="http://www.w3.org/2000/svg" xmlns:xlink="http://www.w3.org/1999/xlink" x="0px" y="0px"
	 viewBox="0 0 128 128" style="enable-background:new 0 0 128 128;" xml:space="preserve">
<circle style="fill:#2B2B2B;" cx="74" cy="74" r="51"/>
<g>
	<defs>
		<path id="SVGID_1_" d="M-31.3-21.5V74H23c0,28.2,22.8,51,51,51s51-22.8,51-51h31.5v-95.5H-31.3z"/>
	</defs>
	<clipPath id="SVGID_2_">
		<use xlink:href="#SVGID_1_"  style="overflow:visible;"/>
	</clipPath>
	<g style="clip-path:url(#SVGID_2_);">
		<path style="fill:#FF4F5B;" d="M114.3,88.3c-0.2,4.8-12.1,9.6-29,12.2c-0.1,0-0.3,0.1-0.4,0.1c-4.7,0.7-9.8,1.3-15.1,1.6
			c-5.3,0.3-10.4,0.4-15.2,0.3c-0.1,0-0.3,0-0.4,0C37.1,102,24.6,98.7,23.9,94c0,0.1,0,0.2,0,0.3c0,0.1,0,0.2,0,0.4
			c0.8,11.8,2.8,23,5.7,33c0.9,3.2,2,6.4,3.1,9.3c2.8,7.4,6.1,14.1,9.8,19.7c0.2,0.3,0.3,0.5,0.5,0.8c8.8,13.1,19.9,20.7,31.4,20
			s21.5-9.7,28.7-23.8c0.1-0.3,0.3-0.6,0.4-0.8c3-6.1,5.4-13.1,7.3-20.8c0.8-3.1,1.4-6.3,1.9-9.7c1.6-10.4,2.2-21.7,1.6-33.5
			c0-0.1,0-0.2,0-0.4C114.4,88.5,114.3,88.4,114.3,88.3z"/>
		<path style="fill:#8B3037;" d="M54.2,102.5c0.1,0,0.3,0,0.4,0c4.8,0.1,9.9,0,15.2-0.3c5.3-0.3,10.4-0.9,15.1-1.6
			c0.1,0,0.3-0.1,0.4-0.1c16.9-2.6,28.9-7.4,29-12.2c-1.2-10.5-21.8-17.6-46.4-16.1c-24.6,1.6-44.1,11.2-44,21.7
			C24.6,98.7,37.1,102,54.2,102.5z"/>
		<path style="fill:#1A2E35;" d="M85.6,101.3c-0.1-0.3-0.2-0.5-0.3-0.7c-0.1,0-0.3,0.1-0.4,0.1c0.1,0.3,0.2,0.5,0.4,0.7
			c0.7,1.6,1.1,3.4,1.2,5.3c0.6,9-6.3,16.8-15.3,17.4s-16.8-6.3-17.4-15.3c-0.1-1.9,0.1-3.7,0.6-5.4c0.1-0.3,0.2-0.5,0.3-0.8
			c-0.1,0-0.3,0-0.4,0c-0.1,0.3-0.2,0.5-0.2,0.8c-0.5,1.7-0.7,3.6-0.5,5.4c0.6,9.2,8.5,16.3,17.8,15.7c9.2-0.6,16.3-8.5,15.7-17.8
			C86.7,104.7,86.3,102.9,85.6,101.3z"/>
		<path style="fill:#1A2E35;" d="M72.1,139.6c-12.5,0.8-23.2,7.5-29.6,17.2c0.2,0.3,0.3,0.5,0.5,0.8c6.2-9.7,16.8-16.4,29.1-17.2
			s23.7,4.5,31,13.4c0.1-0.3,0.3-0.6,0.4-0.8C96.1,144.1,84.7,138.8,72.1,139.6z"/>
		<path style="fill:#F7FAFC;" d="M44.2,126.8l-14.6,0.9c0.9,3.2,2,6.4,3.1,9.3l17.6-1.1L44.2,126.8z"/>
		<path style="fill:#F7FAFC;" d="M93.4,133.3l17.6-1.1c0.8-3.1,1.4-6.3,1.9-9.7l-14.6,0.9L93.4,133.3z"/>
		<g>
			<g>
				<path style="fill:#8B3037;" d="M23.9,94.4c0,0.1,0,0.2,0,0.2c0-0.1,0-0.2,0-0.4C23.9,94.4,23.9,94.4,23.9,94.4z"/>
				<path style="fill:#8B3037;" d="M114.4,88.6c0,0.1,0,0.2,0,0.4c0-0.1,0-0.2,0-0.2C114.4,88.7,114.4,88.7,114.4,88.6z"/>
				<path style="fill:#FF4F5B;" d="M23.8,93.7c0,0.2,0,0.4,0,0.6c0-0.1,0-0.2,0-0.3C23.8,93.9,23.8,93.8,23.8,93.7z"/>
				<path style="fill:#FF4F5B;" d="M114.3,88c0,0.1,0,0.2,0,0.3c0,0.1,0,0.2,0,0.3C114.3,88.4,114.3,88.2,114.3,88z"/>
			</g>
		</g>
		<g>
			<g>
				<circle style="fill:#1A2E35;" cx="28.4" cy="39.4" r="12"/>
				<circle style="fill:#1A2E35;" cx="103" cy="34.7" r="12"/>
			</g>
			<g>
				<g>
					<defs>
						<path id="SVGID_7_" d="M63.8,7.6c-26.7,1.7-47,23-45.5,47.7c0.2,2.8,0.6,5.5,1.4,8.2c11.4,10.4,29.1,16.5,48.6,15.2
							c19.5-1.2,36.3-9.5,46.3-21.2c0.4-2.7,0.5-5.5,0.3-8.3C113.4,24.6,90.5,5.9,63.8,7.6z"/>
					</defs>
					<clipPath id="SVGID_3_">
						<use xlink:href="#SVGID_7_"  style="overflow:visible;"/>
					</clipPath>
					<g style="clip-path:url(#SVGID_3_);">
						<path style="fill:#FF4F5B;" d="M80.7,9.3c-0.1,0-0.2-0.1-0.4-0.1c-5.2-1.4-10.8-2-16.5-1.6s-11.2,1.6-16.1,3.7
							c-0.1,0-0.2,0.1-0.4,0.1c-18,7.4-30.2,24.7-29,43.9c0.2,2.8,0.6,5.5,1.4,8.2c11.4,10.4,29.1,16.5,48.6,15.2
							c19.5-1.2,36.3-9.5,46.3-21.2c0.4-2.7,0.5-5.5,0.3-8.3C113.7,30,99.5,14.4,80.7,9.3z"/>
						<path style="fill:none;" d="M62.9-7.2c-9,0.6-15.9,8.4-15.3,17.4c0,0.4,0,0.7,0.1,1.1c5-2,10.4-3.3,16.1-3.7
							s11.3,0.2,16.5,1.6c0-0.4,0-0.7,0-1.1C79.7-1,72-7.8,62.9-7.2z"/>
						<path style="fill:#1A2E35;" d="M65,25.9c8.8-0.6,15.6-7.9,15.7-16.6c-0.1,0-0.2-0.1-0.4-0.1c0,8.6-6.7,15.7-15.4,16.3
							s-16.2-5.7-17.3-14.2c-0.1,0-0.2,0.1-0.4,0.1C48.5,20,56.2,26.4,65,25.9z"/>
					</g>
				</g>
				<g>
					<defs>
						<path id="SVGID_9_" d="M63.8,7.6c-26.7,1.7-47,23-45.5,47.7c0.2,2.8,0.6,5.5,1.4,8.2c11.4,10.4,29.1,16.5,48.6,15.2
							c19.5-1.2,36.3-9.5,46.3-21.2c0.4-2.7,0.5-5.5,0.3-8.3C113.4,24.6,90.5,5.9,63.8,7.6z"/>
					</defs>
					<clipPath id="SVGID_4_">
						<use xlink:href="#SVGID_9_"  style="overflow:visible;"/>
					</clipPath>
					<path style="clip-path:url(#SVGID_4_);fill:#1A2E35;" d="M88.8,64.1l-42.6,2.7c-8.8,0.6-16.4-6.1-17-15l0,0
						c-0.6-8.8,6.1-16.4,15-17l42.6-2.7c8.8-0.6,16.4,6.1,17,15l0,0C104.3,55.9,97.6,63.5,88.8,64.1z"/>
				</g>
				<g>
					<defs>
						<path id="SVGID_11_" d="M63.8,7.6c-26.7,1.7-47,23-45.5,47.7c0.2,2.8,0.6,5.5,1.4,8.2c11.4,10.4,29.1,16.5,48.6,15.2
							c19.5-1.2,36.3-9.5,46.3-21.2c0.4-2.7,0.5-5.5,0.3-8.3C113.4,24.6,90.5,5.9,63.8,7.6z"/>
					</defs>
					<clipPath id="SVGID_5_">
						<use xlink:href="#SVGID_11_"  style="overflow:visible;"/>
					</clipPath>
					<g style="clip-path:url(#SVGID_5_);">
						<circle style="fill:#FFFFFF;" cx="47.5" cy="51.4" r="4.2"/>
						<circle style="fill:#FFFFFF;" cx="85.5" cy="49" r="4.2"/>
					</g>
				</g>
			</g>
		</g>
	</g>
</g>
</svg>
