<?xml version="1.0" encoding="utf-8"?>
<!-- Generator: Adobe Illustrator 22.0.0, SVG Export Plug-In . SVG Version: 6.00 Build 0)  -->
<svg version="1.1" id="Layer_1" xmlns="http://www.w3.org/2000/svg" xmlns:xlink="http://www.w3.org/1999/xlink" x="0px" y="0px"
	 viewBox="0 0 128 128" style="enable-background:new 0 0 128 128;" xml:space="preserve">
<circle style="fill:#2B2B2B;" cx="74" cy="74" r="51"/>
<g>
	<defs>
		<path id="SVGID_1_" d="M-31.3-21.5V74H23c0,28.2,22.8,51,51,51s51-22.8,51-51h31.5v-95.5H-31.3z"/>
	</defs>
	<clipPath id="SVGID_2_">
		<use xlink:href="#SVGID_1_"  style="overflow:visible;"/>
	</clipPath>
	<g style="clip-path:url(#SVGID_2_);">
		<path style="fill:#FF4F5B;" d="M116.3,91c-0.9,4.7-13.4,7.7-30.5,7.8c-0.1,0-0.3,0-0.4,0c-4.8,0-9.9-0.2-15.2-0.7
			S59.9,97,55.2,96.2c-0.1,0-0.3-0.1-0.4-0.1c-16.8-3-28.7-8.1-28.7-12.9c0,0.1,0,0.2,0,0.3c0,0.1,0,0.2,0,0.4
			c-0.9,11.8-0.6,23.1,0.8,33.5c0.4,3.3,1,6.6,1.7,9.7c1.7,7.8,4,14.8,6.8,21c0.1,0.3,0.3,0.6,0.4,0.8c6.8,14.3,16.6,23.5,28.1,24.4
			s22.7-6.4,31.9-19.3c0.2-0.3,0.3-0.5,0.5-0.8c3.8-5.6,7.3-12.1,10.3-19.5c1.2-3,2.3-6.1,3.3-9.3c3.2-10,5.4-21.1,6.5-32.9
			c0-0.1,0-0.2,0-0.4C116.3,91.2,116.3,91.1,116.3,91z"/>
		<path style="fill:#8B3037;" d="M54.7,96.1c0.1,0,0.3,0.1,0.4,0.1c4.7,0.8,9.8,1.5,15.1,1.9c5.3,0.5,10.4,0.7,15.2,0.7
			c0.1,0,0.3,0,0.4,0c17.1-0.1,29.7-3.1,30.5-7.8c0.3-10.5-19-20.6-43.5-22.8s-45.3,4.6-46.8,15C26,88,37.9,93.1,54.7,96.1z"/>
		<path style="fill:#1A2E35;" d="M86,99.5c-0.1-0.3-0.1-0.5-0.2-0.8c-0.1,0-0.3,0-0.4,0c0.1,0.3,0.1,0.5,0.2,0.8
			c0.4,1.7,0.6,3.5,0.5,5.4c-0.8,9-8.7,15.7-17.7,14.9c-9-0.8-15.7-8.7-14.9-17.7c0.2-1.9,0.6-3.6,1.4-5.2c0.1-0.3,0.2-0.5,0.4-0.7
			c-0.1,0-0.3-0.1-0.4-0.1c-0.1,0.3-0.2,0.5-0.3,0.7c-0.7,1.6-1.2,3.4-1.3,5.3c-0.8,9.2,6,17.3,15.3,18.1s17.3-6,18.1-15.3
			C86.6,103.1,86.5,101.3,86,99.5z"/>
		<path style="fill:#1A2E35;" d="M67,135.4c-12.5-1.1-24.1,4-31.8,12.7c0.1,0.3,0.3,0.6,0.4,0.8c7.6-8.7,19-13.7,31.3-12.7
			c12.3,1.1,22.8,8,28.7,17.8c0.2-0.3,0.3-0.5,0.5-0.8C90,143.5,79.5,136.5,67,135.4z"/>
		<path style="fill:#F7FAFC;" d="M41.3,118.7l-14.6-1.3c0.4,3.3,1,6.6,1.7,9.7l17.5,1.5L41.3,118.7z"/>
		<path style="fill:#F7FAFC;" d="M88.9,132.3l17.5,1.5c1.2-3,2.3-6.1,3.3-9.3l-14.6-1.3L88.9,132.3z"/>
		<g>
			<g>
				<path style="fill:#8B3037;" d="M25.9,83.7c0,0.1,0,0.2,0,0.2c0-0.1,0-0.2,0-0.4C26,83.6,25.9,83.6,25.9,83.7z"/>
				<path style="fill:#8B3037;" d="M116.3,91.3c0,0.1,0,0.2,0,0.4c0-0.1,0-0.2,0-0.2C116.3,91.4,116.3,91.4,116.3,91.3z"/>
				<path style="fill:#FF4F5B;" d="M26,82.9c0,0.2,0,0.4,0,0.6c0-0.1,0-0.2,0-0.3C26,83.1,26,83,26,82.9z"/>
				<path style="fill:#FF4F5B;" d="M116.4,90.7c0,0.1,0,0.2,0,0.3c0,0.1,0,0.2,0,0.3C116.3,91.1,116.3,90.9,116.4,90.7z"/>
			</g>
		</g>
		<g>
			<g>
				<circle style="fill:#1A2E35;" cx="38.6" cy="29.9" r="12"/>
				<circle style="fill:#1A2E35;" cx="113" cy="36.3" r="12"/>
			</g>
			<g>
				<g>
					<defs>
						<path id="SVGID_7_" d="M78.3,3.7c-26.6-2.3-49.9,15.8-52,40.5c-0.2,2.8-0.2,5.6,0.1,8.3C36.2,64.4,52.8,73,72.2,74.7
							c19.4,1.7,37.3-4,48.9-14.1c0.8-2.6,1.3-5.3,1.5-8.1C124.8,27.8,104.9,6,78.3,3.7z"/>
					</defs>
					<clipPath id="SVGID_3_">
						<use xlink:href="#SVGID_7_"  style="overflow:visible;"/>
					</clipPath>
					<g style="clip-path:url(#SVGID_3_);">
						<path style="fill:#FF4F5B;" d="M94.8,7.9c-0.1,0-0.2-0.1-0.4-0.1c-4.9-2.1-10.4-3.5-16.1-4S67.1,3.6,61.8,4.9
							c-0.1,0-0.2,0.1-0.4,0.1C42.5,9.7,27.9,24.9,26.3,44.2c-0.2,2.8-0.2,5.6,0.1,8.3C36.2,64.4,52.8,73,72.2,74.7
							c19.4,1.7,37.3-4,48.9-14.1c0.8-2.6,1.3-5.3,1.5-8.1C124.4,33.2,112.6,15.7,94.8,7.9z"/>
						<path style="fill:none;" d="M79.6-11.1c-9-0.8-17,5.9-17.7,14.9c0,0.4-0.1,0.7-0.1,1.1c5.2-1.3,10.8-1.7,16.5-1.2
							s11.1,1.9,16.1,4c0.1-0.4,0.1-0.7,0.1-1.1C95.3-2.4,88.6-10.3,79.6-11.1z"/>
						<path style="fill:#1A2E35;" d="M76.8,21.9c8.8,0.8,16.6-5.5,18-14.1c-0.1,0-0.2-0.1-0.4-0.1c-1.3,8.5-8.9,14.6-17.6,13.8
							c-8.7-0.7-15.1-8.1-15-16.6c-0.1,0-0.2,0.1-0.4,0.1C61.3,13.7,68,21.2,76.8,21.9z"/>
					</g>
				</g>
				<g>
					<defs>
						<path id="SVGID_9_" d="M78.3,3.7c-26.6-2.3-49.9,15.8-52,40.5c-0.2,2.8-0.2,5.6,0.1,8.3C36.2,64.4,52.8,73,72.2,74.7
							c19.4,1.7,37.3-4,48.9-14.1c0.8-2.6,1.3-5.3,1.5-8.1C124.8,27.8,104.9,6,78.3,3.7z"/>
					</defs>
					<clipPath id="SVGID_4_">
						<use xlink:href="#SVGID_9_"  style="overflow:visible;"/>
					</clipPath>
					<path style="clip-path:url(#SVGID_4_);fill:#1A2E35;" d="M94.6,63.2l-42.5-3.7c-8.8-0.8-15.3-8.5-14.6-17.3l0,0
						c0.8-8.8,8.5-15.3,17.3-14.6l42.5,3.7c8.8,0.8,15.3,8.5,14.6,17.3l0,0C111.2,57.5,103.4,64,94.6,63.2z"/>
				</g>
				<g>
					<defs>
						<path id="SVGID_11_" d="M78.3,3.7c-26.6-2.3-49.9,15.8-52,40.5c-0.2,2.8-0.2,5.6,0.1,8.3C36.2,64.4,52.8,73,72.2,74.7
							c19.4,1.7,37.3-4,48.9-14.1c0.8-2.6,1.3-5.3,1.5-8.1C124.8,27.8,104.9,6,78.3,3.7z"/>
					</defs>
					<clipPath id="SVGID_5_">
						<use xlink:href="#SVGID_11_"  style="overflow:visible;"/>
					</clipPath>
					<g style="clip-path:url(#SVGID_5_);">
						<circle style="fill:#FFFFFF;" cx="62.6" cy="38.1" r="4.2"/>
						<circle style="fill:#FFFFFF;" cx="101.8" cy="41.7" r="4.2"/>
					</g>
				</g>
			</g>
		</g>
	</g>
</g>
</svg>
