<?xml version="1.0" encoding="utf-8"?>
<!-- Generator: Adobe Illustrator 22.0.0, SVG Export Plug-In . SVG Version: 6.00 Build 0)  -->
<svg version="1.1" id="Layer_1" xmlns="http://www.w3.org/2000/svg" xmlns:xlink="http://www.w3.org/1999/xlink" x="0px" y="0px"
	 viewBox="0 0 128 128" enable-background="new 0 0 128 128" preserveAspectRatio="none">
<path fill="#FFFFFF" d="M126.9,91.8c-1.1-16-2.5-32-3.8-48c-1-13.1,2.6-36.6-13.1-41.2c-10.6-3.1-25.6-0.8-36.6-1
	c-14.4-0.3-29-1-43.3,0.6C14.3,4.1,7.6,7.6,4.4,22.9C0.6,41.6,1.1,76.6,1.1,76.6c0,3.1-0.1,8.2-0.4,11.3c0,0-1.9,20.6,3.8,29.7
	c9.9,15.5,44.9,7.5,59.8,6.5c14.7-1,51.8,1.5,61-13.2C128.9,105.2,127.3,97.9,126.9,91.8z"/>
</svg>
