<?xml version="1.0" encoding="utf-8"?>
<!-- Generator: Adobe Illustrator 22.0.0, SVG Export Plug-In . SVG Version: 6.00 Build 0)  -->
<svg version="1.1" id="Layer_1" xmlns="http://www.w3.org/2000/svg" xmlns:xlink="http://www.w3.org/1999/xlink" x="0px" y="0px"
	 viewBox="0 0 128 128" enable-background="new 0 0 128 128" preserveAspectRatio="none">
<path fill="#F0F0F0" d="M127.7,14.5c0.2-1.9,0.4-3.7,0.2-5.7c-0.4-2.9-1.4-5.7-4.2-7.3c-2.1-1.2-4.6-1.2-7-1.3
	c-0.5-0.1-0.9-0.1-1.4-0.1c-22,0-44,0-66-0.1C38.4,0,27.6,0,16.8,0C12.1,0,7.1,0,3.6,3.5C3.3,3.8,3.1,4.1,2.9,4.4
	C2.7,4.5,2.6,4.7,2.4,4.8C1.3,6,0.8,7.3,0.6,8.7c-1.3,5.1-0.3,11.7-0.2,15.9c0,3.1,0.1,6.3,0.2,9.4c0,4.7,0,9.4,0,14.1
	c0,14.2,0,28.3,0.1,42.5c0,7.4,0,14.8,0,22.2c0,0.9,0,1.9,0.1,2.8c-0.3,2.7-0.2,5.2,1.4,7.6c0.2,0.3,0.4,0.5,0.6,0.7
	c0.7,1,1.7,1.7,2.7,2.2c0,0,0.1,0,0.1,0.1c1.2,0.7,2.8,1.2,4.7,1.4c6.4,0.6,13,0.1,19.4,0.1c7.3,0,14.6,0,22,0
	c14.9,0,29.8-0.1,44.6-0.3c4.9-0.1,12.4,0.6,18.7-0.4c2-0.1,4.1-0.3,6.2-0.7c3.3-0.5,5.6-4.3,5.6-7.3c0-14-0.1-27.9-0.1-41.9
	c0.1-1.5,0.2-3.1,0.3-4.6c0.4-7.7,0.1-15.3-0.2-23c0.1-7.1,0.4-14.3,0.7-21.4c0.2-3.4,0.4-7.9,0.1-12.2
	C127.6,15.5,127.7,15,127.7,14.5z"/>
</svg>
