<?xml version="1.0" encoding="utf-8"?>
<!-- Generator: Adobe Illustrator 22.0.0, SVG Export Plug-In . SVG Version: 6.00 Build 0)  -->
<svg version="1.1" id="Layer_1" xmlns="http://www.w3.org/2000/svg" xmlns:xlink="http://www.w3.org/1999/xlink" x="0px" y="0px"
	 viewBox="0 0 512 512" style="enable-background:new 0 0 512 512;" xml:space="preserve">
<g>
	<defs>
		<path id="SVGID_1_" d="M255.4,287.5h-42c-46.1,0-83.5,37.4-83.5,83.5v5.2c0,13.2,10.7,23.9,23.9,23.9H315
			c13.2,0,23.9-10.7,23.9-23.9V371C338.9,324.9,301.5,287.5,255.4,287.5z"/>
	</defs>
	<clipPath id="SVGID_2_">
		<use xlink:href="#SVGID_1_"  style="overflow:visible;"/>
	</clipPath>
	<g style="clip-path:url(#SVGID_2_);">
		<path style="fill:#722CCE;" d="M255.4,287.5h-42c-46.1,0-83.5,37.4-83.5,83.5v5.2c0,13.2,10.7,23.9,23.9,23.9H315
			c13.2,0,23.9-10.7,23.9-23.9V371C338.9,324.9,301.5,287.5,255.4,287.5z"/>
	</g>
	<ellipse class="skin" style="clip-path:url(#SVGID_2_);" cx="300" cy="363" rx="24.7" ry="25"/>
</g>
</svg>
