<?xml version="1.0" encoding="utf-8"?>
<!-- Generator: Adobe Illustrator 22.0.0, SVG Export Plug-In . SVG Version: 6.00 Build 0)  -->
<svg version="1.1" id="Layer_1" xmlns="http://www.w3.org/2000/svg" xmlns:xlink="http://www.w3.org/1999/xlink" x="0px" y="0px"
	 viewBox="0 0 512 512" style="enable-background:new 0 0 512 512;" xml:space="preserve">
<g>
	<defs>
		<path id="SVGID_1_" d="M320.3,318.5c-15.3-18.9-38.7-31-64.9-31h-42c-23.1,0-44,9.4-59.1,24.5c-15.1,15.1-24.4,35.9-24.4,59v5.2
			c0,13.2,10.7,23.9,23.9,23.9H315c13.2,0,23.9-10.7,23.9-23.9V371C338.9,351.1,331.9,332.8,320.3,318.5z"/>
	</defs>
	<clipPath id="SVGID_2_">
		<use xlink:href="#SVGID_1_"  style="overflow:visible;"/>
	</clipPath>
	<g style="clip-path:url(#SVGID_2_);">
		<path style="fill:#FFFFFF;" d="M320.3,318.5c-15.3-18.9-38.7-31-64.9-31h-42c-23.1,0-44,9.4-59.1,24.5
			c-15.1,15.1-24.4,35.9-24.4,59v5.2c0,13.2,10.7,23.9,23.9,23.9H315c13.2,0,23.9-10.7,23.9-23.9V371
			C338.9,351.1,331.9,332.8,320.3,318.5z"/>
		<path style="fill:#F4F4F4;" d="M240.6,348.8c-34.3,0-65.2-14.2-86.3-36.7c-15.1,15.1-24.4,35.9-24.4,59v5.2
			c0,13.2,10.7,23.9,23.9,23.9H315c13.2,0,23.9-10.7,23.9-23.9V371c0-19.9-7-38.2-18.6-52.5C299.6,337.2,271.5,348.8,240.6,348.8z"
			/>
		<path style="fill:#111111;" d="M271.3,385.9l-11.4-31.6c-0.1-0.2,10.2-16.9,10.2-16.9l-31.7,3.1c0,0,13.8,13.6,13.7,14.1l-8,31.7
			c-0.1,0.5,0,1.1,0.4,1.4l12.5,10.9c0.4,0.4,1,0.4,1.5,0l12.5-11.2C271.3,387,271.5,386.4,271.3,385.9z"/>
	</g>
</g>
</svg>
