<?xml version="1.0" encoding="utf-8"?>
<!-- Generator: Adobe Illustrator 22.0.0, SVG Export Plug-In . SVG Version: 6.00 Build 0)  -->
<svg version="1.1" id="Layer_1" xmlns="http://www.w3.org/2000/svg" xmlns:xlink="http://www.w3.org/1999/xlink" x="0px" y="0px"
	 viewBox="0 0 512 512" style="enable-background:new 0 0 512 512;" xml:space="preserve">
<g>
	<path style="fill:#F7F7F7;" d="M255.4,287.5h-42c-46.1,0-83.5,37.4-83.5,83.5v5.2c0,13.2,10.7,23.9,23.9,23.9H315
		c13.2,0,23.9-10.7,23.9-23.9V371C338.9,324.9,301.5,287.5,255.4,287.5z"/>
</g>
<g>
	<g>
		<defs>
			<path id="SVGID_3_" d="M285,378c0-0.1,0-0.1,0-0.2l0,0c0-0.2,0-0.5-0.1-0.7c0-0.1,0-0.1,0-0.2c0-0.2-0.1-0.4-0.1-0.6
				c0-0.1,0-0.2,0-0.2c0-0.3-0.1-0.5-0.1-0.8c0,0,0-0.1,0-0.1c0-0.2-0.1-0.5-0.1-0.7c0-0.1,0-0.2,0-0.2c0-0.2-0.1-0.4-0.1-0.6
				c0-0.1,0-0.1,0-0.2c-0.1-0.3-0.1-0.5-0.2-0.8c0-0.1,0-0.1,0-0.2c0-0.2-0.1-0.4-0.1-0.6c0-0.1,0-0.1-0.1-0.2
				c-0.1-0.3-0.1-0.5-0.2-0.7c0,0,0,0,0,0c0,0,0,0,0,0c-0.3-1-0.6-1.9-0.9-2.8c-0.8-2.3-1.9-4.5-3.1-6.6c-0.6-1-1.2-2-1.9-3
				c-1.5-2.2-3.3-4.3-5.3-6.2c-0.3,0.1-0.4,0.1-0.5,0.1c0,0,0.2-0.1,0.5-0.1c-0.8-0.8-1.7-1.5-2.5-2.3c0,0,0,0-0.1-0.1
				c-0.1-0.1-0.1-0.1-0.2-0.2c0,0,0,0,0,0c-1.9-1.5-4-2.9-6.1-4.1c-0.6-0.3-1.4-0.3-2,0c-2.2,1.2-4.2,2.5-6.1,4.1c0,0,0,0,0,0
				c-0.1,0.1-0.1,0.1-0.2,0.2c0,0,0,0-0.1,0.1c-0.9,0.7-1.7,1.5-2.5,2.3c0.3,0.1,0.4,0.1,0.5,0.1c0,0-0.2-0.1-0.5-0.1
				c-1.9,1.9-3.7,4-5.3,6.2c-0.7,1-1.3,1.9-1.9,3c-1.2,2.1-2.2,4.3-3.1,6.6c-0.3,0.9-0.6,1.9-0.9,2.8c0,0,0,0,0,0c0,0,0,0,0,0
				c-0.1,0.2-0.1,0.5-0.2,0.7c0,0.1,0,0.1-0.1,0.2c0,0.2-0.1,0.4-0.1,0.6c0,0.1,0,0.1,0,0.2c-0.1,0.3-0.1,0.5-0.2,0.8
				c0,0.1,0,0.1,0,0.2c0,0.2-0.1,0.4-0.1,0.6c0,0.1,0,0.2,0,0.2c0,0.2-0.1,0.5-0.1,0.7c0,0,0,0.1,0,0.1c0,0.2-0.1,0.5-0.1,0.8
				c0,0.1,0,0.2,0,0.2c0,0.2-0.1,0.4-0.1,0.6c0,0.1,0,0.1,0,0.2c0,0.2-0.1,0.5-0.1,0.7l0,0c0,0.1,0,0.1,0,0.2c-0.1,0.8,0.3,1.5,1,2
				c1.2,0.7,2.4,1.4,3.7,2c0,0,0,0,0.1,0c0.1,0.1,0.2,0.1,0.4,0.2h0.5l0,0h-0.5c1.7,0.8,3.4,1.4,5.1,2c3.4,1,6.9,1.7,10.6,1.8
				c0.5,0,1,0,1.5,0s1,0,1.5,0c3.7-0.1,7.3-0.8,10.6-1.8c1.8-0.5,3.5-1.2,5.1-2h-0.5l0,0h0.5c0.1,0,0.2-0.1,0.3-0.2c0,0,0.1,0,0.1,0
				c1.3-0.6,2.5-1.3,3.7-2C284.7,379.5,285.1,378.8,285,378z M263.4,375.5c-0.3,0-0.5,0-0.8,0s-0.6,0-0.8,0c-3.6-0.1-7-0.8-10.2-2
				l0,0l0,0l0,0c0.9-3.1,2.2-5.9,3.9-8.5c0.2-0.3,0.4-0.6,0.6-0.9c1.8-2.6,4-4.8,6.5-6.7l0,0l0,0l0,0c2.5,1.9,4.7,4.2,6.5,6.7
				c0.2,0.3,0.4,0.6,0.6,0.9c1.7,2.6,3,5.5,3.9,8.5C270.5,374.7,267,375.4,263.4,375.5z"/>
		</defs>
		<clipPath id="SVGID_1_">
			<use xlink:href="#SVGID_3_"  style="overflow:visible;"/>
		</clipPath>
		<path style="clip-path:url(#SVGID_1_);fill:#6F9941;" d="M285,378c0-0.1,0-0.1,0-0.2l0,0c0-0.2,0-0.5-0.1-0.7c0-0.1,0-0.1,0-0.2
			c0-0.2-0.1-0.4-0.1-0.6c0-0.1,0-0.2,0-0.2c0-0.3-0.1-0.5-0.1-0.8c0,0,0-0.1,0-0.1c0-0.2-0.1-0.5-0.1-0.7c0-0.1,0-0.2,0-0.2
			c0-0.2-0.1-0.4-0.1-0.6c0-0.1,0-0.1,0-0.2c-0.1-0.3-0.1-0.5-0.2-0.8c0-0.1,0-0.1,0-0.2c0-0.2-0.1-0.4-0.1-0.6c0-0.1,0-0.1-0.1-0.2
			c-0.1-0.3-0.1-0.5-0.2-0.7c0,0,0,0,0,0c0,0,0,0,0,0c-0.3-1-0.6-1.9-0.9-2.8c-0.8-2.3-1.9-4.5-3.1-6.6c-0.6-1-1.2-2-1.9-3
			c-1.5-2.2-3.3-4.3-5.3-6.2c-0.3,0.1-0.4,0.1-0.5,0.1c0,0,0.2-0.1,0.5-0.1c-0.8-0.8-1.7-1.5-2.5-2.3c0,0,0,0-0.1-0.1
			c-0.1-0.1-0.1-0.1-0.2-0.2c0,0,0,0,0,0c-1.9-1.5-4-2.9-6.1-4.1c-0.6-0.3-1.4-0.3-2,0c-2.2,1.2-4.2,2.5-6.1,4.1c0,0,0,0,0,0
			c-0.1,0.1-0.1,0.1-0.2,0.2c0,0,0,0-0.1,0.1c-0.9,0.7-1.7,1.5-2.5,2.3c0.3,0.1,0.4,0.1,0.5,0.1c0,0-0.2-0.1-0.5-0.1
			c-1.9,1.9-3.7,4-5.3,6.2c-0.7,1-1.3,1.9-1.9,3c-1.2,2.1-2.2,4.3-3.1,6.6c-0.3,0.9-0.6,1.9-0.9,2.8c0,0,0,0,0,0c0,0,0,0,0,0
			c-0.1,0.2-0.1,0.5-0.2,0.7c0,0.1,0,0.1-0.1,0.2c0,0.2-0.1,0.4-0.1,0.6c0,0.1,0,0.1,0,0.2c-0.1,0.3-0.1,0.5-0.2,0.8
			c0,0.1,0,0.1,0,0.2c0,0.2-0.1,0.4-0.1,0.6c0,0.1,0,0.2,0,0.2c0,0.2-0.1,0.5-0.1,0.7c0,0,0,0.1,0,0.1c0,0.2-0.1,0.5-0.1,0.8
			c0,0.1,0,0.2,0,0.2c0,0.2-0.1,0.4-0.1,0.6c0,0.1,0,0.1,0,0.2c0,0.2-0.1,0.5-0.1,0.7l0,0c0,0.1,0,0.1,0,0.2c-0.1,0.8,0.3,1.5,1,2
			c1.2,0.7,2.4,1.4,3.7,2c0,0,0,0,0.1,0c0.1,0.1,0.2,0.1,0.4,0.2h0.5l0,0h-0.5c1.7,0.8,3.4,1.4,5.1,2c3.4,1,6.9,1.7,10.6,1.8
			c0.5,0,1,0,1.5,0s1,0,1.5,0c3.7-0.1,7.3-0.8,10.6-1.8c1.8-0.5,3.5-1.2,5.1-2h-0.5l0,0h0.5c0.1,0,0.2-0.1,0.3-0.2c0,0,0.1,0,0.1,0
			c1.3-0.6,2.5-1.3,3.7-2C284.7,379.5,285.1,378.8,285,378z M263.4,375.5c-0.3,0-0.5,0-0.8,0s-0.6,0-0.8,0c-3.6-0.1-7-0.8-10.2-2
			l0,0l0,0l0,0c0.9-3.1,2.2-5.9,3.9-8.5c0.2-0.3,0.4-0.6,0.6-0.9c1.8-2.6,4-4.8,6.5-6.7l0,0l0,0l0,0c2.5,1.9,4.7,4.2,6.5,6.7
			c0.2,0.3,0.4,0.6,0.6,0.9c1.7,2.6,3,5.5,3.9,8.5C270.5,374.7,267,375.4,263.4,375.5z"/>
	</g>
</g>
</svg>
