<?xml version="1.0" encoding="utf-8"?>
<!-- Generator: Adobe Illustrator 22.0.0, SVG Export Plug-In . SVG Version: 6.00 Build 0)  -->
<svg version="1.1" id="Layer_1" xmlns="http://www.w3.org/2000/svg" xmlns:xlink="http://www.w3.org/1999/xlink" x="0px" y="0px"
	 viewBox="0 0 512 512" style="enable-background:new 0 0 512 512;" xml:space="preserve">
<g>
	<path style="fill:#E5E5E5;" d="M475.8,223.8c0-43.7-15.3-83.8-40.8-115.3c-33.6-41.5-85-68-142.5-68h-92.2
		c-50.7,0-96.6,20.6-129.8,53.9c-33.1,33.2-53.5,78.9-53.5,129.5c0,0,0.2,42.8,0.2,51.2c0,39.8,32.3,72,72,72h314.7
		c39.8,0,72-32.3,72-72C475.8,266.4,475.8,223.8,475.8,223.8z"/>
	<path style="fill:#383838;" d="M174.4,374.4H76.7c-21,0-38.1,17-38.1,38.1v21c0,21,17,38.1,38.1,38.1h147.3
		c13.1,0,23.8-10.7,23.8-23.8C247.7,407.3,214.9,374.4,174.4,374.4z"/>
	<path style="fill:#383838;" d="M421.8,374.4h-97.7c-21,0-38.1,17-38.1,38.1v21c0,21,17,38.1,38.1,38.1h147.3
		c13.1,0,23.8-10.7,23.8-23.8C495.2,407.3,462.4,374.4,421.8,374.4z"/>
</g>
</svg>
