<?xml version="1.0" encoding="utf-8"?>
<!-- Generator: Adobe Illustrator 22.0.0, SVG Export Plug-In . SVG Version: 6.00 Build 0)  -->
<svg version="1.1" id="Layer_1" xmlns="http://www.w3.org/2000/svg" xmlns:xlink="http://www.w3.org/1999/xlink" x="0px" y="0px"
	 viewBox="0 0 512 512" style="enable-background:new 0 0 512 512;" xml:space="preserve">
  <g fill="#ff0000">
    <path
      class="shoe"
      d="M201.7,439.6h-44.6c-9.6,0-17.4,7.8-17.4,17.4v9.6c0,9.6,7.8,17.4,17.4,17.4h67.2c6,0,10.9-4.9,10.9-10.9
		C235.2,454.6,220.2,439.6,201.7,439.6z"
    />
    <path
      class="shoe"
      d="M314.6,439.6H270c-9.6,0-17.4,7.8-17.4,17.4v9.6c0,9.6,7.8,17.4,17.4,17.4h67.2c6,0,10.9-4.9,10.9-10.9
		C348.1,454.6,333.1,439.6,314.6,439.6z"
    />
  </g>
</svg>
