<?xml version="1.0" encoding="utf-8"?>
<!-- Generator: Adobe Illustrator 22.0.0, SVG Export Plug-In . SVG Version: 6.00 Build 0)  -->
<svg version="1.1" id="Layer_1" xmlns="http://www.w3.org/2000/svg" xmlns:xlink="http://www.w3.org/1999/xlink" x="0px" y="0px"
	 viewBox="0 0 512 512" style="enable-background:new 0 0 512 512;" xml:space="preserve">
<path style="fill:#E5E5E5;" d="M475.8,223.8c0-43.7-15.3-83.8-40.8-115.3c-33.6-41.5-85-68-142.5-68h-92.2
	c-50.7,0-96.6,20.6-129.8,53.9c-33.1,33.2-53.5,78.9-53.5,129.5c0,0,0.2,42.8,0.2,51.2c0,39.8,32.3,72,72,72h314.7
	c39.8,0,72-32.3,72-72C475.8,266.4,475.8,223.8,475.8,223.8z"/>
<g>
	<defs>
		<path id="SVGID_6_" d="M174.5,374.4H76.7c-21,0-38.1,17.1-38.1,38.1v21c0,21,17.1,38.1,38.1,38.1h147.3
			c13.2,0,23.9-10.7,23.9-23.9C248,407.3,215.1,374.4,174.5,374.4z"/>
	</defs>
	<clipPath id="SVGID_1_">
		<use xlink:href="#SVGID_6_"  style="overflow:visible;"/>
	</clipPath>
	<path style="clip-path:url(#SVGID_1_);" d="M174.5,374.4H76.7c-21,0-38.1,17.1-38.1,38.1v21c0,21,17.1,38.1,38.1,38.1h147.3
		c13.2,0,23.9-10.7,23.9-23.9C248,407.3,215.1,374.4,174.5,374.4z"/>
	<g style="clip-path:url(#SVGID_1_);">
		<polygon style="fill:#FF507E;" points="73.8,476 18,476 78,370.2 133.7,370.2 		"/>
		<polygon style="fill:#3DC463;" points="139.6,476 83.8,476 143.7,370.2 199.5,370.2 		"/>
		<polygon style="fill:#3E8CC1;" points="205.3,476 149.6,476 209.5,370.2 265.3,370.2 		"/>
	</g>
</g>
<g>
	<defs>
		<path id="SVGID_3_" d="M421.8,374.4H324c-21,0-38.1,17.1-38.1,38.1v21c0,21,17.1,38.1,38.1,38.1h147.3c13.2,0,23.9-10.7,23.9-23.9
			C495.2,407.3,462.3,374.4,421.8,374.4z"/>
	</defs>
	<clipPath id="SVGID_2_">
		<use xlink:href="#SVGID_3_"  style="overflow:visible;"/>
	</clipPath>
	<path style="clip-path:url(#SVGID_2_);" d="M421.8,374.4H324c-21,0-38.1,17.1-38.1,38.1v21c0,21,17.1,38.1,38.1,38.1h147.3
		c13.2,0,23.9-10.7,23.9-23.9C495.2,407.3,462.3,374.4,421.8,374.4z"/>
	<g style="clip-path:url(#SVGID_2_);">
		<polygon style="fill:#FF507E;" points="321,476 265.3,476 325.2,370.2 381,370.2 		"/>
		<polygon style="fill:#3DC463;" points="386.8,476 331,476 391,370.2 446.8,370.2 		"/>
		<polygon style="fill:#3E8CC1;" points="452.6,476 396.8,476 456.7,370.2 512.5,370.2 		"/>
	</g>
</g>
</svg>
