<?xml version="1.0" encoding="utf-8"?>
<!-- Generator: Adobe Illustrator 22.0.0, SVG Export Plug-In . SVG Version: 6.00 Build 0)  -->
<svg version="1.1" id="Layer_1" xmlns="http://www.w3.org/2000/svg" xmlns:xlink="http://www.w3.org/1999/xlink" x="0px" y="0px"
	 viewBox="0 0 1370 322" style="enable-background:new 0 0 1370 322;" xml:space="preserve">
<style type="text/css">
	.st0{fill:#1A2E35;}
	.st1{fill:#375A64;}
	.st2{fill:none;stroke:#1A2E35;stroke-miterlimit:10;}
</style>
<rect x="709" y="174.1" class="st0" width="153.4" height="153.4"/>
<path class="st1" d="M-812.2,151L-812.2,151c0-13.8,11.6-24.9,25.7-24.9h2127.9c14.2,0,25.7,11.2,25.7,24.9l0,0
	c0,13.8-11.6,24.9-25.7,24.9H-786.5C-800.7,175.9-812.1,164.8-812.2,151z"/>
<path class="st2" d="M-806.7,151.1L-806.7,151.1c0-11.2,9.4-20.2,20.9-20.2h2127.7c11.6,0,20.9,9.1,20.9,20.2l0,0
	c0,11.2-9.4,20.2-20.9,20.2H-785.7C-797.2,171.3-806.6,162.3-806.7,151.1z"/>
<circle class="st0" cx="9.8" cy="151.1" r="12.9"/>
<circle class="st0" cx="-111.7" cy="151.1" r="12.9"/>
<circle class="st0" cx="-233.2" cy="151.1" r="12.9"/>
<circle class="st0" cx="-352.2" cy="151.1" r="12.9"/>
<circle class="st0" cx="-473.7" cy="151.1" r="12.9"/>
<circle class="st0" cx="-595.5" cy="151.1" r="12.9"/>
<circle class="st0" cx="-706.1" cy="151.1" r="12.9"/>
<circle class="st0" cx="728.2" cy="151.1" r="12.9"/>
<circle class="st0" cx="606.7" cy="151.1" r="12.9"/>
<circle class="st0" cx="485.2" cy="151.1" r="12.9"/>
<circle class="st0" cx="363.7" cy="151.1" r="12.9"/>
<circle class="st0" cx="242.2" cy="151.1" r="12.9"/>
<circle class="st0" cx="120.4" cy="151.1" r="12.9"/>
<circle class="st0" cx="1336" cy="151.1" r="12.9"/>
<circle class="st0" cx="1214.5" cy="151.1" r="12.9"/>
<circle class="st0" cx="1093" cy="151.1" r="12.9"/>
<circle class="st0" cx="971.5" cy="151.1" r="12.9"/>
<circle class="st0" cx="850" cy="151.1" r="12.9"/>
</svg>
