<?xml version="1.0" encoding="utf-8"?>
<!-- Generator: Adobe Illustrator 22.0.0, SVG Export Plug-In . SVG Version: 6.00 Build 0)  -->
<svg version="1.1" id="Layer_1" xmlns="http://www.w3.org/2000/svg" xmlns:xlink="http://www.w3.org/1999/xlink" x="0px" y="0px"
	 viewBox="0 0 512 512" style="enable-background:new 0 0 512 512;" xml:space="preserve">
<g>
	<defs>
		<path id="SORT_1_" d="M145.9,420.1c6.1,4.4,13.7,7,21.9,7h72.5c1.6,0,3-0.8,3.9-2.1l0,0c1.7-2.5,5.2-2.8,7.3-0.6l1.2,1.3
			c0.9,0.9,2.1,1.4,3.4,1.4H301c22.7,0,40.4-20.1,37.1-42.6c-4.7-32-32.3-56.6-65.7-56.6h-76.1c-33.4,0-61,24.6-65.7,56.6
			C128.6,398.9,135.1,412.3,145.9,420.1"/>
	</defs>
	<defs>
		<path id="SORT_15_" d="M145.9,420.1c6.1,4.4,13.7,7,21.9,7h72.5c1.6,0,3-0.8,3.9-2.1l0,0c1.7-2.5,5.2-2.8,7.3-0.6l1.2,1.3
			c0.9,0.9,2.1,1.4,3.4,1.4H301c22.7,0,40.4-20.1,37.1-42.6c-4.7-32-32.3-56.6-65.7-56.6h-76.1c-33.4,0-61,24.6-65.7,56.6
			C128.6,398.9,135.1,412.3,145.9,420.1"/>
	</defs>
	<clipPath id="SORT_2_">
		<use xlink:href="#SORT_1_"  style="overflow:visible;"/>
	</clipPath>
	<clipPath id="SORT_3_" style="clip-path:url(#SORT_2_);">
		<use xlink:href="#SORT_15_"  style="overflow:visible;"/>
	</clipPath>
	<g style="clip-path:url(#SORT_3_);">
		<defs>
			<path id="SORT_4_" d="M145.9,420.1c6.1,4.4,13.7,7,21.9,7h72.5c1.6,0,3-0.8,3.9-2.1l0,0c1.7-2.5,5.2-2.8,7.3-0.6l1.2,1.3
				c0.9,0.9,2.1,1.4,3.4,1.4H301c22.7,0,40.4-20.1,37.1-42.6c-4.7-32-32.3-56.6-65.7-56.6h-76.1c-33.4,0-61,24.6-65.7,56.6
				C128.6,398.9,135.1,412.3,145.9,420.1"/>
		</defs>
		<clipPath id="SORT_5_">
			<use xlink:href="#SORT_4_"  style="overflow:visible;"/>
		</clipPath>
		<g style="clip-path:url(#SORT_5_);">
			<path d="M145.9,420.1c6.1,4.4,13.7,7,21.9,7h72.5c1.6,0,3-0.8,3.9-2.1l0,0c1.7-2.5,5.2-2.8,7.3-0.6l1.2,1.3
				c0.9,0.9,2.1,1.4,3.4,1.4H301c22.7,0,40.4-20.1,37.1-42.6c-4.7-32-32.3-56.6-65.7-56.6h-76.1c-33.4,0-61,24.6-65.7,56.6
				C128.6,398.9,135.1,412.3,145.9,420.1"/>
		</g>
	</g>
	<g style="clip-path:url(#SORT_3_);">
		<path style="fill:#565656;" d="M143.7,421.9L143,418l2-0.3c15.8-2.6,27.2-16.1,27.2-32c0-15.6-11.7-29.4-27.1-31.9l-2-0.3l0.7-3.9
			l2,0.3c17.7,2.9,30.5,18,30.5,35.9c0,17.9-12.9,33.1-30.6,36L143.7,421.9z"/>
	</g>
	<g style="clip-path:url(#SORT_3_);">
		<path style="fill:#565656;" d="M345.8,421.6c-17.7-2.9-30.5-18-30.5-35.9c0-17.9,12.9-33.1,30.6-36l0.7,3.9
			c-15.8,2.6-27.2,16.1-27.2,32c0,15.6,11.7,29.4,27.1,31.9L345.8,421.6z"/>
	</g>
	<g style="clip-path:url(#SORT_3_);">
		<defs>
			<path id="SORT_9_" d="M145.9,420.1c6.1,4.4,13.7,7,21.9,7h72.5c1.6,0,3-0.8,3.9-2.1l0,0c1.7-2.5,5.2-2.8,7.3-0.6l1.2,1.3
				c0.9,0.9,2.1,1.4,3.4,1.4H301c22.7,0,40.4-20.1,37.1-42.6c-4.7-32-32.3-56.6-65.7-56.6h-76.1c-33.4,0-61,24.6-65.7,56.6
				C128.6,398.9,135.1,412.3,145.9,420.1"/>
		</defs>
		<clipPath id="SORT_6_">
			<use xlink:href="#SORT_9_"  style="overflow:visible;"/>
		</clipPath>
	</g>
	<g style="clip-path:url(#SORT_3_);">
		<defs>
			<path id="SORT_11_" d="M145.9,420.1c6.1,4.4,13.7,7,21.9,7h72.5c1.6,0,3-0.8,3.9-2.1l0,0c1.7-2.5,5.2-2.8,7.3-0.6l1.2,1.3
				c0.9,0.9,2.1,1.4,3.4,1.4H301c22.7,0,40.4-20.1,37.1-42.6c-4.7-32-32.3-56.6-65.7-56.6h-76.1c-33.4,0-61,24.6-65.7,56.6
				C128.6,398.9,135.1,412.3,145.9,420.1"/>
		</defs>
		<clipPath id="SORT_8_">
			<use xlink:href="#SORT_11_"  style="overflow:visible;"/>
		</clipPath>
	</g>
</g>
</svg>
