<svg xmlns="http://www.w3.org/2000/svg" viewBox="0 0 512 512"><style>.st8{display:inline;opacity:.65;fill:#000}</style><g id="Glasses"><path opacity=".1" fill="#383838" d="M286.7 262.5h26.9v4.3h-26.9z"/><path class="st8" d="M347.6 242.9h-14.3c-10.8 0-19.6 8.8-19.6 19.6v14.3c0 10.8 8.8 19.6 19.6 19.6h14.3c10.8 0 19.6-8.8 19.6-19.6v-14.3c0-10.8-8.8-19.6-19.6-19.6zm17.4 33.9c0 9.6-7.8 17.5-17.5 17.5h-14.3c-9.6 0-17.5-7.8-17.5-17.5v-14.3c0-9.6 7.8-17.5 17.5-17.5h14.3c9.6 0 17.5 7.8 17.5 17.5v14.3zM267.1 242.9h-14.3c-10.8 0-19.6 8.8-19.6 19.6v14.3c0 10.8 8.8 19.6 19.6 19.6h14.3c10.8 0 19.6-8.8 19.6-19.6v-14.3c0-10.8-8.8-19.6-19.6-19.6zm17.4 33.9c0 9.6-7.8 17.5-17.5 17.5h-14.3c-9.6 0-17.5-7.8-17.5-17.5v-14.3c0-9.6 7.8-17.5 17.5-17.5H267c9.6 0 17.5 7.8 17.5 17.5v14.3z"/></g></svg>