<?xml version="1.0" encoding="utf-8"?>
<!-- Generator: Adobe Illustrator 22.0.0, SVG Export Plug-In . SVG Version: 6.00 Build 0)  -->
<svg version="1.1" baseProfile="tiny" id="Layer_1" xmlns="http://www.w3.org/2000/svg" xmlns:xlink="http://www.w3.org/1999/xlink"
	 x="0px" y="0px" viewBox="0 0 512 512" xml:space="preserve">
<g>
	<rect x="139.3" y="254.2" width="13.4" height="6.7"/>
	<path d="M152.7,247.5v6.7h39.7v6.7h6.7v6.7h6.7v6.7h6.7v6.7h6.7v6.7h53.1v-6.7h7.3v-6.7h6.1v-6.7h13.4v6.7h6.7v6.7h6.7v6.7h53.1
		v-6.7h7.3v-6.7h6.7v-6.7h6.1V261v-6.7v-6.7H152.7z M239.4,274.4h-6.7v-6.7H226v6.7h-6.7v-6.7h-6.7V261h-6.7v-6.7h6.7v6.7h6.7v-6.7
		h6.7v6.7h6.7v6.7h6.7V274.4z M312.7,267.7V261H306v-6.7h6.7v6.7h6.7v6.7h6.7v6.7h-6.7v-6.7H312.7z M339.6,261v6.7h6.7v6.7h-6.7
		v-6.7h-6.7V261h-6.7v-6.7h6.7v6.7H339.6z"/>
	<rect x="219.3" y="261" width="6.7" height="6.7"/>
</g>
</svg>
