<?xml version="1.0" encoding="utf-8"?>
<!-- Generator: Adobe Illustrator 22.0.0, SVG Export Plug-In . SVG Version: 6.00 Build 0)  -->
<svg version="1.0" id="Layer_1" xmlns="http://www.w3.org/2000/svg" xmlns:xlink="http://www.w3.org/1999/xlink" x="0px" y="0px"
	 viewBox="0 0 271 460" enable-background="new 0 0 271 460" xml:space="preserve">
<path fill="#FF4F5B" d="M254.5,226.2c-1.2,12.5-33.3,23.1-78,27.2c-0.3,0-0.7,0.1-1,0.1c-12.5,1.1-25.9,1.7-39.9,1.7
	s-27.4-0.6-39.9-1.7c-0.3,0-0.7-0.1-1-0.1c-44.7-4.1-76.9-14.7-78-27.2c0,0.3,0,0.6,0,0.9c0,0.3,0,0.6,0,1c0.2,31,3.6,60.6,9.6,87.5
	c1.9,8.6,4.1,17,6.6,25c6.1,19.9,13.7,37.9,22.5,53.3c0.4,0.7,0.8,1.4,1.2,2.1c21,35.8,48.7,57.6,79,57.6s58-21.8,79-57.6
	c0.4-0.7,0.8-1.4,1.2-2.1c8.8-15.5,16.4-33.4,22.5-53.3c2.5-8,4.7-16.4,6.6-25c6-26.9,9.4-56.4,9.6-87.5c0-0.3,0-0.6,0-1
	C254.5,226.8,254.5,226.5,254.5,226.2z"/>
<path fill="#8B3037" d="M94.6,253.4c0.3,0,0.7,0.1,1,0.1c12.5,1.1,25.9,1.7,39.9,1.7s27.4-0.6,39.9-1.7c0.3,0,0.7-0.1,1-0.1
	c44.7-4.1,76.9-14.7,78-27.2c-1.5-27.6-54.2-49.7-119-49.7S18,198.6,16.5,226.2C17.7,238.7,49.8,249.3,94.6,253.4z"/>
<path fill="#1A2E35" d="M177.2,255.4c-0.2-0.7-0.5-1.3-0.7-2c-0.3,0-0.7,0.1-1,0.1c0.3,0.7,0.5,1.3,0.8,2c1.5,4.4,2.4,9.1,2.4,14
	c0,23.8-19.3,43-43,43s-43-19.3-43-43c0-4.9,0.8-9.6,2.4-14c0.2-0.7,0.5-1.4,0.8-2c-0.3,0-0.7-0.1-1-0.1c-0.3,0.7-0.5,1.3-0.7,2
	c-1.5,4.4-2.3,9.2-2.3,14.1c0,24.3,19.7,44,44,44s44-19.7,44-44C179.5,264.6,178.7,259.8,177.2,255.4z"/>
<path fill="#1A2E35" d="M135.5,353.5c-32.9,0-62,15.9-80.3,40.3c0.4,0.7,0.8,1.4,1.2,2.1c17.8-24.4,46.6-40.2,79-40.2
	s61.3,15.8,79,40.2c0.4-0.7,0.8-1.4,1.2-2.1C197.5,369.4,168.4,353.5,135.5,353.5z"/>
<path fill="#F7FAFC" d="M64.5,315.5H26.1c1.9,8.6,4.1,17,6.6,25h46.2L64.5,315.5z"/>
<path fill="#F7FAFC" d="M192.1,340.5h46.2c2.5-8,4.7-16.4,6.6-25h-38.4L192.1,340.5z"/>
<g>
	<g>
		<path fill="#8B3037" d="M16.5,227.4c0,0.2,0,0.4,0,0.6c0-0.3,0-0.6,0-1C16.5,227.2,16.5,227.3,16.5,227.4z"/>
		<path fill="#8B3037" d="M254.5,227c0,0.3,0,0.6,0,1c0-0.2,0-0.4,0-0.6C254.5,227.3,254.5,227.2,254.5,227z"/>
		<path fill="#FF4F5B" d="M16.5,225.5c0,0.5,0,1,0,1.5c0-0.3,0-0.6,0-0.9C16.5,226,16.5,225.7,16.5,225.5z"/>
		<path fill="#FF4F5B" d="M254.5,225.5c0,0.2,0,0.5,0,0.7c0,0.3,0,0.6,0,0.9C254.5,226.5,254.5,226,254.5,225.5z"/>
	</g>
</g>
<g>
	<g>
		<circle fill="#1A2E35" cx="37.5" cy="84" r="31.5"/>
		<circle fill="#1A2E35" cx="233.5" cy="84" r="31.5"/>
	</g>
	<g>
		<defs>
			<path id="SVGID_1_" d="M135.5,6.5C65.4,6.5,8.5,59.1,8.5,124c0,7.4,0.7,14.6,2.2,21.6c28.2,29,73.6,47.9,124.8,47.9
				s96.6-18.8,124.8-47.9c1.4-7,2.2-14.2,2.2-21.6C262.5,59.1,205.6,6.5,135.5,6.5z"/>
		</defs>
		<clipPath id="SVGID_2_">
			<use xlink:href="#SVGID_1_"  overflow="visible"/>
		</clipPath>
		<g clip-path="url(#SVGID_2_)">
			<path fill="#FF4F5B" d="M179.4,13.7c-0.3-0.1-0.6-0.2-1-0.3c-13.4-4.5-27.9-6.9-42.9-6.9S106,8.9,92.6,13.4
				c-0.3,0.1-0.6,0.2-1,0.3C43.1,30.2,8.5,73.4,8.5,124c0,7.4,0.7,14.6,2.2,21.6c28.2,29,73.6,47.9,124.8,47.9s96.6-18.8,124.8-47.9
				c1.4-7,2.2-14.2,2.2-21.6C262.5,73.4,227.9,30.2,179.4,13.7z"/>
			<path fill="none" d="M135.5-32.5c-23.8,0-43,19.3-43,43c0,1,0,1.9,0.1,2.9c13.4-4.5,27.9-6.9,42.9-6.9s29.5,2.4,42.9,6.9
				c0.1-1,0.1-1.9,0.1-2.9C178.5-13.3,159.3-32.5,135.5-32.5z"/>
			<path fill="#1A2E35" d="M135.5,54.5c23.2,0,42.2-18,43.9-40.8c-0.3-0.1-0.6-0.2-1-0.3c-1.5,22.4-20.1,40.1-42.9,40.1
				S94.1,35.8,92.6,13.4c-0.3,0.1-0.6,0.2-1,0.3C93.3,36.5,112.3,54.5,135.5,54.5z"/>
		</g>
		<path clip-path="url(#SVGID_2_)" fill="#1A2E35" d="M191.5,158.5h-112c-23.2,0-42-18.8-42-42v0c0-23.2,18.8-42,42-42h112
			c23.2,0,42,18.8,42,42v0C233.5,139.7,214.7,158.5,191.5,158.5z"/>
		<g clip-path="url(#SVGID_2_)">
			<circle fill="#FFFFFF" cx="85.5" cy="118.5" r="11"/>
			<circle fill="#FFFFFF" cx="185.5" cy="118.5" r="11"/>
		</g>
	</g>
</g>
</svg>
