<?xml version="1.0" encoding="utf-8"?>
<!-- Generator: Adobe Illustrator 22.0.0, SVG Export Plug-In . SVG Version: 6.00 Build 0)  -->
<svg version="1.2" baseProfile="tiny" id="Layer_1" xmlns="http://www.w3.org/2000/svg" xmlns:xlink="http://www.w3.org/1999/xlink"
	 x="0px" y="0px" viewBox="0 0 3840 414" xml:space="preserve">
<rect x="750" y="-0.2" fill="#132023" width="2222" height="415"/>
<g>
	<path fill="#1A2E35" d="M1201,20.8h-104c-8.8,0-16,7.2-16,16v0c0,8.8,7.2,16,16,16h104c8.8,0,16-7.2,16-16v0
		C1217,28,1209.8,20.8,1201,20.8z"/>
	<path fill="#1A2E35" d="M1359,20.8h-104c-8.8,0-16,7.2-16,16v0c0,8.8,7.2,16,16,16h104c8.8,0,16-7.2,16-16v0
		C1375,28,1367.8,20.8,1359,20.8z"/>
	<path fill="#1A2E35" d="M1517,20.8h-104c-8.8,0-16,7.2-16,16v0c0,8.8,7.2,16,16,16h104c8.8,0,16-7.2,16-16v0
		C1533,28,1525.8,20.8,1517,20.8z"/>
	<path fill="#1A2E35" d="M1675,20.8h-104c-8.8,0-16,7.2-16,16v0c0,8.8,7.2,16,16,16h104c8.8,0,16-7.2,16-16v0
		C1691,28,1683.8,20.8,1675,20.8z"/>
	<path fill="#1A2E35" d="M1833,20.8h-104c-8.8,0-16,7.2-16,16v0c0,8.8,7.2,16,16,16h104c8.8,0,16-7.2,16-16v0
		C1849,28,1841.8,20.8,1833,20.8z"/>
	<path fill="#1A2E35" d="M1991,20.8h-104c-8.8,0-16,7.2-16,16v0c0,8.8,7.2,16,16,16h104c8.8,0,16-7.2,16-16v0
		C2007,28,1999.8,20.8,1991,20.8z"/>
	<path fill="#1A2E35" d="M2149,20.8h-104c-8.8,0-16,7.2-16,16v0c0,8.8,7.2,16,16,16h104c8.8,0,16-7.2,16-16v0
		C2165,28,2157.8,20.8,2149,20.8z"/>
	<path fill="#1A2E35" d="M2307,20.8h-104c-8.8,0-16,7.2-16,16v0c0,8.8,7.2,16,16,16h104c8.8,0,16-7.2,16-16v0
		C2323,28,2315.8,20.8,2307,20.8z"/>
	<path fill="#1A2E35" d="M2465,20.8h-104c-8.8,0-16,7.2-16,16v0c0,8.8,7.2,16,16,16h104c8.8,0,16-7.2,16-16v0
		C2481,28,2473.8,20.8,2465,20.8z"/>
	<path fill="#1A2E35" d="M2623,20.8h-104c-8.8,0-16,7.2-16,16v0c0,8.8,7.2,16,16,16h104c8.8,0,16-7.2,16-16v0
		C2639,28,2631.8,20.8,2623,20.8z"/>
	<path fill="#1A2E35" d="M2781,20.8h-104c-8.8,0-16,7.2-16,16v0c0,8.8,7.2,16,16,16h104c8.8,0,16-7.2,16-16v0
		C2797,28,2789.8,20.8,2781,20.8z"/>
	<path fill="#1A2E35" d="M2939,20.8h-104c-8.8,0-16,7.2-16,16v0c0,8.8,7.2,16,16,16h104c8.8,0,16-7.2,16-16v0
		C2955,28,2947.8,20.8,2939,20.8z"/>
	<path fill="#1A2E35" d="M885,20.8H781c-8.8,0-16,7.2-16,16v0c0,8.8,7.2,16,16,16h104c8.8,0,16-7.2,16-16v0
		C901,28,893.8,20.8,885,20.8z"/>
	<path fill="#1A2E35" d="M1043,20.8H939c-8.8,0-16,7.2-16,16v0c0,8.8,7.2,16,16,16h104c8.8,0,16-7.2,16-16v0
		C1059,28,1051.8,20.8,1043,20.8z"/>
</g>
</svg>
