<?xml version="1.0" encoding="utf-8"?>
<!-- Generator: Adobe Illustrator 22.0.0, SVG Export Plug-In . SVG Version: 6.00 Build 0)  -->
<svg version="1.1" id="Layer_1" xmlns="http://www.w3.org/2000/svg" xmlns:xlink="http://www.w3.org/1999/xlink" x="0px" y="0px"
	 viewBox="0 0 3840 414" style="enable-background:new 0 0 3840 414;" xml:space="preserve">
<style type="text/css">
	.st0{fill:#132023;}
	.st1{fill:#1A2E35;}
</style>
<rect y="-0.2" class="st0" width="3840" height="415"/>
<g>
	<path class="st1" d="M1201,20.8h-104c-8.8,0-16,7.2-16,16l0,0c0,8.8,7.2,16,16,16h104c8.8,0,16-7.2,16-16l0,0
		C1217,28,1209.8,20.8,1201,20.8z"/>
	<path class="st1" d="M1359,20.8h-104c-8.8,0-16,7.2-16,16l0,0c0,8.8,7.2,16,16,16h104c8.8,0,16-7.2,16-16l0,0
		C1375,28,1367.8,20.8,1359,20.8z"/>
	<path class="st1" d="M1517,20.8h-104c-8.8,0-16,7.2-16,16l0,0c0,8.8,7.2,16,16,16h104c8.8,0,16-7.2,16-16l0,0
		C1533,28,1525.8,20.8,1517,20.8z"/>
	<path class="st1" d="M1675,20.8h-104c-8.8,0-16,7.2-16,16l0,0c0,8.8,7.2,16,16,16h104c8.8,0,16-7.2,16-16l0,0
		C1691,28,1683.8,20.8,1675,20.8z"/>
	<path class="st1" d="M1833,20.8h-104c-8.8,0-16,7.2-16,16l0,0c0,8.8,7.2,16,16,16h104c8.8,0,16-7.2,16-16l0,0
		C1849,28,1841.8,20.8,1833,20.8z"/>
	<path class="st1" d="M1991,20.8h-104c-8.8,0-16,7.2-16,16l0,0c0,8.8,7.2,16,16,16h104c8.8,0,16-7.2,16-16l0,0
		C2007,28,1999.8,20.8,1991,20.8z"/>
	<path class="st1" d="M2149,20.8h-104c-8.8,0-16,7.2-16,16l0,0c0,8.8,7.2,16,16,16h104c8.8,0,16-7.2,16-16l0,0
		C2165,28,2157.8,20.8,2149,20.8z"/>
	<path class="st1" d="M2307,20.8h-104c-8.8,0-16,7.2-16,16l0,0c0,8.8,7.2,16,16,16h104c8.8,0,16-7.2,16-16l0,0
		C2323,28,2315.8,20.8,2307,20.8z"/>
	<path class="st1" d="M2465,20.8h-104c-8.8,0-16,7.2-16,16l0,0c0,8.8,7.2,16,16,16h104c8.8,0,16-7.2,16-16l0,0
		C2481,28,2473.8,20.8,2465,20.8z"/>
	<path class="st1" d="M2623,20.8h-104c-8.8,0-16,7.2-16,16l0,0c0,8.8,7.2,16,16,16h104c8.8,0,16-7.2,16-16l0,0
		C2639,28,2631.8,20.8,2623,20.8z"/>
	<path class="st1" d="M2781,20.8h-104c-8.8,0-16,7.2-16,16l0,0c0,8.8,7.2,16,16,16h104c8.8,0,16-7.2,16-16l0,0
		C2797,28,2789.8,20.8,2781,20.8z"/>
	<path class="st1" d="M2939,20.8h-104c-8.8,0-16,7.2-16,16l0,0c0,8.8,7.2,16,16,16h104c8.8,0,16-7.2,16-16l0,0
		C2955,28,2947.8,20.8,2939,20.8z"/>
	<path class="st1" d="M885,20.8H781c-8.8,0-16,7.2-16,16l0,0c0,8.8,7.2,16,16,16h104c8.8,0,16-7.2,16-16l0,0
		C901,28,893.8,20.8,885,20.8z"/>
	<path class="st1" d="M1043,20.8H939c-8.8,0-16,7.2-16,16l0,0c0,8.8,7.2,16,16,16h104c8.8,0,16-7.2,16-16l0,0
		C1059,28,1051.8,20.8,1043,20.8z"/>
</g>
<path class="st1" d="M95,20.8H-9c-8.8,0-16,7.2-16,16l0,0c0,8.8,7.2,16,16,16H95c8.8,0,16-7.2,16-16l0,0C111,28,103.8,20.8,95,20.8z
	"/>
<path class="st1" d="M253,20.8H149c-8.8,0-16,7.2-16,16l0,0c0,8.8,7.2,16,16,16h104c8.8,0,16-7.2,16-16l0,0
	C269,28,261.8,20.8,253,20.8z"/>
<path class="st1" d="M411,20.8H307c-8.8,0-16,7.2-16,16l0,0c0,8.8,7.2,16,16,16h104c8.8,0,16-7.2,16-16l0,0
	C427,28,419.8,20.8,411,20.8z"/>
<path class="st1" d="M569,20.8H465c-8.8,0-16,7.2-16,16l0,0c0,8.8,7.2,16,16,16h104c8.8,0,16-7.2,16-16l0,0
	C585,28,577.8,20.8,569,20.8z"/>
<path class="st1" d="M727,20.8H623c-8.8,0-16,7.2-16,16l0,0c0,8.8,7.2,16,16,16h104c8.8,0,16-7.2,16-16l0,0
	C743,28,735.8,20.8,727,20.8z"/>
<path class="st1" d="M3255,20.8h-104c-8.8,0-16,7.2-16,16l0,0c0,8.8,7.2,16,16,16h104c8.8,0,16-7.2,16-16l0,0
	C3271,28,3263.8,20.8,3255,20.8z"/>
<path class="st1" d="M3413,20.8h-104c-8.8,0-16,7.2-16,16l0,0c0,8.8,7.2,16,16,16h104c8.8,0,16-7.2,16-16l0,0
	C3429,28,3421.8,20.8,3413,20.8z"/>
<path class="st1" d="M3571,20.8h-104c-8.8,0-16,7.2-16,16l0,0c0,8.8,7.2,16,16,16h104c8.8,0,16-7.2,16-16l0,0
	C3587,28,3579.8,20.8,3571,20.8z"/>
<path class="st1" d="M3729,20.8h-104c-8.8,0-16,7.2-16,16l0,0c0,8.8,7.2,16,16,16h104c8.8,0,16-7.2,16-16l0,0
	C3745,28,3737.8,20.8,3729,20.8z"/>
<path class="st1" d="M3887,20.8h-104c-8.8,0-16,7.2-16,16l0,0c0,8.8,7.2,16,16,16h104c8.8,0,16-7.2,16-16l0,0
	C3903,28,3895.8,20.8,3887,20.8z"/>
<path class="st1" d="M3097,20.8h-104c-8.8,0-16,7.2-16,16l0,0c0,8.8,7.2,16,16,16h104c8.8,0,16-7.2,16-16l0,0
	C3113,28,3105.8,20.8,3097,20.8z"/>
</svg>
