<?xml version="1.0" encoding="utf-8"?>
<!-- Generator: Adobe Illustrator 22.0.0, SVG Export Plug-In . SVG Version: 6.00 Build 0)  -->
<svg version="1.2" baseProfile="tiny" id="Layer_1" xmlns="http://www.w3.org/2000/svg" xmlns:xlink="http://www.w3.org/1999/xlink"
	 x="0px" y="0px" viewBox="0 0 737 116" xml:space="preserve">
<path fill="#FEFEFE" d="M733.6,111.6c-19.2-26-50.1-42.9-85-42.9c-3.7,0-7.3,0.2-10.9,0.6c-19.3-21-47-34.2-77.8-34.2
	c-8.3,0-16.3,1-24,2.8c-19.3-20.5-46.6-33.4-77-33.4c-45.9,0-85,29.3-99.6,70.3c-11-3.9-22.8-6-35.2-6c-11.6,0-22.7,1.9-33.2,5.4
	c-18-32.4-52.6-54.3-92.3-54.3c-33.5,0-63.3,15.6-82.6,39.9c-44.8,0.9-84.9,20.8-112.6,52H733.6z"/>
</svg>
