<?xml version="1.0" encoding="utf-8"?>
<!-- Generator: Adobe Illustrator 22.0.0, SVG Export Plug-In . SVG Version: 6.00 Build 0)  -->
<svg version="1.2" baseProfile="tiny" id="Layer_1" xmlns="http://www.w3.org/2000/svg" xmlns:xlink="http://www.w3.org/1999/xlink"
	 x="0px" y="0px" viewBox="0 0 335 53" xml:space="preserve">
<path fill="#FEFEFE" d="M331.5,50.5c-9.7-7.6-20.5-14-32-19c-7.1-10.7-19.2-17.8-33-17.8c-7.5,0-14.5,2.1-20.5,5.8
	c-1.6-0.1-3.3-0.1-4.9-0.1c-23,0-44.7,5.3-64,14.6c-7.6-7.3-17.9-11.8-29.3-11.8c-5.1,0-9.9,0.9-14.4,2.5c-0.9-0.3-1.8-0.5-2.8-0.8
	c-8.9-13-23.9-21.6-40.9-21.6c-18.3,0-34.2,9.9-42.8,24.7C31,32.5,16.4,40.5,3.5,50.5H331.5z"/>
</svg>
