<?xml version="1.0" encoding="utf-8"?>
<!-- Generator: Adobe Illustrator 22.0.0, SVG Export Plug-In . SVG Version: 6.00 Build 0)  -->
<svg version="1.2" baseProfile="tiny" id="Layer_1" xmlns="http://www.w3.org/2000/svg" xmlns:xlink="http://www.w3.org/1999/xlink"
	 x="0px" y="0px" viewBox="0 0 3840 131" xml:space="preserve">
<path fill="#CEB0BA" d="M1230.3,128.5c-3.6-11.5-13.5-20.1-25.7-21.9c0-0.4,0.1-0.8,0.1-1.2c0-10.1-8.2-18.3-18.3-18.3
	c-8.8,0-16.1,6.1-17.9,14.4c-0.1,0-0.3,0-0.4,0c-1.5,0-3.1,0.1-4.6,0.3c-6.6-14.3-21-24.2-37.7-24.2c-13.6,0-25.6,6.5-33.2,16.6
	c-7.6-19.1-26.3-32.6-48.1-32.6c-8.3,0-16.2,2-23.2,5.5c-6.7-7.3-16.3-11.9-27-11.9c-11.2,0-21.2,5-27.9,12.9
	c-6.7-7.9-16.7-12.9-27.9-12.9c-16,0-29.5,10.2-34.6,24.4c-14.2,5-24.4,18.6-24.4,34.6c0,5.1,1,9.9,2.9,14.4H1230.3z"/>
<path fill="#CEB0BA" d="M1468.1,128.5c-3.6-21.9-20.6-39.4-42.3-43.6c-8.4-18.5-27-31.3-48.6-31.3c-25.5,0-46.9,17.9-52.2,41.9
	c-7.9,1.3-14.9,5.4-19.7,11.4c-3.7-1.5-7.7-2.3-11.9-2.3c-14.9,0-27.3,10.2-30.8,23.9H1468.1z"/>
<g>
	<path fill="#CEB0BA" d="M2705.8,127.5c-7.4-7.8-16.3-14.1-26.2-18.5c-5-11.6-16.6-19.8-30-19.8c-12.3,0-22.9,6.8-28.5,16.8
		c-5.4,1.8-10.6,4.1-15.4,6.8c0-0.7,0.1-1.4,0.1-2.1c0-18.1-14.6-32.7-32.7-32.7c-18.1,0-32.7,14.6-32.7,32.7c0,1.4,0.1,2.8,0.3,4.1
		c-1.1-0.1-2.3-0.2-3.5-0.2c-4.8,0-9.4,0.8-13.7,2.2c-6.9-14.5-21.7-24.6-38.9-24.6c-6.3,0-12.3,1.4-17.8,3.8c-10-9.3-23.3-15-38-15
		c-5.5,0-10.8,0.8-15.9,2.3c-7.6-21.8-28.3-37.4-52.7-37.4c-13.8,0-26.3,5-36.1,13.2c-6.4-18.8-24.3-32.4-45.3-32.4
		c-15.9,0-30,7.8-38.7,19.7c-5.7-2.4-12.1-3.8-18.7-3.8c-24.3,0-44.3,18.1-47.4,41.5c-5-2.1-10.6-3.2-16.4-3.2
		c-23.8,0-43.1,19.3-43.1,43.1c0,1.1,0.1,2.1,0.1,3.2H2705.8z"/>
</g>
<path fill="#CEB0BA" d="M2960.4,127.5c-5.1-16.6-20.6-28.7-38.9-28.7c-0.5,0-1.1,0-1.6,0c-7.3-10.6-19.6-17.6-33.5-17.6
	c-8.9,0-17.1,2.9-23.8,7.7c-7.4-9.5-19-15.6-32-15.6c-17.2,0-31.9,10.7-37.9,25.9c-1.7-0.2-3.4-0.3-5.2-0.3
	c-18.3,0-33.8,12.1-38.9,28.7H2960.4z"/>
<path fill="#CEB0BA" d="M1980.5,127.5h86.8c-1.2-20.7-16.9-37.6-37.1-40.5c-3.2-14.2-15.9-24.8-31.1-24.8c-6.1,0-11.9,1.8-16.7,4.8
	c0,0,0,0,0,0c0-21.1-17.1-38.3-38.3-38.3c-11,0-20.9,4.6-27.9,12.1c-8.5-5.6-18.6-8.9-29.5-8.9c-1,0-1.9,0-2.9,0.1
	c-9.2-16.2-26.6-27.2-46.5-27.2c-25.8,0-47.4,18.3-52.3,42.7c-8.9-6.8-20.1-10.8-32.2-10.8c-19.1,0-35.8,10-45.3,25.1
	c-5.3-1.8-11-2.8-16.9-2.8c-29.5,0-53.4,23.9-53.4,53.4c0,5.3,0.8,10.3,2.2,15.1h280c0,0,0,0,0,0h9.7c0,0,0,0,0,0h6.3v0h30H1980.5z"
	/>
</svg>
