<?xml version="1.0" encoding="utf-8"?>
<!-- Generator: Adobe Illustrator 22.0.0, SVG Export Plug-In . SVG Version: 6.00 Build 0)  -->
<svg version="1.2" baseProfile="tiny" id="Layer_1" xmlns="http://www.w3.org/2000/svg" xmlns:xlink="http://www.w3.org/1999/xlink"
	 x="0px" y="0px" viewBox="0 0 3840 420" xml:space="preserve">
<g>
	<rect x="1538.9" y="23.7" fill="#1A2E35" width="12.3" height="53"/>
	<g>
		
			<rect x="2181.4" y="309" transform="matrix(-0.6606 -0.7507 0.7507 -0.6606 3547.2942 2265.6514)" fill="#1A2E35" width="208.7" height="44"/>
	</g>
	<g>
		<g>
			<g>
				<polygon fill="#1A2E35" points="1795.8,136.1 1806.5,125.4 1805.1,120 1799.7,118.5 1789,129.3 1786.4,119.6 1797.1,108.9 
					1812.2,112.9 1816.2,127.9 1805.4,138.7 				"/>
			</g>
		</g>
		
			<rect x="1831.2" y="48.6" transform="matrix(0.7071 0.7071 -0.7071 0.7071 600.4886 -1272.7589)" fill="#1A2E35" width="10.7" height="79.7"/>
		<g>
			<path fill="#48666E" d="M1903.6,73l63.2,76.2c6.6,8,18.5,9.1,26.5,2.5l0,0c8-6.6,9.1-18.5,2.5-26.5L1932.6,49
				c-6.6-8-18.5-9.1-26.5-2.5h0C1898.1,53.2,1897,65,1903.6,73z"/>
			<path fill="#577C84" d="M1865.5,72.6h56.2c6.5,0,11.8-5.3,11.8-11.8l0,0c0-6.5-5.3-11.8-11.8-11.8h-56.2
				c-6.5,0-11.8,5.3-11.8,11.8l0,0C1853.7,67.3,1859,72.6,1865.5,72.6z"/>
			<path fill="#375A64" d="M1970.8,281.8h21.9c8.5,0,15.5-6.9,15.5-15.5V131.2c0-8.5-6.9-15.5-15.5-15.5h-21.9
				c-8.5,0-15.5,6.9-15.5,15.5v135.2C1955.3,274.9,1962.2,281.8,1970.8,281.8z"/>
			
				<ellipse transform="matrix(0.6652 -0.7466 0.7466 0.6652 471.6022 1565.0839)" fill="#1A2E35" cx="1981.1" cy="256.6" rx="13" ry="13"/>
			
				<ellipse transform="matrix(0.7071 -0.7071 0.7071 0.7071 482.484 1441.826)" fill="#1A2E35" cx="1981.7" cy="138.5" rx="13" ry="13"/>
			<circle fill="#1A2E35" cx="1920.1" cy="60.8" r="7.9"/>
			<circle fill="#1A2E35" cx="1864.3" cy="60.8" r="5.4"/>
		</g>
	</g>
	<g>
		<path fill="#48666E" d="M1500,37.7l-72.4,87.3c-7.6,9.2-21.2,10.4-30.3,2.8l0,0c-9.2-7.6-10.4-21.2-2.8-30.3l72.4-87.3
			c7.6-9.2,21.2-10.4,30.3-2.8l0,0C1506.3,14.9,1507.6,28.5,1500,37.7z"/>
		<path fill="#375A64" d="M1415.2,276.8L1415.2,276.8c-16.7,0-30.2-13.5-30.2-30.2V116.8c0-16.7,13.5-30.2,30.2-30.2l0,0
			c16.7,0,30.2,13.5,30.2,30.2v129.8C1445.4,263.3,1431.9,276.8,1415.2,276.8z"/>
		
			<ellipse transform="matrix(0.7071 -0.7071 0.7071 0.7071 239.3697 1073.7263)" fill="#1A2E35" cx="1415.8" cy="247.9" rx="14.9" ry="14.9"/>
		
			<ellipse transform="matrix(0.1602 -0.9871 0.9871 0.1602 1077.2914 1491.4989)" fill="#1A2E35" cx="1415.2" cy="112.6" rx="14.9" ry="14.9"/>
		<path fill="#577C84" d="M1543.7,37.2h-64.4c-7.5,0-13.5-6-13.5-13.5v0c0-7.5,6-13.5,13.5-13.5h64.4c7.5,0,13.5,6,13.5,13.5v0
			C1557.2,31.1,1551.1,37.2,1543.7,37.2z"/>
		<path fill="#1A2E35" d="M1549.4,19.3c2.4,2.4,2.4,6.3,0,8.7c-2.4,2.4-6.3,2.4-8.7,0c-2.4-2.4-2.4-6.3,0-8.7
			C1543.1,16.9,1547,16.9,1549.4,19.3z"/>
		<circle fill="#1A2E35" cx="1481.1" cy="23.7" r="9"/>
	</g>
	<path fill="#375A64" d="M2213.5,281.8H-14.1c-14.8,0-26.9-12-26.9-26.9v0c0-14.8,12-26.9,26.9-26.9h2227.6
		c14.8,0,26.9,12,26.9,26.9v0C2240.3,269.8,2228.3,281.8,2213.5,281.8z"/>
	<polygon fill="#1A2E35" points="1491.9,426.4 1339.6,426.4 1341.6,281.8 1494,281.8 	"/>
	<polygon fill="#1A2E35" points="2167.1,426 2014.8,426 2016,281.8 2168.3,281.8 	"/>
	<path fill="none" stroke="#1A2E35" stroke-miterlimit="10" d="M2212.6,276.9H-14.6c-12.1,0-21.9-9.8-21.9-21.9v0
		c0-12.1,9.8-21.9,21.9-21.9h2227.3c12.1,0,21.9,9.8,21.9,21.9v0C2234.5,267.1,2224.7,276.9,2212.6,276.9z"/>
	<g>
		<rect x="2000" y="171.6" class="fall" fill="#FF4F5B" width="56.5" height="56.5"/>
	</g>
	<g>
		<rect x="1750" y="171.6" class="box" fill="#FF4F5B" width="56.5" height="56.5"/>
	</g>
	<g>
		<rect x="1500" y="171.6" class="box" fill="#FF4F5B" width="56.5" height="56.5"/>
	</g>
	<g>
		<rect x="1250" y="171.6" class="box" fill="#FF4F5B" width="56.5" height="56.5"/>
	</g>
		<g>
		<rect x="1000" y="171.6" class="box" fill="#FF4F5B" width="56.5" height="56.5"/>
	</g>
		<g>
		<rect x="750" y="171.6" class="box" fill="#FF4F5B" width="56.5" height="56.5"/>
	</g>
		<g>
		<rect x="500" y="171.6" class="box" fill="#FF4F5B" width="56.5" height="56.5"/>
	</g>
		<g>
		<rect x="250" y="171.6" class="box" fill="#FF4F5B" width="56.5" height="56.5"/>
	</g>
			<g>
		<rect x="0" y="171.6" class="box" fill="#FF4F5B" width="56.5" height="56.5"/>
	</g>
			<g>
		<rect x="-250" y="171.6" class="box" fill="#FF4F5B" width="56.5" height="56.5"/>
	</g>
	<rect x="2338.2" y="378.6" fill="#1A2E35" width="1520.8" height="45.4"/>
	<g>
		<g>
			<polygon fill="#1A2E35" points="1554.4,126.6 1554.4,97.2 1545.1,91.8 1535.7,97.2 1535.7,126.6 1519,117 1519,87.5 1545.1,72.4 
				1571.2,87.5 1571.2,117 			"/>
		</g>
	</g>
	<circle fill="#1A2E35" cx="1494" cy="255" r="12.9"/>
	<circle fill="#1A2E35" cx="1615.5" cy="255" r="12.9"/>
	<circle fill="#1A2E35" cx="1737" cy="255" r="12.9"/>
	<circle fill="#1A2E35" cx="1858.5" cy="255" r="12.9"/>
	<circle fill="#1A2E35" cx="1980" cy="255" r="12.9"/>
	<circle fill="#1A2E35" cx="2101.8" cy="255" r="12.9"/>
	<circle fill="#1A2E35" cx="2212.4" cy="255" r="12.9"/>
	<circle fill="#1A2E35" cx="1328.3" cy="255" r="12.9"/>
	<circle fill="#1A2E35" cx="840.5" cy="255" r="12.9"/>
	<circle fill="#1A2E35" cx="962" cy="255" r="12.9"/>
	<circle fill="#1A2E35" cx="1083.5" cy="255" r="12.9"/>
	<circle fill="#1A2E35" cx="1205" cy="255" r="12.9"/>
	<g>
		<rect x="2320" y="322.1" class="bottomBox" fill="#FF4F5B" width="56.5" height="56.5"/>
	</g>
	<g>
		<rect x="2570" y="322.1" class="bottomBox" fill="#FF4F5B" width="56.5" height="56.5"/>
	</g>
	<g>
		<rect x="2820" y="322.1" class="bottomBox" fill="#FF4F5B" width="56.5" height="56.5"/>
	</g>
	<g>
		<rect x="3070" y="322.1" class="bottomBox" fill="#FF4F5B" width="56.5" height="56.5"/>
	</g>
	<g>
		<rect x="3320" y="322.1" class="bottomBox" fill="#FF4F5B" width="56.5" height="56.5"/>
	</g>
	<g>
		<rect x="3570" y="322.1" class="bottomBox" fill="#FF4F5B" width="56.5" height="56.5"/>
	</g>

	<circle fill="#1A2E35" cx="352.5" cy="255" r="12.9"/>
	<circle fill="#1A2E35" cx="474" cy="255" r="12.9"/>
	<circle fill="#1A2E35" cx="595.5" cy="255" r="12.9"/>
	<circle fill="#1A2E35" cx="717" cy="255" r="12.9"/>
	<circle fill="#1A2E35" cx="-14" cy="255" r="12.9"/>
	<circle fill="#1A2E35" cx="107.5" cy="255" r="12.9"/>
	<circle fill="#1A2E35" cx="229" cy="255" r="12.9"/>
</g>
<path fill="#1A2E35" d="M2030.3,115.5h123.5c7.9,0,14.3,6.4,14.3,14.3v174.5c0,7.9-6.4,14.3-14.3,14.3h-123.5
	c-7.9,0-14.3-6.4-14.3-14.3V129.8C2016,121.9,2022.4,115.5,2030.3,115.5z"/>
</svg>
