<?xml version="1.0" encoding="utf-8"?>
<!-- Generator: Adobe Illustrator 22.0.0, SVG Export Plug-In . SVG Version: 6.00 Build 0)  -->
<svg version="1.2" baseProfile="tiny" id="Layer_1" xmlns="http://www.w3.org/2000/svg" xmlns:xlink="http://www.w3.org/1999/xlink"
	 x="0px" y="0px" viewBox="0 0 2739 271" xml:space="preserve">
<path fill="#D3F1FB" d="M2731.2,272.3c9-16,6.6-36.6-7-50.2l-208-208c-16.4-16.4-43-16.4-59.4,0L2314.1,157l-64.8-64.8
	c-16.4-16.4-43-16.4-59.4,0L2018.1,264l-85.8-85.8c-16.4-16.4-43-16.4-59.4,0l-44.3,44.3L1682.3,76.2c-16.4-16.4-43-16.4-59.4,0
	l-147.3,147.3l-45.3-45.3c-16.4-16.4-43-16.4-59.4,0l-48.3,48.3L1188.3,92.2c-16.4-16.4-43-16.4-59.4,0l-107.3,107.3l-66.3-66.3
	c-16.4-16.4-43-16.4-59.4,0L862.1,167l-97.8-97.8c-16.4-16.4-43-16.4-59.4,0L562.4,211.6l-30.8-30.8c-16.4-16.4-43-16.4-59.4,0
	l-26.7,26.7L281.3,43.2c-16.4-16.4-43-16.4-59.4,0l-208,208c-6,6-9.8,13.4-11.4,21.2H2731.2z"/>
</svg>
