<?xml version="1.0" encoding="utf-8"?>
<!-- Generator: Adobe Illustrator 22.0.0, SVG Export Plug-In . SVG Version: 6.00 Build 0)  -->
<svg version="1.1" id="Layer_1" xmlns="http://www.w3.org/2000/svg" xmlns:xlink="http://www.w3.org/1999/xlink" x="0px" y="0px"
	 viewBox="0 0 3840 271" style="enable-background:new 0 0 3840 271;" xml:space="preserve">
<style type="text/css">
	.st0{fill:#D3F1FB;}
</style>
<path class="st0" d="M3711.6,211.6l-30.8-30.8c-16.4-16.4-43-16.4-59.4,0l-26.7,26.7L3430.5,43.2c-16.4-16.4-43-16.4-59.4,0
	l-137.6,137.6L3066.7,14.1c-16.4-16.4-43-16.4-59.4,0L2864.6,157l-64.8-64.8c-16.4-16.4-43-16.4-59.4,0L2568.6,264l-85.8-85.8
	c-16.4-16.4-43-16.4-59.4,0l-44.3,44.3L2232.8,76.2c-16.4-16.4-43-16.4-59.4,0l-147.3,147.3l-45.3-45.3c-16.4-16.4-43-16.4-59.4,0
	l-48.3,48.3L1738.8,92.2c-16.4-16.4-43-16.4-59.4,0l-107.3,107.3l-66.3-66.3c-16.4-16.4-43-16.4-59.4,0l-33.8,33.8l-97.8-97.8
	c-16.4-16.4-43-16.4-59.4,0l-142.5,142.4l-30.8-30.8c-16.4-16.4-43-16.4-59.4,0L996,207.5L831.8,43.2c-16.4-16.4-43-16.4-59.4,0
	L630,185.6L458.4,14.1c-16.4-16.4-43-16.4-59.4,0L256.3,157l-64.8-64.8c-16.4-16.4-43-16.4-59.4,0L0,224.3v48.1h553h120.4h2478.3
	h130H3840V83.3L3711.6,211.6z"/>
</svg>
