<?xml version="1.0" encoding="utf-8"?>
<!-- Generator: Adobe Illustrator 22.0.0, SVG Export Plug-In . SVG Version: 6.00 Build 0)  -->
<svg version="1.2" baseProfile="tiny" id="Layer_1" xmlns="http://www.w3.org/2000/svg" xmlns:xlink="http://www.w3.org/1999/xlink"
	 x="0px" y="0px" viewBox="0 0 3840 178" xml:space="preserve">
<g>
	<path fill="#FFD6DE" d="M2853.1,176.9c12.9-8.9,21.4-23.8,21.4-40.7c0-23-15.7-42.3-37-47.8c-5.3-6.7-13.5-11-22.7-11
		c-10.8,0-20.2,5.9-25.2,14.7c-3.3-1-6.7-1.5-10.3-1.5c-1.9,0-3.8,0.2-5.6,0.4c-5.2-18.5-22.2-32-42.4-32c-1.5,0-3,0.1-4.5,0.2
		c-4.7-19.7-22.4-34.4-43.5-34.4c-10.3,0-19.9,3.5-27.4,9.4c-11.6-9.2-26.3-14.7-42.3-14.7c-27,0-50.3,15.6-61.5,38.3
		c-10.4-15.2-27.9-25.2-47.8-25.2c-23.2,0-43.3,13.7-52.5,33.4c-9.9-7-22-11-35-11c-25.9,0-48.1,16.1-57,38.9
		c-1.8-1.1-3.6-2-5.5-2.9c-3.7-11.7-14.7-20.3-27.6-20.3c-2.9,0-5.7,0.4-8.3,1.2c-5.2-17.4-21.3-30.2-40.4-30.2
		c-18.7,0-34.6,12.2-40.1,29.2c-6.4-9.6-17.3-16-29.7-16c-19.6,0-35.5,15.9-35.5,35.5c0,0.9,0,1.8,0.1,2.7c-8.2,1-15.6,4.8-21,10.5
		c-6.4-9.5-17.2-15.8-29.5-15.8c-12.9,0-24.1,6.8-30.4,17.1c-4.3-16.3-15.9-29.6-31-36.3c0.8-3.1,1.2-6.4,1.2-9.8
		c0-21.8-17.7-39.5-39.5-39.5c-8.8,0-16.9,2.9-23.5,7.7c-9.1-14.9-25.6-24.8-44.3-24.8c-27.7,0-50.4,21.7-51.9,49
		c-9.2-17.1-27.3-28.8-48.1-28.8c-27.6,0-50.4,20.5-54.1,47.1c-6.8-4.3-14.8-6.8-23.4-6.8c-11.1,0-21.3,4.2-29,11.1
		c-7.7-6.9-17.9-11.1-29-11.1c-19.6,0-36.2,13-41.6,30.8c-2.7-0.5-5.5-0.8-8.4-0.8c-14.4,0-27.2,7-35.1,17.8
		c-6-3.1-12.7-4.8-19.9-4.8c-10.4,0-20,3.7-27.5,9.8c-7.5-6.1-17.1-9.8-27.5-9.8c-13.7,0-25.9,6.3-33.8,16.2
		c-7.8-7.6-18.4-12.2-30.2-12.2c-15.9,0-29.9,8.6-37.4,21.4c-1.8-0.2-3.7-0.4-5.6-0.4c-24,0-43.4,19.4-43.4,43.4
		c0,0.9,0,1.7,0.1,2.6h1444.1V176.9z M1818.7,118.4c0.4,0.3,0.7,0.6,1.1,1h-1.4C1818.6,119.1,1818.6,118.8,1818.7,118.4z"/>
	<path fill="#FFD6DE" d="M1333.5,176.9c1.7-4.8,2.6-9.9,2.6-15.2c0-25.4-20.6-46.1-46.1-46.1c-10,0-19.2,3.2-26.8,8.6
		c-2.4-0.4-4.9-0.7-7.5-0.7c-12.1,0-23,5.3-30.4,13.6c-5.7-24.4-27.6-42.6-53.8-42.6c-30.5,0-55.3,24.8-55.3,55.3
		c0,9.8,2.6,19,7.1,27L1333.5,176.9L1333.5,176.9z"/>
	<path fill="#FFD6DE" d="M976.3,176.9c10.5-6.2,17.5-17.6,17.5-30.6c0-18.1-13.5-33-31-35.2c0-0.3,0-0.5,0-0.8
		c0-19.6-15.9-35.5-35.5-35.5c-14.9,0-27.6,9.1-32.9,22.1c-6.9,0.4-13.3,2.7-18.6,6.5c-5.8-4.1-12.9-6.5-20.5-6.5
		c-14.5,0-26.9,8.7-32.5,21.1c-0.8-0.1-1.7-0.1-2.5-0.1c-19.7-0.1-35.6,15.8-35.6,35.4c0,9.1,3.4,17.3,9,23.6H976.3z"/>
</g>
</svg>
