<?xml version="1.0" encoding="utf-8"?>
<!-- Generator: Adobe Illustrator 22.0.0, SVG Export Plug-In . SVG Version: 6.00 Build 0)  -->
<svg version="1.1" id="Layer_1" xmlns="http://www.w3.org/2000/svg" xmlns:xlink="http://www.w3.org/1999/xlink" x="0px" y="0px"
	 viewBox="0 0 3840 244" style="enable-background:new 0 0 3840 244;" xml:space="preserve">
<style type="text/css">
	.st0{fill:#FEEA91;}
	.st1{fill:#9CCC66;}
</style>
<path class="st0" d="M2696.6,231.5c-81.3-50.1-177.1-79-279.6-79s-198.3,28.9-279.6,79H2696.6z"/>
<path class="st0" d="M3840,231.5c-81.3-50.1-177.1-79-279.6-79s-198.3,28.9-279.6,79H3840z"/>
<path class="st1" d="M753.4,206.8L937.9,22.3c28.9-28.9,76.4-28.4,105.9,1.2L1232.3,212C1261.9,241.5,724.4,235.7,753.4,206.8z"/>
<path class="st1" d="M1719.4,211.2L1546.8,38.6c-27.1-27.1-71-27.1-98,0l-172.7,172.6C1249.1,238.3,1746.4,238.3,1719.4,211.2z"/>
<path class="st1" d="M1.1,212.6L185.6,28.1C214.5-0.8,262-0.3,291.5,29.3L480,217.8C509.6,247.3-27.9,241.5,1.1,212.6z"/>
</svg>
