<?xml version="1.0" encoding="utf-8"?>
<!-- Generator: Adobe Illustrator 22.0.0, SVG Export Plug-In . SVG Version: 6.00 Build 0)  -->
<svg version="1.2" baseProfile="tiny" id="Layer_1" xmlns="http://www.w3.org/2000/svg" xmlns:xlink="http://www.w3.org/1999/xlink"
	 x="0px" y="0px" viewBox="0 0 1920 1080" xml:space="preserve">
<g>
	<path fill="#D3F1FB" d="M-14.7,110c4.1-15.1,17.9-26.1,34.3-26.1c19.6,0,35.5,15.9,35.5,35.5c0,5.6-1.3,10.8-3.6,15.5
		c8.1,1.7,15.2,6,20.4,12.1c6.7-7.9,16.7-12.9,27.9-12.9c10.7,0,20.3,4.6,27,11.9c7-3.5,14.9-5.5,23.2-5.5
		c21.8,0,40.5,13.5,48.1,32.6c2.9-3.9,6.5-7.3,10.6-9.9c-0.1-1.4-0.2-2.8-0.2-4.2c0-30.5,24.8-55.3,55.3-55.3
		c26.2,0,48.1,18.2,53.8,42.6c7.5-8.4,18.3-13.6,30.4-13.6c2.5,0,5,0.2,7.5,0.7c7.5-5.4,16.8-8.6,26.8-8.6
		c20.4,0,37.7,13.3,43.8,31.7c4.8-1.7,9.7-2.9,14.6-3.5c9.8-12.4,24.9-20.4,41.9-20.4c14.4,0,27.5,5.7,37.1,15
		c7-4.8,15.4-7.6,24.5-7.6c1.9,0,3.8,0.1,5.6,0.4c6.3-10.7,17.2-18.5,29.9-20.7c33.3-22.3,76.8-22.9,110.5-1.6
		c4.9-1.9,10.3-3,15.9-3c7.2,0,13.9,1.8,19.9,4.8c7.9-10.8,20.7-17.8,35.1-17.8c2.9,0,5.7,0.3,8.4,0.8c5.4-17.8,22-30.8,41.6-30.8
		c11.1,0,21.3,4.2,29,11.1c7.7-6.9,17.9-11.1,29-11.1c8.6,0,16.6,2.5,23.4,6.8c3.7-26.6,26.5-47.1,54.1-47.1
		c20.8,0,38.9,11.7,48.1,28.8c1.5-27.3,24.2-49,51.9-49c18.8,0,35.2,9.9,44.3,24.8c6.6-4.8,14.7-7.7,23.5-7.7
		c21.8,0,39.5,17.7,39.5,39.5c0,3.4-0.4,6.7-1.2,9.8c15.1,6.7,26.7,20,31,36.3c6.2-10.2,17.5-17.1,30.4-17.1
		c12.3,0,23.2,6.3,29.5,15.8c5.5-5.6,12.8-9.5,21-10.5c-0.1-0.9-0.1-1.8-0.1-2.7c0-19.6,15.9-35.5,35.5-35.5
		c12.4,0,23.3,6.4,29.7,16c5.5-16.9,21.3-29.2,40.1-29.2c19.1,0,35.2,12.7,40.4,30.2c2.6-0.8,5.4-1.2,8.3-1.2
		c13,0,23.9,8.5,27.6,20.3c1.9,0.8,3.8,1.8,5.5,2.9c8.9-22.8,31.1-38.9,57-38.9c13,0,25.1,4.1,35,11c9.2-19.7,29.3-33.4,52.5-33.4
		c19.8,0,37.3,10,47.8,25.2c11.1-22.7,34.5-38.3,61.5-38.3c16,0,30.7,5.5,42.3,14.7c7.6-5.9,17.1-9.4,27.4-9.4
		c21.2,0,38.9,14.7,43.5,34.4c1.5-0.1,3-0.2,4.5-0.2c20.2,0,37.2,13.5,42.4,32c1.8-0.3,3.7-0.4,5.6-0.4c3.6,0,7.1,0.5,10.3,1.5
		c5-8.8,14.4-14.7,25.2-14.7c9.2,0,17.4,4.3,22.7,11c21.3,5.5,37,24.8,37,47.8c0,6.2-1.1,12.1-3.2,17.5c1.7,1.6,3.3,3.3,4.7,5.1
		c6.7-4.8,14.9-7.7,23.8-7.7c12.4,0,23.5,5.6,30.9,14.3V0.5H-103v165.4l33.7-33.7C-54.2,117.1-34.4,109.7-14.7,110z"/>
	<path fill="#FFD6DE" d="M1780.7,123c-1.7,0.2-3.5,0.3-5.3,0.3c-2.2,0-4.3-0.2-6.4-0.5c-10.2,25-34.7,42.6-63.4,42.6
		c-1.9,0-3.7-0.1-5.5-0.2c6,5.3,10.1,12.8,11,21.3h11.3c1.4-0.5,2.8-1,4.2-1.5c5.6-10,16.3-16.8,28.5-16.8
		c12.3,0,22.9,6.8,28.5,16.8l28.9-28.9c0.4-0.4,0.7-0.7,1.1-1C1797.5,151.5,1784.8,139,1780.7,123z"/>
	<path fill="#FFD6DE" d="M1645.7,130.1c-10.2,16.5-28.5,27.5-49.3,27.5c-11.4,0-22-3.3-30.9-9c-2.4,5.8-5.7,11.2-9.7,16
		c6.1,2.6,11.7,6.2,16.5,10.7c5.4-2.5,11.4-3.8,17.8-3.8c13.1,0,24.8,5.8,32.7,15.1h23.3c1.5-14.8,12.9-26.8,27.5-29
		C1661.8,151.2,1652.1,141.7,1645.7,130.1z"/>
	<path fill="#B8D75F" d="M1664,304.6l98.1-98.1h-541.9c-0.1-1.1-0.1-2.1-0.1-3.2c0-6,1.2-11.7,3.4-16.8h-56.9
		c3.6,5.9,5.8,12.7,6.2,20h-86.8H1071h-30v0h-6.3c0,0,0,0,0,0h-9.7c0,0,0,0,0,0H782.5l93.1,93.1c12.9-1.8,26.4,2.3,36.3,12.2
		L1019.1,419c16.8,16.8-292,16.8-275.2,0l5.9-5.9c-198.9,5.4-462.2-4-437.9-28.2l21.8-21.8c-66.9-3.1-114.4-9-105.5-17.9l46.7-46.7
		h-70.7l22.2,22.2c18.2,18.2-180.6,25.2-329.3,21v737.8h2126V314.4C1937.3,327.3,1644.7,324,1664,304.6z M1432.4,394.7l11.7,11.7
		c13.2,13.2-230.1,13.2-216.8,0l35.9-35.9h-173.8c81.3-50.1,177.1-79,279.6-79c0.7,0,1.4,0,2.2,0l62.4-62.4
		c23.3-23.3,61-23.3,84.3,0l148.5,148.5C1679.6,390.9,1545.4,396.6,1432.4,394.7z"/>
	<path fill="#B8D75F" d="M1629,196c4.3-1.5,8.9-2.2,13.7-2.2c1.2,0,2.3,0.1,3.5,0.2c-0.2-1.4-0.3-2.7-0.3-4.1c0-1.1,0.1-2.2,0.2-3.3
		h-23.3C1625.2,189.4,1627.3,192.6,1629,196z"/>
	<polygon fill="#B8D75F" points="2023,282.3 2023,258.5 2023,206.5 1947.2,206.5 	"/>
	<path fill="#B8D75F" d="M1711.3,189.8c0,0.7-0.1,1.4-0.1,2.1c3.6-2.1,7.4-3.9,11.3-5.4h-11.3
		C1711.2,187.6,1711.3,188.7,1711.3,189.8z"/>
	<path fill="#B8D75F" d="M351.7,221.7l17.6-17.6c2.7-7.1,7.9-13,14.5-16.6h-66.4c8.8,3.5,15.7,10.9,18.6,20H113.1l34.9,34.9
		c49.1-14.9,101.1-22.9,155-22.9C319.4,219.5,335.6,220.2,351.7,221.7z"/>
	<path fill="#FEEA91" d="M1348.2,314.4l22.9-22.9c-0.7,0-1.4,0-2.2,0c-102.5,0-198.3,28.9-279.6,79h173.8l48.5-48.5
		C1321.6,312.1,1336,309.6,1348.2,314.4z"/>
	<path fill="#FEEA91" d="M351.7,221.7c-16-1.4-32.3-2.2-48.7-2.2c-53.9,0-105.9,8-155,22.9l56.1,56.1h70.7L351.7,221.7z"/>
	<path fill="#FFD6DE" d="M804.2,138.6c0.6,0.1,1.2,0.2,1.8,0.3v-10.4h17.7c1.1-1,2.3-1.9,3.5-2.7c-0.8-3.3-1.3-6.8-1.3-10.4
		c0-12.8,5.6-24.4,14.4-32.3c-7.7-6.9-17.9-11.1-29-11.1c-19.6,0-36.2,13-41.6,30.8C787.5,106.3,801.4,120.6,804.2,138.6z"/>
	<path fill="#FFD6DE" d="M908.4,96.4c9.3-7.9,21.4-12.7,34.5-12.7c9.3,0,18,2.4,25.6,6.5c6.5-9,16-15.6,27-18.6
		c-0.4-2.7-0.7-5.4-0.7-8.2c0-1,0-2,0.1-3c-9.2-17.1-27.3-28.8-48.1-28.8c-27.6,0-50.4,20.5-54.1,47.1
		C899.4,83.1,904.9,89.2,908.4,96.4z"/>
	<path fill="#FFD6DE" d="M995.5,71.7c4.1-1.1,8.4-1.7,12.9-1.7c11.1,0,21.4,3.7,29.7,9.9c5.9-2.5,12.5-3.9,19.3-3.9
		c7,0,13.6,1.5,19.6,4.1c-1.2-3.8-1.8-7.8-1.8-12c0-13,6.3-24.6,16-31.8c-9.1-14.9-25.6-24.8-44.3-24.8c-27.7,0-50.4,21.7-51.9,49
		c-0.1,1-0.1,2-0.1,3C994.9,66.3,995.1,69,995.5,71.7z"/>
	<path fill="#FFD6DE" d="M1075.2,68.1c0,4.2,0.7,8.2,1.8,12c5.3,2.3,10.1,5.5,14.2,9.4c10-10.1,23.9-16.3,39.2-16.3
		c8,0,15.6,1.7,22.5,4.8c0.8-3.1,1.2-6.4,1.2-9.8c0-21.8-17.7-39.5-39.5-39.5c-8.8,0-16.9,2.9-23.5,7.7
		C1081.5,43.5,1075.2,55,1075.2,68.1z"/>
	<path fill="#FFD6DE" d="M1091.3,89.4c9.5,9,15.5,21.8,15.5,35.9c0,1.1,0,2.1-0.1,3.2h72.3c0.6-5.2,2.3-10,4.9-14.3
		c-4.3-16.3-15.9-29.6-31-36.3c-6.9-3.1-14.5-4.8-22.5-4.8C1115.1,73.1,1101.3,79.4,1091.3,89.4z"/>
	<path fill="#FFD6DE" d="M1091.3,89.4c-4.1-3.9-8.9-7.1-14.2-9.4c-6-2.6-12.6-4.1-19.6-4.1c-6.9,0-13.4,1.4-19.3,3.9
		c9.1,6.9,15.8,16.9,18.4,28.4c11.9,2.1,22,9.8,27.3,20.2h22.8c0.1-1.1,0.1-2.1,0.1-3.2C1106.8,111.2,1100.8,98.4,1091.3,89.4z"/>
	<path fill="#FFD6DE" d="M1294.9,113.1c7.6-10.8,19.4-18.5,33-20.6c0.1-4.3,0.8-8.5,2-12.4c-6.4-9.6-17.3-16-29.7-16
		c-19.6,0-35.5,15.9-35.5,35.5c0,0.9,0,1.8,0.1,2.7c1.5-0.2,2.9-0.3,4.4-0.3C1279.3,102.1,1288.5,106.3,1294.9,113.1z"/>
	<path fill="#FFD6DE" d="M1335.4,92c14.3,0,27.2,6.1,36.2,15.9c4.1-1.1,8.3-1.7,12.8-1.7c1.9,0,3.7,0.1,5.5,0.3
		c1-12,9.4-21.9,20.5-25.3c-5.2-17.4-21.3-30.2-40.4-30.2c-18.7,0-34.6,12.2-40.1,29.2c-1.3,3.9-2,8.1-2,12.4
		C1330.4,92.2,1332.9,92,1335.4,92z"/>
	<path fill="#FFD6DE" d="M1389.9,106.4c1.7,0.2,3.4,0.5,5.1,0.9c8.5-7.1,19.5-11.3,31.4-11.3c7.1,0,13.8,1.5,19.9,4.2
		c-3.7-11.7-14.7-20.3-27.6-20.3c-2.9,0-5.7,0.4-8.3,1.2C1399.2,84.5,1390.9,94.4,1389.9,106.4z"/>
	<path fill="#FFD6DE" d="M1471.6,125.5c21.8,2.3,39.8,17.1,46.8,37.1c5-1.5,10.4-2.3,15.9-2.3c7.6,0,14.9,1.5,21.5,4.3
		c4-4.8,7.3-10.2,9.7-16c-16.2-10.3-27-28.3-27-49c0-8.8,2-17.1,5.4-24.5c-9.9-7-22-11-35-11c-25.9,0-48.1,16.1-57,38.9
		C1460.6,108.3,1467.5,116.1,1471.6,125.5z"/>
	<path fill="#FFD6DE" d="M1565.5,148.6c8.9,5.7,19.5,9,30.9,9c20.8,0,39.1-11,49.3-27.5c-5.4-9.8-8.5-21-8.5-33
		c0-10.8,2.5-21,7-30.1c-10.4-15.2-27.9-25.2-47.8-25.2c-23.2,0-43.3,13.7-52.5,33.4c-3.5,7.4-5.4,15.7-5.4,24.5
		C1538.5,120.3,1549.3,138.4,1565.5,148.6z"/>
	<path fill="#FFD6DE" d="M1645.7,130.1c6.4,11.6,16.1,21.2,27.9,27.4c1.6-0.3,3.3-0.4,5-0.4c8.3,0,15.8,3.1,21.6,8.1
		c1.8,0.1,3.7,0.2,5.5,0.2c28.6,0,53.2-17.6,63.4-42.6c-21.7-3.1-38.4-21.7-38.4-44.3c0-14.4,6.8-27.2,17.3-35.3
		c-11.6-9.2-26.3-14.7-42.3-14.7c-27,0-50.3,15.6-61.5,38.3c-4.5,9.1-7,19.3-7,30.1C1637.2,109,1640.3,120.3,1645.7,130.1z"/>
	<path fill="#FFD6DE" d="M1730.7,78.6c0,22.5,16.7,41.2,38.4,44.3c2.1,0.3,4.2,0.5,6.4,0.5c1.8,0,3.6-0.1,5.3-0.3
		c-0.9-3.5-1.4-7.1-1.4-10.9c0-22.8,17.4-41.6,39.6-43.9c-4.7-19.7-22.4-34.4-43.5-34.4c-10.3,0-19.9,3.5-27.4,9.4
		C1737.4,51.4,1730.7,64.2,1730.7,78.6z"/>
	<path fill="#FFD6DE" d="M1779.4,112.2c0,3.7,0.5,7.4,1.4,10.9c4,16,16.8,28.4,32.9,32.1c6.7-6.4,14.6-11,22.9-13.6
		c-0.4-2.1-0.6-4.2-0.6-6.3c0-17.7,13-32.4,29.9-35.1c-5.2-18.5-22.2-32-42.4-32c-1.5,0-3,0.1-4.5,0.2
		C1796.7,70.5,1779.4,89.3,1779.4,112.2z"/>
	<path fill="#FFD6DE" d="M1917.4,96c4.3,0,8.4,0.5,12.4,1.6c-5.3-6.7-13.5-11-22.7-11c-10.8,0-20.2,5.9-25.2,14.7
		c2.7,0.8,5.3,2,7.7,3.4C1897.5,99.1,1907.1,96,1917.4,96z"/>
	<path fill="#FFD6DE" d="M1836,135.2c0,2.2,0.2,4.3,0.6,6.3c10.3-3.3,21.3-3.7,31.8-1.3c1.5-14.8,9.6-27.7,21.2-35.7
		c-2.4-1.4-5-2.6-7.7-3.4c-3.3-1-6.7-1.5-10.3-1.5c-1.9,0-3.8,0.2-5.6,0.4C1848.9,102.8,1836,117.5,1836,135.2z"/>
	<path fill="#FFD6DE" d="M51.5,134.9c2.3-4.7,3.6-10,3.6-15.5c0-19.6-15.9-35.5-35.5-35.5c-16.4,0-30.1,11.1-34.3,26.1
		c19,0.3,38,7.6,52.5,22.2l2.2,2.2c1.3-0.1,2.6-0.2,4-0.2C46.6,134.2,49.1,134.4,51.5,134.9z"/>
	<path fill="#FFD6DE" d="M269,180.7c1.5-0.2,3-0.3,4.6-0.3c0.1,0,0.3,0,0.4,0c1.8-8.2,9.1-14.4,17.9-14.4c10.1,0,18.3,8.2,18.3,18.3
		c0,0.4,0,0.8-0.1,1.2c2.5,0.4,4.8,1,7.1,1.9h66.4c1.3-0.7,2.6-1.3,4-1.8l13-13c7.4-7.4,16.1-12.8,25.4-16.2
		c-6-18.4-23.3-31.7-43.8-31.7c-10,0-19.2,3.2-26.8,8.6c-2.4-0.4-4.9-0.7-7.5-0.7c-12.1,0-23,5.3-30.4,13.6
		c-5.7-24.4-27.6-42.6-53.8-42.6c-30.5,0-55.3,24.8-55.3,55.3c0,1.4,0.1,2.8,0.2,4.2c6.5-4.2,14.2-6.7,22.6-6.7
		C248.1,156.5,262.5,166.4,269,180.7z"/>
	<path fill="#FFD6DE" d="M825.9,115.4c0,3.6,0.4,7,1.3,10.4c8.8-6.4,19.6-10.1,31.3-10.1c12.1,0,23.2,4,32.2,10.8
		c2.4-11.9,8.9-22.4,17.8-30c-3.5-7.2-9-13.3-15.7-17.6C886,74.5,878,72,869.3,72c-11.1,0-21.3,4.2-29,11.1
		C831.5,91,825.9,102.6,825.9,115.4z"/>
	<path fill="#FFD6DE" d="M1269,128.5v32.2c3.7,0.5,7.3,1.5,10.6,2.8c0.9-6.7,3.2-13,6.6-18.6c-0.1-1.2-0.1-2.4-0.1-3.6
		c0-10.5,3.3-20.2,8.9-28.2c-6.5-6.8-15.6-11-25.7-11c-1.5,0-3,0.1-4.4,0.3c-8.2,1-15.6,4.8-21,10.5c3.1,4.6,5.1,9.9,5.8,15.6H1269z
		"/>
	<path fill="#FFD6DE" d="M1249.5,128.5c-0.7-5.7-2.7-11-5.8-15.6c-6.4-9.5-17.2-15.8-29.5-15.8c-12.9,0-24.1,6.8-30.4,17.1
		c-2.6,4.3-4.3,9.1-4.9,14.3H1249.5z"/>
	<path fill="#FFD6DE" d="M1263.2,160.3c2,0,3.9,0.1,5.8,0.4v-32.2h-19.5H1179h-72.3h-22.8c2.7,5.2,4.2,11.2,4.2,17.4c0,0,0,0,0,0
		c4.9-3,10.6-4.8,16.7-4.8c15.2,0,27.9,10.6,31.1,24.8c13.1,1.9,24.3,9.7,30.9,20.5h56.9C1230.1,171.1,1245.4,160.3,1263.2,160.3z"
		/>
	<path fill="#FFD6DE" d="M806,138.9c2.4,0.5,4.8,1.1,7.1,1.8c2.9-4.6,6.4-8.7,10.5-12.2H806V138.9z"/>
	<path fill="#FFD6DE" d="M1038.1,79.9c-8.3-6.2-18.5-9.9-29.7-9.9c-4.5,0-8.8,0.6-12.9,1.7c-11,3-20.5,9.6-27,18.6
		c8.8,4.8,16,12,20.9,20.7c1-0.1,1.9-0.1,2.9-0.1c10.9,0,21.1,3.3,29.5,8.9c7-7.4,16.9-12.1,27.9-12.1c2.3,0,4.6,0.2,6.7,0.6
		C1053.9,96.8,1047.2,86.8,1038.1,79.9z"/>
	<path fill="#FFD6DE" d="M1335.4,92c-2.5,0-5.1,0.2-7.5,0.6c-13.6,2.1-25.4,9.7-33,20.6c-5.6,8-8.9,17.7-8.9,28.2
		c0,1.2,0.1,2.4,0.1,3.6c8.4-13.7,23.5-22.9,40.8-22.9c6.6,0,13,1.4,18.7,3.8c6.3-8.6,15.4-15.1,25.9-18
		C1362.6,98.1,1349.7,92,1335.4,92z"/>
	<path fill="#FFD6DE" d="M1395,107.3c16.3,3.7,29.4,15.6,34.7,31.2c9.7-8.2,22.3-13.2,36.1-13.2c2,0,4,0.1,5.9,0.3
		c-4.1-9.4-11-17.2-19.7-22.5c-1.8-1.1-3.6-2-5.5-2.9c-6.1-2.7-12.8-4.2-19.9-4.2C1414.5,96,1403.5,100.2,1395,107.3z"/>
	<path fill="#FFD6DE" d="M1889.5,104.6c-11.7,8-19.7,20.9-21.2,35.7c10.5,2.4,20.4,7.7,28.5,15.9l9.4,9.4c7.4-8.1,18.1-13.2,30-13.2
		c10.5,0,20.1,4,27.3,10.6c2.1-5.4,3.2-11.3,3.2-17.5c0-23-15.7-42.3-37-47.8c-4-1-8.1-1.6-12.4-1.6
		C1907.1,96,1897.5,99.1,1889.5,104.6z"/>
	<path fill="#FFD6DE" d="M749.8,158.4c0,2.7-0.3,5.4-0.7,8c9-16.9,26.7-28.4,47.2-28.4c2.7,0,5.4,0.2,8,0.6
		c-2.8-18-16.7-32.3-34.5-35.8c-2.7-0.5-5.5-0.8-8.4-0.8c-14.4,0-27.2,7-35.1,17.8C740.2,127,749.8,141.6,749.8,158.4z"/>
	<path fill="#FFD6DE" d="M746.9,170.9c0.6-1.5,1.4-3.1,2.1-4.5c0.5-2.6,0.7-5.2,0.7-8c0-16.8-9.6-31.4-23.5-38.6
		c-6-3.1-12.7-4.8-19.9-4.8c-5.6,0-11,1.1-15.9,3c6.3,4,12.3,8.7,17.7,14.2L746.9,170.9z"/>
	<path fill="#FFD6DE" d="M531.3,163.9c0.4,0.1,0.9,0.2,1.3,0.3l12.7-12.7c1-4,2.6-7.7,4.6-11.2c-1.8-0.2-3.7-0.4-5.6-0.4
		c-9.1,0-17.6,2.8-24.5,7.6C524.6,152.2,528.5,157.7,531.3,163.9z"/>
	<path fill="#FFD6DE" d="M564.6,132.2c4.8-4.8,9.9-8.9,15.3-12.6c-12.8,2.2-23.6,10-29.9,20.7c-2,3.4-3.6,7.2-4.6,11.2L564.6,132.2z
		"/>
	<path fill="#CEB0BA" d="M317.3,187.5c-2.3-0.9-4.6-1.6-7.1-1.9c0-0.4,0.1-0.8,0.1-1.2c0-10.1-8.2-18.3-18.3-18.3
		c-8.8,0-16.1,6.1-17.9,14.4c-0.1,0-0.3,0-0.4,0c-1.5,0-3.1,0.1-4.6,0.3c-6.6-14.3-21-24.2-37.7-24.2c-8.3,0-16.1,2.5-22.6,6.7
		c-4.1,2.7-7.7,6-10.6,9.9c-7.6-19.1-26.3-32.6-48.1-32.6c-8.3,0-16.2,2-23.2,5.5c-6.7-7.3-16.3-11.9-27-11.9
		c-11.2,0-21.2,5-27.9,12.9c-5.2-6.1-12.3-10.4-20.4-12.1c-2.4-0.5-4.9-0.8-7.5-0.8c-1.3,0-2.7,0.1-4,0.2l73.1,73.1h222.8
		C333,198.4,326.1,191,317.3,187.5z"/>
	<path fill="#CEB0BA" d="M498.8,172.6l12.7,12.7l21.2-21.2c-0.4-0.1-0.9-0.2-1.3-0.3c-2.8-6.2-6.7-11.7-11.5-16.3
		c-9.6-9.3-22.7-15-37.1-15c-17,0-32.2,8-41.9,20.4C461.4,150.2,482.9,156.8,498.8,172.6z"/>
	<path fill="#CEB0BA" d="M383.7,187.5c-6.6,3.6-11.7,9.5-14.5,16.6l18.5-18.5C386.3,186.2,385,186.8,383.7,187.5z"/>
	<path fill="#CEB0BA" d="M1783.6,185c-5.6-10-16.3-16.8-28.5-16.8c-12.3,0-22.9,6.8-28.5,16.8c-1.4,0.5-2.8,1-4.2,1.5
		c-3.9,1.5-7.7,3.3-11.3,5.4c0-0.7,0.1-1.4,0.1-2.1c0-1.1-0.1-2.2-0.2-3.3c-0.8-8.5-4.9-16-11-21.3c-5.8-5.1-13.3-8.1-21.6-8.1
		c-1.7,0-3.4,0.1-5,0.4c-14.6,2.3-26,14.2-27.5,29c-0.1,1.1-0.2,2.2-0.2,3.3c0,1.4,0.1,2.8,0.3,4.1c-1.1-0.1-2.3-0.2-3.5-0.2
		c-4.8,0-9.4,0.8-13.7,2.2c-1.6-3.5-3.7-6.6-6.2-9.5c-7.9-9.2-19.6-15.1-32.7-15.1c-6.3,0-12.3,1.4-17.8,3.8
		c-4.8-4.5-10.4-8.1-16.5-10.7c-6.6-2.8-13.9-4.3-21.5-4.3c-5.5,0-10.8,0.8-15.9,2.3c-7-20-25-34.8-46.8-37.1
		c-1.9-0.2-3.9-0.3-5.9-0.3c-13.8,0-26.3,5-36.1,13.2c-5.3-15.6-18.4-27.5-34.7-31.2c-1.7-0.4-3.4-0.7-5.1-0.9
		c-1.8-0.2-3.6-0.3-5.5-0.3c-4.4,0-8.7,0.6-12.8,1.7c-10.6,2.9-19.7,9.4-25.9,18c-5.7-2.4-12.1-3.8-18.7-3.8
		c-17.3,0-32.4,9.2-40.8,22.9c-3.4,5.6-5.7,11.9-6.6,18.6c-3.3-1.4-6.9-2.3-10.6-2.8c-1.9-0.3-3.8-0.4-5.8-0.4
		c-17.8,0-33.1,10.8-39.6,26.2c-2.2,5.2-3.4,10.9-3.4,16.8c0,1.1,0.1,2.1,0.1,3.2h541.9L1783.6,185z"/>
	<path fill="#CEB0BA" d="M1992.1,160.3c-8.9,0-17.1,2.9-23.8,7.7c-1.4-1.8-3-3.5-4.7-5.1c-7.2-6.6-16.8-10.6-27.3-10.6
		c-11.9,0-22.6,5.1-30,13.2l41,41h75.8v-20v-11.9C2015.5,165.8,2004.5,160.3,1992.1,160.3z"/>
	<path fill="#9CCC66" d="M226.3,320.7l-22.2-22.2L148,242.4l-34.9-34.9L40,134.4l-2.2-2.2C23.3,117.6,4.3,110.2-14.7,110
		c-19.7-0.3-39.5,7.1-54.6,22.2l-33.7,33.7v20.6v72v83.2C45.7,345.9,244.5,338.9,226.3,320.7z"/>
	<path fill="#7DB343" d="M1517.8,229.2c-23.3-23.3-61-23.3-84.3,0l-62.4,62.4l-22.9,22.9c4.2,1.7,8.1,4.2,11.4,7.5l72.8,72.8
		c113,1.9,247.2-3.8,233.9-17.1L1517.8,229.2z"/>
	<path fill="#7DB343" d="M1947.2,206.5l-41-41l-9.4-9.4c-8.2-8.2-18.1-13.4-28.5-15.9c-10.5-2.4-21.5-2-31.8,1.3
		c-8.3,2.7-16.2,7.2-22.9,13.6c-0.4,0.3-0.7,0.7-1.1,1l-28.9,28.9l-21.5,21.5l-98.1,98.1c-19.4,19.4,273.2,22.6,359,9.8v-32.1
		L1947.2,206.5z"/>
	<path fill="#CEB0BA" d="M1135.9,166c-3.2-14.2-15.9-24.8-31.1-24.8c-6.1,0-11.9,1.8-16.7,4.8c0,0,0,0,0,0c0-6.3-1.5-12.2-4.2-17.4
		c-5.4-10.4-15.4-18.1-27.3-20.2c-2.2-0.4-4.4-0.6-6.7-0.6c-11,0-20.9,4.6-27.9,12.1c-8.5-5.6-18.6-8.9-29.5-8.9c-1,0-1.9,0-2.9,0.1
		c-4.9-8.7-12.2-15.9-20.9-20.7c-7.6-4.2-16.3-6.5-25.6-6.5c-13.2,0-25.2,4.8-34.5,12.7c-9,7.6-15.4,18.1-17.8,30
		c-8.9-6.8-20.1-10.8-32.2-10.8c-11.7,0-22.5,3.8-31.3,10.1c-1.2,0.9-2.4,1.8-3.5,2.7c-4.1,3.5-7.7,7.6-10.5,12.2
		c-2.3-0.8-4.7-1.4-7.1-1.8c-0.6-0.1-1.2-0.2-1.8-0.3c-2.6-0.4-5.3-0.6-8-0.6c-20.5,0-38.2,11.5-47.2,28.4c-0.8,1.5-1.5,3-2.1,4.5
		l35.6,35.6H1025c0,0,0,0,0,0h9.7c0,0,0,0,0,0h6.3v0h30h15.1h86.8c-0.4-7.3-2.6-14.1-6.2-20C1160.1,175.6,1149,167.9,1135.9,166z"/>
	<path fill="#6DA736" d="M1359.7,322c-3.4-3.4-7.3-5.9-11.4-7.5c-12.2-4.9-26.7-2.3-36.5,7.5l-48.5,48.5l-35.9,35.9
		c-13.2,13.2,230.1,13.2,216.8,0l-11.7-11.7L1359.7,322z"/>
	<path fill="#9CCC66" d="M511.5,185.3l-12.7-12.7c-15.8-15.8-37.4-22.4-58-19.7c-5,0.6-9.9,1.8-14.6,3.5c-9.3,3.4-18,8.7-25.4,16.2
		l-13,13l-18.5,18.5l-17.6,17.6l-76.8,76.8l-46.7,46.7c-8.9,8.9,38.6,14.8,105.5,17.9L511.5,185.3z"/>
	<path fill="#7DB343" d="M746.9,170.9l-38.7-38.7c-5.5-5.5-11.4-10.2-17.7-14.2c-33.8-21.3-77.3-20.7-110.5,1.6
		c-5.4,3.6-10.5,7.8-15.3,12.6l-19.3,19.3l-12.7,12.7l-21.2,21.2L333.7,363.1l-21.8,21.8c-24.3,24.3,239,33.7,437.9,28.2
		l101.3-101.3c6.9-6.9,15.6-11,24.5-12.2l-93.1-93.1L746.9,170.9z"/>
	<path fill="#6DA736" d="M749.8,413.2l-5.9,5.9c-16.8,16.8,292,16.8,275.2,0L912,311.8c-9.9-9.9-23.4-14-36.3-12.2
		c-9,1.2-17.6,5.3-24.5,12.2L749.8,413.2z"/>
</g>
</svg>
