<?xml version="1.0" encoding="utf-8"?>
<!-- Generator: Adobe Illustrator 22.0.0, SVG Export Plug-In . SVG Version: 6.00 Build 0)  -->
<svg version="1.2" baseProfile="tiny" id="Layer_1" xmlns="http://www.w3.org/2000/svg" xmlns:xlink="http://www.w3.org/1999/xlink"
	 x="0px" y="0px" viewBox="0 0 317 528" xml:space="preserve">
<g>
	<path fill="#BD998D" d="M139.3,407.7C63.5,407.7,2,399.8,2,390c0,75.4,61.5,136.6,137.3,136.6S276.7,465.4,276.7,390
		C276.7,399.8,215.2,407.7,139.3,407.7z"/>
	<ellipse fill="#D8C4BD" cx="139.3" cy="390" rx="137.3" ry="21.1"/>
</g>
<g>
	<g>
		<g>
			<g>
				<path fill="#FF4F5B" d="M211.4,4.1c-19.8,4-36.7,17.9-47.3,35.1c-10.6,17.2-15.5,37.3-17.5,57.4c-3.8,38.9,9.7,81.8,26.5,117
					c37.9-21.1,55.6-68.2,63-92.7C247.9,82.3,245.8,5.3,211.4,4.1"/>
			</g>
		</g>
	</g>
	<g>
		<g>
			<g>
				<path fill="#FF4F5B" d="M122.6,268.4c9.7-20.4,5.7-45.8-7.6-64c-13.4-18.2-35-29.3-57.4-32.2c-10.3-1.4-22-0.7-29.6,6.4
					c-7.1,6.7-8.8,17.7-6.2,27.1s8.9,17.3,15.9,24.1C61.8,253.1,89.3,271.2,122.6,268.4"/>
			</g>
		</g>
	</g>
	<g>
		<g>
			<g>
				<g>
					<path fill="#1A2E35" d="M138.9,393.5c0.2,0,0.4-2.9,0.5-8c0.2-5.7,0.4-13.1,0.6-21.9c0.2-18.4,1-44.6-7.5-72
						c-8.3-27.3-23.4-49.3-37.4-61.6c-6.9-6.3-13.3-10.4-17.9-12.9c-2.2-1.3-4.1-2.1-5.4-2.6c-1.2-0.6-1.9-0.8-2-0.7
						c-0.4,0.6,10.5,5,23.8,17.7c13.4,12.5,27.9,34.1,36.1,61c8.3,26.8,7.9,52.7,8.2,71.1c0.1,9.2,0.1,16.7,0.3,21.9
						C138.5,390.7,138.7,393.5,138.9,393.5z"/>
				</g>
			</g>
		</g>
	</g>
	<g>
		<g>
			<g>
				<g>
					<path fill="#1A2E35" d="M207.8,62.9c-0.1,0-0.5,1.1-1.1,3.3c-0.7,2.5-1.6,5.7-2.7,9.7c-2.3,8.4-5.4,20.6-9.1,35.7
						c-7.4,30.2-17.1,72.1-26.8,118.6c-9.6,46.5-17.4,88.8-22.6,119.4c-2.6,15.3-4.6,27.8-5.9,36.4c-0.6,4.1-1,7.4-1.4,9.9
						c-0.3,2.3-0.4,3.5-0.3,3.5c0.1,0,0.4-1.2,0.9-3.4c0.5-2.5,1.1-5.8,1.9-9.8c1.7-8.9,4-21.2,6.8-36.2
						c5.7-30.6,13.8-72.8,23.4-119.2c9.7-46.4,19-88.4,26-118.7c3.4-14.9,6.2-27.1,8.2-35.9c0.9-4,1.6-7.3,2.1-9.8
						C207.7,64.1,207.9,63,207.8,62.9z"/>
				</g>
			</g>
		</g>
	</g>
	<g>
		<g>
			<g>
				<path fill="#FF4F5B" d="M173,303.3c17-44.4,56.8-79.3,103-90.5c11.8-2.8,26.4-3.2,33.5,6.6c7.1,9.8,2.1,23.7-4.5,33.8
					c-27.7,42.2-82.6,64.5-131.9,53.4"/>
			</g>
		</g>
	</g>
	<g>
		<g>
			<g>
				<g>
					<path fill="#1A2E35" d="M263.2,247.7c0-0.2-2.7,0.4-7.4,1.5c-2.4,0.6-5.3,1.3-8.5,2.5c-3.3,1.2-7.1,2.2-11.1,4
						c-4,1.7-8.5,3.5-12.9,6c-4.6,2.3-9.3,5.2-14.2,8.3c-9.6,6.4-19.6,14.5-28.7,24.2c-9.1,9.9-16.3,20.4-22,30.5
						c-2.7,5.1-5.2,10-7.1,14.8c-2.1,4.7-3.5,9.3-4.9,13.4c-1.5,4.1-2.1,8-3,11.4c-0.9,3.4-1.3,6.3-1.6,8.7
						c-0.7,4.8-0.9,7.5-0.7,7.5c0.6,0.1,1.8-10.7,7.2-27c1.4-4.1,2.9-8.6,5.1-13.1c1.9-4.7,4.5-9.5,7.2-14.5
						c5.7-9.8,12.9-20.1,21.8-29.8c9-9.6,18.7-17.5,28.1-24c4.8-3.1,9.3-6.1,13.8-8.4c4.4-2.6,8.7-4.4,12.6-6.3
						C252.8,250.6,263.4,248.3,263.2,247.7z"/>
				</g>
			</g>
		</g>
	</g>
</g>
</svg>
