<?xml version="1.0" encoding="utf-8"?>
<!-- Generator: Adobe Illustrator 22.0.0, SVG Export Plug-In . SVG Version: 6.00 Build 0)  -->
<svg version="1.2" baseProfile="tiny" id="Layer_1" xmlns="http://www.w3.org/2000/svg" xmlns:xlink="http://www.w3.org/1999/xlink"
	 x="0px" y="0px" viewBox="0 0 3840 837" xml:space="preserve">
<g>
	<circle fill-rule="evenodd" fill="#375A64" cx="1419" cy="37.2" r="16"/>
	<path fill-rule="evenodd" fill="#FF4F5B" d="M1419,384.2L1419,384.2c-7.2,0-13-5.8-13-13v-327c0-7.2,5.8-13,13-13l0,0
		c7.2,0,13,5.8,13,13v327C1432,378.4,1426.2,384.2,1419,384.2z"/>
	<circle fill-rule="evenodd" fill="#375A64" cx="1473" cy="37.2" r="16"/>
	<path fill-rule="evenodd" fill="#FF4F5B" d="M1473,762.2L1473,762.2c-7.2,0-13-5.8-13-13v-705c0-7.2,5.8-13,13-13l0,0
		c7.2,0,13,5.8,13,13v705C1486,756.4,1480.2,762.2,1473,762.2z"/>
	<g>
		<path fill="none" d="M1418,52.2v-21h15.8c-2.4-5.9-8.1-10-14.8-10c-8.8,0-16,7.2-16,16s7.2,16,16,16c1.9,0,3.8-0.4,5.5-1H1418z"/>
		<path fill="#FF4F5B" d="M1418,52.2h6.5c6.1-2.3,10.5-8.1,10.5-15c0-2.1-0.4-4.1-1.2-6H1418V52.2z"/>
	</g>
	<g>
		<path fill="none" d="M1473,21.2c-6.7,0-12.5,4.1-14.8,10h14.8v21h-5.5c1.7,0.6,3.6,1,5.5,1c8.8,0,16-7.2,16-16
			S1481.8,21.2,1473,21.2z"/>
		<path fill="#FF4F5B" d="M1473,31.2h-14.8c-0.8,1.9-1.2,3.9-1.2,6c0,6.9,4.4,12.7,10.5,15h5.5V31.2z"/>
	</g>
	<path fill-rule="evenodd" fill="#1A2E35" d="M1438.5,454.2h-39c-6.4,0-11.5-5.1-11.5-11.5v-145c0-6.4,5.1-11.5,11.5-11.5h39
		c6.4,0,11.5,5.1,11.5,11.5v145C1450,449.1,1444.9,454.2,1438.5,454.2z"/>
	<path fill-rule="evenodd" fill="#1A2E35" d="M1492.5,834.2h-39c-6.4,0-11.5-5.1-11.5-11.5v-145c0-6.4,5.1-11.5,11.5-11.5h39
		c6.4,0,11.5,5.1,11.5,11.5v145C1504,829.1,1498.9,834.2,1492.5,834.2z"/>
	<path fill="#375A64" d="M1365,21.2h-104c-8.8,0-16,7.2-16,16v0c0,8.8,7.2,16,16,16h104c8.8,0,16-7.2,16-16v0
		C1381,28.4,1373.8,21.2,1365,21.2z"/>
	<path fill="#375A64" d="M1207,21.2h-104c-8.8,0-16,7.2-16,16v0c0,8.8,7.2,16,16,16h104c8.8,0,16-7.2,16-16v0
		C1223,28.4,1215.8,21.2,1207,21.2z"/>
	<path fill="#375A64" d="M1049,21.2H945c-8.8,0-16,7.2-16,16v0c0,8.8,7.2,16,16,16h104c8.8,0,16-7.2,16-16v0
		C1065,28.4,1057.8,21.2,1049,21.2z"/>
	<path fill="#375A64" d="M1631,21.2h-104c-8.8,0-16,7.2-16,16v0c0,8.8,7.2,16,16,16h104c8.8,0,16-7.2,16-16v0
		C1647,28.4,1639.8,21.2,1631,21.2z"/>
	<path fill="#375A64" d="M1789,21.2h-104c-8.8,0-16,7.2-16,16v0c0,8.8,7.2,16,16,16h104c8.8,0,16-7.2,16-16v0
		C1805,28.4,1797.8,21.2,1789,21.2z"/>
	<path fill="#375A64" d="M1947,21.2h-104c-8.8,0-16,7.2-16,16v0c0,8.8,7.2,16,16,16h104c8.8,0,16-7.2,16-16v0
		C1963,28.4,1955.8,21.2,1947,21.2z"/>
	<path fill="#375A64" d="M2105,21.2h-104c-8.8,0-16,7.2-16,16v0c0,8.8,7.2,16,16,16h104c8.8,0,16-7.2,16-16v0
		C2121,28.4,2113.8,21.2,2105,21.2z"/>
	<path fill="#375A64" d="M2263,21.2h-104c-8.8,0-16,7.2-16,16v0c0,8.8,7.2,16,16,16h104c8.8,0,16-7.2,16-16v0
		C2279,28.4,2271.8,21.2,2263,21.2z"/>
	<path fill="#375A64" d="M2421,21.2h-104c-8.8,0-16,7.2-16,16v0c0,8.8,7.2,16,16,16h104c8.8,0,16-7.2,16-16v0
		C2437,28.4,2429.8,21.2,2421,21.2z"/>
	<path fill="#375A64" d="M2579,21.2h-104c-8.8,0-16,7.2-16,16v0c0,8.8,7.2,16,16,16h104c8.8,0,16-7.2,16-16v0
		C2595,28.4,2587.8,21.2,2579,21.2z"/>
	<path fill="#375A64" d="M2737,21.2h-104c-8.8,0-16,7.2-16,16v0c0,8.8,7.2,16,16,16h104c8.8,0,16-7.2,16-16v0
		C2753,28.4,2745.8,21.2,2737,21.2z"/>
	<path fill="#375A64" d="M2895,21.2h-104c-8.8,0-16,7.2-16,16v0c0,8.8,7.2,16,16,16h104c8.8,0,16-7.2,16-16v0
		C2911,28.4,2903.8,21.2,2895,21.2z"/>
	<path fill="#375A64" d="M3053,21.2h-104c-8.8,0-16,7.2-16,16v0c0,8.8,7.2,16,16,16h104c8.8,0,16-7.2,16-16v0
		C3069,28.4,3061.8,21.2,3053,21.2z"/>
	<path fill="#375A64" d="M891,21.2H787c-8.8,0-16,7.2-16,16v0c0,8.8,7.2,16,16,16h104c8.8,0,16-7.2,16-16v0
		C907,28.4,899.8,21.2,891,21.2z"/>
</g>
</svg>
