<?xml version="1.0" encoding="utf-8"?>
<!-- Generator: Adobe Illustrator 22.0.0, SVG Export Plug-In . SVG Version: 6.00 Build 0)  -->
<svg version="1.1" id="Layer_1" xmlns="http://www.w3.org/2000/svg" xmlns:xlink="http://www.w3.org/1999/xlink" x="0px" y="0px"
	 viewBox="0 0 3840 837" style="enable-background:new 0 0 3840 837;" xml:space="preserve">
<style type="text/css">
	.st0{fill:#375A64;}
	.st1{fill:#FF4F5B;}
	.st2{fill:none;}
	.st3{fill:#1A2E35;}
</style>
<circle class="st0" cx="1419" cy="37.2" r="16"/>
<path class="st1" d="M1419,384.2L1419,384.2c-7.2,0-13-5.8-13-13v-327c0-7.2,5.8-13,13-13l0,0c7.2,0,13,5.8,13,13v327
	C1432,378.4,1426.2,384.2,1419,384.2z"/>
<circle class="st0" cx="1473" cy="37.2" r="16"/>
<path class="st1" d="M1473,762.2L1473,762.2c-7.2,0-13-5.8-13-13v-705c0-7.2,5.8-13,13-13l0,0c7.2,0,13,5.8,13,13v705
	C1486,756.4,1480.2,762.2,1473,762.2z"/>
<g>
	<path class="st2" d="M1418,52.2v-21h15.8c-2.4-5.9-8.1-10-14.8-10c-8.8,0-16,7.2-16,16s7.2,16,16,16c1.9,0,3.8-0.4,5.5-1H1418z"/>
	<path class="st1" d="M1418,52.2h6.5c6.1-2.3,10.5-8.1,10.5-15c0-2.1-0.4-4.1-1.2-6H1418V52.2z"/>
</g>
<g>
	<path class="st2" d="M1473,21.2c-6.7,0-12.5,4.1-14.8,10h14.8v21h-5.5c1.7,0.6,3.6,1,5.5,1c8.8,0,16-7.2,16-16
		S1481.8,21.2,1473,21.2z"/>
	<path class="st1" d="M1473,31.2h-14.8c-0.8,1.9-1.2,3.9-1.2,6c0,6.9,4.4,12.7,10.5,15h5.5V31.2z"/>
</g>
<path class="st3" d="M1438.5,454.2h-39c-6.4,0-11.5-5.1-11.5-11.5v-145c0-6.4,5.1-11.5,11.5-11.5h39c6.4,0,11.5,5.1,11.5,11.5v145
	C1450,449.1,1444.9,454.2,1438.5,454.2z"/>
<path class="st3" d="M1492.5,834.2h-39c-6.4,0-11.5-5.1-11.5-11.5v-145c0-6.4,5.1-11.5,11.5-11.5h39c6.4,0,11.5,5.1,11.5,11.5v145
	C1504,829.1,1498.9,834.2,1492.5,834.2z"/>
<path class="st0" d="M1365,21.2h-104c-8.8,0-16,7.2-16,16l0,0c0,8.8,7.2,16,16,16h104c8.8,0,16-7.2,16-16l0,0
	C1381,28.4,1373.8,21.2,1365,21.2z"/>
<path class="st0" d="M1207,21.2h-104c-8.8,0-16,7.2-16,16l0,0c0,8.8,7.2,16,16,16h104c8.8,0,16-7.2,16-16l0,0
	C1223,28.4,1215.8,21.2,1207,21.2z"/>
<path class="st0" d="M1049,21.2H945c-8.8,0-16,7.2-16,16l0,0c0,8.8,7.2,16,16,16h104c8.8,0,16-7.2,16-16l0,0
	C1065,28.4,1057.8,21.2,1049,21.2z"/>
<path class="st0" d="M1631,21.2h-104c-8.8,0-16,7.2-16,16l0,0c0,8.8,7.2,16,16,16h104c8.8,0,16-7.2,16-16l0,0
	C1647,28.4,1639.8,21.2,1631,21.2z"/>
<path class="st0" d="M1789,21.2h-104c-8.8,0-16,7.2-16,16l0,0c0,8.8,7.2,16,16,16h104c8.8,0,16-7.2,16-16l0,0
	C1805,28.4,1797.8,21.2,1789,21.2z"/>
<path class="st0" d="M1947,21.2h-104c-8.8,0-16,7.2-16,16l0,0c0,8.8,7.2,16,16,16h104c8.8,0,16-7.2,16-16l0,0
	C1963,28.4,1955.8,21.2,1947,21.2z"/>
<path class="st0" d="M2105,21.2h-104c-8.8,0-16,7.2-16,16l0,0c0,8.8,7.2,16,16,16h104c8.8,0,16-7.2,16-16l0,0
	C2121,28.4,2113.8,21.2,2105,21.2z"/>
<path class="st0" d="M2263,21.2h-104c-8.8,0-16,7.2-16,16l0,0c0,8.8,7.2,16,16,16h104c8.8,0,16-7.2,16-16l0,0
	C2279,28.4,2271.8,21.2,2263,21.2z"/>
<path class="st0" d="M2421,21.2h-104c-8.8,0-16,7.2-16,16l0,0c0,8.8,7.2,16,16,16h104c8.8,0,16-7.2,16-16l0,0
	C2437,28.4,2429.8,21.2,2421,21.2z"/>
<path class="st0" d="M2579,21.2h-104c-8.8,0-16,7.2-16,16l0,0c0,8.8,7.2,16,16,16h104c8.8,0,16-7.2,16-16l0,0
	C2595,28.4,2587.8,21.2,2579,21.2z"/>
<path class="st0" d="M2737,21.2h-104c-8.8,0-16,7.2-16,16l0,0c0,8.8,7.2,16,16,16h104c8.8,0,16-7.2,16-16l0,0
	C2753,28.4,2745.8,21.2,2737,21.2z"/>
<path class="st0" d="M2895,21.2h-104c-8.8,0-16,7.2-16,16l0,0c0,8.8,7.2,16,16,16h104c8.8,0,16-7.2,16-16l0,0
	C2911,28.4,2903.8,21.2,2895,21.2z"/>
<path class="st0" d="M3053,21.2h-104c-8.8,0-16,7.2-16,16l0,0c0,8.8,7.2,16,16,16h104c8.8,0,16-7.2,16-16l0,0
	C3069,28.4,3061.8,21.2,3053,21.2z"/>
<path class="st0" d="M891,21.2H787c-8.8,0-16,7.2-16,16l0,0c0,8.8,7.2,16,16,16h104c8.8,0,16-7.2,16-16l0,0
	C907,28.4,899.8,21.2,891,21.2z"/>
<path class="st0" d="M733,21.2H629c-8.8,0-16,7.2-16,16l0,0c0,8.8,7.2,16,16,16h104c8.8,0,16-7.2,16-16l0,0
	C749,28.4,741.8,21.2,733,21.2z"/>
<path class="st0" d="M575,21.2H471c-8.8,0-16,7.2-16,16l0,0c0,8.8,7.2,16,16,16h104c8.8,0,16-7.2,16-16l0,0
	C591,28.4,583.8,21.2,575,21.2z"/>
<path class="st0" d="M417,21.2H313c-8.8,0-16,7.2-16,16l0,0c0,8.8,7.2,16,16,16h104c8.8,0,16-7.2,16-16l0,0
	C433,28.4,425.8,21.2,417,21.2z"/>
<path class="st0" d="M259,21.2H155c-8.8,0-16,7.2-16,16l0,0c0,8.8,7.2,16,16,16h104c8.8,0,16-7.2,16-16l0,0
	C275,28.4,267.8,21.2,259,21.2z"/>
<path class="st0" d="M101,21.2H-3c-8.8,0-16,7.2-16,16l0,0c0,8.8,7.2,16,16,16h104c8.8,0,16-7.2,16-16l0,0
	C117,28.4,109.8,21.2,101,21.2z"/>
<path class="st0" d="M-57,21.2h-104c-8.8,0-16,7.2-16,16l0,0c0,8.8,7.2,16,16,16h104c8.8,0,16-7.2,16-16l0,0
	C-41,28.4-48.2,21.2-57,21.2z"/>
<path class="st0" d="M4001,21.2h-104c-8.8,0-16,7.2-16,16l0,0c0,8.8,7.2,16,16,16h104c8.8,0,16-7.2,16-16l0,0
	C4017,28.4,4009.8,21.2,4001,21.2z"/>
<path class="st0" d="M3843,21.2h-104c-8.8,0-16,7.2-16,16l0,0c0,8.8,7.2,16,16,16h104c8.8,0,16-7.2,16-16l0,0
	C3859,28.4,3851.8,21.2,3843,21.2z"/>
<path class="st0" d="M3685,21.2h-104c-8.8,0-16,7.2-16,16l0,0c0,8.8,7.2,16,16,16h104c8.8,0,16-7.2,16-16l0,0
	C3701,28.4,3693.8,21.2,3685,21.2z"/>
<path class="st0" d="M3527,21.2h-104c-8.8,0-16,7.2-16,16l0,0c0,8.8,7.2,16,16,16h104c8.8,0,16-7.2,16-16l0,0
	C3543,28.4,3535.8,21.2,3527,21.2z"/>
<path class="st0" d="M3369,21.2h-104c-8.8,0-16,7.2-16,16l0,0c0,8.8,7.2,16,16,16h104c8.8,0,16-7.2,16-16l0,0
	C3385,28.4,3377.8,21.2,3369,21.2z"/>
<path class="st0" d="M3211,21.2h-104c-8.8,0-16,7.2-16,16l0,0c0,8.8,7.2,16,16,16h104c8.8,0,16-7.2,16-16l0,0
	C3227,28.4,3219.8,21.2,3211,21.2z"/>
</svg>
