<?xml version="1.0" encoding="utf-8"?>
<!-- Generator: Adobe Illustrator 22.0.0, SVG Export Plug-In . SVG Version: 6.00 Build 0)  -->
<svg version="1.0" id="Layer_1" xmlns="http://www.w3.org/2000/svg" xmlns:xlink="http://www.w3.org/1999/xlink" x="0px" y="0px"
	 viewBox="0 0 1920 1080" enable-background="new 0 0 1920 1080" xml:space="preserve">
<polygon fill="#FDDA36" points="-250.8,773.6 2230.1,802.5 2455.7,1022.8 -430,1022.8 "/>
<circle fill="#FFCF00" cx="153.6" cy="968.6" r="120"/>
<circle fill="#FFCF00" cx="233.2" cy="960.7" r="120"/>
<circle fill="#FFCF00" cx="342.4" cy="979.1" r="120"/>
<circle fill="#FFCF00" cx="631.1" cy="991.6" r="120"/>
<circle fill="#FFCF00" cx="751.5" cy="968.6" r="120"/>
<circle fill="#FFCF00" cx="975.8" cy="960.7" r="120"/>
<circle fill="#FFCF00" cx="1110.6" cy="991.6" r="120"/>
<circle fill="#FF9000" cx="362.4" cy="373.6" r="164.4"/>
<circle fill="#FF9000" cx="362.4" cy="547.3" r="199.3"/>
<circle fill="#FF9000" cx="444" cy="667" r="164.4"/>
<circle fill="#FF9000" cx="580.2" cy="403.2" r="164.4"/>
<circle fill="#FF9000" cx="568" cy="520" r="193.1"/>
<circle fill="#FF9000" cx="519" cy="802.8" r="112.8"/>
<circle fill="#FF9000" cx="639.7" cy="708.8" r="112.8"/>
<circle fill="#FDC500" cx="162.8" cy="1054.1" r="120"/>
<circle fill="#FDC500" cx="260.8" cy="1044.9" r="120"/>
<circle fill="#FDC500" cx="402.2" cy="1033.7" r="120"/>
<circle fill="#FDC500" cx="645.6" cy="1075.1" r="120"/>
<circle fill="#FDC500" cx="920.5" cy="1054.1" r="120"/>
<circle fill="#FDC500" cx="1023.8" cy="1018.6" r="120"/>
<circle fill="#FFA600" cx="456.8" cy="979.1" r="62.2"/>
<circle fill="#FFA600" cx="550.9" cy="1009.4" r="62.2"/>
<rect x="-262.9" y="965.8" transform="matrix(0.9997 -2.484623e-02 2.484623e-02 0.9997 -25.1825 24.6151)" fill="#FFA600" width="2481.8" height="119.7"/>
<path fill="#BF2D8F" d="M461.5,1233.3c-0.1-5.9,58.5-906.4,58.5-906.4l56.7,4.1l-43.6,929.2L461.5,1233.3z"/>
<path fill="#BF2D8F" d="M351.9,646c0,0,23.7,149.3,157.9,154.6c0,27,0,27,0,27S344.7,823.5,323.6,646C351.9,646,351.9,646,351.9,646
	z"/>
<path fill="#BF2D8F" d="M667.6,709.1c0,0-23.7,149.3-157.9,154.6c0,27,0,27,0,27s165.1-3.9,186.1-181.5
	C667.6,709.1,667.6,709.1,667.6,709.1z"/>
<path fill="#BF2D8F" d="M667.6,536.1c0,0-23.7,149.3-157.9,154.6c0,27,0,27,0,27s165.1-3.9,186.1-181.5
	C667.6,536.1,667.6,536.1,667.6,536.1z"/>
<path fill="#BF2D8F" d="M361.1,476.2c0,0,23.7,149.3,157.9,154.6c0,27,0,27,0,27s-165.1-3.9-186.1-181.5
	C361.1,476.2,361.1,476.2,361.1,476.2z"/>
<circle fill="#FFCF00" cx="332.8" cy="617" r="50"/>
<circle fill="#FFCF00" cx="402.6" cy="636.1" r="59.9"/>
<circle fill="#FFCF00" cx="268.7" cy="633.8" r="62.2"/>
<path fill="#FFCF00" d="M400.9,695.9H267.4c-27.4,0-49.7-22.2-49.7-49.7v0c0-27.4,22.2-49.7,49.7-49.7h133.5
	c27.4,0,49.7,22.2,49.7,49.7v0C450.6,673.7,428.3,695.9,400.9,695.9z"/>
<circle fill="#FFCF00" cx="695.9" cy="714.4" r="50"/>
<circle fill="#FFCF00" cx="752.5" cy="733.4" r="59.9"/>
<circle fill="#FFCF00" cx="631.8" cy="731.1" r="62.2"/>
<path fill="#FFCF00" d="M750.8,793.3H630.5c-27.4,0-49.7-22.2-49.7-49.7v0c0-27.4,22.2-49.7,49.7-49.7h120.4
	c27.4,0,49.7,22.2,49.7,49.7v0C800.5,771.1,778.3,793.3,750.8,793.3z"/>
<circle fill="#FFCF00" cx="749.2" cy="488.1" r="50"/>
<circle fill="#FFCF00" cx="805.8" cy="507.2" r="59.9"/>
<circle fill="#FFCF00" cx="685.1" cy="504.9" r="62.2"/>
<path fill="#FFCF00" d="M804.1,567H683.7c-27.4,0-49.7-22.2-49.7-49.7v0c0-27.4,22.2-49.7,49.7-49.7h120.4
	c27.4,0,49.7,22.2,49.7,49.7v0C853.8,544.8,831.5,567,804.1,567z"/>
<circle fill="#FFCF00" cx="311.1" cy="423.6" r="50"/>
<circle fill="#FFCF00" cx="380.9" cy="442.7" r="59.9"/>
<circle fill="#FFCF00" cx="247" cy="440.4" r="62.2"/>
<path fill="#FFCF00" d="M380.5,502.6H245.7c-27.4,0-49.7-22.2-49.7-49.7v0c0-27.4,22.2-49.7,49.7-49.7h134.8
	c27.4,0,49.7,22.2,49.7,49.7v0C430.2,480.3,408,502.6,380.5,502.6z"/>
<circle fill="#FFCF00" cx="547.2" cy="195.8" r="103"/>
<circle fill="#FFCF00" cx="710.7" cy="235.1" r="123.4"/>
<circle fill="#FFCF00" cx="361.6" cy="230.4" r="128.1"/>
<path fill="#FFCF00" d="M687.3,358.5H385.5c-41.7,0-75.5-33.8-75.5-75.5v-53.7c0-41.7,33.8-75.5,75.5-75.5h301.8
	c41.7,0,75.5,33.8,75.5,75.5V283C762.8,324.7,729,358.5,687.3,358.5z"/>
<circle fill="#FFA600" cx="507.5" cy="1002.1" r="62.2"/>
<path fill="#FF9006" d="M-363.1,1003.8c27,1.3,2624.7-7.9,2624.7-7.9l-82.5,98l-2714.7-35.5L-363.1,1003.8z"/>
<rect x="-393.5" y="1022.8" fill="#C345FF" width="2421.7" height="259.2"/>
</svg>
