<?xml version="1.0" encoding="utf-8"?>
<!-- Generator: Adobe Illustrator 22.0.0, SVG Export Plug-In . SVG Version: 6.00 Build 0)  -->
<svg version="1.1" id="Layer_1" xmlns="http://www.w3.org/2000/svg" xmlns:xlink="http://www.w3.org/1999/xlink" x="0px" y="0px"
	 viewBox="0 0 128 128" style="enable-background:new 0 0 128 128;" xml:space="preserve">
<g>
	<path style="fill:#FFFFFF;" d="M72.8,89.8H54.2c-0.8,0-1.5-0.6-1.6-1.3l-5.5-34c-0.2-1,0.6-1.9,1.6-1.9h30.7c1,0,1.8,0.9,1.6,1.9
		l-6.5,34C74.2,89.3,73.6,89.8,72.8,89.8z"/>
	<path style="fill:#FFFFFF;" d="M73.5,38.2l-24.1,6.1c-0.3,0.1-0.5,0.3-0.6,0.6l-1.6,4.3c-0.4,0.9,0.4,2.1,1.3,1.9l29.2-7.3
		c0.8-0.2,1-1.6,0.2-2.2l-3.4-3C74.1,38.2,73.8,38.1,73.5,38.2z"/>
</g>
</svg>
