<?xml version="1.0" encoding="utf-8"?>
<!-- Generator: Adobe Illustrator 22.0.0, SVG Export Plug-In . SVG Version: 6.00 Build 0)  -->
<svg version="1.1" id="Layer_1" xmlns="http://www.w3.org/2000/svg" xmlns:xlink="http://www.w3.org/1999/xlink" x="0px" y="0px"
	 viewBox="0 0 128 128" style="enable-background:new 0 0 128 128;" xml:space="preserve">
<path style="fill:#FFFFFF;" d="M93.6,70.6L88.1,80c-0.3,0.6-1.1,0.5-1.4,0l-5.4-9.5L75.9,61c-0.3-0.5,0.1-1.2,0.7-1.3l10.9,0.1
	L98.4,60c0.6,0,1,0.7,0.7,1.2L93.6,70.6z"/>
<path style="fill:#FFFFFF;" d="M75.8,79.2c-3.3,2.6-7.4,4.1-11.8,4.1c-10.6,0-19.3-8.6-19.3-19.3S53.4,44.8,64,44.8
	S83.3,53.4,83.3,64c0,2.4-0.5,4.8-1.3,6.9l4.1-3.5l3.6,4.2c0.7-2.4,1.1-5,1.1-7.6c0-14.8-12-26.7-26.7-26.7S37.3,49.2,37.3,64
	s12,26.7,26.7,26.7c6.3,0,12.1-2.2,16.7-5.9L75.8,79.2z"/>
</svg>
