<?xml version="1.0" encoding="utf-8"?>
<!-- Generator: Adobe Illustrator 22.0.0, SVG Export Plug-In . SVG Version: 6.00 Build 0)  -->
<svg version="1.1" id="Layer_1" xmlns="http://www.w3.org/2000/svg" xmlns:xlink="http://www.w3.org/1999/xlink" x="0px" y="0px"
	 viewBox="0 0 128 128" style="enable-background:new 0 0 128 128;" xml:space="preserve">
<path style="fill:#FFFFFF;" d="M47.7,61.6l14.9,14.9c0.8,0.8,2,0.8,2.8,0l14.9-14.9c1.2-1.2,0.4-3.4-1.4-3.4H49.1
	C47.4,58.2,46.5,60.3,47.7,61.6z"/>
<path style="fill:#FFFFFF;" d="M85,91.7H43c-1.1,0-2-0.9-2-2v-4.8c0-1.1,0.9-2,2-2H85c1.1,0,2,0.9,2,2v4.8
	C87.1,90.8,86.2,91.7,85,91.7z"/>
<path style="fill:#FFFFFF;" d="M66.7,36.3h-5.5c-1.2,0-2.3,1-2.3,2.3v22.2c0,1.2,1,2.3,2.3,2.3h5.5c1.2,0,2.3-1,2.3-2.3V38.5
	C69,37.3,68,36.3,66.7,36.3z"/>
</svg>
