<?xml version="1.0" encoding="utf-8"?>
<!-- Generator: Adobe Illustrator 22.0.0, SVG Export Plug-In . SVG Version: 6.00 Build 0)  -->
<svg version="1.1" id="Layer_1" xmlns="http://www.w3.org/2000/svg" xmlns:xlink="http://www.w3.org/1999/xlink" x="0px" y="0px"
	 viewBox="0 0 128 128" style="enable-background:new 0 0 128 128;" xml:space="preserve">
<style type="text/css">
	.st0{fill:#FFFFFF;}
</style>
<path class="st0" d="M84.3,40.7h-4c0,0,0,0,0,0c0,3.3-2.7,6-6,6H53.7c-3.3,0-6-2.7-6-6c0,0,0,0,0,0h-4c-1.1,0-2,0.9-2,2v40.5
	c0,1.1,0.9,2,2,2h40.5c1.1,0,2-0.9,2-2V42.7C86.3,41.6,85.4,40.7,84.3,40.7z M79.6,72.7c0,1.1-0.9,2-2,2H50.4c-1.1,0-2-0.9-2-2v0
	c0-1.1,0.9-2,2-2h27.2C78.7,70.7,79.6,71.6,79.6,72.7L79.6,72.7z M79.6,64.7c0,1.1-0.9,2-2,2H50.4c-1.1,0-2-0.9-2-2v0
	c0-1.1,0.9-2,2-2h27.2C78.7,62.7,79.6,63.6,79.6,64.7L79.6,64.7z M79.6,56.7c0,1.1-0.9,2-2,2H50.4c-1.1,0-2-0.9-2-2v0
	c0-1.1,0.9-2,2-2h27.2C78.7,54.7,79.6,55.6,79.6,56.7L79.6,56.7z"/>
<path class="st0" d="M72.6,42.8H55.4c-1.1,0-2-0.9-2-2v0c0-1.1,0.9-2,2-2h17.2c1.1,0,2,0.9,2,2v0C74.6,41.8,73.7,42.8,72.6,42.8z"/>
</svg>
