<?xml version="1.0" encoding="utf-8"?>
<!-- Generator: Adobe Illustrator 22.0.0, SVG Export Plug-In . SVG Version: 6.00 Build 0)  -->
<svg version="1.1" id="Layer_1" xmlns="http://www.w3.org/2000/svg" xmlns:xlink="http://www.w3.org/1999/xlink" x="0px" y="0px"
	 viewBox="0 0 512 512" style="enable-background:new 0 0 512 512;" xml:space="preserve">
<g>
	<path style="fill:#CE3E5D;" d="M339.7,191.4H172.5c-80.6,0-145.8,65.2-145.8,145.8l0,0c0,39.8,32.3,72,72,72h314.7
		c39.8,0,72-32.3,72-72l0,0C485.5,256.6,420.3,191.4,339.7,191.4z"/>
</g>
<path style="fill:#E5E5E5;" d="M444.7,170.8c-33.6-41.5-85-68-142.5-68h-92.2c-50.7,0-96.6,20.6-129.8,53.9
	C47,189.8,26.5,235.6,26.5,286.1v11.4c0,29,23.5,52.5,52.5,52.5h354c29,0,52.5-23.5,52.5-52.5v-11.4
	C485.5,242.4,470.2,202.3,444.7,170.8z"/>
</svg>
