<?xml version="1.0" encoding="utf-8"?>
<!-- Generator: Adobe Illustrator 22.0.0, SVG Export Plug-In . SVG Version: 6.00 Build 0)  -->
<svg version="1.1" id="Layer_1" xmlns="http://www.w3.org/2000/svg" xmlns:xlink="http://www.w3.org/1999/xlink" x="0px" y="0px"
	 viewBox="0 0 512 512" style="enable-background:new 0 0 512 512;" xml:space="preserve">
<g>
	<g>
		<defs>
			<path id="SVGID_2_" d="M64.3,394c13.3,9.6,29.9,15.3,47.9,15.3h158.5c3.5,0,6.6-1.7,8.5-4.6l0,0c3.7-5.5,11.4-6.1,16-1.3l2.6,2.8
				c2,2,4.6,3.1,7.4,3.1h98.1c49.6,0,88.3-43.9,81.1-93.1c-10.3-69.9-70.6-123.7-143.6-123.7H174.5c-73,0-133.3,53.8-143.6,123.7
				C26.5,347.7,40.7,376.9,64.3,394"/>
		</defs>
		<defs>
			<path id="SVGID_15_" d="M64.3,394c13.3,9.6,29.9,15.3,47.9,15.3h158.5c3.5,0,6.6-1.7,8.5-4.6l0,0c3.7-5.5,11.4-6.1,16-1.3
				l2.6,2.8c2,2,4.6,3.1,7.4,3.1h98.1c49.6,0,88.3-43.9,81.1-93.1c-10.3-69.9-70.6-123.7-143.6-123.7H174.5
				c-73,0-133.3,53.8-143.6,123.7C26.5,347.7,40.7,376.9,64.3,394"/>
		</defs>
		<clipPath id="SVGID_1_">
			<use xlink:href="#SVGID_2_"  style="overflow:visible;"/>
		</clipPath>
		<clipPath id="SVGID_6_" style="clip-path:url(#SVGID_1_);">
			<use xlink:href="#SVGID_15_"  style="overflow:visible;"/>
		</clipPath>
		<g style="clip-path:url(#SVGID_6_);">
			<defs>
				<path id="SVGID_19_" d="M64.3,394c13.3,9.6,29.9,15.3,47.9,15.3h158.5c3.5,0,6.6-1.7,8.5-4.6l0,0c3.7-5.5,11.4-6.1,16-1.3
					l2.6,2.8c2,2,4.6,3.1,7.4,3.1h98.1c49.6,0,88.3-43.9,81.1-93.1c-10.3-69.9-70.6-123.7-143.6-123.7H174.5
					c-73,0-133.3,53.8-143.6,123.7C26.5,347.7,40.7,376.9,64.3,394"/>
			</defs>
			<clipPath id="SVGID_7_">
				<use xlink:href="#SVGID_19_"  style="overflow:visible;"/>
			</clipPath>
			<g style="clip-path:url(#SVGID_7_);">
				<path d="M64.3,394c13.3,9.6,29.9,15.3,47.9,15.3h158.5c3.5,0,6.6-1.7,8.5-4.6l0,0c3.7-5.5,11.4-6.1,16-1.3l2.6,2.8
					c2,2,4.6,3.1,7.4,3.1h98.1c49.6,0,88.3-43.9,81.1-93.1c-10.3-69.9-70.6-123.7-143.6-123.7H174.5c-73,0-133.3,53.8-143.6,123.7
					C26.5,347.7,40.7,376.9,64.3,394"/>
			</g>
		</g>
		<g style="clip-path:url(#SVGID_6_);">
			<path style="fill:#565656;" d="M59.4,397.9l-1.4-8.6l4.3-0.7c34.5-5.7,59.5-35.1,59.5-70c0-34.2-25.5-64.2-59.3-69.8l-4.3-0.7
				l1.4-8.6l4.3,0.7c38.6,6.4,66.6,39.4,66.6,78.4c0,39.2-28.1,72.2-66.8,78.6L59.4,397.9z"/>
		</g>
		<g style="clip-path:url(#SVGID_6_);">
			<path style="fill:#565656;" d="M501.2,397.2c-38.6-6.4-66.6-39.4-66.6-78.4c0-39.2,28.1-72.2,66.8-78.6l1.4,8.6
				c-34.5,5.7-59.5,35.1-59.5,70c0,34.2,25.5,64.2,59.3,69.8L501.2,397.2z"/>
		</g>
		<g style="clip-path:url(#SVGID_6_);">
			<defs>
				<path id="SVGID_4_" d="M64.3,394c13.3,9.6,29.9,15.3,47.9,15.3h158.5c3.5,0,6.6-1.7,8.5-4.6l0,0c3.7-5.5,11.4-6.1,16-1.3
					l2.6,2.8c2,2,4.6,3.1,7.4,3.1h98.1c49.6,0,88.3-43.9,81.1-93.1c-10.3-69.9-70.6-123.7-143.6-123.7H174.5
					c-73,0-133.3,53.8-143.6,123.7C26.5,347.7,40.7,376.9,64.3,394"/>
			</defs>
			<clipPath id="SVGID_8_">
				<use xlink:href="#SVGID_4_"  style="overflow:visible;"/>
			</clipPath>
		</g>
		<g style="clip-path:url(#SVGID_6_);">
			<defs>
				<path id="SVGID_3_" d="M64.3,394c13.3,9.6,29.9,15.3,47.9,15.3h158.5c3.5,0,6.6-1.7,8.5-4.6l0,0c3.7-5.5,11.4-6.1,16-1.3
					l2.6,2.8c2,2,4.6,3.1,7.4,3.1h98.1c49.6,0,88.3-43.9,81.1-93.1c-10.3-69.9-70.6-123.7-143.6-123.7H174.5
					c-73,0-133.3,53.8-143.6,123.7C26.5,347.7,40.7,376.9,64.3,394"/>
			</defs>
			<clipPath id="SVGID_9_">
				<use xlink:href="#SVGID_3_"  style="overflow:visible;"/>
			</clipPath>
		</g>
	</g>
	<path style="fill:#E5E5E5;" d="M444.7,170.8c-33.6-41.5-85-68-142.5-68h-92.2c-50.7,0-96.6,20.6-129.8,53.9
		C47,189.8,26.5,235.6,26.5,286.1v11.4c0,29,23.5,52.5,52.5,52.5h354c29,0,52.5-23.5,52.5-52.5v-11.4
		C485.5,242.4,470.2,202.3,444.7,170.8z"/>
</g>
</svg>
