<?xml version="1.0" encoding="utf-8"?>
<!-- Generator: Adobe Illustrator 22.0.0, SVG Export Plug-In . SVG Version: 6.00 Build 0)  -->
<svg version="1.1" id="Layer_1" xmlns="http://www.w3.org/2000/svg" xmlns:xlink="http://www.w3.org/1999/xlink" x="0px" y="0px"
	 viewBox="0 0 512 512" style="enable-background:new 0 0 512 512;" xml:space="preserve">
<style type="text/css">
	.st0{fill:#F4F4F4;}
	.st1{fill:#FFFFFF;}
	.st2{fill:#111111;}
	.st3{fill:#E5E5E5;}
</style>
<g>
	<path class="st0" d="M255.8,396.7c-56.7,0-107.5-23.4-142.4-60.6c-24.9,24.9-40.2,59.3-40.2,97.3v8.6c0,21.8,17.7,39.4,39.4,39.4
		h266c21.8,0,39.4-17.7,39.4-39.4v-8.6c0-32.8-11.5-63-30.7-86.6C353.2,377.7,306.8,396.7,255.8,396.7z"/>
	<path class="st1" d="M255.8,396.7c51,0,97.4-19,131.6-50c-25.3-31.2-63.9-51.1-107.1-51.1H211c-38.1,0-72.6,15.5-97.5,40.5
		C148.3,373.3,199.1,396.7,255.8,396.7z"/>
	<path class="st2" d="M306.5,457.9l-18.8-52.1c-0.1-0.4,14.5-24,14.5-24l-50.1,5c0,0,22.8,18.6,22.6,19.6l-13.3,52.3
		c-0.2,0.8,0.1,1.8,0.7,2.3l20.7,18c0.7,0.6,1.7,0.6,2.4,0l20.6-18.5C306.6,459.8,306.8,458.8,306.5,457.9z"/>
	<ellipse class="st3" cx="256" cy="209.6" rx="186.2" ry="178.9"/>
</g>
</svg>
