<?xml version="1.0" encoding="utf-8"?>
<!-- Generator: Adobe Illustrator 22.0.0, SVG Export Plug-In . SVG Version: 6.00 Build 0)  -->
<svg version="1.1" id="Layer_1" xmlns="http://www.w3.org/2000/svg" xmlns:xlink="http://www.w3.org/1999/xlink" x="0px" y="0px"
	 viewBox="0 0 1976.9 1832.7" style="enable-background:new 0 0 1976.9 1832.7;" xml:space="preserve">
<g id="Layer_1_1_">
	<path style="fill:#C2FFFF;" d="M2016.3,0H-29.5v1767.7h2045.7L2016.3,0L2016.3,0z"/>
	<path style="fill:#FFF9D5;" d="M-107.6,1680.9l2208.1,67.8l164.2,120.5H-287.9L-107.6,1680.9z"/>
	<g>
		<ellipse style="fill:#683F28;" cx="956.7" cy="1777.2" rx="28.5" ry="7.5"/>
		<path style="fill:#00F59A;" d="M972.3,1656.7c0,0,16.6-39.7,75.8-37.9C1030.8,1641.2,998.2,1688,972.3,1656.7z"/>
		<path style="fill:#438C25;" d="M973.3,1654.7c0,0-29.7,44.3-24.6,121.4c7,2.8,7.7,3.5,13.3,0c0-18-0.9-56.7,17.7-112.7
			C981,1654.9,973.3,1654.7,973.3,1654.7z"/>
		<path style="fill:#438C25;" d="M918.7,1633c40,37.4,30.7,37.4,41.6,51.6c6.6-0.6,6.7-1.6,10.6-8.1c-43.2-57.9-56.6-59.4-56.6-59.4
			S912.4,1627,918.7,1633z"/>
		<path style="fill:#00F59A;" d="M855.7,1579.3c59,5,70.9,46.3,70.9,46.3C897.2,1653.8,870.2,1603.6,855.7,1579.3z"/>
	</g>
</g>
<g id="EPISODES">
	<g id="OPEN-1">
		<rect x="970.8" y="1590.7" style="fill:#FFFFFF;fill-opacity:0;" width="92.3" height="98.3"/>
	</g>
	<g id="OPEN-2">
		<rect x="844.1" y="1561.7" style="fill:#FFFFFF;fill-opacity:0;" width="94.1" height="102.5"/>
	</g>
</g>
</svg>
