<?xml version="1.0" encoding="utf-8"?>
<!-- Generator: Adobe Illustrator 22.0.0, SVG Export Plug-In . SVG Version: 6.00 Build 0)  -->
<svg version="1.1" id="Layer_1" xmlns="http://www.w3.org/2000/svg" xmlns:xlink="http://www.w3.org/1999/xlink" x="0px" y="0px"
	 viewBox="0 0 1976.9 2840.8" style="enable-background:new 0 0 1976.9 2840.8;" xml:space="preserve">
<g id="Layer_1_1_">
	<path style="fill:#C2FFFF;" d="M2016.4-23.3H-29.4v2799.1h2045.7L2016.4-23.3L2016.4-23.3z"/>
	<path style="fill:#FFF9D5;" d="M-107.5,2689l2208.1,67.8l164.2,120.5H-287.8L-107.5,2689z"/>
	<g>
		<ellipse style="fill:#683F28;" cx="972.8" cy="2785.3" rx="28.5" ry="7.5"/>
		<path style="fill:#00F59A;" d="M978.7,2705.6c0,0,11.8-28.3,54-27C1020.3,2694.6,997.2,2727.9,978.7,2705.6z"/>
		<path style="fill:#438C25;" d="M979.3,2704.2c0,0-14.4,29.2-13.7,80.7c5,2,5.5,2.5,9.5,0c0-12.8-5.1-35,8.1-74.9
			C984.2,2703.9,979.3,2704.2,979.3,2704.2z"/>
	</g>
</g>
<path style="opacity:0.4;fill:#3A7055;" d="M918.9,2689.4c-1.5-6.3-3.6-13.2-5.5-19.4c-1.1-3.5-4-2.3-3.4,1.3c0.7,4.2,1,8.9,1.9,13
	c-20.8-13.6-38-32.5-46.2-56.4c-9.1-26.4-4.9-56,13.7-77.4c2.4-2.8,1-3.6-1.4-0.9c-19.1,22-25.3,49.7-16.9,77.4
	c7.8,25.9,26.2,44.3,46,60.8c-3,0.2-5.3,0.9-8.3,1.1c-3.6,0.2-4.9,3.8-0.9,3.9c6.1,0.1,12.3,0.6,18.3,0.2
	C918,2692.9,919.3,2691.3,918.9,2689.4z"/>
<g>
	<g style="opacity:0.8;">
		<path style="fill:#1D1E28;" d="M927.2,2452.1c1.6,0,3,0.3,4.2,0.9c1.2,0.6,2.2,1.4,3.1,2.5c0.8,1.1,1.5,2.3,1.9,3.7
			c0.4,1.4,0.6,2.9,0.6,4.4c0,2.1-0.4,4-1.1,5.8c-0.8,1.7-1.9,3.1-3.3,4.1c-1.4,1-3.2,1.5-5.3,1.5h-7.8c-0.6,0-1-0.2-1.4-0.6
			c-0.4-0.4-0.6-0.9-0.6-1.4v-18.9c0-0.6,0.2-1,0.6-1.4c0.4-0.4,0.9-0.6,1.4-0.6H927.2z M926.9,2471.2c1.4,0,2.5-0.4,3.4-1.1
			c0.9-0.7,1.5-1.6,1.9-2.8c0.4-1.2,0.6-2.4,0.6-3.8c0-1-0.1-2-0.3-2.9c-0.2-0.9-0.6-1.7-1.1-2.4c-0.5-0.7-1.1-1.3-1.8-1.7
			c-0.7-0.4-1.6-0.6-2.6-0.6h-5.7l0.3-0.3v16l-0.2-0.4H926.9z"/>
		<path style="fill:#1D1E28;" d="M957.2,2466.2c0,1.8-0.4,3.4-1.2,4.7c-0.8,1.4-1.9,2.4-3.2,3.2c-1.3,0.8-2.8,1.1-4.5,1.1
			s-3.2-0.4-4.5-1.1c-1.3-0.8-2.4-1.8-3.2-3.2s-1.2-2.9-1.2-4.7c0-1.8,0.4-3.4,1.2-4.7s1.9-2.4,3.2-3.2s2.8-1.2,4.5-1.2
			s3.2,0.4,4.5,1.2c1.3,0.8,2.4,1.8,3.2,3.2C956.8,2462.9,957.2,2464.4,957.2,2466.2z M953.3,2466.2c0-1.1-0.2-2.1-0.7-2.9
			c-0.4-0.8-1-1.5-1.8-1.9s-1.6-0.7-2.5-0.7c-0.9,0-1.7,0.2-2.5,0.7c-0.8,0.5-1.3,1.1-1.8,1.9s-0.7,1.8-0.7,2.9c0,1.1,0.2,2,0.7,2.9
			s1,1.5,1.8,1.9c0.8,0.5,1.6,0.7,2.5,0.7c0.9,0,1.7-0.2,2.5-0.7s1.3-1.1,1.8-1.9C953,2468.3,953.3,2467.3,953.3,2466.2z"/>
		<path style="fill:#1D1E28;" d="M962.7,2474.9c-0.6,0-1-0.2-1.4-0.6s-0.6-0.9-0.6-1.4v-20.2c0-0.6,0.2-1,0.6-1.4s0.8-0.6,1.4-0.6
			c0.6,0,1,0.2,1.4,0.6c0.4,0.4,0.6,0.9,0.6,1.4v20.2c0,0.6-0.2,1-0.6,1.4C963.8,2474.7,963.3,2474.9,962.7,2474.9z M973.1,2457.5
			c0.5,0,0.9,0.2,1.3,0.6c0.4,0.4,0.6,0.8,0.6,1.2c0,0.5-0.3,1-0.8,1.5l-9.8,9l-0.2-4.5l7.5-7.2
			C972.1,2457.7,972.6,2457.5,973.1,2457.5z M973.6,2474.9c-0.6,0-1-0.2-1.4-0.7l-6-6.4l3-2.7l5.9,6.4c0.4,0.4,0.6,0.9,0.6,1.5
			c0,0.6-0.2,1-0.7,1.4S974,2474.9,973.6,2474.9z"/>
		<path style="fill:#1D1E28;" d="M992,2457.5c0.6,0,1,0.2,1.4,0.6c0.4,0.4,0.6,0.9,0.6,1.4v8.3c0,2.3-0.6,4.1-1.9,5.5
			c-1.3,1.4-3.1,2-5.6,2c-2.4,0-4.3-0.7-5.5-2c-1.3-1.3-1.9-3.2-1.9-5.5v-8.3c0-0.6,0.2-1,0.6-1.4c0.4-0.4,0.8-0.6,1.4-0.6
			c0.6,0,1,0.2,1.4,0.6c0.4,0.4,0.6,0.9,0.6,1.4v8.3c0,1.3,0.3,2.3,0.9,3c0.6,0.6,1.5,1,2.6,1c1.2,0,2.1-0.3,2.7-1
			c0.6-0.6,0.9-1.6,0.9-3v-8.3c0-0.6,0.2-1,0.6-1.4C991,2457.7,991.4,2457.5,992,2457.5z"/>
		<path style="fill:#1D1E28;" d="M1007.5,2457.1c1.6,0,2.8,0.3,3.7,1c0.8,0.7,1.4,1.6,1.7,2.7c0.3,1.1,0.5,2.4,0.5,3.7v8.4
			c0,0.6-0.2,1-0.6,1.4c-0.4,0.4-0.8,0.6-1.4,0.6c-0.6,0-1-0.2-1.4-0.6c-0.4-0.4-0.6-0.9-0.6-1.4v-8.4c0-0.7-0.1-1.4-0.3-1.9
			c-0.2-0.6-0.5-1-1-1.4c-0.5-0.3-1.2-0.5-2.1-0.5c-0.9,0-1.6,0.2-2.2,0.5c-0.6,0.3-1.1,0.8-1.4,1.4c-0.3,0.6-0.5,1.2-0.5,1.9v8.4
			c0,0.6-0.2,1-0.6,1.4c-0.4,0.4-0.8,0.6-1.4,0.6c-0.6,0-1-0.2-1.4-0.6s-0.6-0.9-0.6-1.4v-13.5c0-0.6,0.2-1,0.6-1.4
			c0.4-0.4,0.8-0.6,1.4-0.6c0.6,0,1,0.2,1.4,0.6c0.4,0.4,0.6,0.9,0.6,1.4v1.4l-0.5-0.1c0.2-0.4,0.5-0.8,0.8-1.2s0.8-0.8,1.3-1.2
			c0.5-0.4,1.1-0.7,1.7-0.9S1006.8,2457.1,1007.5,2457.1z"/>
		<path style="fill:#1D1E28;" d="M1027.6,2457.5c0.4,0,0.8,0.1,1.1,0.3s0.6,0.5,0.8,0.9l4.8,11l-0.7,0.3l4.9-11.3
			c0.4-0.9,0.9-1.3,1.7-1.2c0.5,0,1,0.2,1.3,0.5c0.3,0.3,0.5,0.8,0.5,1.3c0,0.2,0,0.3-0.1,0.5c-0.1,0.2-0.1,0.3-0.2,0.5l-6.1,13.5
			c-0.3,0.8-0.9,1.2-1.7,1.2c-0.4,0.1-0.8,0-1.2-0.2c-0.4-0.2-0.7-0.6-0.9-1l-6.1-13.5c0-0.1-0.1-0.3-0.1-0.4
			c-0.1-0.2-0.1-0.4-0.1-0.6c0-0.4,0.2-0.8,0.5-1.2C1026.5,2457.7,1027,2457.5,1027.6,2457.5z"/>
		<path style="fill:#1D1E28;" d="M1053.2,2475.3c-1.9,0-3.5-0.4-4.8-1.2c-1.4-0.8-2.4-1.8-3.1-3.2s-1.1-2.8-1.1-4.5
			c0-2,0.4-3.6,1.2-5c0.8-1.4,1.8-2.4,3.1-3.2c1.3-0.7,2.6-1.1,4.1-1.1c1.1,0,2.2,0.2,3.2,0.7s1.9,1.1,2.6,1.9
			c0.8,0.8,1.4,1.7,1.8,2.8c0.4,1,0.7,2.2,0.7,3.3c0,0.5-0.2,0.9-0.6,1.3c-0.4,0.3-0.8,0.5-1.4,0.5h-12.5l-1-3.3h12l-0.7,0.7v-0.9
			c0-0.6-0.3-1.2-0.7-1.7c-0.4-0.5-0.9-0.9-1.5-1.2c-0.6-0.3-1.2-0.4-1.9-0.4c-0.7,0-1.3,0.1-1.8,0.3c-0.6,0.2-1.1,0.5-1.5,0.9
			c-0.4,0.4-0.7,1-1,1.7c-0.2,0.7-0.4,1.6-0.4,2.6c0,1.2,0.2,2.2,0.7,3c0.5,0.8,1.1,1.4,1.9,1.9c0.8,0.4,1.6,0.6,2.5,0.6
			c0.8,0,1.4-0.1,1.9-0.2c0.5-0.1,0.9-0.3,1.2-0.5c0.3-0.2,0.6-0.3,0.8-0.5c0.4-0.2,0.8-0.3,1.1-0.3c0.5,0,0.9,0.2,1.2,0.5
			c0.3,0.3,0.5,0.7,0.5,1.1c0,0.6-0.3,1.1-0.9,1.6c-0.6,0.5-1.4,0.9-2.4,1.3C1055.4,2475.1,1054.3,2475.3,1053.2,2475.3z"/>
		<path style="fill:#1D1E28;" d="M911.4,2494.5c-0.7,0-1.3-0.1-1.6-0.4c-0.3-0.2-0.5-0.7-0.5-1.3v-0.6c0-0.6,0.2-1.1,0.5-1.3
			c0.3-0.2,0.9-0.3,1.6-0.3c0.8,0,1.3,0.1,1.6,0.4c0.3,0.2,0.5,0.7,0.5,1.3v0.6c0,0.6-0.2,1.1-0.5,1.3S912.2,2494.5,911.4,2494.5z
			 M913.4,2512.1c0,0.6-0.2,1-0.6,1.4c-0.4,0.4-0.8,0.6-1.4,0.6c-0.6,0-1-0.2-1.4-0.6c-0.4-0.4-0.6-0.9-0.6-1.4v-13.5
			c0-0.6,0.2-1,0.6-1.4c0.4-0.4,0.8-0.6,1.4-0.6c0.6,0,1,0.2,1.4,0.6c0.4,0.4,0.6,0.9,0.6,1.4V2512.1z"/>
		<path style="fill:#1D1E28;" d="M921.7,2512.1c0,0.6-0.2,1-0.6,1.4s-0.9,0.6-1.4,0.6c-0.5,0-1-0.2-1.4-0.6s-0.6-0.9-0.6-1.4v-20.2
			c0-0.6,0.2-1,0.6-1.4c0.4-0.4,0.9-0.6,1.4-0.6c0.6,0,1,0.2,1.4,0.6s0.5,0.9,0.5,1.4V2512.1z"/>
		<path style="fill:#1D1E28;" d="M928.5,2514.1c-0.6,0-1-0.2-1.4-0.6s-0.6-0.9-0.6-1.4v-20.2c0-0.6,0.2-1,0.6-1.4s0.8-0.6,1.4-0.6
			c0.6,0,1,0.2,1.4,0.6c0.4,0.4,0.6,0.9,0.6,1.4v20.2c0,0.6-0.2,1-0.6,1.4C929.6,2513.9,929.1,2514.1,928.5,2514.1z M938.9,2496.6
			c0.5,0,0.9,0.2,1.3,0.6c0.4,0.4,0.6,0.8,0.6,1.2c0,0.5-0.3,1-0.8,1.5l-9.8,9l-0.2-4.5l7.5-7.2
			C937.9,2496.9,938.4,2496.6,938.9,2496.6z M939.4,2514.1c-0.6,0-1-0.2-1.4-0.7l-6-6.4l3-2.7l5.9,6.4c0.4,0.4,0.6,0.9,0.6,1.5
			c0,0.6-0.2,1-0.7,1.4S939.9,2514.1,939.4,2514.1z"/>
		<path style="fill:#1D1E28;" d="M963,2496.3c1.5,0,2.9,0.4,4.1,1.2c1.2,0.8,2.2,1.8,2.9,3.2c0.7,1.3,1.1,2.9,1.1,4.7
			s-0.4,3.4-1.1,4.7c-0.7,1.4-1.7,2.4-2.8,3.2c-1.2,0.8-2.5,1.2-4,1.2c-0.9,0-1.7-0.1-2.4-0.4c-0.8-0.3-1.4-0.6-2-1.1
			c-0.6-0.4-1-0.9-1.3-1.3c-0.3-0.4-0.5-0.8-0.5-1.1l1-0.4v2.4c0,0.6-0.2,1-0.6,1.4c-0.4,0.4-0.8,0.6-1.4,0.6c-0.6,0-1-0.2-1.4-0.6
			c-0.4-0.4-0.6-0.8-0.6-1.4v-20.5c0-0.6,0.2-1,0.6-1.4c0.4-0.4,0.8-0.6,1.4-0.6c0.6,0,1,0.2,1.4,0.6c0.4,0.4,0.6,0.9,0.6,1.4v8.3
			l-0.6-0.3c0-0.3,0.2-0.6,0.5-1c0.3-0.4,0.7-0.8,1.2-1.2c0.5-0.4,1.1-0.7,1.8-1C961.5,2496.4,962.3,2496.3,963,2496.3z
			 M962.5,2499.9c-1,0-1.8,0.2-2.5,0.7c-0.7,0.5-1.3,1.1-1.7,1.9s-0.6,1.7-0.6,2.8c0,1,0.2,2,0.6,2.8s1,1.5,1.7,2
			c0.7,0.5,1.6,0.7,2.5,0.7c1,0,1.8-0.2,2.5-0.7c0.7-0.5,1.3-1.1,1.7-2s0.6-1.8,0.6-2.8c0-1-0.2-2-0.6-2.8s-1-1.5-1.7-1.9
			C964.3,2500.1,963.5,2499.9,962.5,2499.9z"/>
		<path style="fill:#1D1E28;" d="M991.1,2505.4c0,1.8-0.4,3.4-1.2,4.7c-0.8,1.4-1.9,2.4-3.2,3.2c-1.3,0.8-2.8,1.1-4.5,1.1
			s-3.2-0.4-4.5-1.1c-1.3-0.8-2.4-1.8-3.2-3.2s-1.2-2.9-1.2-4.7c0-1.8,0.4-3.4,1.2-4.7s1.9-2.4,3.2-3.2s2.8-1.2,4.5-1.2
			s3.2,0.4,4.5,1.2c1.3,0.8,2.4,1.8,3.2,3.2C990.7,2502,991.1,2503.6,991.1,2505.4z M978.9,2494.5c-0.7,0-1.2-0.1-1.5-0.4
			c-0.3-0.3-0.5-0.7-0.5-1.3v-0.6c0-0.6,0.2-1,0.5-1.3c0.3-0.2,0.8-0.4,1.4-0.4c0.8,0,1.3,0.1,1.6,0.3s0.5,0.7,0.5,1.3v0.6
			c0,0.7-0.2,1.1-0.5,1.3C980.2,2494.4,979.6,2494.5,978.9,2494.5z M987.2,2505.4c0-1.1-0.2-2.1-0.7-2.9c-0.4-0.8-1-1.5-1.8-1.9
			s-1.6-0.7-2.5-0.7c-0.9,0-1.7,0.2-2.5,0.7c-0.8,0.5-1.3,1.1-1.8,1.9s-0.7,1.8-0.7,2.9c0,1.1,0.2,2,0.7,2.9s1,1.5,1.8,1.9
			c0.8,0.5,1.6,0.7,2.5,0.7c0.9,0,1.7-0.2,2.5-0.7s1.3-1.1,1.8-1.9C987,2507.4,987.2,2506.5,987.2,2505.4z M985.4,2494.5
			c-0.7,0-1.2-0.1-1.5-0.4c-0.3-0.3-0.5-0.7-0.5-1.3v-0.6c0-0.6,0.2-1.1,0.5-1.3c0.3-0.2,0.8-0.3,1.5-0.3c0.7,0,1.2,0.1,1.6,0.4
			c0.3,0.2,0.5,0.7,0.5,1.3v0.6c0,0.7-0.2,1.1-0.5,1.3C986.7,2494.4,986.1,2494.5,985.4,2494.5z"/>
		<path style="fill:#1D1E28;" d="M998.6,2512.1c0,0.6-0.2,1-0.6,1.4s-0.9,0.6-1.4,0.6c-0.5,0-1-0.2-1.4-0.6s-0.6-0.9-0.6-1.4v-20.2
			c0-0.6,0.2-1,0.6-1.4c0.4-0.4,0.9-0.6,1.4-0.6s1,0.2,1.4,0.6s0.5,0.9,0.5,1.4V2512.1z"/>
		<path style="fill:#1D1E28;" d="M1016.2,2496.6c0.6,0,1,0.2,1.4,0.6c0.4,0.4,0.6,0.9,0.6,1.4v8.3c0,2.3-0.6,4.1-1.9,5.5
			c-1.3,1.4-3.1,2-5.6,2s-4.3-0.7-5.5-2c-1.3-1.3-1.9-3.2-1.9-5.5v-8.3c0-0.6,0.2-1,0.6-1.4c0.4-0.4,0.8-0.6,1.4-0.6
			c0.6,0,1,0.2,1.4,0.6c0.4,0.4,0.6,0.9,0.6,1.4v8.3c0,1.3,0.3,2.3,0.9,3c0.6,0.6,1.5,1,2.6,1c1.2,0,2.1-0.3,2.7-1
			c0.6-0.6,0.9-1.6,0.9-3v-8.3c0-0.6,0.2-1,0.6-1.4C1015.1,2496.8,1015.6,2496.6,1016.2,2496.6z M1007.3,2494.5
			c-0.7,0-1.2-0.1-1.5-0.4c-0.3-0.3-0.5-0.7-0.5-1.3v-0.6c0-0.6,0.2-1,0.5-1.3c0.3-0.2,0.8-0.4,1.4-0.4c0.8,0,1.3,0.1,1.6,0.3
			c0.3,0.2,0.5,0.7,0.5,1.3v0.6c0,0.7-0.2,1.1-0.5,1.3C1008.6,2494.4,1008.1,2494.5,1007.3,2494.5z M1013.8,2494.5
			c-0.7,0-1.2-0.1-1.5-0.4c-0.3-0.3-0.5-0.7-0.5-1.3v-0.6c0-0.6,0.2-1.1,0.5-1.3s0.8-0.3,1.5-0.3c0.7,0,1.2,0.1,1.6,0.4
			c0.3,0.2,0.5,0.7,0.5,1.3v0.6c0,0.7-0.2,1.1-0.5,1.3C1015.1,2494.4,1014.6,2494.5,1013.8,2494.5z"/>
		<path style="fill:#1D1E28;" d="M1031.5,2496.3c1.7,0,3,0.4,3.9,1.3c0.8,0.8,1.4,1.9,1.6,3.2l-0.6-0.3l0.3-0.5
			c0.3-0.5,0.7-1,1.2-1.6c0.5-0.6,1.2-1.1,2-1.5c0.8-0.4,1.6-0.6,2.6-0.6c1.6,0,2.8,0.3,3.6,1c0.8,0.7,1.4,1.6,1.7,2.7
			s0.5,2.4,0.5,3.7v8.4c0,0.6-0.2,1-0.6,1.4s-0.8,0.6-1.4,0.6s-1-0.2-1.4-0.6s-0.6-0.9-0.6-1.4v-8.4c0-0.7-0.1-1.4-0.3-1.9
			c-0.2-0.6-0.5-1-0.9-1.4c-0.5-0.3-1.1-0.5-2-0.5c-0.8,0-1.5,0.2-2.1,0.5c-0.6,0.3-1,0.8-1.3,1.4c-0.3,0.6-0.4,1.2-0.4,1.9v8.4
			c0,0.6-0.2,1-0.6,1.4s-0.8,0.6-1.4,0.6c-0.6,0-1-0.2-1.4-0.6c-0.4-0.4-0.6-0.9-0.6-1.4v-8.4c0-0.7-0.1-1.4-0.3-1.9
			c-0.2-0.6-0.5-1-0.9-1.4c-0.5-0.3-1.1-0.5-2-0.5c-0.8,0-1.5,0.2-2.1,0.5c-0.6,0.3-1,0.8-1.3,1.4c-0.3,0.6-0.4,1.2-0.4,1.9v8.4
			c0,0.6-0.2,1-0.6,1.4s-0.8,0.6-1.4,0.6c-0.6,0-1-0.2-1.4-0.6s-0.6-0.9-0.6-1.4v-13.5c0-0.6,0.2-1,0.6-1.4c0.4-0.4,0.8-0.6,1.4-0.6
			c0.6,0,1,0.2,1.4,0.6c0.4,0.4,0.6,0.9,0.6,1.4v1.4l-0.5-0.1c0.2-0.4,0.5-0.8,0.8-1.2s0.8-0.8,1.3-1.2c0.5-0.4,1.1-0.7,1.7-0.9
			C1030.2,2496.4,1030.8,2496.3,1031.5,2496.3z"/>
		<path style="fill:#1D1E28;" d="M1060.5,2514.4c-1.9,0-3.5-0.4-4.8-1.2c-1.4-0.8-2.4-1.8-3.1-3.2s-1.1-2.8-1.1-4.5
			c0-2,0.4-3.6,1.2-5c0.8-1.4,1.8-2.4,3.1-3.2c1.3-0.7,2.6-1.1,4.1-1.1c1.1,0,2.2,0.2,3.2,0.7s1.9,1.1,2.6,1.9
			c0.8,0.8,1.4,1.7,1.8,2.8c0.4,1,0.7,2.2,0.7,3.3c0,0.5-0.2,0.9-0.6,1.3c-0.4,0.3-0.8,0.5-1.4,0.5h-12.5l-1-3.3h12l-0.7,0.7v-0.9
			c0-0.6-0.3-1.2-0.7-1.7c-0.4-0.5-0.9-0.9-1.5-1.2c-0.6-0.3-1.2-0.4-1.9-0.4c-0.7,0-1.3,0.1-1.8,0.3c-0.6,0.2-1.1,0.5-1.5,0.9
			c-0.4,0.4-0.7,1-1,1.7c-0.2,0.7-0.4,1.6-0.4,2.6c0,1.2,0.2,2.2,0.7,3c0.5,0.8,1.1,1.4,1.9,1.9c0.8,0.4,1.6,0.6,2.5,0.6
			c0.8,0,1.4-0.1,1.9-0.2c0.5-0.1,0.9-0.3,1.2-0.5c0.3-0.2,0.6-0.3,0.8-0.5c0.4-0.2,0.8-0.3,1.1-0.3c0.5,0,0.9,0.2,1.2,0.5
			c0.3,0.3,0.5,0.7,0.5,1.1c0,0.6-0.3,1.1-0.9,1.6c-0.6,0.5-1.4,0.9-2.4,1.3C1062.7,2514.3,1061.6,2514.4,1060.5,2514.4z"/>
		<path style="fill:#1D1E28;" d="M956.8,2535.5c1.5,0,2.9,0.4,4.1,1.2c1.2,0.8,2.2,1.8,2.9,3.2c0.7,1.3,1.1,2.9,1.1,4.7
			s-0.4,3.4-1.1,4.7c-0.7,1.4-1.7,2.4-2.8,3.2c-1.2,0.8-2.5,1.2-4,1.2c-0.9,0-1.7-0.1-2.4-0.4c-0.8-0.3-1.4-0.6-2-1.1
			c-0.6-0.4-1-0.9-1.3-1.3c-0.3-0.4-0.5-0.8-0.5-1.1l1-0.4v2.4c0,0.6-0.2,1-0.6,1.4c-0.4,0.4-0.8,0.6-1.4,0.6c-0.6,0-1-0.2-1.4-0.6
			c-0.4-0.4-0.6-0.8-0.6-1.4v-20.5c0-0.6,0.2-1,0.6-1.4c0.4-0.4,0.8-0.6,1.4-0.6c0.6,0,1,0.2,1.4,0.6c0.4,0.4,0.6,0.9,0.6,1.4v8.3
			l-0.6-0.3c0-0.3,0.2-0.6,0.5-1c0.3-0.4,0.7-0.8,1.2-1.2c0.5-0.4,1.1-0.7,1.8-1C955.3,2535.6,956.1,2535.5,956.8,2535.5z
			 M956.3,2539.1c-1,0-1.8,0.2-2.5,0.7c-0.7,0.5-1.3,1.1-1.7,1.9s-0.6,1.7-0.6,2.8c0,1,0.2,2,0.6,2.8s1,1.5,1.7,2
			c0.7,0.5,1.6,0.7,2.5,0.7c1,0,1.8-0.2,2.5-0.7c0.7-0.5,1.3-1.1,1.7-2s0.6-1.8,0.6-2.8c0-1-0.2-2-0.6-2.8s-1-1.5-1.7-1.9
			C958.1,2539.3,957.3,2539.1,956.3,2539.1z"/>
		<path style="fill:#1D1E28;" d="M982.3,2535.5c0.6,0,1,0.2,1.4,0.6c0.4,0.4,0.6,0.8,0.6,1.4v13.8c0,0.6-0.2,1-0.6,1.4
			c-0.4,0.4-0.8,0.6-1.4,0.6c-0.6,0-1-0.2-1.4-0.6c-0.4-0.4-0.6-0.9-0.6-1.4v-1.6l0.7,0.3c0,0.3-0.2,0.6-0.5,1
			c-0.3,0.4-0.7,0.8-1.2,1.2c-0.5,0.4-1.1,0.7-1.8,1c-0.7,0.3-1.5,0.4-2.3,0.4c-1.5,0-2.9-0.4-4.1-1.2c-1.2-0.8-2.2-1.8-2.9-3.2
			c-0.7-1.4-1.1-2.9-1.1-4.7c0-1.8,0.4-3.4,1.1-4.7c0.7-1.4,1.7-2.4,2.9-3.2s2.5-1.2,4-1.2c0.9,0,1.8,0.1,2.6,0.4
			c0.8,0.3,1.5,0.6,2,1.1c0.6,0.4,1,0.9,1.3,1.3c0.3,0.4,0.5,0.8,0.5,1.1l-1.2,0.4v-2.4c0-0.6,0.2-1,0.6-1.4
			C981.2,2535.7,981.7,2535.5,982.3,2535.5z M975.7,2550c1,0,1.8-0.2,2.5-0.7s1.3-1.1,1.7-2c0.4-0.8,0.6-1.8,0.6-2.8
			c0-1-0.2-2-0.6-2.8c-0.4-0.8-1-1.5-1.7-2c-0.7-0.5-1.6-0.7-2.5-0.7c-0.9,0-1.8,0.2-2.5,0.7c-0.7,0.5-1.3,1.1-1.7,2
			s-0.6,1.8-0.6,2.8c0,1,0.2,1.9,0.6,2.8c0.4,0.8,1,1.5,1.7,2C973.9,2549.8,974.7,2550,975.7,2550z"/>
		<path style="fill:#1D1E28;" d="M987.5,2550.6c-0.2-0.3-0.3-0.7-0.3-1.2c0-0.5,0.3-0.9,0.8-1.2c0.3-0.2,0.7-0.3,1.1-0.3
			c0.4,0,0.8,0.2,1.1,0.6c0.6,0.6,1.3,1.1,2,1.5c0.7,0.3,1.6,0.5,2.6,0.5c0.3,0,0.7-0.1,1.1-0.1c0.4-0.1,0.7-0.3,1-0.5
			s0.4-0.7,0.4-1.3c0-0.5-0.2-0.9-0.5-1.1c-0.3-0.3-0.8-0.5-1.3-0.7c-0.5-0.2-1.1-0.4-1.8-0.6c-0.7-0.2-1.4-0.4-2.1-0.7
			c-0.7-0.2-1.4-0.5-1.9-0.9s-1.1-0.9-1.4-1.5c-0.4-0.6-0.6-1.4-0.6-2.4c0-1.1,0.3-2,0.9-2.8c0.6-0.8,1.4-1.3,2.4-1.8
			c1-0.4,2-0.6,3.1-0.6c0.7,0,1.4,0.1,2.1,0.2c0.7,0.2,1.4,0.4,2.1,0.8s1.2,0.8,1.7,1.4c0.2,0.3,0.4,0.7,0.4,1.2s-0.2,0.9-0.6,1.2
			c-0.3,0.3-0.7,0.4-1.1,0.3c-0.4,0-0.8-0.2-1.1-0.4c-0.4-0.5-0.9-0.9-1.5-1.1c-0.6-0.3-1.3-0.4-2.1-0.4c-0.3,0-0.7,0-1.1,0.1
			s-0.7,0.2-1,0.5c-0.3,0.3-0.4,0.6-0.4,1.2c0,0.5,0.2,0.9,0.5,1.2c0.3,0.3,0.8,0.5,1.3,0.7c0.6,0.2,1.1,0.4,1.8,0.5
			c0.7,0.2,1.3,0.4,2,0.6s1.3,0.6,1.9,0.9c0.6,0.4,1,0.9,1.4,1.5c0.3,0.6,0.5,1.4,0.5,2.4c0,1.1-0.3,2.1-1,2.8
			c-0.7,0.8-1.5,1.4-2.4,1.8s-2,0.6-3,0.6c-1.3,0-2.6-0.2-3.9-0.7C989.4,2552.5,988.3,2551.7,987.5,2550.6z M993.7,2558.2
			c-0.2,0-0.5-0.1-0.8-0.2c-0.3-0.1-0.6-0.3-0.9-0.5c-0.3-0.2-0.4-0.5-0.4-0.8c0-0.3,0.1-0.7,0.4-1l2.5-3.4h2.3l-1.8,4.9
			C994.8,2557.9,994.3,2558.2,993.7,2558.2z"/>
		<path style="fill:#1D1E28;" d="M1008.5,2551.3c0,0.6-0.2,1-0.6,1.4s-0.9,0.6-1.4,0.6c-0.5,0-1-0.2-1.4-0.6s-0.6-0.9-0.6-1.4v-20.2
			c0-0.6,0.2-1,0.6-1.4s0.9-0.6,1.4-0.6c0.6,0,1,0.2,1.4,0.6c0.4,0.4,0.5,0.9,0.5,1.4V2551.3z"/>
		<path style="fill:#1D1E28;" d="M1027.2,2535.5c0.6,0,1,0.2,1.4,0.6c0.4,0.4,0.6,0.8,0.6,1.4v13.8c0,0.6-0.2,1-0.6,1.4
			s-0.8,0.6-1.4,0.6c-0.6,0-1-0.2-1.4-0.6s-0.6-0.9-0.6-1.4v-1.6l0.7,0.3c0,0.3-0.2,0.6-0.5,1c-0.3,0.4-0.7,0.8-1.2,1.2
			c-0.5,0.4-1.1,0.7-1.8,1c-0.7,0.3-1.5,0.4-2.3,0.4c-1.5,0-2.9-0.4-4.1-1.2c-1.2-0.8-2.2-1.8-2.9-3.2c-0.7-1.4-1.1-2.9-1.1-4.7
			c0-1.8,0.4-3.4,1.1-4.7c0.7-1.4,1.7-2.4,2.9-3.2c1.2-0.8,2.5-1.2,4-1.2c0.9,0,1.8,0.1,2.6,0.4c0.8,0.3,1.5,0.6,2,1.1
			s1,0.9,1.3,1.3c0.3,0.4,0.5,0.8,0.5,1.1l-1.2,0.4v-2.4c0-0.6,0.2-1,0.6-1.4S1026.6,2535.5,1027.2,2535.5z M1020.6,2550
			c1,0,1.8-0.2,2.5-0.7s1.3-1.1,1.7-2c0.4-0.8,0.6-1.8,0.6-2.8c0-1-0.2-2-0.6-2.8c-0.4-0.8-1-1.5-1.7-2c-0.7-0.5-1.6-0.7-2.5-0.7
			c-0.9,0-1.8,0.2-2.5,0.7c-0.7,0.5-1.3,1.1-1.7,2c-0.4,0.8-0.6,1.8-0.6,2.8c0,1,0.2,1.9,0.6,2.8c0.4,0.8,1,1.5,1.7,2
			C1018.8,2549.8,1019.6,2550,1020.6,2550z"/>
	</g>
</g>
<g id="EPISODES">
	<g id="OPEN-1">
		<rect x="916.8" y="2664.9" style="fill:#FFFFFF;fill-opacity:0;" width="143.2" height="143.2"/>
	</g>
</g>
<g>
	<g style="opacity:0.8;">
		<path style="fill:#1D1E28;" d="M890.5,1926.2l-7.1,16.6c-0.2,0.4-0.4,0.7-0.7,1c-0.3,0.2-0.7,0.3-1,0.3c-0.6,0-1-0.2-1.3-0.5
			c-0.3-0.3-0.4-0.7-0.4-1.2c0-0.2,0-0.4,0.1-0.6l8.1-19.5c0.2-0.4,0.4-0.8,0.8-1c0.4-0.2,0.7-0.3,1.2-0.3c0.4,0,0.8,0.1,1.1,0.3
			c0.3,0.2,0.6,0.6,0.7,1l8,19.1c0.1,0.3,0.2,0.5,0.2,0.8c0,0.6-0.2,1.1-0.6,1.4c-0.4,0.3-0.8,0.5-1.3,0.5c-0.4,0-0.7-0.1-1.1-0.4
			s-0.6-0.6-0.7-1l-7-16.4L890.5,1926.2z M884.4,1938.8l1.8-3.8h8.8l0.6,3.8H884.4z"/>
		<path style="fill:#1D1E28;" d="M901.6,1941.2c-0.2-0.3-0.3-0.7-0.3-1.2c0-0.5,0.3-0.9,0.8-1.2c0.3-0.2,0.7-0.3,1.1-0.3
			c0.4,0,0.8,0.2,1.1,0.6c0.6,0.6,1.3,1.1,2,1.5c0.7,0.3,1.6,0.5,2.6,0.5c0.3,0,0.7-0.1,1.1-0.1c0.4-0.1,0.7-0.3,1-0.5
			c0.3-0.3,0.4-0.7,0.4-1.3c0-0.5-0.2-0.9-0.5-1.1c-0.3-0.3-0.8-0.5-1.3-0.7c-0.5-0.2-1.1-0.4-1.8-0.6c-0.7-0.2-1.4-0.4-2.1-0.7
			c-0.7-0.2-1.4-0.5-1.9-0.9c-0.6-0.4-1.1-0.9-1.4-1.5c-0.4-0.6-0.6-1.4-0.6-2.4c0-1.1,0.3-2,0.9-2.8c0.6-0.8,1.4-1.3,2.4-1.8
			c1-0.4,2-0.6,3.1-0.6c0.7,0,1.4,0.1,2.1,0.2c0.7,0.2,1.4,0.4,2.1,0.8s1.2,0.8,1.7,1.4c0.2,0.3,0.4,0.7,0.4,1.2
			c0,0.5-0.2,0.9-0.6,1.2c-0.3,0.3-0.7,0.4-1.1,0.3c-0.4,0-0.8-0.2-1.1-0.4c-0.4-0.5-0.9-0.9-1.5-1.1c-0.6-0.3-1.3-0.4-2.1-0.4
			c-0.3,0-0.7,0-1.1,0.1c-0.4,0.1-0.7,0.2-1,0.5c-0.3,0.3-0.4,0.6-0.4,1.2c0,0.5,0.2,0.9,0.5,1.2s0.8,0.5,1.3,0.7s1.1,0.4,1.8,0.5
			c0.7,0.2,1.3,0.4,2,0.6s1.3,0.6,1.9,0.9c0.6,0.4,1,0.9,1.4,1.5c0.3,0.6,0.5,1.4,0.5,2.4c0,1.1-0.3,2.1-1,2.8
			c-0.7,0.8-1.5,1.4-2.4,1.8s-2,0.6-3,0.6c-1.3,0-2.6-0.2-3.9-0.7C903.5,1943.2,902.4,1942.4,901.6,1941.2z M907.8,1948.9
			c-0.2,0-0.5-0.1-0.8-0.2c-0.3-0.1-0.6-0.3-0.9-0.5s-0.4-0.5-0.4-0.8c0-0.3,0.1-0.7,0.4-1l2.5-3.4h2.3l-1.8,4.9
			C908.9,1948.5,908.5,1948.9,907.8,1948.9z"/>
		<path style="fill:#1D1E28;" d="M932.5,1926.1c0.6,0,1,0.2,1.4,0.6c0.4,0.4,0.6,0.8,0.6,1.4v13.8c0,0.6-0.2,1-0.6,1.4
			c-0.4,0.4-0.8,0.6-1.4,0.6c-0.6,0-1-0.2-1.4-0.6c-0.4-0.4-0.6-0.9-0.6-1.4v-1.6l0.7,0.3c0,0.3-0.2,0.6-0.5,1
			c-0.3,0.4-0.7,0.8-1.2,1.2c-0.5,0.4-1.1,0.7-1.8,1c-0.7,0.3-1.5,0.4-2.3,0.4c-1.5,0-2.9-0.4-4.1-1.2c-1.2-0.8-2.2-1.8-2.9-3.2
			c-0.7-1.4-1.1-2.9-1.1-4.7c0-1.8,0.4-3.4,1.1-4.7c0.7-1.4,1.7-2.4,2.9-3.2s2.5-1.2,4-1.2c0.9,0,1.8,0.1,2.6,0.4
			c0.8,0.3,1.5,0.6,2,1.1c0.6,0.4,1,0.9,1.3,1.3c0.3,0.4,0.5,0.8,0.5,1.1l-1.2,0.4v-2.4c0-0.6,0.2-1,0.6-1.4
			C931.4,1926.3,931.9,1926.1,932.5,1926.1z M925.9,1940.7c1,0,1.8-0.2,2.5-0.7s1.3-1.1,1.7-2c0.4-0.8,0.6-1.8,0.6-2.8
			c0-1-0.2-2-0.6-2.8c-0.4-0.8-1-1.5-1.7-2c-0.7-0.5-1.6-0.7-2.5-0.7c-0.9,0-1.8,0.2-2.5,0.7c-0.7,0.5-1.3,1.1-1.7,2
			s-0.6,1.8-0.6,2.8c0,1,0.2,1.9,0.6,2.8c0.4,0.8,1,1.5,1.7,2C924.1,1940.4,925,1940.7,925.9,1940.7z"/>
		<path style="fill:#1D1E28;" d="M945.8,1926.1c0.9,0,1.8,0.1,2.5,0.4c0.8,0.3,1.4,0.6,2,1.1s1,0.9,1.3,1.3c0.3,0.4,0.5,0.8,0.5,1.1
			l-0.8,0.4v-2.4c0-0.6,0.2-1,0.6-1.4s0.8-0.6,1.4-0.6c0.6,0,1,0.2,1.4,0.6c0.4,0.4,0.6,0.8,0.6,1.4v14.5c0,1.9-0.4,3.4-1.2,4.6
			c-0.8,1.1-1.9,2-3.2,2.5c-1.3,0.5-2.8,0.8-4.3,0.8c-0.4,0-1-0.1-1.7-0.2c-0.7-0.1-1.4-0.2-2-0.4s-1.1-0.3-1.4-0.4
			c-0.7-0.3-1.1-0.6-1.4-1.1c-0.3-0.4-0.3-0.9-0.1-1.4c0.2-0.6,0.5-1.1,0.9-1.3c0.4-0.2,0.9-0.3,1.4-0.1c0.2,0.1,0.6,0.2,1.1,0.4
			c0.5,0.2,1,0.4,1.6,0.5c0.6,0.2,1.1,0.2,1.6,0.2c1.6,0,2.8-0.3,3.6-1s1.2-1.6,1.2-2.7v-2.8l0.4,0.3c0,0.3-0.1,0.6-0.4,1
			c-0.3,0.4-0.7,0.8-1.2,1.2c-0.5,0.4-1.1,0.7-1.8,1c-0.7,0.3-1.4,0.4-2.2,0.4c-1.5,0-2.9-0.4-4.2-1.2c-1.2-0.8-2.2-1.8-2.9-3.2
			c-0.7-1.4-1.1-2.9-1.1-4.7c0-1.8,0.4-3.4,1.1-4.7c0.7-1.4,1.7-2.4,2.9-3.2C942.9,1926.5,944.3,1926.1,945.8,1926.1z M946.4,1929.7
			c-1,0-1.8,0.2-2.6,0.7c-0.7,0.5-1.3,1.1-1.7,2c-0.4,0.8-0.6,1.8-0.6,2.8c0,1,0.2,1.9,0.6,2.8c0.4,0.8,1,1.5,1.7,2
			c0.7,0.5,1.6,0.7,2.6,0.7c1,0,1.9-0.2,2.6-0.7c0.7-0.5,1.3-1.1,1.7-2c0.4-0.8,0.6-1.8,0.6-2.8c0-1-0.2-2-0.6-2.8s-1-1.5-1.7-2
			C948.3,1930,947.4,1929.7,946.4,1929.7z M946.9,1925.3c-0.8,0-1.6-0.1-2.2-0.3c-0.7-0.2-1.3-0.6-1.8-1c-0.5-0.5-0.9-1-1.1-1.7
			c-0.2-0.5-0.2-1,0-1.3c0.2-0.3,0.5-0.5,0.9-0.5c0.5,0,0.8,0.1,1.1,0.3c0.3,0.2,0.6,0.5,0.8,0.9c0.2,0.3,0.5,0.5,0.9,0.7
			c0.4,0.2,0.8,0.2,1.4,0.2c0.5,0,1-0.1,1.4-0.2c0.4-0.2,0.7-0.4,0.9-0.7c0.3-0.4,0.6-0.7,0.9-0.9c0.3-0.2,0.6-0.3,1.1-0.3
			c0.4,0,0.8,0.2,1,0.5c0.2,0.3,0.2,0.7,0,1.3c-0.3,0.7-0.6,1.2-1.1,1.7c-0.5,0.5-1.1,0.8-1.8,1.1
			C948.5,1925.2,947.7,1925.3,946.9,1925.3z"/>
		<path style="fill:#1D1E28;" d="M963,1942c0,0.6-0.2,1-0.6,1.4c-0.4,0.4-0.8,0.6-1.4,0.6c-0.6,0-1-0.2-1.4-0.6
			c-0.4-0.4-0.6-0.9-0.6-1.4v-13.5c0-0.6,0.2-1,0.6-1.4c0.4-0.4,0.8-0.6,1.4-0.6c0.6,0,1,0.2,1.4,0.6c0.4,0.4,0.6,0.9,0.6,1.4V1942z
			"/>
		<path style="fill:#1D1E28;" d="M980,1926.5c0.6,0,1,0.2,1.4,0.6c0.4,0.4,0.6,0.9,0.6,1.4v13.9c0,2-0.4,3.6-1.1,4.8s-1.8,2-3,2.6
			c-1.3,0.5-2.7,0.8-4.2,0.8c-0.7,0-1.4-0.1-2.2-0.2c-0.8-0.1-1.4-0.3-1.9-0.5c-0.7-0.3-1.1-0.6-1.4-1.1c-0.3-0.4-0.3-0.9-0.1-1.4
			c0.2-0.6,0.5-1.1,0.9-1.3c0.4-0.2,0.9-0.3,1.4-0.1c0.3,0.1,0.8,0.3,1.4,0.5c0.6,0.2,1.2,0.3,2,0.3c1,0,1.8-0.1,2.5-0.4
			s1.2-0.7,1.5-1.4c0.3-0.6,0.5-1.5,0.5-2.6v-2.2l0.7,0.8c-0.4,0.7-0.8,1.3-1.4,1.8c-0.6,0.5-1.2,0.8-2,1.1
			c-0.8,0.2-1.6,0.4-2.6,0.4c-1.2,0-2.2-0.3-3-0.8c-0.9-0.5-1.5-1.3-2-2.2c-0.5-0.9-0.7-2-0.7-3.2v-9.5c0-0.6,0.2-1,0.6-1.4
			c0.4-0.4,0.8-0.6,1.4-0.6c0.6,0,1,0.2,1.4,0.6c0.4,0.4,0.6,0.9,0.6,1.4v8.4c0,1.4,0.3,2.4,0.9,3c0.6,0.6,1.5,0.9,2.6,0.9
			c0.8,0,1.4-0.1,1.9-0.4s0.9-0.7,1.2-1.3c0.3-0.6,0.4-1.3,0.4-2.1v-8.4c0-0.6,0.2-1,0.6-1.4C979,1926.7,979.5,1926.5,980,1926.5z"
			/>
		<path style="fill:#1D1E28;" d="M1000.4,1926.1c0.6,0,1,0.2,1.4,0.6c0.4,0.4,0.6,0.8,0.6,1.4v13.8c0,0.6-0.2,1-0.6,1.4
			s-0.8,0.6-1.4,0.6s-1-0.2-1.4-0.6c-0.4-0.4-0.6-0.9-0.6-1.4v-1.6l0.7,0.3c0,0.3-0.2,0.6-0.5,1c-0.3,0.4-0.7,0.8-1.2,1.2
			c-0.5,0.4-1.1,0.7-1.8,1c-0.7,0.3-1.5,0.4-2.3,0.4c-1.5,0-2.9-0.4-4.1-1.2c-1.2-0.8-2.2-1.8-2.9-3.2c-0.7-1.4-1.1-2.9-1.1-4.7
			c0-1.8,0.4-3.4,1.1-4.7c0.7-1.4,1.7-2.4,2.9-3.2c1.2-0.8,2.5-1.2,4-1.2c0.9,0,1.8,0.1,2.6,0.4c0.8,0.3,1.5,0.6,2,1.1
			s1,0.9,1.3,1.3c0.3,0.4,0.5,0.8,0.5,1.1l-1.2,0.4v-2.4c0-0.6,0.2-1,0.6-1.4C999.3,1926.3,999.8,1926.1,1000.4,1926.1z
			 M993.8,1940.7c1,0,1.8-0.2,2.5-0.7c0.7-0.5,1.3-1.1,1.7-2c0.4-0.8,0.6-1.8,0.6-2.8c0-1-0.2-2-0.6-2.8c-0.4-0.8-1-1.5-1.7-2
			c-0.7-0.5-1.6-0.7-2.5-0.7c-0.9,0-1.8,0.2-2.5,0.7c-0.7,0.5-1.3,1.1-1.7,2c-0.4,0.8-0.6,1.8-0.6,2.8c0,1,0.2,1.9,0.6,2.8
			c0.4,0.8,1,1.5,1.7,2S992.8,1940.7,993.8,1940.7z"/>
		<path style="fill:#1D1E28;" d="M1018,1943.9c-0.6,0-1-0.2-1.4-0.6c-0.4-0.4-0.6-0.9-0.6-1.4v-20.2c0-0.6,0.2-1,0.6-1.4
			c0.4-0.4,0.8-0.6,1.4-0.6s1,0.2,1.4,0.6s0.6,0.9,0.6,1.4v20.2c0,0.6-0.2,1-0.6,1.4S1018.6,1943.9,1018,1943.9z M1028.4,1926.5
			c0.5,0,0.9,0.2,1.3,0.6c0.4,0.4,0.6,0.8,0.6,1.2c0,0.5-0.3,1-0.8,1.5l-9.8,9l-0.2-4.5l7.5-7.2
			C1027.4,1926.7,1027.8,1926.5,1028.4,1926.5z M1028.9,1943.9c-0.6,0-1-0.2-1.4-0.7l-6-6.4l3-2.7l5.9,6.4c0.4,0.4,0.6,0.9,0.6,1.5
			c0,0.6-0.2,1-0.7,1.4C1029.8,1943.7,1029.3,1943.9,1028.9,1943.9z"/>
		<path style="fill:#1D1E28;" d="M1048.4,1926.1c0.6,0,1,0.2,1.4,0.6c0.4,0.4,0.6,0.8,0.6,1.4v13.8c0,0.6-0.2,1-0.6,1.4
			s-0.8,0.6-1.4,0.6c-0.6,0-1-0.2-1.4-0.6s-0.6-0.9-0.6-1.4v-1.6l0.7,0.3c0,0.3-0.2,0.6-0.5,1c-0.3,0.4-0.7,0.8-1.2,1.2
			c-0.5,0.4-1.1,0.7-1.8,1c-0.7,0.3-1.5,0.4-2.3,0.4c-1.5,0-2.9-0.4-4.1-1.2c-1.2-0.8-2.2-1.8-2.9-3.2c-0.7-1.4-1.1-2.9-1.1-4.7
			c0-1.8,0.4-3.4,1.1-4.7c0.7-1.4,1.7-2.4,2.9-3.2c1.2-0.8,2.5-1.2,4-1.2c0.9,0,1.8,0.1,2.6,0.4c0.8,0.3,1.5,0.6,2,1.1
			s1,0.9,1.3,1.3c0.3,0.4,0.5,0.8,0.5,1.1l-1.2,0.4v-2.4c0-0.6,0.2-1,0.6-1.4S1047.9,1926.1,1048.4,1926.1z M1041.8,1940.7
			c1,0,1.8-0.2,2.5-0.7s1.3-1.1,1.7-2c0.4-0.8,0.6-1.8,0.6-2.8c0-1-0.2-2-0.6-2.8c-0.4-0.8-1-1.5-1.7-2c-0.7-0.5-1.6-0.7-2.5-0.7
			c-0.9,0-1.8,0.2-2.5,0.7c-0.7,0.5-1.3,1.1-1.7,2c-0.4,0.8-0.6,1.8-0.6,2.8c0,1,0.2,1.9,0.6,2.8c0.4,0.8,1,1.5,1.7,2
			C1040.1,1940.4,1040.9,1940.7,1041.8,1940.7z"/>
		<path style="fill:#1D1E28;" d="M1067.6,1926.5c0.6,0,1,0.2,1.4,0.6c0.4,0.4,0.6,0.9,0.6,1.4v13.9c0,2-0.4,3.6-1.1,4.8
			c-0.8,1.2-1.8,2-3,2.6c-1.3,0.5-2.7,0.8-4.2,0.8c-0.7,0-1.4-0.1-2.2-0.2c-0.8-0.1-1.4-0.3-1.9-0.5c-0.7-0.3-1.1-0.6-1.4-1.1
			c-0.3-0.4-0.3-0.9-0.1-1.4c0.2-0.6,0.5-1.1,0.9-1.3s0.9-0.3,1.4-0.1c0.3,0.1,0.8,0.3,1.4,0.5c0.6,0.2,1.2,0.3,2,0.3
			c1,0,1.8-0.1,2.5-0.4c0.7-0.3,1.2-0.7,1.5-1.4c0.3-0.6,0.5-1.5,0.5-2.6v-2.2l0.7,0.8c-0.4,0.7-0.8,1.3-1.4,1.8
			c-0.6,0.5-1.2,0.8-2,1.1s-1.6,0.4-2.6,0.4c-1.2,0-2.2-0.3-3-0.8c-0.9-0.5-1.5-1.3-2-2.2c-0.5-0.9-0.7-2-0.7-3.2v-9.5
			c0-0.6,0.2-1,0.6-1.4c0.4-0.4,0.8-0.6,1.4-0.6c0.6,0,1,0.2,1.4,0.6c0.4,0.4,0.6,0.9,0.6,1.4v8.4c0,1.4,0.3,2.4,0.9,3
			c0.6,0.6,1.5,0.9,2.6,0.9c0.8,0,1.4-0.1,1.9-0.4s0.9-0.7,1.2-1.3c0.3-0.6,0.4-1.3,0.4-2.1v-8.4c0-0.6,0.2-1,0.6-1.4
			C1066.6,1926.7,1067,1926.5,1067.6,1926.5z"/>
		<path style="fill:#1D1E28;" d="M1087.9,1919.8c0.6,0,1,0.2,1.4,0.6s0.6,0.8,0.6,1.4v20.2c0,0.6-0.2,1-0.6,1.4s-0.8,0.6-1.4,0.6
			c-0.6,0-1-0.2-1.4-0.6s-0.6-0.9-0.6-1.4v-1.6l0.7,0.3c0,0.3-0.2,0.6-0.5,1c-0.3,0.4-0.7,0.8-1.2,1.2c-0.5,0.4-1.1,0.7-1.8,1
			c-0.7,0.3-1.5,0.4-2.3,0.4c-1.5,0-2.9-0.4-4.1-1.2c-1.2-0.8-2.2-1.8-2.9-3.2c-0.7-1.4-1.1-2.9-1.1-4.7c0-1.8,0.4-3.4,1.1-4.7
			c0.7-1.4,1.7-2.4,2.9-3.2c1.2-0.8,2.5-1.2,4-1.2c0.9,0,1.8,0.1,2.6,0.4c0.8,0.3,1.5,0.6,2,1.1s1,0.9,1.3,1.3
			c0.3,0.4,0.5,0.8,0.5,1.1l-1.2,0.4v-8.8c0-0.6,0.2-1,0.6-1.4S1087.4,1919.8,1087.9,1919.8z M1081.3,1940.7c1,0,1.8-0.2,2.5-0.7
			s1.3-1.1,1.7-2c0.4-0.8,0.6-1.8,0.6-2.8c0-1-0.2-2-0.6-2.8c-0.4-0.8-1-1.5-1.7-2c-0.7-0.5-1.6-0.7-2.5-0.7c-0.9,0-1.8,0.2-2.5,0.7
			c-0.7,0.5-1.3,1.1-1.7,2c-0.4,0.8-0.6,1.8-0.6,2.8c0,1,0.2,1.9,0.6,2.8c0.4,0.8,1,1.5,1.7,2
			C1079.6,1940.4,1080.4,1940.7,1081.3,1940.7z"/>
		<path style="fill:#1D1E28;" d="M1097.8,1942c0,0.6-0.2,1-0.6,1.4s-0.8,0.6-1.4,0.6c-0.6,0-1-0.2-1.4-0.6c-0.4-0.4-0.6-0.9-0.6-1.4
			v-13.5c0-0.6,0.2-1,0.6-1.4c0.4-0.4,0.8-0.6,1.4-0.6c0.6,0,1,0.2,1.4,0.6c0.4,0.4,0.6,0.9,0.6,1.4V1942z"/>
		<path style="fill:#1D1E28;" d="M1103.8,1943.9c-0.6,0-1-0.2-1.4-0.6s-0.6-0.9-0.6-1.4v-13.5c0-0.6,0.2-1,0.6-1.4
			c0.4-0.4,0.8-0.6,1.4-0.6c0.6,0,1,0.2,1.4,0.6c0.4,0.4,0.6,0.9,0.6,1.4v3.1l-0.2-2.2c0.2-0.5,0.5-1,0.9-1.4c0.4-0.4,0.8-0.7,1.3-1
			c0.5-0.3,1-0.5,1.5-0.6c0.5-0.1,1.1-0.2,1.6-0.2c0.7,0,1.2,0.2,1.6,0.6c0.4,0.4,0.7,0.8,0.7,1.3c0,0.7-0.2,1.2-0.6,1.6
			s-0.8,0.5-1.2,0.5c-0.4,0-0.8-0.1-1.1-0.2c-0.3-0.2-0.7-0.2-1.2-0.2c-0.4,0-0.8,0.1-1.2,0.3c-0.4,0.2-0.8,0.5-1.1,0.9
			c-0.3,0.4-0.6,0.9-0.8,1.5c-0.2,0.6-0.3,1.3-0.3,2v7.7c0,0.6-0.2,1-0.6,1.4S1104.4,1943.9,1103.8,1943.9z"/>
		<path style="fill:#1D1E28;" d="M1121,1943.7c0,0.3-0.1,0.8-0.3,1.3c-0.2,0.5-0.5,1.1-0.8,1.6s-0.8,1-1.2,1.3
			c-0.5,0.3-0.9,0.5-1.4,0.5c-0.4,0-0.8-0.1-1.1-0.3c-0.3-0.2-0.5-0.5-0.5-1c0-0.5,0.2-0.8,0.5-0.9c0.3-0.1,0.6-0.2,0.8-0.3
			c0.3-0.2,0.5-0.3,0.7-0.5c0.2-0.2,0.2-0.5,0.2-0.8c0-0.2-0.1-0.5-0.3-0.6s-0.5-0.3-0.9-0.3c-0.1,0-0.3,0-0.5,0
			c-0.2,0-0.3,0.1-0.5,0.2c-0.2-0.1-0.4-0.2-0.6-0.4c-0.2-0.2-0.2-0.4-0.2-0.8c0-0.5,0.2-0.9,0.5-1.3c0.3-0.4,0.7-0.7,1.2-0.9
			c0.5-0.2,1-0.3,1.4-0.3c0.9,0,1.7,0.3,2.2,0.9C1120.7,1941.7,1121,1942.6,1121,1943.7z"/>
		<path style="fill:#1D1E28;" d="M897.9,1965.3c1.5,0,2.9,0.4,4.1,1.2c1.2,0.8,2.2,1.8,2.9,3.2c0.7,1.3,1.1,2.9,1.1,4.7
			s-0.4,3.4-1.1,4.7c-0.7,1.4-1.7,2.4-2.8,3.2c-1.2,0.8-2.5,1.2-4,1.2c-0.9,0-1.7-0.1-2.4-0.4c-0.8-0.3-1.4-0.6-2-1.1
			c-0.6-0.4-1-0.9-1.3-1.3c-0.3-0.4-0.5-0.8-0.5-1.1l1-0.4v2.4c0,0.6-0.2,1-0.6,1.4c-0.4,0.4-0.8,0.6-1.4,0.6c-0.6,0-1-0.2-1.4-0.6
			c-0.4-0.4-0.6-0.8-0.6-1.4V1961c0-0.6,0.2-1,0.6-1.4c0.4-0.4,0.8-0.6,1.4-0.6c0.6,0,1,0.2,1.4,0.6c0.4,0.4,0.6,0.9,0.6,1.4v8.3
			l-0.6-0.3c0-0.3,0.2-0.6,0.5-1c0.3-0.4,0.7-0.8,1.2-1.2c0.5-0.4,1.1-0.7,1.8-1C896.4,1965.5,897.1,1965.3,897.9,1965.3z
			 M897.4,1968.9c-1,0-1.8,0.2-2.5,0.7c-0.7,0.5-1.3,1.1-1.7,1.9s-0.6,1.7-0.6,2.8c0,1,0.2,2,0.6,2.8s1,1.5,1.7,2
			c0.7,0.5,1.6,0.7,2.5,0.7c1,0,1.8-0.2,2.5-0.7c0.7-0.5,1.3-1.1,1.7-2s0.6-1.8,0.6-2.8c0-1-0.2-2-0.6-2.8s-1-1.5-1.7-1.9
			C899.2,1969.2,898.4,1968.9,897.4,1968.9z"/>
		<path style="fill:#1D1E28;" d="M922.1,1965.7c0.6,0,1,0.2,1.4,0.6c0.4,0.4,0.6,0.9,0.6,1.4v8.3c0,2.3-0.6,4.1-1.9,5.5
			c-1.3,1.4-3.1,2-5.6,2s-4.3-0.7-5.5-2c-1.3-1.3-1.9-3.2-1.9-5.5v-8.3c0-0.6,0.2-1,0.6-1.4c0.4-0.4,0.8-0.6,1.4-0.6
			c0.6,0,1,0.2,1.4,0.6c0.4,0.4,0.6,0.9,0.6,1.4v8.3c0,1.3,0.3,2.3,0.9,3c0.6,0.6,1.5,1,2.6,1c1.2,0,2.1-0.3,2.7-1
			c0.6-0.6,0.9-1.6,0.9-3v-8.3c0-0.6,0.2-1,0.6-1.4C921.1,1965.8,921.6,1965.7,922.1,1965.7z"/>
		<path style="fill:#1D1E28;" d="M930.3,1983.1c-0.6,0-1-0.2-1.4-0.6c-0.4-0.4-0.6-0.9-0.6-1.4v-13.5c0-0.6,0.2-1,0.6-1.4
			c0.4-0.4,0.8-0.6,1.4-0.6c0.6,0,1,0.2,1.4,0.6c0.4,0.4,0.6,0.9,0.6,1.4v3.1l-0.2-2.2c0.2-0.5,0.5-1,0.9-1.4c0.4-0.4,0.8-0.7,1.3-1
			c0.5-0.3,1-0.5,1.5-0.6c0.5-0.1,1.1-0.2,1.6-0.2c0.7,0,1.2,0.2,1.6,0.6c0.4,0.4,0.7,0.8,0.7,1.3c0,0.7-0.2,1.2-0.6,1.6
			c-0.4,0.3-0.8,0.5-1.2,0.5c-0.4,0-0.8-0.1-1.1-0.2s-0.7-0.2-1.2-0.2c-0.4,0-0.8,0.1-1.2,0.3c-0.4,0.2-0.8,0.5-1.1,0.9
			c-0.3,0.4-0.6,0.9-0.8,1.5c-0.2,0.6-0.3,1.3-0.3,2v7.7c0,0.6-0.2,1-0.6,1.4C931.3,1982.9,930.9,1983.1,930.3,1983.1z"/>
		<path style="fill:#1D1E28;" d="M956.7,1965.3c0.6,0,1,0.2,1.4,0.6c0.4,0.4,0.6,0.8,0.6,1.4v13.8c0,0.6-0.2,1-0.6,1.4
			c-0.4,0.4-0.8,0.6-1.4,0.6c-0.6,0-1-0.2-1.4-0.6c-0.4-0.4-0.6-0.9-0.6-1.4v-1.6l0.7,0.3c0,0.3-0.2,0.6-0.5,1
			c-0.3,0.4-0.7,0.8-1.2,1.2c-0.5,0.4-1.1,0.7-1.8,1c-0.7,0.3-1.5,0.4-2.3,0.4c-1.5,0-2.9-0.4-4.1-1.2c-1.2-0.8-2.2-1.8-2.9-3.2
			c-0.7-1.4-1.1-2.9-1.1-4.7c0-1.8,0.4-3.4,1.1-4.7c0.7-1.4,1.7-2.4,2.9-3.2s2.5-1.2,4-1.2c0.9,0,1.8,0.1,2.6,0.4
			c0.8,0.3,1.5,0.6,2,1.1c0.6,0.4,1,0.9,1.3,1.3c0.3,0.4,0.5,0.8,0.5,1.1l-1.2,0.4v-2.4c0-0.6,0.2-1,0.6-1.4
			C955.6,1965.5,956.1,1965.3,956.7,1965.3z M950.1,1979.9c1,0,1.8-0.2,2.5-0.7s1.3-1.1,1.7-2c0.4-0.8,0.6-1.8,0.6-2.8
			c0-1-0.2-2-0.6-2.8c-0.4-0.8-1-1.5-1.7-2c-0.7-0.5-1.6-0.7-2.5-0.7c-0.9,0-1.8,0.2-2.5,0.7c-0.7,0.5-1.3,1.1-1.7,2
			s-0.6,1.8-0.6,2.8c0,1,0.2,1.9,0.6,2.8c0.4,0.8,1,1.5,1.7,2C948.3,1979.6,949.1,1979.9,950.1,1979.9z"/>
		<path style="fill:#1D1E28;" d="M977,1959c0.6,0,1,0.2,1.4,0.6c0.4,0.4,0.6,0.8,0.6,1.4v20.2c0,0.6-0.2,1-0.6,1.4
			c-0.4,0.4-0.8,0.6-1.4,0.6c-0.6,0-1-0.2-1.4-0.6c-0.4-0.4-0.6-0.9-0.6-1.4v-1.6l0.7,0.3c0,0.3-0.2,0.6-0.5,1
			c-0.3,0.4-0.7,0.8-1.2,1.2c-0.5,0.4-1.1,0.7-1.8,1c-0.7,0.3-1.5,0.4-2.3,0.4c-1.5,0-2.9-0.4-4.1-1.2c-1.2-0.8-2.2-1.8-2.9-3.2
			c-0.7-1.4-1.1-2.9-1.1-4.7c0-1.8,0.4-3.4,1.1-4.7c0.7-1.4,1.7-2.4,2.9-3.2s2.5-1.2,4-1.2c0.9,0,1.8,0.1,2.6,0.4
			c0.8,0.3,1.5,0.6,2,1.1c0.6,0.4,1,0.9,1.3,1.3c0.3,0.4,0.5,0.8,0.5,1.1l-1.2,0.4v-8.8c0-0.6,0.2-1,0.6-1.4
			C976,1959.2,976.4,1959,977,1959z M970.4,1979.9c1,0,1.8-0.2,2.5-0.7s1.3-1.1,1.7-2c0.4-0.8,0.6-1.8,0.6-2.8c0-1-0.2-2-0.6-2.8
			c-0.4-0.8-1-1.5-1.7-2c-0.7-0.5-1.6-0.7-2.5-0.7c-0.9,0-1.8,0.2-2.5,0.7c-0.7,0.5-1.3,1.1-1.7,2s-0.6,1.8-0.6,2.8
			c0,1,0.2,1.9,0.6,2.8c0.4,0.8,1,1.5,1.7,2C968.6,1979.6,969.5,1979.9,970.4,1979.9z"/>
		<path style="fill:#1D1E28;" d="M997.3,1965.3c0.6,0,1,0.2,1.4,0.6c0.4,0.4,0.6,0.8,0.6,1.4v13.8c0,0.6-0.2,1-0.6,1.4
			s-0.8,0.6-1.4,0.6s-1-0.2-1.4-0.6c-0.4-0.4-0.6-0.9-0.6-1.4v-1.6l0.7,0.3c0,0.3-0.2,0.6-0.5,1c-0.3,0.4-0.7,0.8-1.2,1.2
			c-0.5,0.4-1.1,0.7-1.8,1c-0.7,0.3-1.5,0.4-2.3,0.4c-1.5,0-2.9-0.4-4.1-1.2c-1.2-0.8-2.2-1.8-2.9-3.2c-0.7-1.4-1.1-2.9-1.1-4.7
			c0-1.8,0.4-3.4,1.1-4.7c0.7-1.4,1.7-2.4,2.9-3.2s2.5-1.2,4-1.2c0.9,0,1.8,0.1,2.6,0.4c0.8,0.3,1.5,0.6,2,1.1s1,0.9,1.3,1.3
			c0.3,0.4,0.5,0.8,0.5,1.1l-1.2,0.4v-2.4c0-0.6,0.2-1,0.6-1.4C996.3,1965.5,996.8,1965.3,997.3,1965.3z M990.8,1979.9
			c1,0,1.8-0.2,2.5-0.7c0.7-0.5,1.3-1.1,1.7-2c0.4-0.8,0.6-1.8,0.6-2.8c0-1-0.2-2-0.6-2.8c-0.4-0.8-1-1.5-1.7-2
			c-0.7-0.5-1.6-0.7-2.5-0.7c-0.9,0-1.8,0.2-2.5,0.7c-0.7,0.5-1.3,1.1-1.7,2s-0.6,1.8-0.6,2.8c0,1,0.2,1.9,0.6,2.8
			c0.4,0.8,1,1.5,1.7,2C989,1979.6,989.8,1979.9,990.8,1979.9z"/>
		<path style="fill:#1D1E28;" d="M1021.7,1965.3c1.5,0,2.9,0.4,4.1,1.2s2.2,1.8,2.9,3.2s1.1,2.9,1.1,4.7s-0.4,3.4-1.1,4.7
			s-1.7,2.4-2.8,3.2c-1.2,0.8-2.5,1.2-4,1.2c-0.9,0-1.7-0.1-2.4-0.4c-0.8-0.3-1.4-0.6-2-1.1c-0.6-0.4-1-0.9-1.3-1.3
			c-0.3-0.4-0.5-0.8-0.5-1.1l1-0.4v2.4c0,0.6-0.2,1-0.6,1.4s-0.8,0.6-1.4,0.6s-1-0.2-1.4-0.6c-0.4-0.4-0.6-0.8-0.6-1.4V1961
			c0-0.6,0.2-1,0.6-1.4c0.4-0.4,0.8-0.6,1.4-0.6s1,0.2,1.4,0.6s0.6,0.9,0.6,1.4v8.3l-0.6-0.3c0-0.3,0.2-0.6,0.5-1
			c0.3-0.4,0.7-0.8,1.2-1.2c0.5-0.4,1.1-0.7,1.8-1C1020.3,1965.5,1021,1965.3,1021.7,1965.3z M1021.3,1968.9c-1,0-1.8,0.2-2.5,0.7
			c-0.7,0.5-1.3,1.1-1.7,1.9s-0.6,1.7-0.6,2.8c0,1,0.2,2,0.6,2.8s1,1.5,1.7,2c0.7,0.5,1.6,0.7,2.5,0.7s1.8-0.2,2.5-0.7
			c0.7-0.5,1.3-1.1,1.7-2c0.4-0.8,0.6-1.8,0.6-2.8c0-1-0.2-2-0.6-2.8c-0.4-0.8-1-1.5-1.7-1.9
			C1023,1969.2,1022.2,1968.9,1021.3,1968.9z"/>
		<path style="fill:#1D1E28;" d="M1034.7,1963.5c-0.7,0-1.3-0.1-1.6-0.4c-0.3-0.2-0.5-0.7-0.5-1.3v-0.6c0-0.6,0.2-1.1,0.5-1.3
			s0.9-0.3,1.6-0.3c0.8,0,1.3,0.1,1.6,0.4s0.5,0.7,0.5,1.3v0.6c0,0.6-0.2,1.1-0.5,1.3C1036,1963.4,1035.5,1963.5,1034.7,1963.5z
			 M1036.7,1981.1c0,0.6-0.2,1-0.6,1.4s-0.8,0.6-1.4,0.6c-0.6,0-1-0.2-1.4-0.6c-0.4-0.4-0.6-0.9-0.6-1.4v-13.5c0-0.6,0.2-1,0.6-1.4
			c0.4-0.4,0.8-0.6,1.4-0.6c0.6,0,1,0.2,1.4,0.6c0.4,0.4,0.6,0.9,0.6,1.4V1981.1z"/>
		<path style="fill:#1D1E28;" d="M1042.7,1983.1c-0.6,0-1-0.2-1.4-0.6s-0.6-0.9-0.6-1.4v-13.5c0-0.6,0.2-1,0.6-1.4
			c0.4-0.4,0.8-0.6,1.4-0.6c0.6,0,1,0.2,1.4,0.6c0.4,0.4,0.6,0.9,0.6,1.4v3.1l-0.2-2.2c0.2-0.5,0.5-1,0.9-1.4c0.4-0.4,0.8-0.7,1.3-1
			c0.5-0.3,1-0.5,1.5-0.6c0.5-0.1,1.1-0.2,1.6-0.2c0.7,0,1.2,0.2,1.6,0.6c0.4,0.4,0.7,0.8,0.7,1.3c0,0.7-0.2,1.2-0.6,1.6
			s-0.8,0.5-1.2,0.5c-0.4,0-0.8-0.1-1.1-0.2c-0.3-0.2-0.7-0.2-1.2-0.2c-0.4,0-0.8,0.1-1.2,0.3c-0.4,0.2-0.8,0.5-1.1,0.9
			c-0.3,0.4-0.6,0.9-0.8,1.5c-0.2,0.6-0.3,1.3-0.3,2v7.7c0,0.6-0.2,1-0.6,1.4S1043.3,1983.1,1042.7,1983.1z"/>
		<path style="fill:#1D1E28;" d="M1063,1980.4c-0.2-0.3-0.3-0.7-0.3-1.2c0-0.5,0.3-0.9,0.8-1.2c0.3-0.2,0.7-0.3,1.1-0.3
			c0.4,0,0.8,0.2,1.1,0.6c0.6,0.6,1.3,1.1,2,1.5c0.7,0.3,1.6,0.5,2.6,0.5c0.3,0,0.7-0.1,1.1-0.1c0.4-0.1,0.7-0.3,1-0.5
			s0.4-0.7,0.4-1.3c0-0.5-0.2-0.9-0.5-1.1c-0.3-0.3-0.8-0.5-1.3-0.7c-0.5-0.2-1.1-0.4-1.8-0.6c-0.7-0.2-1.4-0.4-2.1-0.7
			s-1.4-0.5-1.9-0.9s-1.1-0.9-1.4-1.5c-0.4-0.6-0.6-1.4-0.6-2.4c0-1.1,0.3-2,0.9-2.8s1.4-1.3,2.4-1.8c1-0.4,2-0.6,3.1-0.6
			c0.7,0,1.4,0.1,2.1,0.2c0.7,0.2,1.4,0.4,2.1,0.8c0.7,0.4,1.2,0.8,1.7,1.4c0.2,0.3,0.4,0.7,0.4,1.2s-0.2,0.9-0.6,1.2
			c-0.3,0.3-0.7,0.4-1.1,0.3s-0.8-0.2-1.1-0.4c-0.4-0.5-0.9-0.9-1.5-1.1c-0.6-0.3-1.3-0.4-2.1-0.4c-0.3,0-0.7,0-1.1,0.1
			s-0.7,0.2-1,0.5c-0.3,0.3-0.4,0.6-0.4,1.2c0,0.5,0.2,0.9,0.5,1.2s0.8,0.5,1.3,0.7c0.6,0.2,1.1,0.4,1.8,0.5c0.7,0.2,1.3,0.4,2,0.6
			s1.3,0.6,1.9,0.9c0.6,0.4,1,0.9,1.4,1.5c0.3,0.6,0.5,1.4,0.5,2.4c0,1.1-0.3,2.1-1,2.8c-0.7,0.8-1.5,1.4-2.4,1.8
			c-1,0.4-2,0.6-3,0.6c-1.3,0-2.6-0.2-3.9-0.7C1065,1982.3,1063.9,1981.5,1063,1980.4z M1069.3,1988.1c-0.2,0-0.5-0.1-0.8-0.2
			c-0.3-0.1-0.6-0.3-0.9-0.5c-0.3-0.2-0.4-0.5-0.4-0.8c0-0.3,0.1-0.7,0.4-1l2.5-3.4h2.3l-1.8,4.9
			C1070.4,1987.7,1069.9,1988.1,1069.3,1988.1z"/>
		<path style="fill:#1D1E28;" d="M1087.9,1983.5c-1.9,0-3.5-0.4-4.8-1.2c-1.4-0.8-2.4-1.8-3.1-3.2s-1.1-2.8-1.1-4.5
			c0-2,0.4-3.6,1.2-5c0.8-1.4,1.8-2.4,3.1-3.2c1.3-0.7,2.6-1.1,4.1-1.1c1.1,0,2.2,0.2,3.2,0.7s1.9,1.1,2.6,1.9
			c0.8,0.8,1.4,1.7,1.8,2.8c0.4,1,0.7,2.2,0.7,3.3c0,0.5-0.2,0.9-0.6,1.3c-0.4,0.3-0.8,0.5-1.4,0.5H1081l-1-3.3h12l-0.7,0.7v-0.9
			c0-0.6-0.3-1.2-0.7-1.7c-0.4-0.5-0.9-0.9-1.5-1.2c-0.6-0.3-1.2-0.4-1.9-0.4c-0.7,0-1.3,0.1-1.8,0.3c-0.6,0.2-1.1,0.5-1.5,0.9
			c-0.4,0.4-0.7,1-1,1.7c-0.2,0.7-0.4,1.6-0.4,2.6c0,1.2,0.2,2.2,0.7,3c0.5,0.8,1.1,1.4,1.9,1.9c0.8,0.4,1.6,0.6,2.5,0.6
			c0.8,0,1.4-0.1,1.9-0.2c0.5-0.1,0.9-0.3,1.2-0.5c0.3-0.2,0.6-0.3,0.8-0.5c0.4-0.2,0.8-0.3,1.1-0.3c0.5,0,0.9,0.2,1.2,0.5
			c0.3,0.3,0.5,0.7,0.5,1.1c0,0.6-0.3,1.1-0.9,1.6c-0.6,0.5-1.4,0.9-2.4,1.3C1090,1983.3,1089,1983.5,1087.9,1983.5z"/>
		<path style="fill:#1D1E28;" d="M1111.7,1965.7c0.6,0,1,0.2,1.4,0.6c0.4,0.4,0.6,0.9,0.6,1.4v13.9c0,2-0.4,3.6-1.1,4.8
			c-0.8,1.2-1.8,2-3,2.6c-1.3,0.5-2.7,0.8-4.2,0.8c-0.7,0-1.4-0.1-2.2-0.2c-0.8-0.1-1.4-0.3-1.9-0.5c-0.7-0.3-1.1-0.6-1.4-1.1
			c-0.3-0.4-0.3-0.9-0.1-1.4c0.2-0.6,0.5-1.1,0.9-1.3s0.9-0.3,1.4-0.1c0.3,0.1,0.8,0.3,1.4,0.5c0.6,0.2,1.2,0.3,2,0.3
			c1,0,1.8-0.1,2.5-0.4c0.7-0.3,1.2-0.7,1.5-1.4c0.3-0.6,0.5-1.5,0.5-2.6v-2.2l0.7,0.8c-0.4,0.7-0.8,1.3-1.4,1.8
			c-0.6,0.5-1.2,0.8-2,1.1s-1.6,0.4-2.6,0.4c-1.2,0-2.2-0.3-3-0.8c-0.9-0.5-1.5-1.3-2-2.2c-0.5-0.9-0.7-2-0.7-3.2v-9.5
			c0-0.6,0.2-1,0.6-1.4c0.4-0.4,0.8-0.6,1.4-0.6c0.6,0,1,0.2,1.4,0.6c0.4,0.4,0.6,0.9,0.6,1.4v8.4c0,1.4,0.3,2.4,0.9,3
			c0.6,0.6,1.5,0.9,2.6,0.9c0.8,0,1.4-0.1,1.9-0.4s0.9-0.7,1.2-1.3c0.3-0.6,0.4-1.3,0.4-2.1v-8.4c0-0.6,0.2-1,0.6-1.4
			C1110.7,1965.8,1111.1,1965.7,1111.7,1965.7z"/>
		<path style="fill:#1D1E28;" d="M983.4,2004.8c0.6,0,1,0.2,1.4,0.6c0.4,0.4,0.6,0.9,0.6,1.4v13.9c0,2-0.4,3.6-1.1,4.8s-1.8,2-3,2.6
			c-1.3,0.5-2.7,0.8-4.2,0.8c-0.7,0-1.4-0.1-2.2-0.2c-0.8-0.1-1.4-0.3-1.9-0.5c-0.7-0.3-1.1-0.6-1.4-1.1c-0.3-0.4-0.3-0.9-0.1-1.4
			c0.2-0.6,0.5-1.1,0.9-1.3c0.4-0.2,0.9-0.3,1.4-0.1c0.3,0.1,0.8,0.3,1.4,0.5c0.6,0.2,1.2,0.3,2,0.3c1,0,1.8-0.1,2.5-0.4
			s1.2-0.7,1.5-1.4c0.3-0.6,0.5-1.5,0.5-2.6v-2.2l0.7,0.8c-0.4,0.7-0.8,1.3-1.4,1.8c-0.6,0.5-1.2,0.8-2,1.1
			c-0.8,0.2-1.6,0.4-2.6,0.4c-1.2,0-2.2-0.3-3-0.8c-0.9-0.5-1.5-1.3-2-2.2c-0.5-0.9-0.7-2-0.7-3.2v-9.5c0-0.6,0.2-1,0.6-1.4
			c0.4-0.4,0.8-0.6,1.4-0.6c0.6,0,1,0.2,1.4,0.6c0.4,0.4,0.6,0.9,0.6,1.4v8.4c0,1.4,0.3,2.4,0.9,3c0.6,0.6,1.5,0.9,2.6,0.9
			c0.8,0,1.4-0.1,1.9-0.4s0.9-0.7,1.2-1.3c0.3-0.6,0.4-1.3,0.4-2.1v-8.4c0-0.6,0.2-1,0.6-1.4C982.3,2005,982.8,2004.8,983.4,2004.8z
			"/>
		<path style="fill:#1D1E28;" d="M1006.4,2013.6c0,1.8-0.4,3.4-1.2,4.7s-1.9,2.4-3.2,3.2c-1.3,0.8-2.8,1.1-4.5,1.1s-3.2-0.4-4.5-1.1
			c-1.3-0.8-2.4-1.8-3.2-3.2c-0.8-1.4-1.2-2.9-1.2-4.7c0-1.8,0.4-3.4,1.2-4.7c0.8-1.4,1.9-2.4,3.2-3.2s2.8-1.2,4.5-1.2
			s3.2,0.4,4.5,1.2c1.3,0.8,2.4,1.8,3.2,3.2S1006.4,2011.8,1006.4,2013.6z M1002.4,2013.6c0-1.1-0.2-2.1-0.7-2.9
			c-0.4-0.8-1-1.5-1.8-1.9s-1.6-0.7-2.5-0.7s-1.7,0.2-2.5,0.7s-1.3,1.1-1.8,1.9s-0.7,1.8-0.7,2.9c0,1.1,0.2,2,0.7,2.9s1,1.5,1.8,1.9
			s1.6,0.7,2.5,0.7s1.7-0.2,2.5-0.7s1.3-1.1,1.8-1.9C1002.2,2015.6,1002.4,2014.7,1002.4,2013.6z"/>
		<path style="fill:#1D1E28;" d="M1011.9,2022.3c-0.6,0-1-0.2-1.4-0.6s-0.6-0.9-0.6-1.4v-20.2c0-0.6,0.2-1,0.6-1.4s0.8-0.6,1.4-0.6
			s1,0.2,1.4,0.6s0.6,0.9,0.6,1.4v20.2c0,0.6-0.2,1-0.6,1.4S1012.5,2022.3,1011.9,2022.3z M1022.3,2004.8c0.5,0,0.9,0.2,1.3,0.6
			c0.4,0.4,0.6,0.8,0.6,1.2c0,0.5-0.3,1-0.8,1.5l-9.8,9l-0.2-4.5l7.5-7.2C1021.3,2005,1021.8,2004.8,1022.3,2004.8z M1022.8,2022.3
			c-0.6,0-1-0.2-1.4-0.7l-6-6.4l3-2.7l5.9,6.4c0.4,0.4,0.6,0.9,0.6,1.5c0,0.6-0.2,1-0.7,1.4
			C1023.7,2022.1,1023.2,2022.3,1022.8,2022.3z"/>
		<path style="fill:#1D1E28;" d="M1029.9,2022.3c-0.6,0-1.1-0.2-1.5-0.5c-0.3-0.3-0.5-0.8-0.5-1.5v-0.6c0-0.6,0.2-1.1,0.5-1.5
			c0.3-0.3,0.8-0.5,1.5-0.5h0.4c0.6,0,1.1,0.2,1.5,0.5c0.3,0.3,0.5,0.8,0.5,1.5v0.6c0,0.6-0.2,1.1-0.5,1.5c-0.3,0.3-0.8,0.5-1.5,0.5
			H1029.9z"/>
	</g>
</g>
<g>
	<g style="opacity:0.8;">
		<path style="fill:#1D1E28;" d="M896.6,1019.7l-7.1,16.6c-0.2,0.4-0.4,0.7-0.7,1c-0.3,0.2-0.7,0.3-1,0.3c-0.6,0-1-0.2-1.3-0.5
			c-0.3-0.3-0.4-0.7-0.4-1.2c0-0.2,0-0.4,0.1-0.6l8.1-19.5c0.2-0.4,0.4-0.8,0.8-1c0.4-0.2,0.7-0.3,1.2-0.3c0.4,0,0.8,0.1,1.1,0.3
			c0.3,0.2,0.6,0.6,0.7,1l8,19.1c0.1,0.3,0.2,0.5,0.2,0.8c0,0.6-0.2,1.1-0.6,1.4c-0.4,0.3-0.8,0.5-1.3,0.5c-0.4,0-0.7-0.1-1.1-0.4
			s-0.6-0.6-0.7-1l-7-16.4L896.6,1019.7z M890.6,1032.3l1.8-3.8h8.8l0.6,3.8H890.6z"/>
		<path style="fill:#1D1E28;" d="M918,1019.7c1.6,0,2.8,0.3,3.6,1c0.8,0.7,1.4,1.6,1.7,2.7c0.3,1.1,0.5,2.4,0.5,3.7v8.4
			c0,0.6-0.2,1-0.6,1.4s-0.8,0.6-1.4,0.6c-0.6,0-1-0.2-1.4-0.6s-0.6-0.9-0.6-1.4v-8.4c0-0.7-0.1-1.4-0.3-1.9c-0.2-0.6-0.5-1-0.9-1.4
			c-0.5-0.3-1.1-0.5-2-0.5c-0.8,0-1.5,0.2-2.1,0.5c-0.6,0.3-1,0.8-1.3,1.4c-0.3,0.6-0.4,1.2-0.4,1.9v8.4c0,0.6-0.2,1-0.6,1.4
			c-0.4,0.4-0.8,0.6-1.4,0.6c-0.6,0-1-0.2-1.4-0.6c-0.4-0.4-0.6-0.9-0.6-1.4v-20.2c0-0.6,0.2-1,0.6-1.4c0.4-0.4,0.8-0.6,1.4-0.6
			c0.6,0,1,0.2,1.4,0.6c0.4,0.4,0.6,0.9,0.6,1.4v8.1l-0.5-0.1c0.2-0.4,0.5-0.8,0.8-1.2s0.8-0.8,1.3-1.2c0.5-0.4,1.1-0.7,1.7-0.9
			C916.6,1019.8,917.2,1019.7,918,1019.7z"/>
		<path style="fill:#1D1E28;" d="M946.2,1019.7c1.6,0,2.8,0.3,3.6,1c0.8,0.7,1.4,1.6,1.7,2.7c0.3,1.1,0.5,2.4,0.5,3.7v8.4
			c0,0.6-0.2,1-0.6,1.4s-0.8,0.6-1.4,0.6c-0.6,0-1-0.2-1.4-0.6s-0.6-0.9-0.6-1.4v-8.4c0-0.7-0.1-1.4-0.3-1.9c-0.2-0.6-0.5-1-0.9-1.4
			c-0.5-0.3-1.1-0.5-2-0.5c-0.8,0-1.5,0.2-2.1,0.5c-0.6,0.3-1,0.8-1.3,1.4c-0.3,0.6-0.4,1.2-0.4,1.9v8.4c0,0.6-0.2,1-0.6,1.4
			c-0.4,0.4-0.8,0.6-1.4,0.6c-0.6,0-1-0.2-1.4-0.6c-0.4-0.4-0.6-0.9-0.6-1.4v-20.2c0-0.6,0.2-1,0.6-1.4c0.4-0.4,0.8-0.6,1.4-0.6
			c0.6,0,1,0.2,1.4,0.6c0.4,0.4,0.6,0.9,0.6,1.4v8.1l-0.5-0.1c0.2-0.4,0.5-0.8,0.8-1.2s0.8-0.8,1.3-1.2c0.5-0.4,1.1-0.7,1.7-0.9
			C944.8,1019.8,945.5,1019.7,946.2,1019.7z"/>
		<path style="fill:#1D1E28;" d="M970.3,1019.7c0.6,0,1,0.2,1.4,0.6c0.4,0.4,0.6,0.8,0.6,1.4v13.8c0,0.6-0.2,1-0.6,1.4
			c-0.4,0.4-0.8,0.6-1.4,0.6c-0.6,0-1-0.2-1.4-0.6c-0.4-0.4-0.6-0.9-0.6-1.4v-1.6l0.7,0.3c0,0.3-0.2,0.6-0.5,1
			c-0.3,0.4-0.7,0.8-1.2,1.2c-0.5,0.4-1.1,0.7-1.8,1c-0.7,0.3-1.5,0.4-2.3,0.4c-1.5,0-2.9-0.4-4.1-1.2c-1.2-0.8-2.2-1.8-2.9-3.2
			c-0.7-1.4-1.1-2.9-1.1-4.7c0-1.8,0.4-3.4,1.1-4.7c0.7-1.4,1.7-2.4,2.9-3.2s2.5-1.2,4-1.2c0.9,0,1.8,0.1,2.6,0.4
			c0.8,0.3,1.5,0.6,2,1.1c0.6,0.4,1,0.9,1.3,1.3c0.3,0.4,0.5,0.8,0.5,1.1l-1.2,0.4v-2.4c0-0.6,0.2-1,0.6-1.4
			C969.3,1019.9,969.8,1019.7,970.3,1019.7z M963.7,1034.2c1,0,1.8-0.2,2.5-0.7s1.3-1.1,1.7-2c0.4-0.8,0.6-1.8,0.6-2.8
			c0-1-0.2-2-0.6-2.8c-0.4-0.8-1-1.5-1.7-2c-0.7-0.5-1.6-0.7-2.5-0.7c-0.9,0-1.8,0.2-2.5,0.7c-0.7,0.5-1.3,1.1-1.7,2
			s-0.6,1.8-0.6,2.8c0,1,0.2,1.9,0.6,2.8c0.4,0.8,1,1.5,1.7,2C962,1034,962.8,1034.2,963.7,1034.2z"/>
		<path style="fill:#1D1E28;" d="M990.7,1013.3c0.6,0,1,0.2,1.4,0.6c0.4,0.4,0.6,0.8,0.6,1.4v20.2c0,0.6-0.2,1-0.6,1.4
			c-0.4,0.4-0.8,0.6-1.4,0.6c-0.6,0-1-0.2-1.4-0.6s-0.6-0.9-0.6-1.4v-1.6l0.7,0.3c0,0.3-0.2,0.6-0.5,1c-0.3,0.4-0.7,0.8-1.2,1.2
			c-0.5,0.4-1.1,0.7-1.8,1c-0.7,0.3-1.5,0.4-2.3,0.4c-1.5,0-2.9-0.4-4.1-1.2c-1.2-0.8-2.2-1.8-2.9-3.2c-0.7-1.4-1.1-2.9-1.1-4.7
			c0-1.8,0.4-3.4,1.1-4.7c0.7-1.4,1.7-2.4,2.9-3.2s2.5-1.2,4-1.2c0.9,0,1.8,0.1,2.6,0.4c0.8,0.3,1.5,0.6,2,1.1
			c0.6,0.4,1,0.9,1.3,1.3c0.3,0.4,0.5,0.8,0.5,1.1l-1.2,0.4v-8.8c0-0.6,0.2-1,0.6-1.4S990.1,1013.3,990.7,1013.3z M984.1,1034.2
			c1,0,1.8-0.2,2.5-0.7s1.3-1.1,1.7-2c0.4-0.8,0.6-1.8,0.6-2.8c0-1-0.2-2-0.6-2.8s-1-1.5-1.7-2c-0.7-0.5-1.6-0.7-2.5-0.7
			c-0.9,0-1.8,0.2-2.5,0.7c-0.7,0.5-1.3,1.1-1.7,2s-0.6,1.8-0.6,2.8c0,1,0.2,1.9,0.6,2.8c0.4,0.8,1,1.5,1.7,2
			C982.3,1034,983.1,1034.2,984.1,1034.2z"/>
		<path style="fill:#1D1E28;" d="M998.6,1017.9c-0.7,0-1.3-0.1-1.6-0.4c-0.3-0.2-0.5-0.7-0.5-1.3v-0.6c0-0.6,0.2-1.1,0.5-1.3
			c0.3-0.2,0.9-0.3,1.6-0.3c0.8,0,1.3,0.1,1.6,0.4s0.5,0.7,0.5,1.3v0.6c0,0.6-0.2,1.1-0.5,1.3
			C999.8,1017.8,999.3,1017.9,998.6,1017.9z M1000.6,1035.5c0,0.6-0.2,1-0.6,1.4c-0.4,0.4-0.8,0.6-1.4,0.6c-0.6,0-1-0.2-1.4-0.6
			s-0.6-0.9-0.6-1.4V1022c0-0.6,0.2-1,0.6-1.4c0.4-0.4,0.8-0.6,1.4-0.6c0.6,0,1,0.2,1.4,0.6c0.4,0.4,0.6,0.9,0.6,1.4V1035.5z"/>
		<path style="fill:#1D1E28;" d="M1027.9,1019.7c0.6,0,1,0.2,1.4,0.6c0.4,0.4,0.6,0.8,0.6,1.4v13.8c0,0.6-0.2,1-0.6,1.4
			s-0.8,0.6-1.4,0.6c-0.6,0-1-0.2-1.4-0.6s-0.6-0.9-0.6-1.4v-1.6l0.7,0.3c0,0.3-0.2,0.6-0.5,1c-0.3,0.4-0.7,0.8-1.2,1.2
			c-0.5,0.4-1.1,0.7-1.8,1c-0.7,0.3-1.5,0.4-2.3,0.4c-1.5,0-2.9-0.4-4.1-1.2c-1.2-0.8-2.2-1.8-2.9-3.2c-0.7-1.4-1.1-2.9-1.1-4.7
			c0-1.8,0.4-3.4,1.1-4.7c0.7-1.4,1.7-2.4,2.9-3.2c1.2-0.8,2.5-1.2,4-1.2c0.9,0,1.8,0.1,2.6,0.4c0.8,0.3,1.5,0.6,2,1.1
			s1,0.9,1.3,1.3c0.3,0.4,0.5,0.8,0.5,1.1l-1.2,0.4v-2.4c0-0.6,0.2-1,0.6-1.4S1027.3,1019.7,1027.9,1019.7z M1021.3,1034.2
			c1,0,1.8-0.2,2.5-0.7s1.3-1.1,1.7-2c0.4-0.8,0.6-1.8,0.6-2.8c0-1-0.2-2-0.6-2.8c-0.4-0.8-1-1.5-1.7-2c-0.7-0.5-1.6-0.7-2.5-0.7
			c-0.9,0-1.8,0.2-2.5,0.7c-0.7,0.5-1.3,1.1-1.7,2c-0.4,0.8-0.6,1.8-0.6,2.8c0,1,0.2,1.9,0.6,2.8c0.4,0.8,1,1.5,1.7,2
			C1019.5,1034,1020.3,1034.2,1021.3,1034.2z"/>
		<path style="fill:#1D1E28;" d="M1043.2,1019.7c1.7,0,3,0.4,3.9,1.3c0.8,0.8,1.4,1.9,1.6,3.2l-0.6-0.3l0.3-0.5
			c0.3-0.5,0.7-1,1.2-1.6c0.5-0.6,1.2-1.1,2-1.5c0.8-0.4,1.6-0.6,2.6-0.6c1.6,0,2.8,0.3,3.6,1c0.8,0.7,1.4,1.6,1.7,2.7
			s0.5,2.4,0.5,3.7v8.4c0,0.6-0.2,1-0.6,1.4s-0.8,0.6-1.4,0.6s-1-0.2-1.4-0.6s-0.6-0.9-0.6-1.4v-8.4c0-0.7-0.1-1.4-0.3-1.9
			c-0.2-0.6-0.5-1-0.9-1.4c-0.5-0.3-1.1-0.5-2-0.5c-0.8,0-1.5,0.2-2.1,0.5c-0.6,0.3-1,0.8-1.3,1.4c-0.3,0.6-0.4,1.2-0.4,1.9v8.4
			c0,0.6-0.2,1-0.6,1.4s-0.8,0.6-1.4,0.6c-0.6,0-1-0.2-1.4-0.6c-0.4-0.4-0.6-0.9-0.6-1.4v-8.4c0-0.7-0.1-1.4-0.3-1.9
			c-0.2-0.6-0.5-1-0.9-1.4c-0.5-0.3-1.1-0.5-2-0.5c-0.8,0-1.5,0.2-2.1,0.5c-0.6,0.3-1,0.8-1.3,1.4c-0.3,0.6-0.4,1.2-0.4,1.9v8.4
			c0,0.6-0.2,1-0.6,1.4s-0.8,0.6-1.4,0.6c-0.6,0-1-0.2-1.4-0.6s-0.6-0.9-0.6-1.4V1022c0-0.6,0.2-1,0.6-1.4c0.4-0.4,0.8-0.6,1.4-0.6
			c0.6,0,1,0.2,1.4,0.6c0.4,0.4,0.6,0.9,0.6,1.4v1.4l-0.5-0.1c0.2-0.4,0.5-0.8,0.8-1.2s0.8-0.8,1.3-1.2c0.5-0.4,1.1-0.7,1.7-0.9
			C1041.9,1019.8,1042.5,1019.7,1043.2,1019.7z"/>
		<path style="fill:#1D1E28;" d="M1078.3,1019.7c0.6,0,1,0.2,1.4,0.6c0.4,0.4,0.6,0.8,0.6,1.4v13.8c0,0.6-0.2,1-0.6,1.4
			s-0.8,0.6-1.4,0.6c-0.6,0-1-0.2-1.4-0.6s-0.6-0.9-0.6-1.4v-1.6l0.7,0.3c0,0.3-0.2,0.6-0.5,1c-0.3,0.4-0.7,0.8-1.2,1.2
			c-0.5,0.4-1.1,0.7-1.8,1c-0.7,0.3-1.5,0.4-2.3,0.4c-1.5,0-2.9-0.4-4.1-1.2c-1.2-0.8-2.2-1.8-2.9-3.2c-0.7-1.4-1.1-2.9-1.1-4.7
			c0-1.8,0.4-3.4,1.1-4.7c0.7-1.4,1.7-2.4,2.9-3.2c1.2-0.8,2.5-1.2,4-1.2c0.9,0,1.8,0.1,2.6,0.4c0.8,0.3,1.5,0.6,2,1.1
			s1,0.9,1.3,1.3c0.3,0.4,0.5,0.8,0.5,1.1l-1.2,0.4v-2.4c0-0.6,0.2-1,0.6-1.4S1077.7,1019.7,1078.3,1019.7z M1071.7,1034.2
			c1,0,1.8-0.2,2.5-0.7s1.3-1.1,1.7-2c0.4-0.8,0.6-1.8,0.6-2.8c0-1-0.2-2-0.6-2.8c-0.4-0.8-1-1.5-1.7-2c-0.7-0.5-1.6-0.7-2.5-0.7
			c-0.9,0-1.8,0.2-2.5,0.7c-0.7,0.5-1.3,1.1-1.7,2c-0.4,0.8-0.6,1.8-0.6,2.8c0,1,0.2,1.9,0.6,2.8c0.4,0.8,1,1.5,1.7,2
			C1070,1034,1070.8,1034.2,1071.7,1034.2z"/>
		<path style="fill:#1D1E28;" d="M1086.5,1037.5c-0.6,0-1.1-0.2-1.5-0.5c-0.3-0.3-0.5-0.8-0.5-1.5v-0.6c0-0.6,0.2-1.1,0.5-1.5
			c0.3-0.3,0.8-0.5,1.5-0.5h0.4c0.6,0,1.1,0.2,1.5,0.5c0.3,0.3,0.5,0.8,0.5,1.5v0.6c0,0.6-0.2,1.1-0.5,1.5c-0.3,0.3-0.8,0.5-1.5,0.5
			H1086.5z M1086.8,1030.2c-0.7,0-1.1-0.4-1.2-1.2l-0.9-12c0-0.7,0.1-1.2,0.5-1.7c0.4-0.5,0.9-0.7,1.6-0.7s1.2,0.2,1.6,0.7
			c0.4,0.5,0.6,1,0.5,1.7l-0.9,12C1087.9,1029.8,1087.5,1030.2,1086.8,1030.2z"/>
	</g>
</g>
<g>
	<g style="opacity:0.8;">
		<path style="fill:#1D1E28;" d="M949.6,245.6c2.1,0,3.6,0.5,4.7,1.5c1,1,1.5,2.4,1.5,4.3c0,1-0.3,1.9-0.8,2.7
			c-0.5,0.8-1.2,1.4-2.2,1.8c-1,0.4-2.2,0.6-3.6,0.6l0.1-1.5c0.7,0,1.4,0.1,2.3,0.3c0.9,0.2,1.7,0.5,2.5,1c0.8,0.5,1.5,1.1,2,2
			c0.5,0.8,0.8,1.9,0.8,3.2c0,1.4-0.2,2.6-0.7,3.5c-0.5,0.9-1.1,1.6-1.8,2.1c-0.8,0.5-1.6,0.8-2.4,1c-0.9,0.2-1.7,0.3-2.5,0.3h-8.1
			c-0.6,0-1-0.2-1.4-0.6c-0.4-0.4-0.6-0.9-0.6-1.4v-18.9c0-0.6,0.2-1,0.6-1.4c0.4-0.4,0.9-0.6,1.4-0.6H949.6z M949,249.5h-5.8
			l0.4-0.5v5.9l-0.4-0.3h5.9c0.6,0,1.2-0.2,1.7-0.6c0.5-0.4,0.8-1,0.8-1.8c0-0.9-0.2-1.6-0.7-2C950.4,249.7,949.8,249.5,949,249.5z
			 M949.3,258.4h-5.9l0.3-0.3v6.9l-0.3-0.3h6.2c1,0,1.8-0.3,2.4-0.8c0.6-0.5,0.9-1.3,0.9-2.4c0-1-0.2-1.7-0.6-2.1
			c-0.4-0.4-0.9-0.7-1.4-0.8C950.2,258.5,949.7,258.4,949.3,258.4z"/>
		<path style="fill:#1D1E28;" d="M962.4,268.5c-0.6,0-1-0.2-1.4-0.6c-0.4-0.4-0.6-0.9-0.6-1.4V253c0-0.6,0.2-1,0.6-1.4
			c0.4-0.4,0.8-0.6,1.4-0.6c0.6,0,1,0.2,1.4,0.6c0.4,0.4,0.6,0.9,0.6,1.4v3.1l-0.2-2.2c0.2-0.5,0.5-1,0.9-1.4c0.4-0.4,0.8-0.7,1.3-1
			c0.5-0.3,1-0.5,1.5-0.6c0.5-0.1,1.1-0.2,1.6-0.2c0.7,0,1.2,0.2,1.6,0.6c0.4,0.4,0.7,0.8,0.7,1.3c0,0.7-0.2,1.2-0.6,1.6
			c-0.4,0.3-0.8,0.5-1.2,0.5c-0.4,0-0.8-0.1-1.1-0.2s-0.7-0.2-1.2-0.2c-0.4,0-0.8,0.1-1.2,0.3c-0.4,0.2-0.8,0.5-1.1,0.9
			c-0.3,0.4-0.6,0.9-0.8,1.5c-0.2,0.6-0.3,1.3-0.3,2v7.7c0,0.6-0.2,1-0.6,1.4C963.4,268.3,963,268.5,962.4,268.5z"/>
		<path style="fill:#1D1E28;" d="M988.8,250.7c0.6,0,1,0.2,1.4,0.6c0.4,0.4,0.6,0.8,0.6,1.4v13.8c0,0.6-0.2,1-0.6,1.4
			s-0.8,0.6-1.4,0.6s-1-0.2-1.4-0.6c-0.4-0.4-0.6-0.9-0.6-1.4v-1.6l0.7,0.3c0,0.3-0.2,0.6-0.5,1c-0.3,0.4-0.7,0.8-1.2,1.2
			c-0.5,0.4-1.1,0.7-1.8,1c-0.7,0.3-1.5,0.4-2.3,0.4c-1.5,0-2.9-0.4-4.1-1.2c-1.2-0.8-2.2-1.8-2.9-3.2c-0.7-1.4-1.1-2.9-1.1-4.7
			c0-1.8,0.4-3.4,1.1-4.7c0.7-1.4,1.7-2.4,2.9-3.2s2.5-1.2,4-1.2c0.9,0,1.8,0.1,2.6,0.4c0.8,0.3,1.5,0.6,2,1.1
			c0.6,0.4,1,0.9,1.3,1.3c0.3,0.4,0.5,0.8,0.5,1.1l-1.2,0.4v-2.4c0-0.6,0.2-1,0.6-1.4C987.7,250.9,988.2,250.7,988.8,250.7z
			 M982.2,265.2c1,0,1.8-0.2,2.5-0.7s1.3-1.1,1.7-2c0.4-0.8,0.6-1.8,0.6-2.8c0-1-0.2-2-0.6-2.8c-0.4-0.8-1-1.5-1.7-2
			c-0.7-0.5-1.6-0.7-2.5-0.7c-0.9,0-1.8,0.2-2.5,0.7c-0.7,0.5-1.3,1.1-1.7,2s-0.6,1.8-0.6,2.8c0,1,0.2,1.9,0.6,2.8
			c0.4,0.8,1,1.5,1.7,2C980.4,265,981.2,265.2,982.2,265.2z"/>
		<path style="fill:#1D1E28;" d="M995.7,251c0.4,0,0.8,0.1,1.1,0.3c0.3,0.2,0.6,0.5,0.8,0.9l4.8,11l-0.7,0.3l4.9-11.3
			c0.4-0.9,0.9-1.3,1.7-1.2c0.5,0,1,0.2,1.3,0.5c0.3,0.3,0.5,0.8,0.5,1.3c0,0.2,0,0.3-0.1,0.5c-0.1,0.2-0.1,0.3-0.2,0.5l-6.1,13.5
			c-0.3,0.8-0.9,1.2-1.7,1.2c-0.4,0.1-0.8,0-1.2-0.2s-0.7-0.6-0.9-1l-6.1-13.5c0-0.1-0.1-0.3-0.1-0.4c-0.1-0.2-0.1-0.4-0.1-0.6
			c0-0.4,0.2-0.8,0.5-1.2C994.7,251.2,995.2,251,995.7,251z"/>
		<path style="fill:#1D1E28;" d="M1030.1,259.8c0,1.8-0.4,3.4-1.2,4.7c-0.8,1.4-1.9,2.4-3.2,3.2c-1.3,0.8-2.8,1.1-4.5,1.1
			s-3.2-0.4-4.5-1.1c-1.3-0.8-2.4-1.8-3.2-3.2c-0.8-1.4-1.2-2.9-1.2-4.7c0-1.8,0.4-3.4,1.2-4.7c0.8-1.4,1.9-2.4,3.2-3.2
			c1.3-0.8,2.8-1.2,4.5-1.2s3.2,0.4,4.5,1.2s2.4,1.8,3.2,3.2C1029.7,256.4,1030.1,258,1030.1,259.8z M1026.2,259.8
			c0-1.1-0.2-2.1-0.7-2.9s-1-1.5-1.8-1.9s-1.6-0.7-2.5-0.7s-1.7,0.2-2.5,0.7s-1.3,1.1-1.8,1.9s-0.7,1.8-0.7,2.9c0,1.1,0.2,2,0.7,2.9
			s1,1.5,1.8,1.9s1.6,0.7,2.5,0.7s1.7-0.2,2.5-0.7s1.3-1.1,1.8-1.9S1026.2,260.9,1026.2,259.8z"/>
		<path style="fill:#1D1E28;" d="M1035.4,268.5c-0.6,0-1.1-0.2-1.5-0.5c-0.3-0.3-0.5-0.8-0.5-1.5V266c0-0.6,0.2-1.1,0.5-1.5
			c0.3-0.3,0.8-0.5,1.5-0.5h0.4c0.6,0,1.1,0.2,1.5,0.5c0.3,0.3,0.5,0.8,0.5,1.5v0.6c0,0.6-0.2,1.1-0.5,1.5c-0.3,0.3-0.8,0.5-1.5,0.5
			H1035.4z M1035.6,261.3c-0.7,0-1.1-0.4-1.2-1.2l-0.9-12c0-0.7,0.1-1.2,0.5-1.7c0.4-0.5,0.9-0.7,1.6-0.7s1.2,0.2,1.6,0.7
			c0.4,0.5,0.6,1,0.5,1.7l-0.9,12C1036.7,260.9,1036.3,261.3,1035.6,261.3z"/>
		<path style="fill:#1D1E28;" d="M820.1,308c-1.5,0-2.9-0.2-4.1-0.6c-1.2-0.4-2.4-1-3.5-2c-0.3-0.2-0.5-0.5-0.7-0.8
			c-0.2-0.3-0.2-0.6-0.2-0.9c0-0.5,0.2-0.9,0.5-1.3c0.4-0.4,0.8-0.6,1.4-0.6c0.4,0,0.8,0.1,1.1,0.4c0.8,0.7,1.6,1.2,2.5,1.5
			c0.8,0.3,1.8,0.5,3,0.5c0.8,0,1.5-0.1,2.2-0.4c0.7-0.3,1.2-0.6,1.6-1s0.6-0.9,0.6-1.5c0-0.7-0.2-1.2-0.6-1.7
			c-0.4-0.5-1-0.8-1.8-1.2c-0.8-0.3-1.8-0.6-3.1-0.7c-1.2-0.2-2.2-0.4-3.1-0.8c-0.9-0.4-1.6-0.8-2.2-1.4c-0.6-0.6-1.1-1.2-1.4-2
			c-0.3-0.8-0.5-1.6-0.5-2.5c0-1.4,0.4-2.6,1.1-3.6c0.7-1,1.7-1.8,3-2.3s2.6-0.8,4.1-0.8c1.4,0,2.7,0.2,3.9,0.6c1.2,0.4,2.2,1,3,1.6
			c0.6,0.5,0.9,1.1,0.9,1.7c0,0.5-0.2,0.9-0.6,1.3c-0.4,0.4-0.8,0.6-1.3,0.6c-0.3,0-0.6-0.1-0.9-0.3c-0.3-0.3-0.8-0.6-1.4-0.9
			c-0.6-0.3-1.2-0.5-1.9-0.7c-0.7-0.2-1.3-0.3-1.8-0.3c-0.9,0-1.7,0.1-2.4,0.4c-0.6,0.2-1.1,0.6-1.5,1c-0.3,0.4-0.5,0.9-0.5,1.4
			c0,0.7,0.2,1.2,0.6,1.6c0.4,0.4,0.9,0.8,1.6,1s1.6,0.5,2.6,0.7c1.3,0.2,2.5,0.5,3.4,0.8c1,0.3,1.8,0.7,2.5,1.3
			c0.7,0.5,1.1,1.2,1.5,1.9c0.3,0.8,0.5,1.7,0.5,2.8c0,1.4-0.4,2.6-1.2,3.7s-1.8,1.8-3.1,2.4C823,307.7,821.6,308,820.1,308z"/>
		<path style="fill:#1D1E28;" d="M844.9,290.2c0.6,0,1,0.2,1.4,0.6c0.4,0.4,0.6,0.9,0.6,1.4v8.3c0,2.3-0.6,4.1-1.9,5.5
			c-1.3,1.4-3.1,2-5.6,2s-4.3-0.7-5.5-2c-1.3-1.3-1.9-3.2-1.9-5.5v-8.3c0-0.6,0.2-1,0.6-1.4c0.4-0.4,0.8-0.6,1.4-0.6
			c0.6,0,1,0.2,1.4,0.6c0.4,0.4,0.6,0.9,0.6,1.4v8.3c0,1.3,0.3,2.3,0.9,3c0.6,0.6,1.5,1,2.6,1c1.2,0,2.1-0.3,2.7-1
			c0.6-0.6,0.9-1.6,0.9-3v-8.3c0-0.6,0.2-1,0.6-1.4C843.9,290.4,844.3,290.2,844.9,290.2z M836.1,288.1c-0.7,0-1.2-0.1-1.5-0.4
			c-0.3-0.3-0.5-0.7-0.5-1.3v-0.6c0-0.6,0.2-1,0.5-1.3c0.3-0.2,0.8-0.4,1.4-0.4c0.8,0,1.3,0.1,1.6,0.3c0.3,0.2,0.5,0.7,0.5,1.3v0.6
			c0,0.7-0.2,1.1-0.5,1.3C837.4,288,836.8,288.1,836.1,288.1z M842.6,288.1c-0.7,0-1.2-0.1-1.5-0.4c-0.3-0.3-0.5-0.7-0.5-1.3v-0.6
			c0-0.6,0.2-1.1,0.5-1.3c0.3-0.2,0.8-0.3,1.5-0.3c0.7,0,1.2,0.1,1.6,0.4c0.3,0.2,0.5,0.7,0.5,1.3v0.6c0,0.7-0.2,1.1-0.5,1.3
			C843.9,288,843.3,288.1,842.6,288.1z"/>
		<path style="fill:#1D1E28;" d="M860.2,289.9c1.5,0,2.9,0.4,4.1,1.2c1.2,0.8,2.2,1.8,2.9,3.2c0.7,1.3,1.1,2.9,1.1,4.7
			s-0.4,3.4-1.1,4.7c-0.7,1.4-1.7,2.4-2.8,3.2c-1.2,0.8-2.5,1.2-4,1.2c-0.9,0-1.7-0.1-2.4-0.4c-0.8-0.3-1.4-0.6-2-1.1
			c-0.6-0.4-1-0.9-1.3-1.3c-0.3-0.4-0.5-0.8-0.5-1.1l1-0.4v8.6c0,0.6-0.2,1-0.6,1.4c-0.4,0.4-0.8,0.6-1.4,0.6c-0.6,0-1-0.2-1.4-0.6
			c-0.4-0.4-0.6-0.8-0.6-1.4v-20c0-0.6,0.2-1,0.6-1.4c0.4-0.4,0.8-0.6,1.4-0.6c0.6,0,1,0.2,1.4,0.6c0.4,0.4,0.6,0.9,0.6,1.4v1.6
			l-0.6-0.3c0-0.3,0.2-0.6,0.5-1c0.3-0.4,0.7-0.8,1.2-1.2c0.5-0.4,1.1-0.7,1.8-1C858.7,290,859.4,289.9,860.2,289.9z M859.7,293.5
			c-1,0-1.8,0.2-2.5,0.7c-0.7,0.5-1.3,1.1-1.7,1.9s-0.6,1.7-0.6,2.8c0,1,0.2,2,0.6,2.8s1,1.5,1.7,2c0.7,0.5,1.6,0.7,2.5,0.7
			c1,0,1.8-0.2,2.5-0.7c0.7-0.5,1.3-1.1,1.7-2s0.6-1.8,0.6-2.8c0-1-0.2-2-0.6-2.8s-1-1.5-1.7-1.9
			C861.5,293.7,860.6,293.5,859.7,293.5z"/>
		<path style="fill:#1D1E28;" d="M879.5,308c-1.9,0-3.5-0.4-4.8-1.2c-1.4-0.8-2.4-1.8-3.1-3.2c-0.7-1.3-1.1-2.8-1.1-4.5
			c0-2,0.4-3.6,1.2-5s1.8-2.4,3.1-3.2c1.3-0.7,2.6-1.1,4.1-1.1c1.1,0,2.2,0.2,3.2,0.7c1,0.5,1.9,1.1,2.6,1.9
			c0.8,0.8,1.4,1.7,1.8,2.8s0.7,2.2,0.7,3.3c0,0.5-0.2,0.9-0.6,1.3c-0.4,0.3-0.8,0.5-1.4,0.5h-12.5l-1-3.3h12l-0.7,0.7v-0.9
			c0-0.6-0.3-1.2-0.7-1.7c-0.4-0.5-0.9-0.9-1.5-1.2s-1.2-0.4-1.9-0.4c-0.7,0-1.3,0.1-1.8,0.3c-0.6,0.2-1.1,0.5-1.5,0.9
			c-0.4,0.4-0.7,1-1,1.7c-0.2,0.7-0.4,1.6-0.4,2.6c0,1.2,0.2,2.2,0.7,3s1.1,1.4,1.9,1.9c0.8,0.4,1.6,0.6,2.5,0.6
			c0.8,0,1.4-0.1,1.9-0.2c0.5-0.1,0.9-0.3,1.2-0.5s0.6-0.3,0.8-0.5c0.4-0.2,0.8-0.3,1.1-0.3c0.5,0,0.9,0.2,1.2,0.5
			c0.3,0.3,0.5,0.7,0.5,1.1c0,0.6-0.3,1.1-0.9,1.6c-0.6,0.5-1.4,0.9-2.4,1.3C881.7,307.8,880.6,308,879.5,308z"/>
		<path style="fill:#1D1E28;" d="M892.4,307.7c-0.6,0-1-0.2-1.4-0.6c-0.4-0.4-0.6-0.9-0.6-1.4v-13.5c0-0.6,0.2-1,0.6-1.4
			c0.4-0.4,0.8-0.6,1.4-0.6c0.6,0,1,0.2,1.4,0.6c0.4,0.4,0.6,0.9,0.6,1.4v3.1l-0.2-2.2c0.2-0.5,0.5-1,0.9-1.4c0.4-0.4,0.8-0.7,1.3-1
			c0.5-0.3,1-0.5,1.5-0.6c0.5-0.1,1.1-0.2,1.6-0.2c0.7,0,1.2,0.2,1.6,0.6c0.4,0.4,0.7,0.8,0.7,1.3c0,0.7-0.2,1.2-0.6,1.6
			c-0.4,0.3-0.8,0.5-1.2,0.5c-0.4,0-0.8-0.1-1.1-0.2s-0.7-0.2-1.2-0.2c-0.4,0-0.8,0.1-1.2,0.3c-0.4,0.2-0.8,0.5-1.1,0.9
			c-0.3,0.4-0.6,0.9-0.8,1.5c-0.2,0.6-0.3,1.3-0.3,2v7.7c0,0.6-0.2,1-0.6,1.4C893.4,307.5,892.9,307.7,892.4,307.7z"/>
		<path style="fill:#1D1E28;" d="M920.8,289.9c0.9,0,1.8,0.1,2.5,0.4c0.8,0.3,1.4,0.6,2,1.1s1,0.9,1.3,1.3c0.3,0.4,0.5,0.8,0.5,1.1
			l-0.8,0.4v-2.4c0-0.6,0.2-1,0.6-1.4s0.8-0.6,1.4-0.6c0.6,0,1,0.2,1.4,0.6c0.4,0.4,0.6,0.8,0.6,1.4v14.5c0,1.9-0.4,3.4-1.2,4.6
			c-0.8,1.1-1.9,2-3.2,2.5c-1.3,0.5-2.8,0.8-4.3,0.8c-0.4,0-1-0.1-1.7-0.2c-0.7-0.1-1.4-0.2-2-0.4s-1.1-0.3-1.4-0.4
			c-0.7-0.3-1.1-0.6-1.4-1.1c-0.3-0.4-0.3-0.9-0.1-1.4c0.2-0.6,0.5-1.1,0.9-1.3c0.4-0.2,0.9-0.3,1.4-0.1c0.2,0.1,0.6,0.2,1.1,0.4
			c0.5,0.2,1,0.4,1.6,0.5c0.6,0.2,1.1,0.2,1.6,0.2c1.6,0,2.8-0.3,3.6-1s1.2-1.6,1.2-2.7v-2.8l0.4,0.3c0,0.3-0.1,0.6-0.4,1
			c-0.3,0.4-0.7,0.8-1.2,1.2c-0.5,0.4-1.1,0.7-1.8,1c-0.7,0.3-1.4,0.4-2.2,0.4c-1.5,0-2.9-0.4-4.2-1.2c-1.2-0.8-2.2-1.8-2.9-3.2
			c-0.7-1.4-1.1-2.9-1.1-4.7c0-1.8,0.4-3.4,1.1-4.7c0.7-1.4,1.7-2.4,2.9-3.2C917.9,290.3,919.3,289.9,920.8,289.9z M921.4,293.5
			c-1,0-1.8,0.2-2.6,0.7c-0.7,0.5-1.3,1.1-1.7,2c-0.4,0.8-0.6,1.8-0.6,2.8c0,1,0.2,1.9,0.6,2.8c0.4,0.8,1,1.5,1.7,2
			c0.7,0.5,1.6,0.7,2.6,0.7c1,0,1.9-0.2,2.6-0.7c0.7-0.5,1.3-1.1,1.7-2c0.4-0.8,0.6-1.8,0.6-2.8c0-1-0.2-2-0.6-2.8s-1-1.5-1.7-2
			C923.3,293.7,922.4,293.5,921.4,293.5z"/>
		<path style="fill:#1D1E28;" d="M936.1,288.1c-0.7,0-1.3-0.1-1.6-0.4c-0.3-0.2-0.5-0.7-0.5-1.3v-0.6c0-0.6,0.2-1.1,0.5-1.3
			c0.3-0.2,0.9-0.3,1.6-0.3c0.8,0,1.3,0.1,1.6,0.4c0.3,0.2,0.5,0.7,0.5,1.3v0.6c0,0.6-0.2,1.1-0.5,1.3S936.8,288.1,936.1,288.1z
			 M938.1,305.7c0,0.6-0.2,1-0.6,1.4c-0.4,0.4-0.8,0.6-1.4,0.6c-0.6,0-1-0.2-1.4-0.6c-0.4-0.4-0.6-0.9-0.6-1.4v-13.5
			c0-0.6,0.2-1,0.6-1.4c0.4-0.4,0.8-0.6,1.4-0.6c0.6,0,1,0.2,1.4,0.6c0.4,0.4,0.6,0.9,0.6,1.4V305.7z"/>
		<path style="fill:#1D1E28;" d="M953.2,304.1c0.5,0,1,0.2,1.3,0.5c0.3,0.3,0.5,0.8,0.5,1.3c0,0.5-0.2,0.9-0.5,1.3
			c-0.3,0.3-0.8,0.5-1.3,0.5h-10.5c-0.5,0-1-0.2-1.3-0.6c-0.3-0.4-0.5-0.8-0.5-1.2c0-0.3,0.1-0.6,0.1-0.9c0.1-0.3,0.2-0.5,0.5-0.9
			l8.1-10.5l-0.1,0.5H943c-0.5,0-1-0.2-1.3-0.5c-0.3-0.3-0.5-0.8-0.5-1.3c0-0.5,0.2-0.9,0.5-1.3c0.3-0.3,0.8-0.5,1.3-0.5h10.1
			c0.5,0,0.9,0.2,1.3,0.6c0.3,0.4,0.5,0.8,0.5,1.4c0,0.2-0.1,0.4-0.1,0.7c-0.1,0.2-0.2,0.5-0.4,0.8l-8,10.4v-0.2H953.2z"/>
		<path style="fill:#1D1E28;" d="M962.1,305.7c0,0.6-0.2,1-0.6,1.4s-0.9,0.6-1.4,0.6c-0.5,0-1-0.2-1.4-0.6s-0.6-0.9-0.6-1.4v-20.2
			c0-0.6,0.2-1,0.6-1.4c0.4-0.4,0.9-0.6,1.4-0.6c0.6,0,1,0.2,1.4,0.6s0.5,0.9,0.5,1.4V305.7z"/>
		<path style="fill:#1D1E28;" d="M968.4,288.1c-0.7,0-1.3-0.1-1.6-0.4c-0.3-0.2-0.5-0.7-0.5-1.3v-0.6c0-0.6,0.2-1.1,0.5-1.3
			c0.3-0.2,0.9-0.3,1.6-0.3c0.8,0,1.3,0.1,1.6,0.4c0.3,0.2,0.5,0.7,0.5,1.3v0.6c0,0.6-0.2,1.1-0.5,1.3S969.1,288.1,968.4,288.1z
			 M970.4,305.7c0,0.6-0.2,1-0.6,1.4c-0.4,0.4-0.8,0.6-1.4,0.6c-0.6,0-1-0.2-1.4-0.6c-0.4-0.4-0.6-0.9-0.6-1.4v-13.5
			c0-0.6,0.2-1,0.6-1.4c0.4-0.4,0.8-0.6,1.4-0.6c0.6,0,1,0.2,1.4,0.6c0.4,0.4,0.6,0.9,0.6,1.4V305.7z"/>
		<path style="fill:#1D1E28;" d="M996.5,290.2c0.6,0,1,0.2,1.4,0.6c0.4,0.4,0.6,0.9,0.6,1.4v13.9c0,2-0.4,3.6-1.1,4.8s-1.8,2-3,2.6
			c-1.3,0.5-2.7,0.8-4.2,0.8c-0.7,0-1.4-0.1-2.2-0.2c-0.8-0.1-1.4-0.3-1.9-0.5c-0.7-0.3-1.1-0.6-1.4-1.1c-0.3-0.4-0.3-0.9-0.1-1.4
			c0.2-0.6,0.5-1.1,0.9-1.3c0.4-0.2,0.9-0.3,1.4-0.1c0.3,0.1,0.8,0.3,1.4,0.5c0.6,0.2,1.2,0.3,2,0.3c1,0,1.8-0.1,2.5-0.4
			s1.2-0.7,1.5-1.4c0.3-0.6,0.5-1.5,0.5-2.6V304l0.7,0.8c-0.4,0.7-0.8,1.3-1.4,1.8c-0.6,0.5-1.2,0.8-2,1.1c-0.8,0.2-1.6,0.4-2.6,0.4
			c-1.2,0-2.2-0.3-3-0.8c-0.9-0.5-1.5-1.3-2-2.2c-0.5-0.9-0.7-2-0.7-3.2v-9.5c0-0.6,0.2-1,0.6-1.4c0.4-0.4,0.8-0.6,1.4-0.6
			c0.6,0,1,0.2,1.4,0.6c0.4,0.4,0.6,0.9,0.6,1.4v8.4c0,1.4,0.3,2.4,0.9,3c0.6,0.6,1.5,0.9,2.6,0.9c0.8,0,1.4-0.1,1.9-0.4
			s0.9-0.7,1.2-1.3c0.3-0.6,0.4-1.3,0.4-2.1v-8.4c0-0.6,0.2-1,0.6-1.4C995.5,290.4,995.9,290.2,996.5,290.2z"/>
		<path style="fill:#1D1E28;" d="M1010.8,308c-1.9,0-3.5-0.4-4.8-1.2c-1.4-0.8-2.4-1.8-3.1-3.2c-0.7-1.3-1.1-2.8-1.1-4.5
			c0-2,0.4-3.6,1.2-5s1.8-2.4,3.1-3.2c1.3-0.7,2.6-1.1,4.1-1.1c1.1,0,2.2,0.2,3.2,0.7s1.9,1.1,2.6,1.9c0.8,0.8,1.4,1.7,1.8,2.8
			c0.4,1,0.7,2.2,0.7,3.3c0,0.5-0.2,0.9-0.6,1.3c-0.4,0.3-0.8,0.5-1.4,0.5h-12.5l-1-3.3h12l-0.7,0.7v-0.9c0-0.6-0.3-1.2-0.7-1.7
			c-0.4-0.5-0.9-0.9-1.5-1.2c-0.6-0.3-1.2-0.4-1.9-0.4c-0.7,0-1.3,0.1-1.8,0.3c-0.6,0.2-1.1,0.5-1.5,0.9c-0.4,0.4-0.7,1-1,1.7
			c-0.2,0.7-0.4,1.6-0.4,2.6c0,1.2,0.2,2.2,0.7,3c0.5,0.8,1.1,1.4,1.9,1.9c0.8,0.4,1.6,0.6,2.5,0.6c0.8,0,1.4-0.1,1.9-0.2
			c0.5-0.1,0.9-0.3,1.2-0.5c0.3-0.2,0.6-0.3,0.8-0.5c0.4-0.2,0.8-0.3,1.1-0.3c0.5,0,0.9,0.2,1.2,0.5c0.3,0.3,0.5,0.7,0.5,1.1
			c0,0.6-0.3,1.1-0.9,1.6c-0.6,0.5-1.4,0.9-2.4,1.3C1012.9,307.8,1011.9,308,1010.8,308z"/>
		<path style="fill:#1D1E28;" d="M1023.6,307.7c-0.6,0-1-0.2-1.4-0.6s-0.6-0.9-0.6-1.4v-13.5c0-0.6,0.2-1,0.6-1.4
			c0.4-0.4,0.8-0.6,1.4-0.6c0.6,0,1,0.2,1.4,0.6c0.4,0.4,0.6,0.9,0.6,1.4v3.1l-0.2-2.2c0.2-0.5,0.5-1,0.9-1.4c0.4-0.4,0.8-0.7,1.3-1
			c0.5-0.3,1-0.5,1.5-0.6c0.5-0.1,1.1-0.2,1.6-0.2c0.7,0,1.2,0.2,1.6,0.6c0.4,0.4,0.7,0.8,0.7,1.3c0,0.7-0.2,1.2-0.6,1.6
			s-0.8,0.5-1.2,0.5c-0.4,0-0.8-0.1-1.1-0.2c-0.3-0.2-0.7-0.2-1.2-0.2c-0.4,0-0.8,0.1-1.2,0.3c-0.4,0.2-0.8,0.5-1.1,0.9
			c-0.3,0.4-0.6,0.9-0.8,1.5c-0.2,0.6-0.3,1.3-0.3,2v7.7c0,0.6-0.2,1-0.6,1.4S1024.2,307.7,1023.6,307.7z"/>
		<path style="fill:#1D1E28;" d="M1037.5,288.1c-0.7,0-1.3-0.1-1.6-0.4c-0.3-0.2-0.5-0.7-0.5-1.3v-0.6c0-0.6,0.2-1.1,0.5-1.3
			s0.9-0.3,1.6-0.3c0.8,0,1.3,0.1,1.6,0.4s0.5,0.7,0.5,1.3v0.6c0,0.6-0.2,1.1-0.5,1.3C1038.8,288,1038.3,288.1,1037.5,288.1z
			 M1039.5,305.7c0,0.6-0.2,1-0.6,1.4s-0.8,0.6-1.4,0.6c-0.6,0-1-0.2-1.4-0.6c-0.4-0.4-0.6-0.9-0.6-1.4v-13.5c0-0.6,0.2-1,0.6-1.4
			c0.4-0.4,0.8-0.6,1.4-0.6c0.6,0,1,0.2,1.4,0.6c0.4,0.4,0.6,0.9,0.6,1.4V305.7z"/>
		<path style="fill:#1D1E28;" d="M1061.7,289.9c1.5,0,2.9,0.4,4.1,1.2s2.2,1.8,2.9,3.2s1.1,2.9,1.1,4.7s-0.4,3.4-1.1,4.7
			s-1.7,2.4-2.8,3.2c-1.2,0.8-2.5,1.2-4,1.2c-0.9,0-1.7-0.1-2.4-0.4c-0.8-0.3-1.4-0.6-2-1.1c-0.6-0.4-1-0.9-1.3-1.3
			s-0.5-0.8-0.5-1.1l1-0.4v2.4c0,0.6-0.2,1-0.6,1.4s-0.8,0.6-1.4,0.6c-0.6,0-1-0.2-1.4-0.6s-0.6-0.8-0.6-1.4v-20.5
			c0-0.6,0.2-1,0.6-1.4s0.8-0.6,1.4-0.6c0.6,0,1,0.2,1.4,0.6s0.6,0.9,0.6,1.4v8.3l-0.6-0.3c0-0.3,0.2-0.6,0.5-1
			c0.3-0.4,0.7-0.8,1.2-1.2c0.5-0.4,1.1-0.7,1.8-1C1060.2,290,1061,289.9,1061.7,289.9z M1061.2,293.5c-1,0-1.8,0.2-2.5,0.7
			c-0.7,0.5-1.3,1.1-1.7,1.9s-0.6,1.7-0.6,2.8c0,1,0.2,2,0.6,2.8s1,1.5,1.7,2c0.7,0.5,1.6,0.7,2.5,0.7s1.8-0.2,2.5-0.7
			c0.7-0.5,1.3-1.1,1.7-2c0.4-0.8,0.6-1.8,0.6-2.8c0-1-0.2-2-0.6-2.8c-0.4-0.8-1-1.5-1.7-1.9C1063,293.7,1062.2,293.5,1061.2,293.5z
			"/>
		<path style="fill:#1D1E28;" d="M1086,290.2c0.6,0,1,0.2,1.4,0.6c0.4,0.4,0.6,0.9,0.6,1.4v8.3c0,2.3-0.6,4.1-1.9,5.5
			c-1.3,1.4-3.1,2-5.6,2s-4.3-0.7-5.5-2c-1.3-1.3-1.9-3.2-1.9-5.5v-8.3c0-0.6,0.2-1,0.6-1.4c0.4-0.4,0.8-0.6,1.4-0.6
			c0.6,0,1,0.2,1.4,0.6c0.4,0.4,0.6,0.9,0.6,1.4v8.3c0,1.3,0.3,2.3,0.9,3c0.6,0.6,1.5,1,2.6,1c1.2,0,2.1-0.3,2.7-1
			c0.6-0.6,0.9-1.6,0.9-3v-8.3c0-0.6,0.2-1,0.6-1.4C1085,290.4,1085.4,290.2,1086,290.2z"/>
		<path style="fill:#1D1E28;" d="M1096.4,305.7c0,0.6-0.2,1-0.6,1.4s-0.9,0.6-1.4,0.6c-0.5,0-1-0.2-1.4-0.6s-0.6-0.9-0.6-1.4v-20.2
			c0-0.6,0.2-1,0.6-1.4s0.9-0.6,1.4-0.6c0.6,0,1,0.2,1.4,0.6c0.4,0.4,0.5,0.9,0.5,1.4V305.7z"/>
		<path style="fill:#1D1E28;" d="M1115.1,283.5c0.6,0,1,0.2,1.4,0.6s0.6,0.8,0.6,1.4v20.2c0,0.6-0.2,1-0.6,1.4s-0.8,0.6-1.4,0.6
			c-0.6,0-1-0.2-1.4-0.6s-0.6-0.9-0.6-1.4v-1.6l0.7,0.3c0,0.3-0.2,0.6-0.5,1c-0.3,0.4-0.7,0.8-1.2,1.2c-0.5,0.4-1.1,0.7-1.8,1
			c-0.7,0.3-1.5,0.4-2.3,0.4c-1.5,0-2.9-0.4-4.1-1.2c-1.2-0.8-2.2-1.8-2.9-3.2c-0.7-1.4-1.1-2.9-1.1-4.7c0-1.8,0.4-3.4,1.1-4.7
			c0.7-1.4,1.7-2.4,2.9-3.2c1.2-0.8,2.5-1.2,4-1.2c0.9,0,1.8,0.1,2.6,0.4c0.8,0.3,1.5,0.6,2,1.1s1,0.9,1.3,1.3
			c0.3,0.4,0.5,0.8,0.5,1.1l-1.2,0.4v-8.8c0-0.6,0.2-1,0.6-1.4S1114.6,283.5,1115.1,283.5z M1108.5,304.4c1,0,1.8-0.2,2.5-0.7
			s1.3-1.1,1.7-2c0.4-0.8,0.6-1.8,0.6-2.8c0-1-0.2-2-0.6-2.8c-0.4-0.8-1-1.5-1.7-2c-0.7-0.5-1.6-0.7-2.5-0.7c-0.9,0-1.8,0.2-2.5,0.7
			c-0.7,0.5-1.3,1.1-1.7,2c-0.4,0.8-0.6,1.8-0.6,2.8c0,1,0.2,1.9,0.6,2.8c0.4,0.8,1,1.5,1.7,2
			C1106.8,304.2,1107.6,304.4,1108.5,304.4z"/>
		<path style="fill:#1D1E28;" d="M1134.3,290.2c0.6,0,1,0.2,1.4,0.6c0.4,0.4,0.6,0.9,0.6,1.4v8.3c0,2.3-0.6,4.1-1.9,5.5
			c-1.3,1.4-3.1,2-5.6,2s-4.3-0.7-5.5-2c-1.3-1.3-1.9-3.2-1.9-5.5v-8.3c0-0.6,0.2-1,0.6-1.4c0.4-0.4,0.8-0.6,1.4-0.6
			c0.6,0,1,0.2,1.4,0.6c0.4,0.4,0.6,0.9,0.6,1.4v8.3c0,1.3,0.3,2.3,0.9,3c0.6,0.6,1.5,1,2.6,1c1.2,0,2.1-0.3,2.7-1
			c0.6-0.6,0.9-1.6,0.9-3v-8.3c0-0.6,0.2-1,0.6-1.4C1133.3,290.4,1133.7,290.2,1134.3,290.2z"/>
		<path style="fill:#1D1E28;" d="M1149.9,289.9c1.6,0,2.8,0.3,3.7,1c0.8,0.7,1.4,1.6,1.7,2.7s0.5,2.4,0.5,3.7v8.4
			c0,0.6-0.2,1-0.6,1.4c-0.4,0.4-0.8,0.6-1.4,0.6c-0.6,0-1-0.2-1.4-0.6s-0.6-0.9-0.6-1.4v-8.4c0-0.7-0.1-1.4-0.3-1.9
			c-0.2-0.6-0.5-1-1-1.4c-0.5-0.3-1.2-0.5-2.1-0.5c-0.9,0-1.6,0.2-2.2,0.5c-0.6,0.3-1.1,0.8-1.4,1.4c-0.3,0.6-0.5,1.2-0.5,1.9v8.4
			c0,0.6-0.2,1-0.6,1.4s-0.8,0.6-1.4,0.6c-0.6,0-1-0.2-1.4-0.6s-0.6-0.9-0.6-1.4v-13.5c0-0.6,0.2-1,0.6-1.4c0.4-0.4,0.8-0.6,1.4-0.6
			c0.6,0,1,0.2,1.4,0.6c0.4,0.4,0.6,0.9,0.6,1.4v1.4l-0.5-0.1c0.2-0.4,0.5-0.8,0.8-1.2c0.4-0.4,0.8-0.8,1.3-1.2
			c0.5-0.4,1.1-0.7,1.7-0.9C1148.4,290,1149.1,289.9,1149.9,289.9z"/>
		<path style="fill:#1D1E28;" d="M1162,307.7c-0.6,0-1.1-0.2-1.5-0.5c-0.3-0.3-0.5-0.8-0.5-1.5v-0.6c0-0.6,0.2-1.1,0.5-1.5
			c0.3-0.3,0.8-0.5,1.5-0.5h0.4c0.6,0,1.1,0.2,1.5,0.5c0.3,0.3,0.5,0.8,0.5,1.5v0.6c0,0.6-0.2,1.1-0.5,1.5c-0.3,0.3-0.8,0.5-1.5,0.5
			H1162z M1162.2,300.5c-0.7,0-1.1-0.4-1.2-1.2l-0.9-12c0-0.7,0.1-1.2,0.5-1.7c0.4-0.5,0.9-0.7,1.6-0.7s1.2,0.2,1.6,0.7
			c0.4,0.5,0.6,1,0.5,1.7l-0.9,12C1163.3,300,1162.9,300.5,1162.2,300.5z"/>
	</g>
</g>
</svg>
