<?xml version="1.0" encoding="utf-8"?>
<!-- Generator: Adobe Illustrator 22.0.0, SVG Export Plug-In . SVG Version: 6.00 Build 0)  -->
<svg version="1.1" id="Layer_1" xmlns="http://www.w3.org/2000/svg" xmlns:xlink="http://www.w3.org/1999/xlink" x="0px" y="0px"
	 viewBox="0 0 1976.9 1832.7" style="enable-background:new 0 0 1976.9 1832.7;" xml:space="preserve">
<g id="Layer_1_1_">
	<path style="fill:#C2FFFF;" d="M2016.3,0H-29.5v1767.7h2045.7L2016.3,0L2016.3,0z"/>
	<g style="opacity:0.38;">
		<g style="opacity:0.27;">
			<g>
				<path style="fill:#A8EFED;" d="M1354.7,511.6c28.4,0,51.3-22.9,51.3-51.1s-23-51.1-51.3-51.1c-28.4,0-51.3,22.9-51.3,51.1
					C1303.4,488.7,1326.4,511.6,1354.7,511.6z"/>
				<path style="fill:#A8EFED;" d="M1422.6,500.8c35.1,0,63.5-28.3,63.5-63.1c0-34.9-28.4-63.1-63.5-63.1
					c-35.1,0-63.5,28.3-63.5,63.1S1387.5,500.8,1422.6,500.8z"/>
				<path style="fill:#A8EFED;" d="M1476,511.6c29.5,0,53.4-23.8,53.4-53.1c0-29.3-23.9-53.1-53.4-53.1s-53.4,23.8-53.4,53.1
					C1422.6,487.8,1446.5,511.6,1476,511.6z"/>
				<path style="fill:#A8EFED;" d="M1417.9,511.6c28.5,0,51.6-23,51.6-51.3s-23.1-51.4-51.6-51.4s-51.6,23-51.6,51.3
					S1389.5,511.6,1417.9,511.6z"/>
			</g>
			<g>
				<path style="fill:#A8EFED;" d="M1344.3,1035.1c28.4,0,51.3-22.9,51.3-51.1s-23-51.1-51.3-51.1c-28.4,0-51.3,22.9-51.3,51.1
					C1293,1012.2,1316,1035.1,1344.3,1035.1z"/>
				<path style="fill:#A8EFED;" d="M1412.2,1024.3c35.1,0,63.5-28.3,63.5-63.1c0-34.9-28.4-63.1-63.5-63.1
					c-35.1,0-63.5,28.3-63.5,63.1S1377.1,1024.3,1412.2,1024.3z"/>
				<path style="fill:#A8EFED;" d="M1465.6,1035.1c29.5,0,53.4-23.8,53.4-53.1c0-29.3-23.9-53.1-53.4-53.1s-53.4,23.8-53.4,53.1
					C1412.2,1011.3,1436.1,1035.1,1465.6,1035.1z"/>
				<path style="fill:#A8EFED;" d="M1407.5,1035.1c28.5,0,51.6-23,51.6-51.3s-23.1-51.4-51.6-51.4s-51.6,23-51.6,51.3
					S1379.1,1035.1,1407.5,1035.1z"/>
			</g>
			<g>
				<path style="fill:#A8EFED;" d="M1216.9,352.5c18.8,0,34.1-15.2,34.1-33.9s-15.3-33.9-34.1-33.9c-18.8,0-34.1,15.2-34.1,33.9
					S1198.1,352.5,1216.9,352.5z"/>
				<path style="fill:#A8EFED;" d="M1261.9,345.3c23.3,0,42.1-18.8,42.1-41.9c0-23.2-18.9-41.9-42.1-41.9
					c-23.3,0-42.1,18.8-42.1,41.9S1238.6,345.3,1261.9,345.3z"/>
				<path style="fill:#A8EFED;" d="M1297.4,352.5c19.6,0,35.4-15.8,35.4-35.3s-15.9-35.3-35.4-35.3c-19.6,0-35.4,15.8-35.4,35.3
					C1261.9,336.7,1277.8,352.5,1297.4,352.5z"/>
				<path style="fill:#A8EFED;" d="M1258.8,352.5c18.9,0,34.2-15.3,34.2-34.1c0-18.8-15.3-34.1-34.2-34.1
					c-18.9,0-34.2,15.3-34.2,34.1C1224.6,337.2,1239.9,352.5,1258.8,352.5z"/>
			</g>
			<g>
				<path style="fill:#A8EFED;" d="M1452,1690.3c18.8,0,34.1-15.2,34.1-33.9s-15.3-33.9-34.1-33.9c-18.8,0-34.1,15.2-34.1,33.9
					S1433.2,1690.3,1452,1690.3z"/>
				<path style="fill:#A8EFED;" d="M1497,1683.2c23.3,0,42.1-18.8,42.1-41.9c0-23.2-18.9-41.9-42.1-41.9
					c-23.3,0-42.1,18.8-42.1,41.9S1473.7,1683.2,1497,1683.2z"/>
				<path style="fill:#A8EFED;" d="M1532.5,1690.3c19.6,0,35.4-15.8,35.4-35.3s-15.9-35.3-35.4-35.3c-19.6,0-35.4,15.8-35.4,35.3
					C1497,1674.6,1512.9,1690.3,1532.5,1690.3z"/>
				<path style="fill:#A8EFED;" d="M1493.9,1690.3c18.9,0,34.2-15.3,34.2-34.1c0-18.8-15.3-34.1-34.2-34.1
					c-18.9,0-34.2,15.3-34.2,34.1C1459.7,1675.1,1475,1690.3,1493.9,1690.3z"/>
			</g>
			<g>
				<path style="fill:#A8EFED;" d="M1212.2,606.5c29.9,0,54.2-18.4,54.2-41s-24.3-41-54.2-41c-29.9,0-54.2,18.4-54.2,41
					C1158,588.1,1182.3,606.5,1212.2,606.5z"/>
				<path style="fill:#A8EFED;" d="M1257.8,613.5c25.2,0,45.6-15.4,45.6-34.5s-20.4-34.5-45.6-34.5c-25.2,0-45.6,15.4-45.6,34.5
					C1212.2,598,1232.6,613.5,1257.8,613.5z"/>
				<path style="fill:#A8EFED;" d="M1208.2,613.5c24.3,0,44.1-14.9,44.1-33.3s-19.7-33.4-44.1-33.4c-24.3,0-44.1,14.9-44.1,33.3
					S1183.9,613.5,1208.2,613.5z"/>
			</g>
			<g>
				<path style="fill:#A8EFED;" d="M1553.1,1480.7c29.9,0,54.2-18.4,54.2-41s-24.3-41-54.2-41s-54.2,18.4-54.2,41
					C1498.9,1462.3,1523.2,1480.7,1553.1,1480.7z"/>
				<path style="fill:#A8EFED;" d="M1598.7,1487.7c25.2,0,45.6-15.4,45.6-34.5s-20.4-34.5-45.6-34.5c-25.2,0-45.6,15.4-45.6,34.5
					C1553.1,1472.2,1573.5,1487.7,1598.7,1487.7z"/>
				<path style="fill:#A8EFED;" d="M1549.1,1487.7c24.3,0,44.1-14.9,44.1-33.3s-19.7-33.4-44.1-33.4c-24.3,0-44.1,14.9-44.1,33.3
					S1524.8,1487.7,1549.1,1487.7z"/>
			</g>
			<g>
				<path style="fill:#A8EFED;" d="M1717.2,363.5c20.4,0,37-16.3,37-36.5s-16.6-36.5-37-36.5s-37,16.3-37,36.5
					C1680.2,347.1,1696.8,363.5,1717.2,363.5z"/>
				<path style="fill:#A8EFED;" d="M1748.2,370.5c17.1,0,31-13.9,31-31s-13.9-31-31-31s-31,13.9-31,31
					C1717.2,356.6,1731.1,370.5,1748.2,370.5z"/>
				<path style="fill:#A8EFED;" d="M1714.2,370.5c16.6,0,30-13.4,30-30s-13.4-30-30-30s-30,13.4-30,30
					C1684.2,357,1697.6,370.5,1714.2,370.5z"/>
			</g>
			<g>
				<path style="fill:#A8EFED;" d="M1534.6,1144.7c20.4,0,37-16.3,37-36.5s-16.6-36.5-37-36.5s-37,16.3-37,36.5
					C1497.6,1128.3,1514.2,1144.7,1534.6,1144.7z"/>
				<path style="fill:#A8EFED;" d="M1565.6,1151.7c17.1,0,31-13.9,31-31s-13.9-31-31-31s-31,13.9-31,31
					C1534.6,1137.8,1548.5,1151.7,1565.6,1151.7z"/>
				<path style="fill:#A8EFED;" d="M1531.6,1151.7c16.6,0,30-13.4,30-30s-13.4-30-30-30s-30,13.4-30,30
					C1501.6,1138.2,1515,1151.7,1531.6,1151.7z"/>
			</g>
			<g>
				<path style="fill:#A8EFED;" d="M1348.4,249.5c18.8,0,34.1-15.2,34.1-33.9c0-18.7-15.3-33.9-34.1-33.9s-34.1,15.2-34.1,33.9
					S1329.6,249.5,1348.4,249.5z"/>
				<path style="fill:#A8EFED;" d="M1393.4,242.3c23.3,0,42.1-18.8,42.1-41.9s-18.9-41.9-42.1-41.9c-23.3,0-42.1,18.8-42.1,41.9
					S1370.1,242.3,1393.4,242.3z"/>
				<path style="fill:#A8EFED;" d="M1390.3,249.5c18.9,0,34.2-15.3,34.2-34.1c0-18.8-15.3-34.1-34.2-34.1s-34.2,15.3-34.2,34.1
					C1356.1,234.2,1371.4,249.5,1390.3,249.5z"/>
			</g>
			<g>
				<path style="fill:#A8EFED;" d="M1833.8,1640.6c18.8,0,34.1-15.2,34.1-33.9c0-18.7-15.3-33.9-34.1-33.9s-34.1,15.2-34.1,33.9
					S1815,1640.6,1833.8,1640.6z"/>
				<path style="fill:#A8EFED;" d="M1878.8,1633.4c23.3,0,42.1-18.8,42.1-41.9s-18.9-41.9-42.1-41.9c-23.3,0-42.1,18.8-42.1,41.9
					S1855.5,1633.4,1878.8,1633.4z"/>
				<path style="fill:#A8EFED;" d="M1875.7,1640.6c18.9,0,34.2-15.3,34.2-34.1c0-18.8-15.3-34.1-34.2-34.1s-34.2,15.3-34.2,34.1
					C1841.5,1625.3,1856.8,1640.6,1875.7,1640.6z"/>
			</g>
			<g>
				<path style="fill:#A8EFED;" d="M1808.5,974.4c18.8,0,34.1-15.2,34.1-33.9c0-18.7-15.3-33.9-34.1-33.9s-34.1,15.2-34.1,33.9
					S1789.7,974.4,1808.5,974.4z"/>
				<path style="fill:#A8EFED;" d="M1853.5,967.2c23.3,0,42.1-18.8,42.1-41.9s-18.9-41.9-42.1-41.9c-23.3,0-42.1,18.8-42.1,41.9
					S1830.2,967.2,1853.5,967.2z"/>
				<path style="fill:#A8EFED;" d="M1850.4,974.4c18.9,0,34.2-15.3,34.2-34.1c0-18.8-15.3-34.1-34.2-34.1s-34.2,15.3-34.2,34.1
					C1816.2,959.1,1831.5,974.4,1850.4,974.4z"/>
			</g>
			<g>
				<path style="fill:#A8EFED;" d="M1218,137.4c18.8,0,34.1-15.2,34.1-33.9c0-18.7-15.3-33.9-34.1-33.9c-18.8,0-34.1,15.2-34.1,33.9
					S1199.1,137.4,1218,137.4z"/>
				<path style="fill:#A8EFED;" d="M1263,130.2c23.3,0,42.1-18.8,42.1-41.9s-18.9-41.9-42.1-41.9c-23.3,0-42.1,18.8-42.1,41.9
					S1239.7,130.2,1263,130.2z"/>
				<path style="fill:#A8EFED;" d="M1259.9,137.4c18.9,0,34.2-15.3,34.2-34.1c0-18.8-15.3-34.1-34.2-34.1
					c-18.9,0-34.2,15.3-34.2,34.1C1225.7,122.1,1241,137.4,1259.9,137.4z"/>
			</g>
			<g>
				<path style="fill:#A8EFED;" d="M1782,1125.7c18.8,0,34.1-15.2,34.1-33.9c0-18.7-15.3-33.9-34.1-33.9
					c-18.8,0-34.1,15.2-34.1,33.9S1763.1,1125.7,1782,1125.7z"/>
				<path style="fill:#A8EFED;" d="M1827,1118.5c23.3,0,42.1-18.8,42.1-41.9s-18.9-41.9-42.1-41.9c-23.3,0-42.1,18.8-42.1,41.9
					S1803.7,1118.5,1827,1118.5z"/>
				<path style="fill:#A8EFED;" d="M1823.9,1125.7c18.9,0,34.2-15.3,34.2-34.1c0-18.8-15.3-34.1-34.2-34.1
					c-18.9,0-34.2,15.3-34.2,34.1C1789.7,1110.4,1805,1125.7,1823.9,1125.7z"/>
			</g>
			<g>
				<path style="fill:#A8EFED;" d="M1168.3,1689.1c18.8,0,34.1-15.2,34.1-33.9c0-18.7-15.3-33.9-34.1-33.9s-34.1,15.2-34.1,33.9
					S1149.4,1689.1,1168.3,1689.1z"/>
				<path style="fill:#A8EFED;" d="M1213.3,1681.9c23.3,0,42.1-18.8,42.1-41.9s-18.9-41.9-42.1-41.9c-23.3,0-42.1,18.8-42.1,41.9
					S1190,1681.9,1213.3,1681.9z"/>
				<path style="fill:#A8EFED;" d="M1210.2,1689.1c18.9,0,34.2-15.3,34.2-34.1c0-18.8-15.3-34.1-34.2-34.1s-34.2,15.3-34.2,34.1
					C1176,1673.8,1191.3,1689.1,1210.2,1689.1z"/>
			</g>
			<g>
				<path style="fill:#A8EFED;" d="M1547.1,287.1c18.9,0,34.2-15.3,34.2-34.1s-15.3-34.1-34.2-34.1s-34.2,15.3-34.2,34.1
					S1528.2,287.1,1547.1,287.1z"/>
				<path style="fill:#A8EFED;" d="M1581.4,308.2c18.9,0,34.2-15.3,34.2-34.1s-15.3-34.1-34.2-34.1s-34.2,15.3-34.2,34.1
					C1547.1,293,1562.5,308.2,1581.4,308.2z"/>
				<path style="fill:#A8EFED;" d="M1527.1,321.1c18.9,0,34.2-15.3,34.2-34.1s-15.3-34.1-34.2-34.1s-34.2,15.3-34.2,34.1
					C1492.9,305.9,1508.2,321.1,1527.1,321.1z"/>
			</g>
			<g>
				<path style="fill:#A8EFED;" d="M1645.5,983.7c18.9,0,34.2-15.3,34.2-34.1c0-18.8-15.3-34.1-34.2-34.1s-34.2,15.3-34.2,34.1
					C1611.3,968.4,1626.6,983.7,1645.5,983.7z"/>
				<path style="fill:#A8EFED;" d="M1679.8,1004.8c18.9,0,34.2-15.3,34.2-34.1c0-18.8-15.3-34.1-34.2-34.1s-34.2,15.3-34.2,34.1
					C1645.5,989.6,1660.9,1004.8,1679.8,1004.8z"/>
				<path style="fill:#A8EFED;" d="M1625.5,1017.7c18.9,0,34.2-15.3,34.2-34.1c0-18.8-15.3-34.1-34.2-34.1s-34.2,15.3-34.2,34.1
					C1591.3,1002.5,1606.6,1017.7,1625.5,1017.7z"/>
			</g>
			<g>
				<path style="fill:#A8EFED;" d="M1694.6,1557.3c18.9,0,34.2-15.3,34.2-34.1c0-18.8-15.3-34.1-34.2-34.1s-34.2,15.3-34.2,34.1
					C1660.4,1542,1675.7,1557.3,1694.6,1557.3z"/>
				<path style="fill:#A8EFED;" d="M1728.9,1578.4c18.9,0,34.2-15.3,34.2-34.1c0-18.8-15.3-34.1-34.2-34.1s-34.2,15.3-34.2,34.1
					C1694.6,1563.2,1710,1578.4,1728.9,1578.4z"/>
				<path style="fill:#A8EFED;" d="M1674.6,1591.3c18.9,0,34.2-15.3,34.2-34.1c0-18.8-15.3-34.1-34.2-34.1s-34.2,15.3-34.2,34.1
					C1640.4,1576.1,1655.7,1591.3,1674.6,1591.3z"/>
			</g>
			<g>
				<path style="fill:#A8EFED;" d="M1388.4,1212.1c18.9,0,34.2-15.3,34.2-34.1c0-18.8-15.3-34.1-34.2-34.1s-34.2,15.3-34.2,34.1
					C1354.2,1196.8,1369.5,1212.1,1388.4,1212.1z"/>
				<path style="fill:#A8EFED;" d="M1422.7,1233.2c18.9,0,34.2-15.3,34.2-34.1c0-18.8-15.3-34.1-34.2-34.1s-34.2,15.3-34.2,34.1
					C1388.4,1218,1403.8,1233.2,1422.7,1233.2z"/>
				<path style="fill:#A8EFED;" d="M1368.4,1246.1c18.9,0,34.2-15.3,34.2-34.1c0-18.8-15.3-34.1-34.2-34.1s-34.2,15.3-34.2,34.1
					C1334.2,1230.9,1349.5,1246.1,1368.4,1246.1z"/>
			</g>
			<g>
				<path style="fill:#A8EFED;" d="M1813.4,610.8c18.9,0,34.2-15.3,34.2-34.1c0-18.8-15.3-34.1-34.2-34.1s-34.2,15.3-34.2,34.1
					C1779.1,595.6,1794.5,610.8,1813.4,610.8z"/>
				<path style="fill:#A8EFED;" d="M1816.3,566.3c18.9,0,34.2-15.3,34.2-34.1c0-18.8-15.3-34.1-34.2-34.1s-34.2,15.3-34.2,34.1
					C1782.1,550.9,1797.4,566.3,1816.3,566.3z"/>
				<path style="fill:#A8EFED;" d="M1854.3,599.3c18.9,0,34.2-15.3,34.2-34.1c0-18.8-15.3-34.1-34.2-34.1s-34.2,15.3-34.2,34.1
					C1820.1,584.2,1835.4,599.3,1854.3,599.3z"/>
				<path style="fill:#A8EFED;" d="M1866.4,574.3c18.9,0,34.2-15.3,34.2-34.1c0-18.8-15.3-34.1-34.2-34.1s-34.2,15.3-34.2,34.1
					C1832.1,559.1,1847.4,574.3,1866.4,574.3z"/>
				<path style="fill:#A8EFED;" d="M1894.3,591.8c18.9,0,34.2-15.3,34.2-34.1c0-18.8-15.3-34.1-34.2-34.1s-34.2,15.3-34.2,34.1
					C1860.1,576.6,1875.4,591.8,1894.3,591.8z"/>
			</g>
			<g>
				<path style="fill:#A8EFED;" d="M1303.8,1581c18.9,0,34.2-15.3,34.2-34.1c0-18.8-15.3-34.1-34.2-34.1s-34.2,15.3-34.2,34.1
					C1269.5,1565.8,1284.9,1581,1303.8,1581z"/>
				<path style="fill:#A8EFED;" d="M1306.7,1536.5c18.9,0,34.2-15.3,34.2-34.1c0-18.8-15.3-34.1-34.2-34.1s-34.2,15.3-34.2,34.1
					C1272.5,1521.2,1287.8,1536.5,1306.7,1536.5z"/>
				<path style="fill:#A8EFED;" d="M1344.7,1569.6c18.9,0,34.2-15.3,34.2-34.1c0-18.8-15.3-34.1-34.2-34.1s-34.2,15.3-34.2,34.1
					C1310.5,1554.4,1325.8,1569.6,1344.7,1569.6z"/>
				<path style="fill:#A8EFED;" d="M1356.8,1544.5c18.9,0,34.2-15.3,34.2-34.1c0-18.8-15.3-34.1-34.2-34.1s-34.2,15.3-34.2,34.1
					C1322.5,1529.3,1337.8,1544.5,1356.8,1544.5z"/>
				<path style="fill:#A8EFED;" d="M1384.7,1562c18.9,0,34.2-15.3,34.2-34.1c0-18.8-15.3-34.1-34.2-34.1s-34.2,15.3-34.2,34.1
					C1350.5,1546.8,1365.8,1562,1384.7,1562z"/>
			</g>
			<g>
				<path style="fill:#A8EFED;" d="M1199.7,1182c18.9,0,34.2-15.3,34.2-34.1c0-18.8-15.3-34.1-34.2-34.1s-34.2,15.3-34.2,34.1
					C1165.4,1166.8,1180.8,1182,1199.7,1182z"/>
				<path style="fill:#A8EFED;" d="M1202.6,1137.5c18.9,0,34.2-15.3,34.2-34.1c0-18.8-15.3-34.1-34.2-34.1s-34.2,15.3-34.2,34.1
					C1168.4,1122.2,1183.7,1137.5,1202.6,1137.5z"/>
				<path style="fill:#A8EFED;" d="M1240.6,1170.6c18.9,0,34.2-15.3,34.2-34.1c0-18.8-15.3-34.1-34.2-34.1s-34.2,15.3-34.2,34.1
					C1206.4,1155.4,1221.7,1170.6,1240.6,1170.6z"/>
				<path style="fill:#A8EFED;" d="M1252.7,1145.5c18.9,0,34.2-15.3,34.2-34.1c0-18.8-15.3-34.1-34.2-34.1s-34.2,15.3-34.2,34.1
					C1218.4,1130.3,1233.7,1145.5,1252.7,1145.5z"/>
				<path style="fill:#A8EFED;" d="M1280.6,1163c18.9,0,34.2-15.3,34.2-34.1c0-18.8-15.3-34.1-34.2-34.1s-34.2,15.3-34.2,34.1
					C1246.4,1147.8,1261.7,1163,1280.6,1163z"/>
			</g>
			<g>
				<path style="fill:#A8EFED;" d="M1686.9,701.8c18.9,0,34.2-15.3,34.2-34.1s-15.3-34.1-34.2-34.1s-34.2,15.3-34.2,34.1
					C1652.7,686.5,1668,701.8,1686.9,701.8z"/>
				<path style="fill:#A8EFED;" d="M1632,664.8c18.9,0,34.2-15.3,34.2-34.1s-15.3-34.1-34.2-34.1s-34.2,15.3-34.2,34.1
					C1597.7,649.5,1613.1,664.8,1632,664.8z"/>
				<path style="fill:#A8EFED;" d="M1635.1,701.8c18.9,0,34.2-15.3,34.2-34.1s-15.3-34.1-34.2-34.1c-18.9,0-34.2,15.3-34.2,34.1
					S1616.2,701.8,1635.1,701.8z"/>
				<path style="fill:#A8EFED;" d="M1599.6,707.3c18.9,0,34.2-15.3,34.2-34.1s-15.3-34.1-34.2-34.1c-18.9,0-34.2,15.3-34.2,34.1
					C1565.4,692.1,1580.7,707.3,1599.6,707.3z"/>
			</g>
			<g>
				<path style="fill:#A8EFED;" d="M1501.5,857c18.9,0,34.2-15.3,34.2-34.1s-15.3-34.1-34.2-34.1s-34.2,15.3-34.2,34.1
					C1467.3,841.8,1482.6,857,1501.5,857z"/>
				<path style="fill:#A8EFED;" d="M1526.2,827.8c18.9,0,34.2-15.3,34.2-34.1c0-18.8-15.3-34.1-34.2-34.1
					c-18.9,0-34.2,15.3-34.2,34.1C1492,812.5,1507.3,827.8,1526.2,827.8z"/>
				<path style="fill:#A8EFED;" d="M1561.9,862.5c18.9,0,34.2-15.3,34.2-34.1s-15.3-34.1-34.2-34.1s-34.2,15.3-34.2,34.1
					C1527.7,847.3,1543,862.5,1561.9,862.5z"/>
				<path style="fill:#A8EFED;" d="M1521.7,861.5c18.9,0,34.2-15.3,34.2-34.1s-15.3-34.1-34.2-34.1c-18.9,0-34.2,15.3-34.2,34.1
					C1487.5,846.3,1502.8,861.5,1521.7,861.5z"/>
				<path style="fill:#A8EFED;" d="M1464.1,857.1c18.9,0,34.2-15.3,34.2-34.1s-15.3-34.1-34.2-34.1c-18.9,0-34.3,15.3-34.3,34.1
					C1429.8,842,1445.1,857.1,1464.1,857.1z"/>
				<path style="fill:#A8EFED;" d="M1467.3,828.5c18.9,0,34.2-15.3,34.2-34.1c0-18.8-15.3-34.1-34.2-34.1s-34.2,15.3-34.2,34.1
					C1433,813.3,1448.3,828.5,1467.3,828.5z"/>
			</g>
			<g>
				<path style="fill:#A8EFED;" d="M1362.9,1404.1c18.9,0,34.2-15.3,34.2-34.1c0-18.8-15.3-34.1-34.2-34.1s-34.2,15.3-34.2,34.1
					C1328.7,1388.9,1344,1404.1,1362.9,1404.1z"/>
				<path style="fill:#A8EFED;" d="M1387.6,1374.8c18.9,0,34.2-15.3,34.2-34.1c0-18.8-15.3-34.1-34.2-34.1s-34.2,15.3-34.2,34.1
					C1353.4,1359.6,1368.7,1374.8,1387.6,1374.8z"/>
				<path style="fill:#A8EFED;" d="M1423.3,1409.5c18.9,0,34.2-15.3,34.2-34.1c0-18.8-15.3-34.1-34.2-34.1
					c-18.9,0-34.2,15.3-34.2,34.1C1389.1,1394.3,1404.4,1409.5,1423.3,1409.5z"/>
				<path style="fill:#A8EFED;" d="M1383.1,1408.5c18.9,0,34.2-15.3,34.2-34.1c0-18.8-15.3-34.1-34.2-34.1s-34.2,15.3-34.2,34.1
					C1348.9,1393.3,1364.2,1408.5,1383.1,1408.5z"/>
				<path style="fill:#A8EFED;" d="M1325.5,1404.2c18.9,0,34.2-15.3,34.2-34.1c0-18.8-15.3-34.1-34.2-34.1s-34.3,15.3-34.3,34.1
					C1291.2,1389,1306.5,1404.2,1325.5,1404.2z"/>
				<path style="fill:#A8EFED;" d="M1328.7,1375.5c18.9,0,34.2-15.3,34.2-34.1c0-18.8-15.3-34.1-34.2-34.1
					c-18.9,0-34.2,15.3-34.2,34.1C1294.4,1360.3,1309.7,1375.5,1328.7,1375.5z"/>
			</g>
			<g>
				<path style="fill:#A8EFED;" d="M1406.6,668.8c18.9,0,34.2-15.3,34.2-34.1c0-18.8-15.3-34.1-34.2-34.1s-34.2,15.3-34.2,34.1
					C1372.4,653.5,1387.7,668.8,1406.6,668.8z"/>
				<path style="fill:#A8EFED;" d="M1442.3,703.5c18.9,0,34.2-15.3,34.2-34.1s-15.3-34.1-34.2-34.1s-34.2,15.3-34.2,34.1
					C1408,688.2,1423.4,703.5,1442.3,703.5z"/>
				<path style="fill:#A8EFED;" d="M1402.1,702.5c18.9,0,34.2-15.3,34.2-34.1s-15.3-34.1-34.2-34.1s-34.2,15.3-34.2,34.1
					C1367.9,687.2,1383.2,702.5,1402.1,702.5z"/>
				<path style="fill:#A8EFED;" d="M1344.4,698.2c18.9,0,34.2-15.3,34.2-34.1s-15.3-34.1-34.2-34.1c-18.9,0-34.2,15.3-34.2,34.1
					S1325.5,698.2,1344.4,698.2z"/>
				<path style="fill:#A8EFED;" d="M1347.6,669.5c18.9,0,34.2-15.3,34.2-34.1s-15.3-34.1-34.2-34.1s-34.2,15.3-34.2,34.1
					C1313.4,654.2,1328.7,669.5,1347.6,669.5z"/>
			</g>
			<g>
				<path style="fill:#A8EFED;" d="M1824.6,1391.5c18.9,0,34.2-15.3,34.2-34.1c0-18.8-15.3-34.1-34.2-34.1s-34.2,15.3-34.2,34.1
					C1790.4,1376.2,1805.7,1391.5,1824.6,1391.5z"/>
				<path style="fill:#A8EFED;" d="M1860.3,1426.2c18.9,0,34.2-15.3,34.2-34.1c0-18.8-15.3-34.1-34.2-34.1s-34.2,15.3-34.2,34.1
					C1826,1410.9,1841.4,1426.2,1860.3,1426.2z"/>
				<path style="fill:#A8EFED;" d="M1820.1,1425.2c18.9,0,34.2-15.3,34.2-34.1c0-18.8-15.3-34.1-34.2-34.1s-34.2,15.3-34.2,34.1
					C1785.9,1409.9,1801.2,1425.2,1820.1,1425.2z"/>
				<path style="fill:#A8EFED;" d="M1762.4,1420.9c18.9,0,34.2-15.3,34.2-34.1c0-18.8-15.3-34.1-34.2-34.1s-34.2,15.3-34.2,34.1
					C1728.2,1405.6,1743.5,1420.9,1762.4,1420.9z"/>
				<path style="fill:#A8EFED;" d="M1765.6,1392.2c18.9,0,34.2-15.3,34.2-34.1c0-18.8-15.3-34.1-34.2-34.1
					c-18.9,0-34.2,15.3-34.2,34.1C1731.4,1376.9,1746.7,1392.2,1765.6,1392.2z"/>
			</g>
			<g>
				<path style="fill:#A8EFED;" d="M1645.2,1278.3c18.9,0,34.2-15.3,34.2-34.1c0-18.8-15.3-34.1-34.2-34.1s-34.2,15.3-34.2,34.1
					C1611,1263,1626.3,1278.3,1645.2,1278.3z"/>
				<path style="fill:#A8EFED;" d="M1680.9,1313c18.9,0,34.2-15.3,34.2-34.1c0-18.8-15.3-34.1-34.2-34.1s-34.2,15.3-34.2,34.1
					C1646.6,1297.8,1662,1313,1680.9,1313z"/>
				<path style="fill:#A8EFED;" d="M1640.7,1312c18.9,0,34.2-15.3,34.2-34.1c0-18.8-15.3-34.1-34.2-34.1s-34.2,15.3-34.2,34.1
					C1606.5,1296.8,1621.8,1312,1640.7,1312z"/>
				<path style="fill:#A8EFED;" d="M1583,1307.8c18.9,0,34.2-15.3,34.2-34.1c0-18.8-15.3-34.1-34.2-34.1
					c-18.9,0-34.2,15.3-34.2,34.1C1548.8,1292.4,1564.1,1307.8,1583,1307.8z"/>
				<path style="fill:#A8EFED;" d="M1586.2,1279c18.9,0,34.2-15.3,34.2-34.1c0-18.8-15.3-34.1-34.2-34.1s-34.2,15.3-34.2,34.1
					C1552,1263.8,1567.3,1279,1586.2,1279z"/>
			</g>
			<g>
				<path style="fill:#A8EFED;" d="M1667.5,552c18.9,0,34.2-15.3,34.2-34.1s-15.3-34.1-34.2-34.1s-34.2,15.3-34.2,34.1
					C1633.3,536.8,1648.6,552,1667.5,552z"/>
				<path style="fill:#A8EFED;" d="M1643.2,523.9c18.9,0,34.2-15.3,34.2-34.1c0-18.8-15.3-34.1-34.2-34.1S1609,471,1609,489.8
					C1609,508.6,1624.3,523.9,1643.2,523.9z"/>
				<path style="fill:#A8EFED;" d="M1615.6,556.9c18.9,0,34.2-15.3,34.2-34.1c0-18.8-15.3-34.1-34.2-34.1s-34.2,15.3-34.2,34.1
					C1581.4,541.7,1596.7,556.9,1615.6,556.9z"/>
			</g>
			<g>
				<path style="fill:#A8EFED;" d="M1837.3,1278.9c18.9,0,34.2-15.3,34.2-34.1c0-18.8-15.3-34.1-34.2-34.1s-34.2,15.3-34.2,34.1
					C1803.1,1263.7,1818.4,1278.9,1837.3,1278.9z"/>
				<path style="fill:#A8EFED;" d="M1813,1250.8c18.9,0,34.2-15.3,34.2-34.1c0-18.8-15.3-34.1-34.2-34.1s-34.2,15.3-34.2,34.1
					C1778.8,1235.5,1794.1,1250.8,1813,1250.8z"/>
				<path style="fill:#A8EFED;" d="M1785.4,1283.8c18.9,0,34.2-15.3,34.2-34.1c0-18.8-15.3-34.1-34.2-34.1s-34.2,15.3-34.2,34.1
					C1751.2,1268.6,1766.5,1283.8,1785.4,1283.8z"/>
			</g>
			<g>
				<path style="fill:#A8EFED;" d="M1754.1,177.5c18.9,0,34.2-15.3,34.2-34.1s-15.3-34.1-34.2-34.1c-18.9,0-34.2,15.3-34.2,34.1
					S1735.2,177.5,1754.1,177.5z"/>
				<path style="fill:#A8EFED;" d="M1789.8,212.1c18.9,0,34.2-15.3,34.2-34.1s-15.3-34.1-34.2-34.1s-34.2,15.3-34.2,34.1
					C1755.6,196.9,1770.9,212.1,1789.8,212.1z"/>
				<path style="fill:#A8EFED;" d="M1749.6,211.1c18.9,0,34.2-15.3,34.2-34.1s-15.3-34.1-34.2-34.1c-18.9,0-34.2,15.3-34.2,34.1
					C1715.4,195.9,1730.7,211.1,1749.6,211.1z"/>
				<path style="fill:#A8EFED;" d="M1707.9,221.1c18.9,0,34.2-15.3,34.2-34.1s-15.3-34.1-34.2-34.1s-34.2,15.3-34.2,34.1
					C1673.6,205.8,1689,221.1,1707.9,221.1z"/>
				<path style="fill:#A8EFED;" d="M1720.3,187c18.9,0,34.2-15.3,34.2-34.1s-15.3-34.1-34.2-34.1s-34.2,15.3-34.2,34.1
					S1701.4,187,1720.3,187z"/>
			</g>
			<g>
				<path style="fill:#A8EFED;" d="M1224.6,864.2c18.9,0,34.2-15.3,34.2-34.1c0-18.8-15.3-34.1-34.2-34.1s-34.2,15.3-34.2,34.1
					C1190.4,849,1205.7,864.2,1224.6,864.2z"/>
				<path style="fill:#A8EFED;" d="M1274.3,837.5c18.9,0,34.2-15.3,34.2-34.1s-15.3-34.1-34.2-34.1s-34.2,15.3-34.2,34.1
					C1240.1,822.2,1255.4,837.5,1274.3,837.5z"/>
				<path style="fill:#A8EFED;" d="M1224.6,817c18.9,0,34.2-15.3,34.2-34.1s-15.3-34.1-34.2-34.1s-34.2,15.3-34.2,34.1
					C1190.4,801.9,1205.7,817,1224.6,817z"/>
			</g>
			<g>
				<path style="fill:#A8EFED;" d="M1035.9,892.4c18.9,0,34.2-15.3,34.2-34.1c0-18.8-15.3-34.1-34.2-34.1s-34.2,15.3-34.2,34.1
					C1001.7,877.2,1017,892.4,1035.9,892.4z"/>
				<path style="fill:#A8EFED;" d="M1085.6,865.7c18.9,0,34.2-15.3,34.2-34.1s-15.3-34.1-34.2-34.1s-34.2,15.3-34.2,34.1
					C1051.4,850.4,1066.7,865.7,1085.6,865.7z"/>
				<path style="fill:#A8EFED;" d="M1035.9,845.3c18.9,0,34.2-15.3,34.2-34.1s-15.3-34.1-34.2-34.1s-34.2,15.3-34.2,34.1
					C1001.7,830.1,1017,845.3,1035.9,845.3z"/>
			</g>
			<g>
				<path style="fill:#A8EFED;" d="M982.3,393.6c18.9,0,34.2-15.3,34.2-34.1c0-18.8-15.3-34.1-34.2-34.1s-34.2,15.3-34.2,34.1
					C948.1,378.4,963.4,393.6,982.3,393.6z"/>
				<path style="fill:#A8EFED;" d="M1032,366.9c18.9,0,34.2-15.3,34.2-34.1c0-18.8-15.3-34.1-34.2-34.1s-34.2,15.3-34.2,34.1
					C997.8,351.6,1013.1,366.9,1032,366.9z"/>
				<path style="fill:#A8EFED;" d="M982.3,346.5c18.9,0,34.2-15.3,34.2-34.1c0-18.8-15.3-34.1-34.2-34.1s-34.2,15.3-34.2,34.1
					C948.1,331.3,963.4,346.5,982.3,346.5z"/>
			</g>
			<g>
				<path style="fill:#A8EFED;" d="M1788.3,817.5c18.9,0,34.2-15.3,34.2-34.1c0-18.8-15.3-34.1-34.2-34.1s-34.2,15.3-34.2,34.1
					C1754,802.2,1769.4,817.5,1788.3,817.5z"/>
				<path style="fill:#A8EFED;" d="M1799.9,783.7c18.9,0,34.2-15.3,34.2-34.1c0-18.8-15.3-34.1-34.2-34.1s-34.2,15.3-34.2,34.1
					C1765.7,768.4,1781,783.7,1799.9,783.7z"/>
				<path style="fill:#A8EFED;" d="M1835,812.6c18.9,0,34.2-15.3,34.2-34.1c0-18.8-15.3-34.1-34.2-34.1c-18.9,0-34.3,15.3-34.3,34.2
					C1800.7,797.4,1816,812.6,1835,812.6z"/>
			</g>
			<g>
				<path style="fill:#A8EFED;" d="M1520.2,120.9c18.8,0,34.1-15.2,34.1-33.9c0-18.7-15.3-33.9-34.1-33.9
					c-18.8,0-34.1,15.2-34.1,33.9S1501.4,120.9,1520.2,120.9z"/>
				<path style="fill:#A8EFED;" d="M1565.2,113.7c23.3,0,42.1-18.8,42.1-41.9c0-23.2-18.9-41.9-42.1-41.9
					c-23.3,0-42.1,18.7-42.1,41.9C1523.1,94.9,1541.9,113.7,1565.2,113.7z"/>
				<path style="fill:#A8EFED;" d="M1600.1,125.9c18.9,0,34.2-15.3,34.2-34.1c0-18.8-15.3-34.1-34.2-34.1
					c-18.9,0-34.2,15.3-34.2,34.1C1565.9,110.6,1581.2,125.9,1600.1,125.9z"/>
				<path style="fill:#A8EFED;" d="M1567.6,134.9c18.9,0,34.2-15.3,34.2-34.1c0-18.8-15.3-34.1-34.2-34.1
					c-18.9,0-34.2,15.3-34.2,34.1C1533.4,119.7,1548.7,134.9,1567.6,134.9z"/>
			</g>
			<g>
				<path style="fill:#A8EFED;" d="M615.7,426.3c0-28.2-22.9-51.1-51.3-51.1c-28.3,0-51.3,22.9-51.3,51.1s22.9,51.1,51.3,51.1
					C592.7,477.4,615.7,454.5,615.7,426.3z"/>
				<path style="fill:#A8EFED;" d="M560,403.5c0-34.8-28.4-63.1-63.5-63.1S433,368.6,433,403.5c0,34.8,28.4,63.1,63.5,63.1
					S560,438.3,560,403.5z"/>
				<path style="fill:#A8EFED;" d="M496.5,424.3c0-29.3-23.9-53.1-53.4-53.1s-53.4,23.8-53.4,53.1c0,29.3,23.9,53.1,53.4,53.1
					S496.5,453.6,496.5,424.3z"/>
				<path style="fill:#A8EFED;" d="M552.8,426c0-28.3-23.1-51.3-51.6-51.3s-51.6,23.1-51.6,51.4s23.1,51.3,51.6,51.3
					C529.6,477.4,552.8,454.3,552.8,426z"/>
			</g>
			<g>
				<path style="fill:#A8EFED;" d="M652,974.6c0-28.2-22.9-51.1-51.3-51.1c-28.3,0-51.3,22.9-51.3,51.1s22.9,51.1,51.3,51.1
					C629,1025.7,652,1002.8,652,974.6z"/>
				<path style="fill:#A8EFED;" d="M596.3,951.8c0-34.8-28.4-63.1-63.5-63.1c-35.1,0-63.5,28.2-63.5,63.1
					c0,34.8,28.4,63.1,63.5,63.1C567.9,1014.9,596.3,986.6,596.3,951.8z"/>
				<path style="fill:#A8EFED;" d="M532.8,972.6c0-29.3-23.9-53.1-53.4-53.1S426,943.3,426,972.6c0,29.3,23.9,53.1,53.4,53.1
					S532.8,1001.9,532.8,972.6z"/>
				<path style="fill:#A8EFED;" d="M589.1,974.3c0-28.3-23.1-51.3-51.6-51.3c-28.5,0-51.6,23.1-51.6,51.4s23.1,51.3,51.6,51.3
					C565.9,1025.7,589.1,1002.6,589.1,974.3z"/>
			</g>
			<g>
				<path style="fill:#A8EFED;" d="M794.3,442.3c0-18.7-15.3-33.9-34.1-33.9c-18.8,0-34.1,15.2-34.1,33.9s15.3,33.9,34.1,33.9
					C779,476.2,794.3,461,794.3,442.3z"/>
				<path style="fill:#A8EFED;" d="M757.3,427.1c0-23.1-18.8-41.9-42.1-41.9c-23.2,0-42.1,18.7-42.1,41.9
					c0,23.1,18.8,41.9,42.1,41.9C738.5,469,757.3,450.2,757.3,427.1z"/>
				<path style="fill:#A8EFED;" d="M715.1,440.9c0-19.5-15.8-35.3-35.4-35.3c-19.5,0-35.4,15.8-35.4,35.3s15.8,35.3,35.4,35.3
					C699.3,476.2,715.2,460.4,715.1,440.9z"/>
				<path style="fill:#A8EFED;" d="M752.5,442.1c0-18.8-15.3-34.1-34.2-34.1s-34.2,15.3-34.2,34.1c0,18.8,15.3,34.1,34.2,34.1
					S752.5,460.9,752.5,442.1z"/>
			</g>
			<g>
				<path style="fill:#A8EFED;" d="M527,1647c0-18.7-15.3-33.9-34.1-33.9c-18.8,0-34.1,15.2-34.1,33.9s15.3,33.9,34.1,33.9
					C511.7,1680.9,527,1665.8,527,1647z"/>
				<path style="fill:#A8EFED;" d="M490,1631.8c0-23.1-18.8-41.9-42.1-41.9c-23.2,0-42.1,18.7-42.1,41.9c0,23.1,18.8,41.9,42.1,41.9
					C471.2,1673.8,490,1654.9,490,1631.8z"/>
				<path style="fill:#A8EFED;" d="M447.8,1645.6c0-19.5-15.8-35.3-35.4-35.3c-19.5,0-35.4,15.8-35.4,35.3s15.8,35.3,35.4,35.3
					S447.9,1665.2,447.8,1645.6z"/>
				<path style="fill:#A8EFED;" d="M485.2,1646.8c0-18.8-15.3-34.1-34.2-34.1c-18.9,0-34.2,15.3-34.2,34.1
					c0,18.8,15.3,34.1,34.2,34.1C469.9,1680.9,485.2,1665.7,485.2,1646.8z"/>
			</g>
			<g>
				<path style="fill:#A8EFED;" d="M841.5,610c0-22.6-24.3-41-54.2-41c-29.9,0-54.2,18.4-54.2,41s24.3,41,54.2,41
					C817.2,651,841.5,632.6,841.5,610z"/>
				<path style="fill:#A8EFED;" d="M787.3,623.5c0-19.1-20.4-34.5-45.6-34.5s-45.6,15.4-45.6,34.5s20.4,34.5,45.6,34.5
					S787.3,642.5,787.3,623.5z"/>
				<path style="fill:#A8EFED;" d="M835.4,624.6c0-18.4-19.8-33.3-44.1-33.3c-24.4,0-44.1,15-44.1,33.4S767,658,791.3,658
					C815.6,658,835.4,643,835.4,624.6z"/>
			</g>
			<g>
				<path style="fill:#A8EFED;" d="M446,1430.3c0-22.6-24.3-41-54.2-41c-29.9,0-54.2,18.4-54.2,41s24.3,41,54.2,41
					C421.7,1471.3,446,1452.9,446,1430.3z"/>
				<path style="fill:#A8EFED;" d="M391.8,1443.8c0-19.1-20.4-34.5-45.6-34.5c-25.2,0-45.6,15.4-45.6,34.5s20.4,34.5,45.6,34.5
					C371.4,1478.3,391.8,1462.8,391.8,1443.8z"/>
				<path style="fill:#A8EFED;" d="M439.9,1444.9c0-18.4-19.8-33.3-44.1-33.3c-24.4,0-44.1,15-44.1,33.4s19.8,33.3,44.1,33.3
					C420.1,1478.3,439.9,1463.3,439.9,1444.9z"/>
			</g>
			<g>
				<path style="fill:#A8EFED;" d="M264.7,317.6c0-20.2-16.6-36.5-37-36.5s-37,16.3-37,36.5s16.6,36.5,37,36.5
					S264.7,337.7,264.7,317.6z"/>
				<path style="fill:#A8EFED;" d="M227.7,330.1c0-17.1-13.9-31-31-31s-31,13.9-31,31s13.9,31,31,31S227.7,347.2,227.7,330.1z"/>
				<path style="fill:#A8EFED;" d="M260.7,331.1c0-16.6-13.4-30-30-30s-30,13.4-30,30s13.4,30,30,30S260.7,347.6,260.7,331.1z"/>
			</g>
			<g>
				<path style="fill:#A8EFED;" d="M447.3,1098.8c0-20.2-16.6-36.5-37-36.5c-20.4,0-37,16.3-37,36.5s16.6,36.5,37,36.5
					C430.7,1135.3,447.3,1118.9,447.3,1098.8z"/>
				<path style="fill:#A8EFED;" d="M410.3,1111.3c0-17.1-13.9-31-31-31c-17.1,0-31,13.9-31,31s13.9,31,31,31
					C396.4,1142.3,410.3,1128.4,410.3,1111.3z"/>
				<path style="fill:#A8EFED;" d="M443.3,1112.3c0-16.6-13.4-30-30-30c-16.6,0-30,13.4-30,30s13.4,30,30,30
					C429.9,1142.3,443.3,1128.8,443.3,1112.3z"/>
			</g>
			<g>
				<path style="fill:#A8EFED;" d="M733.7,302.1c0-18.7-15.3-33.9-34.1-33.9s-34.1,15.2-34.1,33.9c0,18.7,15.3,33.9,34.1,33.9
					C718.4,336,733.7,320.8,733.7,302.1z"/>
				<path style="fill:#A8EFED;" d="M696.7,286.9c0-23.1-18.8-41.9-42.1-41.9c-23.2,0-42.1,18.8-42.1,41.9s18.8,41.9,42.1,41.9
					C677.9,328.8,696.7,310,696.7,286.9z"/>
				<path style="fill:#A8EFED;" d="M691.9,301.9c0-18.8-15.3-34.1-34.2-34.1s-34.2,15.3-34.2,34.1c0,18.8,15.3,34.1,34.2,34.1
					C676.6,336,691.9,320.7,691.9,301.9z"/>
			</g>
			<g>
				<path style="fill:#A8EFED;" d="M145.2,1597.3c0-18.7-15.3-33.9-34.1-33.9c-18.8,0-34.1,15.2-34.1,33.9
					c0,18.7,15.3,33.9,34.1,33.9C129.9,1631.2,145.2,1616,145.2,1597.3z"/>
				<path style="fill:#A8EFED;" d="M108.2,1582.1c0-23.1-18.8-41.9-42.1-41.9c-23.2,0-42.1,18.8-42.1,41.9s18.8,41.9,42.1,41.9
					C89.4,1624,108.2,1605.2,108.2,1582.1z"/>
				<path style="fill:#A8EFED;" d="M103.4,1597.1c0-18.8-15.3-34.1-34.2-34.1S35,1578.3,35,1597.1c0,18.8,15.3,34.1,34.2,34.1
					S103.4,1615.9,103.4,1597.1z"/>
			</g>
			<g>
				<path style="fill:#A8EFED;" d="M170.6,931.1c0-18.7-15.3-33.9-34.1-33.9c-18.8,0-34.1,15.2-34.1,33.9
					c0,18.7,15.3,33.9,34.1,33.9C155.3,965,170.6,949.8,170.6,931.1z"/>
				<path style="fill:#A8EFED;" d="M133.6,915.9c0-23.1-18.8-41.9-42.1-41.9c-23.2,0-42.1,18.8-42.1,41.9s18.8,41.9,42.1,41.9
					C114.8,957.8,133.6,939,133.6,915.9z"/>
				<path style="fill:#A8EFED;" d="M128.8,930.9c0-18.8-15.3-34.1-34.2-34.1s-34.2,15.3-34.2,34.1c0,18.8,15.3,34.1,34.2,34.1
					S128.8,949.7,128.8,930.9z"/>
			</g>
			<g>
				<path style="fill:#A8EFED;" d="M761.1,94.1c0-18.7-15.3-33.9-34.1-33.9c-18.8,0-34.1,15.2-34.1,33.9c0,18.7,15.3,33.9,34.1,33.9
					C745.9,128,761.1,112.8,761.1,94.1z"/>
				<path style="fill:#A8EFED;" d="M724.1,78.9c0-23.1-18.8-41.9-42.1-41.9c-23.2,0-42.1,18.8-42.1,41.9s18.8,41.9,42.1,41.9
					C705.3,120.8,724.1,102,724.1,78.9z"/>
				<path style="fill:#A8EFED;" d="M719.3,93.9c0-18.8-15.3-34.1-34.2-34.1c-18.9,0-34.2,15.3-34.2,34.1c0,18.8,15.3,34.1,34.2,34.1
					C704,128,719.3,112.7,719.3,93.9z"/>
			</g>
			<g>
				<path style="fill:#A8EFED;" d="M197.1,1082.4c0-18.7-15.3-33.9-34.1-33.9s-34.1,15.2-34.1,33.9c0,18.7,15.3,33.9,34.1,33.9
					C181.9,1116.3,197.1,1101.1,197.1,1082.4z"/>
				<path style="fill:#A8EFED;" d="M160.1,1067.2c0-23.1-18.8-41.9-42.1-41.9c-23.2,0-42.1,18.8-42.1,41.9s18.8,41.9,42.1,41.9
					S160.1,1090.3,160.1,1067.2z"/>
				<path style="fill:#A8EFED;" d="M155.3,1082.2c0-18.8-15.3-34.1-34.2-34.1s-34.2,15.3-34.2,34.1c0,18.8,15.3,34.1,34.2,34.1
					S155.3,1101,155.3,1082.2z"/>
			</g>
			<g>
				<path style="fill:#A8EFED;" d="M739.2,1666.8c0-18.7-15.3-33.9-34.1-33.9s-34.1,15.2-34.1,33.9c0,18.7,15.3,33.9,34.1,33.9
					C724,1700.7,739.2,1685.5,739.2,1666.8z"/>
				<path style="fill:#A8EFED;" d="M702.2,1651.6c0-23.1-18.8-41.9-42.1-41.9c-23.2,0-42.1,18.8-42.1,41.9s18.8,41.9,42.1,41.9
					S702.2,1674.7,702.2,1651.6z"/>
				<path style="fill:#A8EFED;" d="M697.4,1666.6c0-18.8-15.3-34.1-34.2-34.1c-18.9,0-34.2,15.3-34.2,34.1
					c0,18.8,15.3,34.1,34.2,34.1C682.1,1700.7,697.4,1685.4,697.4,1666.6z"/>
			</g>
			<g>
				<path style="fill:#A8EFED;" d="M432,243.6c0-18.8-15.3-34.1-34.2-34.1s-34.2,15.3-34.2,34.1s15.3,34.1,34.2,34.1
					S432,262.4,432,243.6z"/>
				<path style="fill:#A8EFED;" d="M397.7,264.7c0-18.8-15.3-34.1-34.2-34.1s-34.2,15.3-34.2,34.1s15.3,34.1,34.2,34.1
					S397.8,283.6,397.7,264.7z"/>
				<path style="fill:#A8EFED;" d="M452,277.6c0-18.8-15.3-34.1-34.2-34.1s-34.2,15.3-34.2,34.1s15.3,34.1,34.2,34.1
					S452,296.5,452,277.6z"/>
			</g>
			<g>
				<path style="fill:#A8EFED;" d="M333.6,940.2c0-18.8-15.3-34.1-34.2-34.1s-34.2,15.3-34.2,34.1s15.3,34.1,34.2,34.1
					S333.6,959,333.6,940.2z"/>
				<path style="fill:#A8EFED;" d="M299.3,961.3c0-18.8-15.3-34.1-34.2-34.1s-34.2,15.3-34.2,34.1s15.3,34.1,34.2,34.1
					S299.4,980.2,299.3,961.3z"/>
				<path style="fill:#A8EFED;" d="M353.6,974.2c0-18.8-15.3-34.1-34.2-34.1s-34.2,15.3-34.2,34.1s15.3,34.1,34.2,34.1
					S353.6,993.1,353.6,974.2z"/>
			</g>
			<g>
				<path style="fill:#A8EFED;" d="M284.6,1513.8c0-18.8-15.3-34.1-34.2-34.1s-34.2,15.3-34.2,34.1c0,18.8,15.3,34.1,34.2,34.1
					S284.6,1532.6,284.6,1513.8z"/>
				<path style="fill:#A8EFED;" d="M250.3,1534.9c0-18.8-15.3-34.1-34.2-34.1s-34.2,15.3-34.2,34.1c0,18.8,15.3,34.1,34.2,34.1
					S250.4,1553.8,250.3,1534.9z"/>
				<path style="fill:#A8EFED;" d="M304.6,1547.8c0-18.8-15.3-34.1-34.2-34.1s-34.2,15.3-34.2,34.1c0,18.8,15.3,34.1,34.2,34.1
					S304.6,1566.7,304.6,1547.8z"/>
			</g>
			<g>
				<path style="fill:#A8EFED;" d="M590.7,1168.6c0-18.8-15.3-34.1-34.2-34.1s-34.2,15.3-34.2,34.1c0,18.8,15.3,34.1,34.2,34.1
					C575.4,1202.7,590.7,1187.4,590.7,1168.6z"/>
				<path style="fill:#A8EFED;" d="M556.4,1189.7c0-18.8-15.3-34.1-34.2-34.1s-34.2,15.3-34.2,34.1c0,18.8,15.3,34.1,34.2,34.1
					C541.1,1223.8,556.5,1208.6,556.4,1189.7z"/>
				<path style="fill:#A8EFED;" d="M610.7,1202.6c0-18.8-15.3-34.1-34.2-34.1s-34.2,15.3-34.2,34.1c0,18.8,15.3,34.1,34.2,34.1
					C595.4,1236.7,610.7,1221.5,610.7,1202.6z"/>
			</g>
			<g>
				<path style="fill:#A8EFED;" d="M165.7,567.3c0-18.8-15.3-34.1-34.2-34.1s-34.2,15.3-34.2,34.1s15.3,34.1,34.2,34.1
					S165.8,586.2,165.7,567.3z"/>
				<path style="fill:#A8EFED;" d="M162.8,522.8c0-18.8-15.3-34.1-34.2-34.1S94.4,504,94.4,522.8s15.3,34.1,34.2,34.1
					S162.8,541.5,162.8,522.8z"/>
				<path style="fill:#A8EFED;" d="M124.8,555.9c0-18.8-15.3-34.1-34.2-34.1s-34.2,15.3-34.2,34.1S71.7,590,90.6,590
					S124.8,574.8,124.8,555.9z"/>
				<path style="fill:#A8EFED;" d="M112.7,530.8c0-18.8-15.3-34.1-34.2-34.1S44.3,512,44.3,530.8s15.3,34.1,34.2,34.1
					C97.5,564.9,112.8,549.7,112.7,530.8z"/>
				<path style="fill:#A8EFED;" d="M84.8,548.3c0-18.8-15.3-34.1-34.2-34.1s-34.2,15.3-34.2,34.1s15.3,34.1,34.2,34.1
					S84.8,567.2,84.8,548.3z"/>
			</g>
			<g>
				<path style="fill:#A8EFED;" d="M699.2,1515.3c0-18.8-15.3-34.1-34.2-34.1c-18.9,0-34.2,15.3-34.2,34.1
					c0,18.8,15.3,34.1,34.2,34.1C683.9,1549.4,699.3,1534.2,699.2,1515.3z"/>
				<path style="fill:#A8EFED;" d="M696.3,1470.8c0-18.8-15.3-34.1-34.2-34.1c-18.9,0-34.2,15.3-34.2,34.1
					c0,18.8,15.3,34.1,34.2,34.1C681,1504.9,696.3,1489.6,696.3,1470.8z"/>
				<path style="fill:#A8EFED;" d="M658.3,1503.9c0-18.8-15.3-34.1-34.2-34.1c-18.9,0-34.2,15.3-34.2,34.1
					c0,18.8,15.3,34.1,34.2,34.1C643,1538,658.3,1522.8,658.3,1503.9z"/>
				<path style="fill:#A8EFED;" d="M646.2,1478.8c0-18.8-15.3-34.1-34.2-34.1c-18.9,0-34.2,15.3-34.2,34.1
					c0,18.8,15.3,34.1,34.2,34.1C631,1512.9,646.3,1497.7,646.2,1478.8z"/>
				<path style="fill:#A8EFED;" d="M618.3,1496.3c0-18.8-15.3-34.1-34.2-34.1c-18.9,0-34.2,15.3-34.2,34.1
					c0,18.8,15.3,34.1,34.2,34.1C603,1530.4,618.3,1515.2,618.3,1496.3z"/>
			</g>
			<g>
				<path style="fill:#A8EFED;" d="M779.5,1138.5c0-18.8-15.3-34.1-34.2-34.1s-34.2,15.3-34.2,34.1c0,18.8,15.3,34.1,34.2,34.1
					S779.6,1157.4,779.5,1138.5z"/>
				<path style="fill:#A8EFED;" d="M776.6,1094c0-18.8-15.3-34.1-34.2-34.1c-18.9,0-34.2,15.3-34.2,34.1c0,18.8,15.3,34.1,34.2,34.1
					C761.3,1128.2,776.6,1112.8,776.6,1094z"/>
				<path style="fill:#A8EFED;" d="M738.6,1127.2c0-18.8-15.3-34.1-34.2-34.1c-18.9,0-34.2,15.3-34.2,34.1
					c0,18.8,15.3,34.1,34.2,34.1C723.3,1161.3,738.6,1146,738.6,1127.2z"/>
				<path style="fill:#A8EFED;" d="M726.5,1102c0-18.8-15.3-34.1-34.2-34.1s-34.2,15.3-34.2,34.1c0,18.8,15.3,34.1,34.2,34.1
					C711.3,1136.2,726.6,1120.9,726.5,1102z"/>
				<path style="fill:#A8EFED;" d="M698.6,1119.5c0-18.8-15.3-34.1-34.2-34.1c-18.9,0-34.2,15.3-34.2,34.1
					c0,18.8,15.3,34.1,34.2,34.1C683.3,1153.7,698.6,1138.4,698.6,1119.5z"/>
			</g>
			<g>
				<path style="fill:#A8EFED;" d="M292.3,658.4c0-18.8-15.3-34.1-34.2-34.1s-34.2,15.3-34.2,34.1s15.3,34.1,34.2,34.1
					S292.3,677.2,292.3,658.4z"/>
				<path style="fill:#A8EFED;" d="M347.2,621.4c0-18.8-15.3-34.1-34.2-34.1c-18.9,0-34.2,15.3-34.2,34.1s15.3,34.1,34.2,34.1
					S347.3,640.2,347.2,621.4z"/>
				<path style="fill:#A8EFED;" d="M344.1,658.4c0-18.8-15.3-34.1-34.2-34.1c-18.9,0-34.2,15.3-34.2,34.1s15.3,34.1,34.2,34.1
					S344.1,677.2,344.1,658.4z"/>
				<path style="fill:#A8EFED;" d="M379.6,663.8c0-18.8-15.3-34.1-34.2-34.1s-34.2,15.3-34.2,34.1s15.3,34.1,34.2,34.1
					S379.6,682.8,379.6,663.8z"/>
			</g>
			<g>
				<path style="fill:#A8EFED;" d="M477.7,813.6c0-18.8-15.3-34.1-34.2-34.1s-34.2,15.3-34.2,34.1s15.3,34.1,34.2,34.1
					S477.7,832.5,477.7,813.6z"/>
				<path style="fill:#A8EFED;" d="M453,784.3c0-18.8-15.3-34.1-34.2-34.1s-34.2,15.3-34.2,34.1c0,18.8,15.3,34.1,34.2,34.1
					S453,803.2,453,784.3z"/>
				<path style="fill:#A8EFED;" d="M417.3,819c0-18.8-15.3-34.1-34.2-34.1s-34.2,15.3-34.2,34.1s15.3,34.1,34.2,34.1
					S417.3,837.9,417.3,819z"/>
				<path style="fill:#A8EFED;" d="M457.5,818c0-18.8-15.3-34.1-34.2-34.1s-34.2,15.3-34.2,34.1s15.3,34.1,34.2,34.1
					S457.5,836.9,457.5,818z"/>
				<path style="fill:#A8EFED;" d="M515.2,813.7c0-18.8-15.4-34.1-34.3-34.1s-34.2,15.3-34.2,34.1s15.3,34.1,34.2,34.1
					C499.9,847.8,515.2,832.6,515.2,813.7z"/>
				<path style="fill:#A8EFED;" d="M511.9,785c0-18.8-15.3-34.1-34.2-34.1s-34.2,15.3-34.2,34.1c0,18.8,15.3,34.1,34.2,34.1
					C496.7,819.1,512,803.9,511.9,785z"/>
			</g>
			<g>
				<path style="fill:#A8EFED;" d="M631.5,1372.6c0-18.8-15.3-34.1-34.2-34.1c-18.9,0-34.2,15.3-34.2,34.1
					c0,18.8,15.3,34.1,34.2,34.1C616.2,1406.7,631.5,1391.5,631.5,1372.6z"/>
				<path style="fill:#A8EFED;" d="M606.8,1343.3c0-18.8-15.3-34.1-34.2-34.1c-18.9,0-34.2,15.3-34.2,34.1
					c0,18.8,15.3,34.1,34.2,34.1C591.5,1377.4,606.8,1362.2,606.8,1343.3z"/>
				<path style="fill:#A8EFED;" d="M571.1,1378c0-18.8-15.3-34.1-34.2-34.1c-18.9,0-34.2,15.3-34.2,34.1c0,18.8,15.3,34.1,34.2,34.1
					C555.8,1412.1,571.1,1396.9,571.1,1378z"/>
				<path style="fill:#A8EFED;" d="M611.3,1377c0-18.8-15.3-34.1-34.2-34.1c-18.9,0-34.2,15.3-34.2,34.1c0,18.8,15.3,34.1,34.2,34.1
					C596,1411.1,611.3,1395.9,611.3,1377z"/>
				<path style="fill:#A8EFED;" d="M669,1372.7c0-18.8-15.4-34.1-34.3-34.1c-18.9,0-34.2,15.3-34.2,34.1c0,18.8,15.3,34.1,34.2,34.1
					C653.7,1406.8,669,1391.6,669,1372.7z"/>
				<path style="fill:#A8EFED;" d="M665.7,1344c0-18.8-15.3-34.1-34.2-34.1c-18.9,0-34.2,15.3-34.2,34.1c0,18.8,15.3,34.1,34.2,34.1
					C650.5,1378.1,665.8,1362.9,665.7,1344z"/>
			</g>
			<g>
				<path style="fill:#A8EFED;" d="M572.5,625.3c0-18.8-15.3-34.1-34.2-34.1s-34.2,15.3-34.2,34.1c0,18.8,15.3,34.1,34.2,34.1
					C557.2,659.4,572.5,644.1,572.5,625.3z"/>
				<path style="fill:#A8EFED;" d="M536.8,660c0-18.8-15.3-34.1-34.2-34.1c-18.9,0-34.2,15.3-34.2,34.1s15.3,34.1,34.2,34.1
					C521.5,694.1,536.9,678.8,536.8,660z"/>
				<path style="fill:#A8EFED;" d="M577,659c0-18.8-15.3-34.1-34.2-34.1s-34.2,15.3-34.2,34.1s15.3,34.1,34.2,34.1
					C561.7,693.1,577,677.8,577,659z"/>
				<path style="fill:#A8EFED;" d="M634.7,654.7c0-18.8-15.3-34.1-34.2-34.1c-18.9,0-34.2,15.3-34.2,34.1s15.3,34.1,34.2,34.1
					C619.4,688.8,634.7,673.5,634.7,654.7z"/>
				<path style="fill:#A8EFED;" d="M631.5,626c0-18.8-15.3-34.1-34.2-34.1c-18.9,0-34.2,15.3-34.2,34.1s15.3,34.1,34.2,34.1
					C616.2,660.1,631.5,644.8,631.5,626z"/>
			</g>
			<g>
				<path style="fill:#A8EFED;" d="M154.5,1348c0-18.8-15.3-34.1-34.2-34.1s-34.2,15.3-34.2,34.1c0,18.8,15.3,34.1,34.2,34.1
					S154.5,1366.8,154.5,1348z"/>
				<path style="fill:#A8EFED;" d="M118.8,1382.7c0-18.8-15.3-34.1-34.2-34.1s-34.2,15.3-34.2,34.1c0,18.8,15.3,34.1,34.2,34.1
					C103.5,1416.8,118.9,1401.5,118.8,1382.7z"/>
				<path style="fill:#A8EFED;" d="M159,1381.7c0-18.8-15.3-34.1-34.2-34.1s-34.2,15.3-34.2,34.1c0,18.8,15.3,34.1,34.2,34.1
					S159,1400.5,159,1381.7z"/>
				<path style="fill:#A8EFED;" d="M216.7,1377.4c0-18.8-15.3-34.1-34.2-34.1s-34.2,15.3-34.2,34.1s15.3,34.1,34.2,34.1
					S216.7,1396.2,216.7,1377.4z"/>
				<path style="fill:#A8EFED;" d="M213.5,1348.7c0-18.8-15.3-34.1-34.2-34.1s-34.2,15.3-34.2,34.1c0,18.8,15.3,34.1,34.2,34.1
					S213.5,1367.5,213.5,1348.7z"/>
			</g>
			<g>
				<path style="fill:#A8EFED;" d="M333.9,1234.8c0-18.8-15.3-34.1-34.2-34.1s-34.2,15.3-34.2,34.1c0,18.8,15.3,34.1,34.2,34.1
					S333.9,1253.7,333.9,1234.8z"/>
				<path style="fill:#A8EFED;" d="M298.2,1269.6c0-18.8-15.3-34.1-34.2-34.1s-34.2,15.3-34.2,34.1c0,18.8,15.3,34.1,34.2,34.1
					C282.9,1303.7,298.3,1288.3,298.2,1269.6z"/>
				<path style="fill:#A8EFED;" d="M338.4,1268.6c0-18.8-15.3-34.1-34.2-34.1s-34.2,15.3-34.2,34.1c0,18.8,15.3,34.1,34.2,34.1
					S338.4,1287.3,338.4,1268.6z"/>
				<path style="fill:#A8EFED;" d="M396.1,1264.3c0-18.8-15.3-34.1-34.2-34.1s-34.2,15.3-34.2,34.1s15.3,34.1,34.2,34.1
					S396.1,1283.1,396.1,1264.3z"/>
				<path style="fill:#A8EFED;" d="M392.9,1235.6c0-18.8-15.3-34.1-34.2-34.1s-34.2,15.3-34.2,34.1c0,18.8,15.3,34.1,34.2,34.1
					S392.9,1254.3,392.9,1235.6z"/>
			</g>
			<g>
				<path style="fill:#A8EFED;" d="M311.6,508.5c0-18.8-15.3-34.1-34.2-34.1s-34.2,15.3-34.2,34.1c0,18.8,15.3,34.1,34.2,34.1
					S311.6,527.4,311.6,508.5z"/>
				<path style="fill:#A8EFED;" d="M335.9,480.4c0-18.8-15.3-34.1-34.2-34.1c-18.9,0-34.2,15.3-34.2,34.1s15.3,34.1,34.2,34.1
					C320.6,514.5,335.9,499.2,335.9,480.4z"/>
				<path style="fill:#A8EFED;" d="M363.5,513.4c0-18.8-15.3-34.1-34.2-34.1c-18.9,0-34.2,15.3-34.2,34.1
					c0,18.8,15.3,34.1,34.2,34.1S363.5,532.3,363.5,513.4z"/>
			</g>
			<g>
				<path style="fill:#A8EFED;" d="M141.8,1235.4c0-18.8-15.3-34.1-34.2-34.1s-34.2,15.3-34.2,34.1c0,18.8,15.3,34.1,34.2,34.1
					S141.8,1254.3,141.8,1235.4z"/>
				<path style="fill:#A8EFED;" d="M166.1,1207.3c0-18.8-15.3-34.1-34.2-34.1s-34.2,15.3-34.2,34.1c0,18.8,15.3,34.1,34.2,34.1
					S166.1,1226.1,166.1,1207.3z"/>
				<path style="fill:#A8EFED;" d="M193.7,1240.3c0-18.8-15.3-34.1-34.2-34.1s-34.2,15.3-34.2,34.1c0,18.8,15.3,34.1,34.2,34.1
					S193.7,1259.2,193.7,1240.3z"/>
			</g>
			<g>
				<path style="fill:#A8EFED;" d="M225,134c0-18.8-15.3-34.1-34.2-34.1s-34.2,15.3-34.2,34.1s15.3,34.1,34.2,34.1
					S225,152.8,225,134z"/>
				<path style="fill:#A8EFED;" d="M189.3,168.6c0-18.8-15.3-34.1-34.2-34.1s-34.2,15.3-34.2,34.1s15.3,34.1,34.2,34.1
					S189.3,187.5,189.3,168.6z"/>
				<path style="fill:#A8EFED;" d="M229.5,167.6c0-18.8-15.3-34.1-34.2-34.1s-34.2,15.3-34.2,34.1s15.3,34.1,34.2,34.1
					S229.5,186.5,229.5,167.6z"/>
				<path style="fill:#A8EFED;" d="M271.2,177.6c0-18.8-15.3-34.1-34.2-34.1s-34.2,15.3-34.2,34.1s15.3,34.1,34.2,34.1
					S271.3,196.4,271.2,177.6z"/>
				<path style="fill:#A8EFED;" d="M258.8,143.5c0-18.8-15.3-34.1-34.2-34.1s-34.2,15.3-34.2,34.1s15.3,34.1,34.2,34.1
					S258.8,162.3,258.8,143.5z"/>
			</g>
			<g>
				<path style="fill:#A8EFED;" d="M723.4,836.2c0-18.8-15.3-34.1-34.2-34.1S655,817.4,655,836.2s15.3,34.1,34.2,34.1
					C708.1,870.3,723.4,855.1,723.4,836.2z"/>
				<path style="fill:#A8EFED;" d="M673.7,809.5c0-18.8-15.3-34.1-34.2-34.1s-34.2,15.3-34.2,34.1c0,18.8,15.3,34.1,34.2,34.1
					C658.4,843.6,673.7,828.3,673.7,809.5z"/>
				<path style="fill:#A8EFED;" d="M723.4,789c0-18.8-15.3-34.1-34.2-34.1S655,770.3,655,789c0,18.8,15.3,34.1,34.2,34.1
					C708.1,823.2,723.4,808,723.4,789z"/>
			</g>
			<g>
				<path style="fill:#A8EFED;" d="M190.8,774c0-18.8-15.3-34.1-34.2-34.1s-34.2,15.3-34.2,34.1c0,18.8,15.3,34.1,34.2,34.1
					S190.9,792.8,190.8,774z"/>
				<path style="fill:#A8EFED;" d="M179.2,740.2c0-18.8-15.3-34.1-34.2-34.1s-34.2,15.3-34.2,34.1c0,18.8,15.3,34.1,34.2,34.1
					S179.2,759,179.2,740.2z"/>
				<path style="fill:#A8EFED;" d="M144.2,769.2c0-18.9-15.4-34.2-34.3-34.2s-34.2,15.3-34.2,34.1s15.3,34.1,34.2,34.1
					C128.9,803.2,144.2,788,144.2,769.2z"/>
			</g>
			<g>
				<path style="fill:#A8EFED;" d="M458.9,77.6c0-18.7-15.3-33.9-34.1-33.9c-18.8,0-34.1,15.2-34.1,33.9c0,18.7,15.3,33.9,34.1,33.9
					C443.6,111.5,458.9,96.3,458.9,77.6z"/>
				<path style="fill:#A8EFED;" d="M421.9,62.4c0-23.2-18.8-41.9-42.1-41.9c-23.2,0-42.1,18.7-42.1,41.9c0,23.1,18.8,41.9,42.1,41.9
					C403.1,104.3,421.9,85.5,421.9,62.4z"/>
				<path style="fill:#A8EFED;" d="M379.1,82.4c0-18.8-15.3-34.1-34.2-34.1s-34.2,15.3-34.2,34.1c0,18.8,15.3,34.1,34.2,34.1
					S379.1,101.2,379.1,82.4z"/>
				<path style="fill:#A8EFED;" d="M411.6,91.4c0-18.8-15.3-34.1-34.2-34.1c-18.9,0-34.2,15.3-34.2,34.1c0,18.8,15.3,34.1,34.2,34.1
					S411.6,110.3,411.6,91.4z"/>
			</g>
			<g>
				<path style="fill:#A8EFED;" d="M620,178.8c0-18.7-15.3-33.9-34.1-33.9s-34.1,15.2-34.1,33.9c0,18.7,15.3,33.9,34.1,33.9
					S620,197.5,620,178.8z"/>
				<path style="fill:#A8EFED;" d="M583,163.5c0-23.2-18.8-41.9-42.1-41.9c-23.2,0-42.1,18.7-42.1,41.9c0,23.1,18.8,41.9,42.1,41.9
					S583,186.7,583,163.5z"/>
				<path style="fill:#A8EFED;" d="M540.2,183.5c0-18.8-15.3-34.1-34.2-34.1c-18.9,0-34.2,15.3-34.2,34.1
					c0,18.8,15.3,34.1,34.2,34.1C524.9,217.6,540.2,202.4,540.2,183.5z"/>
				<path style="fill:#A8EFED;" d="M572.7,192.5c0-18.8-15.3-34.1-34.2-34.1c-18.9,0-34.2,15.3-34.2,34.1
					c0,18.8,15.3,34.1,34.2,34.1S572.7,211.5,572.7,192.5z"/>
			</g>
		</g>
		<g style="opacity:0.4;">
			<g>
				<path style="fill:#A8EFED;" d="M792.5,1579.7c20.4,0,37-16.3,37-36.5s-16.6-36.5-37-36.5c-20.4,0-37,16.3-37,36.5
					C755.5,1563.3,772.1,1579.7,792.5,1579.7z"/>
				<g>
					<path style="fill:#A8EFED;" d="M1074.8,1511.7c28.4,0,51.3-22.9,51.3-51.1s-23-51.1-51.3-51.1c-28.4,0-51.3,22.9-51.3,51.1
						C1023.5,1488.8,1046.5,1511.7,1074.8,1511.7z"/>
					<path style="fill:#A8EFED;" d="M1142.7,1500.9c35.1,0,63.5-28.3,63.5-63.1c0-34.9-28.4-63.1-63.5-63.1
						c-35.1,0-63.5,28.3-63.5,63.1S1107.6,1500.9,1142.7,1500.9z"/>
					<path style="fill:#A8EFED;" d="M1196.1,1511.7c29.5,0,53.4-23.8,53.4-53.1c0-29.3-23.9-53.1-53.4-53.1s-53.4,23.8-53.4,53.1
						C1142.7,1487.9,1166.6,1511.7,1196.1,1511.7z"/>
					<path style="fill:#A8EFED;" d="M1138,1511.7c28.5,0,51.6-23,51.6-51.3s-23.1-51.4-51.6-51.4s-51.6,23-51.6,51.3
						S1109.6,1511.7,1138,1511.7z"/>
				</g>
				<g>
					<path style="fill:#A8EFED;" d="M781.6,1440.7c18.8,0,34.1-15.2,34.1-33.9s-15.3-33.9-34.1-33.9s-34.1,15.2-34.1,33.9
						S762.8,1440.7,781.6,1440.7z"/>
					<path style="fill:#A8EFED;" d="M826.6,1433.5c23.3,0,42.1-18.8,42.1-41.9c0-23.2-18.9-41.9-42.1-41.9
						c-23.3,0-42.1,18.8-42.1,41.9S803.3,1433.5,826.6,1433.5z"/>
					<path style="fill:#A8EFED;" d="M862.1,1440.7c19.6,0,35.4-15.8,35.4-35.3s-15.9-35.3-35.4-35.3c-19.6,0-35.4,15.8-35.4,35.3
						C826.6,1424.9,842.5,1440.7,862.1,1440.7z"/>
					<path style="fill:#A8EFED;" d="M823.5,1440.7c18.9,0,34.2-15.3,34.2-34.1c0-18.8-15.3-34.1-34.2-34.1
						c-18.9,0-34.2,15.3-34.2,34.1C789.3,1425.4,804.6,1440.7,823.5,1440.7z"/>
				</g>
				<path style="fill:#A8EFED;" d="M785.3,1279.7c29.9,0,54.2-18.4,54.2-41s-24.3-41-54.2-41s-54.2,18.4-54.2,41
					C731.1,1261.3,755.4,1279.7,785.3,1279.7z"/>
				<path style="fill:#A8EFED;" d="M830.9,1286.7c25.2,0,45.6-15.4,45.6-34.5s-20.4-34.5-45.6-34.5c-25.2,0-45.6,15.4-45.6,34.5
					C785.3,1271.2,805.7,1286.7,830.9,1286.7z"/>
				<path style="fill:#A8EFED;" d="M781.3,1286.7c24.3,0,44.1-14.9,44.1-33.3s-19.7-33.4-44.1-33.4c-24.3,0-44.1,14.9-44.1,33.3
					S757,1286.7,781.3,1286.7z"/>
				<path style="fill:#A8EFED;" d="M823.5,1586.7c17.1,0,31-13.9,31-31s-13.9-31-31-31c-17.1,0-31,13.9-31,31
					C792.5,1572.8,806.4,1586.7,823.5,1586.7z"/>
				<path style="fill:#A8EFED;" d="M789.5,1586.7c16.6,0,30-13.4,30-30s-13.4-30-30-30c-16.6,0-30,13.4-30,30
					C759.5,1573.2,772.9,1586.7,789.5,1586.7z"/>
				<g>
					<path style="fill:#A8EFED;" d="M1143.6,1310.7c18.8,0,34.1-15.2,34.1-33.9c0-18.7-15.3-33.9-34.1-33.9
						c-18.8,0-34.1,15.2-34.1,33.9S1124.8,1310.7,1143.6,1310.7z"/>
					<path style="fill:#A8EFED;" d="M1188.6,1303.5c23.3,0,42.1-18.8,42.1-41.9s-18.9-41.9-42.1-41.9c-23.3,0-42.1,18.8-42.1,41.9
						S1165.3,1303.5,1188.6,1303.5z"/>
					<path style="fill:#A8EFED;" d="M1185.5,1310.7c18.9,0,34.2-15.3,34.2-34.1c0-18.8-15.3-34.1-34.2-34.1s-34.2,15.3-34.2,34.1
						C1151.3,1295.4,1166.6,1310.7,1185.5,1310.7z"/>
				</g>
				<g>
					<path style="fill:#A8EFED;" d="M980,1202.2c18.8,0,34.1-15.2,34.1-33.9c0-18.7-15.3-33.9-34.1-33.9
						c-18.8,0-34.1,15.2-34.1,33.9S961.1,1202.2,980,1202.2z"/>
					<path style="fill:#A8EFED;" d="M1025,1195c23.3,0,42.1-18.8,42.1-41.9s-18.9-41.9-42.1-41.9c-23.3,0-42.1,18.8-42.1,41.9
						S1001.7,1195,1025,1195z"/>
					<path style="fill:#A8EFED;" d="M1021.9,1202.2c18.9,0,34.2-15.3,34.2-34.1c0-18.8-15.3-34.1-34.2-34.1s-34.2,15.3-34.2,34.1
						C987.7,1186.9,1003,1202.2,1021.9,1202.2z"/>
				</g>
			</g>
			<g>
				<path style="fill:#A8EFED;" d="M805.6,1046.2c18.8,0,34.1-15.2,34.1-33.9c0-18.7-15.3-33.9-34.1-33.9s-34.1,15.2-34.1,33.9
					S786.8,1046.2,805.6,1046.2z"/>
				<path style="fill:#A8EFED;" d="M850.6,1039c23.3,0,42.1-18.8,42.1-41.9c0-23.2-18.9-41.9-42.1-41.9c-23.3,0-42.1,18.7-42.1,41.9
					C808.5,1020.2,827.3,1039,850.6,1039z"/>
				<path style="fill:#A8EFED;" d="M885.5,1051.2c18.9,0,34.2-15.3,34.2-34.1c0-18.8-15.3-34.1-34.2-34.1
					c-18.9,0-34.2,15.3-34.2,34.1C851.3,1035.9,866.6,1051.2,885.5,1051.2z"/>
				<path style="fill:#A8EFED;" d="M1138,1000.7c18.9,0,34.2-15.3,34.2-34.1s-15.3-34.1-34.2-34.1s-34.2,15.3-34.2,34.1
					S1119.1,1000.7,1138,1000.7z"/>
				<path style="fill:#A8EFED;" d="M1172.3,1021.8c18.9,0,34.2-15.3,34.2-34.1s-15.3-34.1-34.2-34.1s-34.2,15.3-34.2,34.1
					C1138,1006.6,1153.4,1021.8,1172.3,1021.8z"/>
				<path style="fill:#A8EFED;" d="M1118,1034.7c18.9,0,34.2-15.3,34.2-34.1s-15.3-34.1-34.2-34.1s-34.2,15.3-34.2,34.1
					C1083.8,1019.5,1099.1,1034.7,1118,1034.7z"/>
				<path style="fill:#A8EFED;" d="M805.6,879.2c18.9,0,34.2-15.3,34.2-34.1S824.5,811,805.6,811c-18.9,0-34.2,15.3-34.2,34.1
					C771.3,864,786.7,879.2,805.6,879.2z"/>
				<path style="fill:#A8EFED;" d="M808.5,834.7c18.9,0,34.2-15.3,34.2-34.1s-15.3-34.1-34.2-34.1c-18.9,0-34.2,15.3-34.2,34.1
					S789.6,834.7,808.5,834.7z"/>
				<path style="fill:#A8EFED;" d="M846.5,867.8c18.9,0,34.2-15.3,34.2-34.1s-15.3-34.1-34.2-34.1c-18.9,0-34.2,15.3-34.2,34.1
					C812.3,852.6,827.6,867.8,846.5,867.8z"/>
				<path style="fill:#A8EFED;" d="M858.6,842.7c18.9,0,34.2-15.3,34.2-34.1s-15.3-34.1-34.2-34.1s-34.2,15.3-34.2,34.1
					C824.3,827.5,839.6,842.7,858.6,842.7z"/>
				<path style="fill:#A8EFED;" d="M886.5,860.2c18.9,0,34.2-15.3,34.2-34.1S905.4,792,886.5,792c-18.9,0-34.2,15.3-34.2,34.1
					C852.3,845,867.6,860.2,886.5,860.2z"/>
				<path style="fill:#A8EFED;" d="M1103.8,714.7c18.9,0,34.2-15.3,34.2-34.1s-15.3-34.1-34.2-34.1s-34.2,15.3-34.2,34.1
					S1084.9,714.7,1103.8,714.7z"/>
				<path style="fill:#A8EFED;" d="M1048.9,677.7c18.9,0,34.2-15.3,34.2-34.1s-15.3-34.1-34.2-34.1s-34.2,15.3-34.2,34.1
					C1014.6,662.4,1030,677.7,1048.9,677.7z"/>
				<path style="fill:#A8EFED;" d="M1052,714.7c18.9,0,34.2-15.3,34.2-34.1s-15.3-34.1-34.2-34.1s-34.2,15.3-34.2,34.1
					S1033.1,714.7,1052,714.7z"/>
				<path style="fill:#A8EFED;" d="M1016.5,720.2c18.9,0,34.2-15.3,34.2-34.1s-15.3-34.1-34.2-34.1s-34.2,15.3-34.2,34.1
					C982.3,705,997.6,720.2,1016.5,720.2z"/>
				<path style="fill:#A8EFED;" d="M899.5,550c18.9,0,34.2-15.3,34.2-34.1s-15.3-34.1-34.2-34.1c-18.9,0-34.2,15.3-34.2,34.1
					C865.3,534.8,880.6,550,899.5,550z"/>
				<path style="fill:#A8EFED;" d="M924.2,520.7c18.9,0,34.2-15.3,34.2-34.1c0-18.8-15.3-34.1-34.2-34.1
					c-18.9,0-34.2,15.3-34.2,34.1C890,505.5,905.3,520.7,924.2,520.7z"/>
				<path style="fill:#A8EFED;" d="M959.9,555.4c18.9,0,34.2-15.3,34.2-34.1s-15.3-34.1-34.2-34.1c-18.9,0-34.2,15.3-34.2,34.1
					C925.7,540.2,941,555.4,959.9,555.4z"/>
				<path style="fill:#A8EFED;" d="M919.7,554.4c18.9,0,34.2-15.3,34.2-34.1s-15.3-34.1-34.2-34.1c-18.9,0-34.2,15.3-34.2,34.1
					C885.5,539.2,900.8,554.4,919.7,554.4z"/>
				<path style="fill:#A8EFED;" d="M862.1,550.1c18.9,0,34.2-15.3,34.2-34.1s-15.3-34.1-34.2-34.1c-18.9,0-34.3,15.3-34.3,34.1
					C827.8,534.9,843.1,550.1,862.1,550.1z"/>
				<path style="fill:#A8EFED;" d="M865.3,521.4c18.9,0,34.2-15.3,34.2-34.1c0-18.8-15.3-34.1-34.2-34.1
					c-18.9,0-34.2,15.3-34.2,34.1C831,506.2,846.3,521.4,865.3,521.4z"/>
				<path style="fill:#A8EFED;" d="M1099.5,193c18.9,0,34.2-15.3,34.2-34.1s-15.3-34.1-34.2-34.1s-34.2,15.3-34.2,34.1
					S1080.6,193,1099.5,193z"/>
				<path style="fill:#A8EFED;" d="M1135.2,227.7c18.9,0,34.2-15.3,34.2-34.1s-15.3-34.1-34.2-34.1s-34.2,15.3-34.2,34.1
					C1100.9,212.4,1116.3,227.7,1135.2,227.7z"/>
				<path style="fill:#A8EFED;" d="M1095,226.7c18.9,0,34.2-15.3,34.2-34.1s-15.3-34.1-34.2-34.1s-34.2,15.3-34.2,34.1
					S1076.1,226.7,1095,226.7z"/>
				<path style="fill:#A8EFED;" d="M1037.3,222.4c18.9,0,34.2-15.3,34.2-34.1s-15.3-34.1-34.2-34.1c-18.9,0-34.2,15.3-34.2,34.1
					S1018.4,222.4,1037.3,222.4z"/>
				<path style="fill:#A8EFED;" d="M1040.5,193.7c18.9,0,34.2-15.3,34.2-34.1s-15.3-34.1-34.2-34.1s-34.2,15.3-34.2,34.1
					S1021.6,193.7,1040.5,193.7z"/>
				<path style="fill:#A8EFED;" d="M920.3,131.6c18.9,0,34.2-15.3,34.2-34.1s-15.3-34.1-34.2-34.1c-18.9,0-34.2,15.3-34.2,34.1
					S901.4,131.6,920.3,131.6z"/>
				<path style="fill:#A8EFED;" d="M1083.1,72.9c18.9,0,34.2-15.3,34.2-34.1S1102,4.7,1083.1,4.7s-34.2,15.3-34.2,34.1
					C1048.9,57.7,1064.2,72.9,1083.1,72.9z"/>
				<path style="fill:#A8EFED;" d="M1058.8,44.8c18.9,0,34.2-15.3,34.2-34.1s-15.3-34.1-34.2-34.1c-18.9,0-34.2,15.3-34.2,34.1
					S1039.9,44.8,1058.8,44.8z"/>
				<path style="fill:#A8EFED;" d="M1031.2,77.8c18.9,0,34.2-15.3,34.2-34.1s-15.3-34.1-34.2-34.1c-18.9,0-34.2,15.3-34.2,34.1
					C997,62.6,1012.3,77.8,1031.2,77.8z"/>
				<path style="fill:#A8EFED;" d="M956,166.2c18.9,0,34.2-15.3,34.2-34.1S974.9,98,956,98c-18.9,0-34.2,15.3-34.2,34.1
					C921.8,151,937.1,166.2,956,166.2z"/>
				<path style="fill:#A8EFED;" d="M915.8,165.2c18.9,0,34.2-15.3,34.2-34.1S934.7,97,915.8,97c-18.9,0-34.2,15.3-34.2,34.1
					C881.6,150,896.9,165.2,915.8,165.2z"/>
				<path style="fill:#A8EFED;" d="M874.1,175.2c18.9,0,34.2-15.3,34.2-34.1S893,107,874.1,107s-34.2,15.3-34.2,34.1
					C839.8,159.9,855.2,175.2,874.1,175.2z"/>
				<path style="fill:#A8EFED;" d="M886.5,141.1c18.9,0,34.2-15.3,34.2-34.1s-15.3-34.1-34.2-34.1c-18.9,0-34.2,15.3-34.2,34.1
					S867.6,141.1,886.5,141.1z"/>
				<path style="fill:#A8EFED;" d="M1103.8,503.9c18.9,0,34.2-15.3,34.2-34.1c0-18.8-15.3-34.1-34.2-34.1s-34.2,15.3-34.2,34.1
					C1069.6,488.7,1084.9,503.9,1103.8,503.9z"/>
				<path style="fill:#A8EFED;" d="M1153.5,477.2c18.9,0,34.2-15.3,34.2-34.1c0-18.8-15.3-34.1-34.2-34.1s-34.2,15.3-34.2,34.1
					C1119.3,461.9,1134.6,477.2,1153.5,477.2z"/>
				<path style="fill:#A8EFED;" d="M1103.8,456.8c18.9,0,34.2-15.3,34.2-34.1c0-18.8-15.3-34.1-34.2-34.1s-34.2,15.3-34.2,34.1
					C1069.6,441.6,1084.9,456.8,1103.8,456.8z"/>
				<path style="fill:#A8EFED;" d="M805.6,379.4c18.9,0,34.2-15.3,34.2-34.1c0-18.8-15.3-34.1-34.2-34.1
					c-18.9,0-34.2,15.3-34.2,34.1C771.3,364.1,786.7,379.4,805.6,379.4z"/>
				<path style="fill:#A8EFED;" d="M817.2,345.6c18.9,0,34.2-15.3,34.2-34.1c0-18.8-15.3-34.1-34.2-34.1
					c-18.9,0-34.2,15.3-34.2,34.1C783,330.3,798.3,345.6,817.2,345.6z"/>
				<path style="fill:#A8EFED;" d="M852.3,374.5c18.9,0,34.2-15.3,34.2-34.1c0-18.8-15.3-34.1-34.2-34.1S818,321.6,818,340.5
					C818,359.3,833.3,374.5,852.3,374.5z"/>
				<path style="fill:#A8EFED;" d="M853,1060.2c18.9,0,34.2-15.3,34.2-34.1c0-18.8-15.3-34.1-34.2-34.1c-18.9,0-34.2,15.3-34.2,34.1
					C818.8,1045,834.1,1060.2,853,1060.2z"/>
			</g>
		</g>
	</g>
	<path style="fill:#FFF9D5;" d="M-107.6,1680.9l2208.1,67.8l164.2,120.5H-287.9L-107.6,1680.9z"/>
	<g>
		<ellipse style="fill:#683F28;" cx="956.7" cy="1777.2" rx="28.5" ry="7.5"/>
		<path style="fill:#00F59A;" d="M993.5,1652c0,0-4.6-42.8,48.2-69.7C1037.4,1610.3,1031.3,1667,993.5,1652z"/>
		<path style="fill:#00F59A;" d="M984.8,1481c0,0-4.6-42.8,48.2-69.7C1028.7,1439.3,1022.6,1496,984.8,1481z"/>
		<path style="fill:#438C25;" d="M984.5,1478.2c0,0-31.2,171.4-33.5,296.6c7.9,4.3,8.7,5.4,15.1,0c0-27.5,10.7-206.3,31.6-292
			C999.1,1469.7,984.5,1478.2,984.5,1478.2z"/>
		<path style="fill:#438C25;" d="M918.7,1633c40,37.4,30.7,37.4,41.6,51.6c6.6-0.6,6.7-1.6,10.6-8.1c-43.2-57.9-56.6-59.4-56.6-59.4
			S912.4,1627,918.7,1633z"/>
		<path style="fill:#438C25;" d="M991.9,1653c-23.7,49.4-26.5,40.5-36.8,55.2c2.6,6.1,3.6,5.9,10.9,7.7
			c42.3-58.6,39.7-71.8,39.7-71.8S995.8,1645.3,991.9,1653z"/>
		<path style="fill:#00F59A;" d="M855.7,1579.3c59,5,70.9,46.3,70.9,46.3C897.2,1653.8,870.2,1603.6,855.7,1579.3z"/>
	</g>
</g>
<g id="EPISODES">
	<g id="OPEN-1">
		<rect x="978.2" y="1569.3" style="fill:#FFFFFF;fill-opacity:0;" width="92.3" height="98.3"/>
	</g>
	<g id="OPEN-2">
		<rect x="844.1" y="1561.7" style="fill:#FFFFFF;fill-opacity:0;" width="94.1" height="102.5"/>
	</g>
	<g id="OPEN-3-1">
		<rect x="960.1" y="1396.2" style="fill:#FFFFFF;fill-opacity:0;" width="94.1" height="102.5"/>
	</g>
</g>
</svg>
