<?xml version="1.0" encoding="utf-8"?>
<!-- Generator: Adobe Illustrator 22.0.0, SVG Export Plug-In . SVG Version: 6.00 Build 0)  -->
<svg version="1.1" id="Layer_1" xmlns="http://www.w3.org/2000/svg" xmlns:xlink="http://www.w3.org/1999/xlink" x="0px" y="0px"
	 viewBox="0 0 1976.9 1832.7" style="enable-background:new 0 0 1976.9 1832.7;" xml:space="preserve">
<g id="Layer_1_1_">
	<path style="fill:#B5F7F5;" d="M2016.3,0H-29.5v1767.7h2045.7L2016.3,0L2016.3,0z"/>
	<g>
		<path style="fill:#A8EFED;" d="M773.1,1535.8c20.4,0,37-16.3,37-36.5s-16.6-36.5-37-36.5s-37,16.3-37,36.5
			C736.1,1519.4,752.7,1535.8,773.1,1535.8z"/>
		<g>
			<path style="fill:#A8EFED;" d="M1055.4,1467.8c28.4,0,51.3-22.9,51.3-51.1s-23-51.1-51.3-51.1c-28.4,0-51.3,22.9-51.3,51.1
				C1004.1,1444.9,1027.1,1467.8,1055.4,1467.8z"/>
			<path style="fill:#A8EFED;" d="M1123.3,1457c35.1,0,63.5-28.3,63.5-63.1c0-34.9-28.4-63.1-63.5-63.1s-63.5,28.3-63.5,63.1
				S1088.2,1457,1123.3,1457z"/>
			<path style="fill:#A8EFED;" d="M1176.7,1467.8c29.5,0,53.4-23.8,53.4-53.1c0-29.3-23.9-53.1-53.4-53.1s-53.4,23.8-53.4,53.1
				C1123.3,1444,1147.2,1467.8,1176.7,1467.8z"/>
			<path style="fill:#A8EFED;" d="M1118.6,1467.8c28.5,0,51.6-23,51.6-51.3s-23.1-51.4-51.6-51.4s-51.6,23-51.6,51.3
				S1090.2,1467.8,1118.6,1467.8z"/>
		</g>
		<g>
			<path style="fill:#A8EFED;" d="M762.2,1396.8c18.8,0,34.1-15.2,34.1-33.9S781,1329,762.2,1329s-34.1,15.2-34.1,33.9
				S743.4,1396.8,762.2,1396.8z"/>
			<path style="fill:#A8EFED;" d="M807.2,1389.6c23.3,0,42.1-18.8,42.1-41.9c0-23.2-18.9-41.9-42.1-41.9
				c-23.3,0-42.1,18.8-42.1,41.9S783.9,1389.6,807.2,1389.6z"/>
			<path style="fill:#A8EFED;" d="M842.7,1396.8c19.6,0,35.4-15.8,35.4-35.3s-15.9-35.3-35.4-35.3c-19.6,0-35.4,15.8-35.4,35.3
				C807.2,1381,823.1,1396.8,842.7,1396.8z"/>
			<path style="fill:#A8EFED;" d="M804.1,1396.8c18.9,0,34.2-15.3,34.2-34.1c0-18.8-15.3-34.1-34.2-34.1s-34.2,15.3-34.2,34.1
				C769.9,1381.5,785.2,1396.8,804.1,1396.8z"/>
		</g>
		<path style="fill:#A8EFED;" d="M765.9,1235.8c29.9,0,54.2-18.4,54.2-41s-24.3-41-54.2-41s-54.2,18.4-54.2,41
			S736,1235.8,765.9,1235.8z"/>
		<path style="fill:#A8EFED;" d="M811.5,1242.8c25.2,0,45.6-15.4,45.6-34.5s-20.4-34.5-45.6-34.5c-25.2,0-45.6,15.4-45.6,34.5
			C765.9,1227.3,786.3,1242.8,811.5,1242.8z"/>
		<path style="fill:#A8EFED;" d="M761.9,1242.8c24.3,0,44.1-14.9,44.1-33.3s-19.7-33.4-44.1-33.4c-24.3,0-44.1,14.9-44.1,33.3
			S737.6,1242.8,761.9,1242.8z"/>
		<path style="fill:#A8EFED;" d="M804.1,1542.8c17.1,0,31-13.9,31-31s-13.9-31-31-31s-31,13.9-31,31S787,1542.8,804.1,1542.8z"/>
		<path style="fill:#A8EFED;" d="M770.1,1542.8c16.6,0,30-13.4,30-30s-13.4-30-30-30s-30,13.4-30,30
			C740.1,1529.3,753.5,1542.8,770.1,1542.8z"/>
		<g>
			<path style="fill:#A8EFED;" d="M1124.2,1266.8c18.8,0,34.1-15.2,34.1-33.9c0-18.7-15.3-33.9-34.1-33.9
				c-18.8,0-34.1,15.2-34.1,33.9S1105.4,1266.8,1124.2,1266.8z"/>
			<path style="fill:#A8EFED;" d="M1169.2,1259.6c23.3,0,42.1-18.8,42.1-41.9s-18.9-41.9-42.1-41.9c-23.3,0-42.1,18.8-42.1,41.9
				S1145.9,1259.6,1169.2,1259.6z"/>
			<path style="fill:#A8EFED;" d="M1166.1,1266.8c18.9,0,34.2-15.3,34.2-34.1c0-18.8-15.3-34.1-34.2-34.1s-34.2,15.3-34.2,34.1
				S1147.2,1266.8,1166.1,1266.8z"/>
		</g>
		<g>
			<path style="fill:#A8EFED;" d="M960.6,1158.3c18.8,0,34.1-15.2,34.1-33.9c0-18.7-15.3-33.9-34.1-33.9s-34.1,15.2-34.1,33.9
				S941.7,1158.3,960.6,1158.3z"/>
			<path style="fill:#A8EFED;" d="M1005.6,1151.1c23.3,0,42.1-18.8,42.1-41.9s-18.9-41.9-42.1-41.9c-23.3,0-42.1,18.8-42.1,41.9
				S982.3,1151.1,1005.6,1151.1z"/>
			<path style="fill:#A8EFED;" d="M1002.5,1158.3c18.9,0,34.2-15.3,34.2-34.1c0-18.8-15.3-34.1-34.2-34.1s-34.2,15.3-34.2,34.1
				C968.3,1143,983.6,1158.3,1002.5,1158.3z"/>
		</g>
		<g>
			<g>
				<path style="fill:#A8EFED;" d="M1048,964.9c28.4,0,51.3-22.9,51.3-51.1s-23-51.1-51.3-51.1c-28.4,0-51.3,22.9-51.3,51.1
					S1019.7,964.9,1048,964.9z"/>
				<path style="fill:#A8EFED;" d="M1115.9,954.1c35.1,0,63.5-28.3,63.5-63.1c0-34.9-28.4-63.1-63.5-63.1s-63.5,28.3-63.5,63.1
					S1080.8,954.1,1115.9,954.1z"/>
				<path style="fill:#A8EFED;" d="M1169.3,964.9c29.5,0,53.4-23.8,53.4-53.1s-23.9-53.1-53.4-53.1s-53.4,23.8-53.4,53.1
					C1115.9,941.1,1139.8,964.9,1169.3,964.9z"/>
				<path style="fill:#A8EFED;" d="M1111.2,964.9c28.5,0,51.6-23,51.6-51.3s-23.1-51.4-51.6-51.4s-51.6,23-51.6,51.3
					S1082.8,964.9,1111.2,964.9z"/>
			</g>
		</g>
		<g>
			<g>
				<path style="fill:#A8EFED;" d="M501.8,734.9c28.4,0,51.3-22.9,51.3-51.1s-23-51.1-51.3-51.1c-28.4,0-51.3,22.9-51.3,51.1
					S473.5,734.9,501.8,734.9z"/>
				<path style="fill:#A8EFED;" d="M569.7,724.1c35.1,0,63.5-28.3,63.5-63.1c0-34.9-28.4-63.1-63.5-63.1s-63.5,28.3-63.5,63.1
					S534.6,724.1,569.7,724.1z"/>
				<path style="fill:#A8EFED;" d="M623.1,734.9c29.5,0,53.4-23.8,53.4-53.1s-23.9-53.1-53.4-53.1s-53.4,23.8-53.4,53.1
					C569.7,711.1,593.6,734.9,623.1,734.9z"/>
				<path style="fill:#A8EFED;" d="M565,734.9c28.5,0,51.6-23,51.6-51.3s-23.1-51.4-51.6-51.4s-51.6,23-51.6,51.3
					S536.6,734.9,565,734.9z"/>
			</g>
		</g>
		<g>
			<g>
				<path style="fill:#A8EFED;" d="M1548.8,518.9c28.4,0,51.3-22.9,51.3-51.1s-23-51.1-51.3-51.1c-28.4,0-51.3,22.9-51.3,51.1
					C1497.5,496,1520.5,518.9,1548.8,518.9z"/>
				<path style="fill:#A8EFED;" d="M1616.7,508.1c35.1,0,63.5-28.3,63.5-63.1c0-34.9-28.4-63.1-63.5-63.1s-63.5,28.3-63.5,63.1
					S1581.6,508.1,1616.7,508.1z"/>
				<path style="fill:#A8EFED;" d="M1670.1,518.9c29.5,0,53.4-23.8,53.4-53.1c0-29.3-23.9-53.1-53.4-53.1s-53.4,23.8-53.4,53.1
					C1616.7,495.1,1640.6,518.9,1670.1,518.9z"/>
				<path style="fill:#A8EFED;" d="M1612,518.9c28.5,0,51.6-23,51.6-51.3s-23.1-51.4-51.6-51.4s-51.6,23-51.6,51.3
					S1583.6,518.9,1612,518.9z"/>
			</g>
		</g>
		<g>
			<g>
				<path style="fill:#A8EFED;" d="M1022.2,381.9c28.4,0,51.3-22.9,51.3-51.1s-23-51.1-51.3-51.1c-28.4,0-51.3,22.9-51.3,51.1
					S993.9,381.9,1022.2,381.9z"/>
				<path style="fill:#A8EFED;" d="M1090.1,371.1c35.1,0,63.5-28.3,63.5-63.1c0-34.9-28.4-63.1-63.5-63.1s-63.5,28.3-63.5,63.1
					S1055,371.1,1090.1,371.1z"/>
				<path style="fill:#A8EFED;" d="M1143.5,381.9c29.5,0,53.4-23.8,53.4-53.1c0-29.3-23.9-53.1-53.4-53.1s-53.4,23.8-53.4,53.1
					S1114,381.9,1143.5,381.9z"/>
				<path style="fill:#A8EFED;" d="M1085.4,381.9c28.5,0,51.6-23,51.6-51.3s-23.1-51.4-51.6-51.4s-51.6,23-51.6,51.3
					S1057,381.9,1085.4,381.9z"/>
			</g>
		</g>
		<g>
			<g>
				<path style="fill:#A8EFED;" d="M240.8,299.4c28.4,0,51.3-22.9,51.3-51.1s-23-51.1-51.3-51.1c-28.4,0-51.3,22.9-51.3,51.1
					S212.5,299.4,240.8,299.4z"/>
				<path style="fill:#A8EFED;" d="M308.7,288.6c35.1,0,63.5-28.3,63.5-63.1c0-34.9-28.4-63.1-63.5-63.1s-63.5,28.3-63.5,63.1
					S273.6,288.6,308.7,288.6z"/>
				<path style="fill:#A8EFED;" d="M362.1,299.4c29.5,0,53.4-23.8,53.4-53.1s-23.9-53.1-53.4-53.1s-53.4,23.8-53.4,53.1
					S332.6,299.4,362.1,299.4z"/>
				<path style="fill:#A8EFED;" d="M304,299.4c28.5,0,51.6-23,51.6-51.3s-23.1-51.4-51.6-51.4s-51.6,23-51.6,51.3
					S275.6,299.4,304,299.4z"/>
			</g>
		</g>
		<g>
			<path style="fill:#A8EFED;" d="M950.3,972.1c28.4,0,51.3-22.9,51.3-51.1s-23-51.1-51.3-51.1c-28.4,0-51.3,22.9-51.3,51.1
				C899,949.2,922,972.1,950.3,972.1z"/>
			<path style="fill:#A8EFED;" d="M1018.2,961.3c35.1,0,63.5-28.3,63.5-63.1c0-34.9-28.4-63.1-63.5-63.1s-63.5,28.3-63.5,63.1
				S983.1,961.3,1018.2,961.3z"/>
			<path style="fill:#A8EFED;" d="M1071.6,972.1c29.5,0,53.4-23.8,53.4-53.1s-23.9-53.1-53.4-53.1s-53.4,23.8-53.4,53.1
				C1018.2,948.3,1042.1,972.1,1071.6,972.1z"/>
			<path style="fill:#A8EFED;" d="M1013.5,972.1c28.5,0,51.6-23,51.6-51.3s-23.1-51.4-51.6-51.4s-51.6,23-51.6,51.3
				S985.1,972.1,1013.5,972.1z"/>
		</g>
		<g>
			<path style="fill:#A8EFED;" d="M110.5,1656.9c28.4,0,51.3-22.9,51.3-51.1s-23-51.1-51.3-51.1c-28.4,0-51.3,22.9-51.3,51.1
				S82.2,1656.9,110.5,1656.9z"/>
			<path style="fill:#A8EFED;" d="M178.4,1646.1c35.1,0,63.5-28.3,63.5-63.1c0-34.9-28.4-63.1-63.5-63.1s-63.5,28.3-63.5,63.1
				S143.3,1646.1,178.4,1646.1z"/>
			<path style="fill:#A8EFED;" d="M231.8,1656.9c29.5,0,53.4-23.8,53.4-53.1c0-29.3-23.9-53.1-53.4-53.1s-53.4,23.8-53.4,53.1
				C178.4,1633.1,202.3,1656.9,231.8,1656.9z"/>
			<path style="fill:#A8EFED;" d="M173.7,1656.9c28.5,0,51.6-23,51.6-51.3s-23.1-51.4-51.6-51.4s-51.6,23-51.6,51.3
				S145.3,1656.9,173.7,1656.9z"/>
		</g>
		<g>
			<path style="fill:#A8EFED;" d="M1601.9,1469.2c28.4,0,51.3-22.9,51.3-51.1s-23-51.1-51.3-51.1c-28.4,0-51.3,22.9-51.3,51.1
				C1550.6,1446.3,1573.6,1469.2,1601.9,1469.2z"/>
			<path style="fill:#A8EFED;" d="M1669.8,1458.4c35.1,0,63.5-28.3,63.5-63.1c0-34.9-28.4-63.1-63.5-63.1s-63.5,28.3-63.5,63.1
				S1634.7,1458.4,1669.8,1458.4z"/>
			<path style="fill:#A8EFED;" d="M1723.2,1469.2c29.5,0,53.4-23.8,53.4-53.1c0-29.3-23.9-53.1-53.4-53.1s-53.4,23.8-53.4,53.1
				C1669.8,1445.4,1693.7,1469.2,1723.2,1469.2z"/>
			<path style="fill:#A8EFED;" d="M1665.1,1469.2c28.5,0,51.6-23,51.6-51.3s-23.1-51.4-51.6-51.4s-51.6,23-51.6,51.3
				S1636.7,1469.2,1665.1,1469.2z"/>
		</g>
		<g>
			<path style="fill:#A8EFED;" d="M381.8,1409.7c28.4,0,51.3-22.9,51.3-51.1s-23-51.1-51.3-51.1c-28.4,0-51.3,22.9-51.3,51.1
				C330.5,1386.8,353.5,1409.7,381.8,1409.7z"/>
			<path style="fill:#A8EFED;" d="M449.7,1398.9c35.1,0,63.5-28.3,63.5-63.1c0-34.9-28.4-63.1-63.5-63.1s-63.5,28.3-63.5,63.1
				S414.6,1398.9,449.7,1398.9z"/>
			<path style="fill:#A8EFED;" d="M503.1,1409.7c29.5,0,53.4-23.8,53.4-53.1c0-29.3-23.9-53.1-53.4-53.1s-53.4,23.8-53.4,53.1
				C449.7,1385.9,473.6,1409.7,503.1,1409.7z"/>
			<path style="fill:#A8EFED;" d="M445,1409.7c28.5,0,51.6-23,51.6-51.3S473.5,1307,445,1307s-51.6,23-51.6,51.3
				S416.6,1409.7,445,1409.7z"/>
		</g>
		<g>
			<path style="fill:#A8EFED;" d="M93.9,1066.9c28.4,0,51.3-22.9,51.3-51.1s-23-51.1-51.3-51.1c-28.4,0-51.3,22.9-51.3,51.1
				C42.6,1044,65.6,1066.9,93.9,1066.9z"/>
			<path style="fill:#A8EFED;" d="M161.8,1056.1c35.1,0,63.5-28.3,63.5-63.1c0-34.9-28.4-63.1-63.5-63.1S98.3,958.2,98.3,993
				C98.3,1027.8,126.7,1056.1,161.8,1056.1z"/>
			<path style="fill:#A8EFED;" d="M215.2,1066.9c29.5,0,53.4-23.8,53.4-53.1c0-29.3-23.9-53.1-53.4-53.1s-53.4,23.8-53.4,53.1
				C161.8,1043.1,185.7,1066.9,215.2,1066.9z"/>
			<path style="fill:#A8EFED;" d="M157.1,1066.9c28.5,0,51.6-23,51.6-51.3s-23.1-51.4-51.6-51.4s-51.6,23-51.6,51.3
				C105.5,1043.8,128.7,1066.9,157.1,1066.9z"/>
		</g>
		<g>
			<path style="fill:#A8EFED;" d="M1699,1234.1c28.4,0,51.3-22.9,51.3-51.1s-23-51.1-51.3-51.1c-28.4,0-51.3,22.9-51.3,51.1
				S1670.7,1234.1,1699,1234.1z"/>
			<path style="fill:#A8EFED;" d="M1766.9,1223.3c35.1,0,63.5-28.3,63.5-63.1c0-34.9-28.4-63.1-63.5-63.1s-63.5,28.3-63.5,63.1
				S1731.8,1223.3,1766.9,1223.3z"/>
			<path style="fill:#A8EFED;" d="M1820.3,1234.1c29.5,0,53.4-23.8,53.4-53.1c0-29.3-23.9-53.1-53.4-53.1s-53.4,23.8-53.4,53.1
				C1766.9,1210.3,1790.8,1234.1,1820.3,1234.1z"/>
			<path style="fill:#A8EFED;" d="M1762.2,1234.1c28.5,0,51.6-23,51.6-51.3s-23.1-51.4-51.6-51.4s-51.6,23-51.6,51.3
				S1733.8,1234.1,1762.2,1234.1z"/>
		</g>
		<g>
			<path style="fill:#A8EFED;" d="M1395.1,1672.9c28.4,0,51.3-22.9,51.3-51.1s-23-51.1-51.3-51.1c-28.4,0-51.3,22.9-51.3,51.1
				C1343.8,1650,1366.8,1672.9,1395.1,1672.9z"/>
			<path style="fill:#A8EFED;" d="M1463,1662.1c35.1,0,63.5-28.3,63.5-63.1c0-34.9-28.4-63.1-63.5-63.1s-63.5,28.3-63.5,63.1
				S1427.9,1662.1,1463,1662.1z"/>
			<path style="fill:#A8EFED;" d="M1516.4,1672.9c29.5,0,53.4-23.8,53.4-53.1c0-29.3-23.9-53.1-53.4-53.1s-53.4,23.8-53.4,53.1
				S1486.9,1672.9,1516.4,1672.9z"/>
			<path style="fill:#A8EFED;" d="M1458.3,1672.9c28.5,0,51.6-23,51.6-51.3s-23.1-51.4-51.6-51.4s-51.6,23-51.6,51.3
				S1429.9,1672.9,1458.3,1672.9z"/>
		</g>
		<g>
			<path style="fill:#A8EFED;" d="M927.1,594.7c18.9,0,34.2-15.3,34.2-34.1s-15.3-34.1-34.2-34.1s-34.2,15.3-34.2,34.1
				S908.2,594.7,927.1,594.7z"/>
			<path style="fill:#A8EFED;" d="M961.4,615.8c18.9,0,34.2-15.3,34.2-34.1s-15.3-34.1-34.2-34.1s-34.2,15.3-34.2,34.1
				C927.1,600.6,942.5,615.8,961.4,615.8z"/>
			<path style="fill:#A8EFED;" d="M907.1,628.7c18.9,0,34.2-15.3,34.2-34.1s-15.3-34.1-34.2-34.1s-34.2,15.3-34.2,34.1
				C872.9,613.5,888.2,628.7,907.1,628.7z"/>
		</g>
		<g>
			<path style="fill:#A8EFED;" d="M267.8,513.2c18.9,0,34.2-15.3,34.2-34.1S286.7,445,267.8,445s-34.2,15.3-34.2,34.1
				S248.9,513.2,267.8,513.2z"/>
			<path style="fill:#A8EFED;" d="M302.1,534.3c18.9,0,34.2-15.3,34.2-34.1c0-18.8-15.3-34.1-34.2-34.1s-34.2,15.3-34.2,34.1
				C267.8,519.1,283.2,534.3,302.1,534.3z"/>
			<path style="fill:#A8EFED;" d="M247.8,547.2c18.9,0,34.2-15.3,34.2-34.1S266.7,479,247.8,479s-34.2,15.3-34.2,34.1
				C213.6,532,228.9,547.2,247.8,547.2z"/>
		</g>
		<g>
			<path style="fill:#A8EFED;" d="M226.4,792.3c18.9,0,34.2-15.3,34.2-34.1s-15.3-34.1-34.2-34.1s-34.2,15.3-34.2,34.1
				S207.5,792.3,226.4,792.3z"/>
			<path style="fill:#A8EFED;" d="M260.7,813.4c18.9,0,34.2-15.3,34.2-34.1s-15.3-34.1-34.2-34.1s-34.2,15.3-34.2,34.1
				C226.4,798.2,241.8,813.4,260.7,813.4z"/>
			<path style="fill:#A8EFED;" d="M206.4,826.3c18.9,0,34.2-15.3,34.2-34.1s-15.3-34.1-34.2-34.1s-34.2,15.3-34.2,34.1
				C172.2,811.1,187.5,826.3,206.4,826.3z"/>
		</g>
		<g>
			<path style="fill:#A8EFED;" d="M443.4,1594.2c18.9,0,34.2-15.3,34.2-34.1c0-18.8-15.3-34.1-34.2-34.1s-34.2,15.3-34.2,34.1
				C409.2,1578.9,424.5,1594.2,443.4,1594.2z"/>
			<path style="fill:#A8EFED;" d="M477.7,1615.3c18.9,0,34.2-15.3,34.2-34.1c0-18.8-15.3-34.1-34.2-34.1s-34.2,15.3-34.2,34.1
				C443.4,1600.1,458.8,1615.3,477.7,1615.3z"/>
			<path style="fill:#A8EFED;" d="M423.4,1628.2c18.9,0,34.2-15.3,34.2-34.1c0-18.8-15.3-34.1-34.2-34.1s-34.2,15.3-34.2,34.1
				C389.2,1613,404.5,1628.2,423.4,1628.2z"/>
		</g>
		<g>
			<path style="fill:#A8EFED;" d="M1766,1635.5c18.9,0,34.2-15.3,34.2-34.1c0-18.8-15.3-34.1-34.2-34.1s-34.2,15.3-34.2,34.1
				S1747.1,1635.5,1766,1635.5z"/>
			<path style="fill:#A8EFED;" d="M1800.3,1656.6c18.9,0,34.2-15.3,34.2-34.1c0-18.8-15.3-34.1-34.2-34.1s-34.2,15.3-34.2,34.1
				C1766,1641.4,1781.4,1656.6,1800.3,1656.6z"/>
			<path style="fill:#A8EFED;" d="M1746,1669.5c18.9,0,34.2-15.3,34.2-34.1c0-18.8-15.3-34.1-34.2-34.1s-34.2,15.3-34.2,34.1
				C1711.8,1654.3,1727.1,1669.5,1746,1669.5z"/>
		</g>
		<g>
			<path style="fill:#A8EFED;" d="M1457.3,1276.7c18.9,0,34.2-15.3,34.2-34.1c0-18.8-15.3-34.1-34.2-34.1s-34.2,15.3-34.2,34.1
				C1423.1,1261.4,1438.4,1276.7,1457.3,1276.7z"/>
			<path style="fill:#A8EFED;" d="M1491.6,1297.8c18.9,0,34.2-15.3,34.2-34.1c0-18.8-15.3-34.1-34.2-34.1s-34.2,15.3-34.2,34.1
				C1457.3,1282.6,1472.7,1297.8,1491.6,1297.8z"/>
			<path style="fill:#A8EFED;" d="M1437.3,1310.7c18.9,0,34.2-15.3,34.2-34.1c0-18.8-15.3-34.1-34.2-34.1s-34.2,15.3-34.2,34.1
				C1403.1,1295.5,1418.4,1310.7,1437.3,1310.7z"/>
		</g>
		<g>
			<path style="fill:#A8EFED;" d="M182.4,1226.6c18.9,0,34.2-15.3,34.2-34.1c0-18.8-15.3-34.1-34.2-34.1s-34.2,15.3-34.2,34.1
				C148.2,1211.3,163.5,1226.6,182.4,1226.6z"/>
			<path style="fill:#A8EFED;" d="M216.7,1247.7c18.9,0,34.2-15.3,34.2-34.1c0-18.8-15.3-34.1-34.2-34.1s-34.2,15.3-34.2,34.1
				C182.4,1232.5,197.8,1247.7,216.7,1247.7z"/>
			<path style="fill:#A8EFED;" d="M162.4,1260.6c18.9,0,34.2-15.3,34.2-34.1c0-18.8-15.3-34.1-34.2-34.1s-34.2,15.3-34.2,34.1
				C128.2,1245.4,143.5,1260.6,162.4,1260.6z"/>
		</g>
		<g>
			<path style="fill:#A8EFED;" d="M1449.1,143.6c18.9,0,34.2-15.3,34.2-34.1s-15.3-34.1-34.2-34.1s-34.2,15.3-34.2,34.1
				S1430.2,143.6,1449.1,143.6z"/>
			<path style="fill:#A8EFED;" d="M1483.4,164.7c18.9,0,34.2-15.3,34.2-34.1s-15.3-34.1-34.2-34.1s-34.2,15.3-34.2,34.1
				C1449.1,149.5,1464.5,164.7,1483.4,164.7z"/>
			<path style="fill:#A8EFED;" d="M1429.1,177.6c18.9,0,34.2-15.3,34.2-34.1s-15.3-34.1-34.2-34.1s-34.2,15.3-34.2,34.1
				C1394.9,162.4,1410.2,177.6,1429.1,177.6z"/>
		</g>
		<g>
			<path style="fill:#A8EFED;" d="M700.6,230.6c18.9,0,34.2-15.3,34.2-34.1s-15.3-34.1-34.2-34.1s-34.2,15.3-34.2,34.1
				S681.7,230.6,700.6,230.6z"/>
			<path style="fill:#A8EFED;" d="M734.9,251.7c18.9,0,34.2-15.3,34.2-34.1s-15.3-34.1-34.2-34.1s-34.2,15.3-34.2,34.1
				C700.6,236.5,716,251.7,734.9,251.7z"/>
			<path style="fill:#A8EFED;" d="M680.6,264.6c18.9,0,34.2-15.3,34.2-34.1s-15.3-34.1-34.2-34.1s-34.2,15.3-34.2,34.1
				C646.4,249.4,661.7,264.6,680.6,264.6z"/>
		</g>
		<g>
			<path style="fill:#A8EFED;" d="M1604.8,684c18.9,0,34.2-15.3,34.2-34.1s-15.3-34.1-34.2-34.1s-34.2,15.3-34.2,34.1
				S1585.9,684,1604.8,684z"/>
			<path style="fill:#A8EFED;" d="M1639.1,705.1c18.9,0,34.2-15.3,34.2-34.1s-15.3-34.1-34.2-34.1s-34.2,15.3-34.2,34.1
				C1604.8,689.9,1620.2,705.1,1639.1,705.1z"/>
			<path style="fill:#A8EFED;" d="M1584.8,718c18.9,0,34.2-15.3,34.2-34.1s-15.3-34.1-34.2-34.1s-34.2,15.3-34.2,34.1
				C1550.6,702.8,1565.9,718,1584.8,718z"/>
		</g>
		<g>
			<path style="fill:#A8EFED;" d="M1256.8,682.4c18.8,0,34.1-15.2,34.1-33.9s-15.3-33.9-34.1-33.9c-18.8,0-34.1,15.2-34.1,33.9
				S1237.9,682.4,1256.8,682.4z"/>
			<path style="fill:#A8EFED;" d="M1301.8,675.2c23.3,0,42.1-18.8,42.1-41.9s-18.9-41.9-42.1-41.9c-23.3,0-42.1,18.8-42.1,41.9
				S1278.5,675.2,1301.8,675.2z"/>
			<path style="fill:#A8EFED;" d="M1298.7,682.4c18.9,0,34.2-15.3,34.2-34.1s-15.3-34.1-34.2-34.1s-34.2,15.3-34.2,34.1
				C1264.5,667.1,1279.8,682.4,1298.7,682.4z"/>
		</g>
		<g>
			<path style="fill:#A8EFED;" d="M596.6,462.2c18.8,0,34.1-15.2,34.1-33.9c0-18.7-15.3-33.9-34.1-33.9s-34.1,15.2-34.1,33.9
				S577.7,462.2,596.6,462.2z"/>
			<path style="fill:#A8EFED;" d="M641.6,455c23.3,0,42.1-18.8,42.1-41.9s-18.9-41.9-42.1-41.9c-23.3,0-42.1,18.8-42.1,41.9
				S618.3,455,641.6,455z"/>
			<path style="fill:#A8EFED;" d="M638.5,462.2c18.9,0,34.2-15.3,34.2-34.1c0-18.8-15.3-34.1-34.2-34.1s-34.2,15.3-34.2,34.1
				C604.3,446.9,619.6,462.2,638.5,462.2z"/>
		</g>
		<g>
			<path style="fill:#A8EFED;" d="M872.5,166.4c18.8,0,34.1-15.2,34.1-33.9s-15.3-33.9-34.1-33.9s-34.1,15.2-34.1,33.9
				S853.6,166.4,872.5,166.4z"/>
			<path style="fill:#A8EFED;" d="M917.5,159.2c23.3,0,42.1-18.8,42.1-41.9s-18.9-41.9-42.1-41.9c-23.3,0-42.1,18.8-42.1,41.9
				S894.2,159.2,917.5,159.2z"/>
			<path style="fill:#A8EFED;" d="M914.4,166.4c18.9,0,34.2-15.3,34.2-34.1s-15.3-34.1-34.2-34.1s-34.2,15.3-34.2,34.1
				C880.2,151.1,895.5,166.4,914.4,166.4z"/>
		</g>
		<g>
			<path style="fill:#A8EFED;" d="M389,966.3c18.8,0,34.1-15.2,34.1-33.9s-15.3-33.9-34.1-33.9c-18.8,0-34.1,15.2-34.1,33.9
				S370.1,966.3,389,966.3z"/>
			<path style="fill:#A8EFED;" d="M434,959.1c23.3,0,42.1-18.8,42.1-41.9s-18.9-41.9-42.1-41.9c-23.3,0-42.1,18.8-42.1,41.9
				S410.7,959.1,434,959.1z"/>
			<path style="fill:#A8EFED;" d="M430.9,966.3c18.9,0,34.2-15.3,34.2-34.1s-15.3-34.1-34.2-34.1s-34.2,15.3-34.2,34.1
				C396.7,951,412,966.3,430.9,966.3z"/>
		</g>
		<g>
			<path style="fill:#A8EFED;" d="M1306.4,353.5c18.8,0,34.1-15.2,34.1-33.9c0-18.7-15.3-33.9-34.1-33.9
				c-18.8,0-34.1,15.2-34.1,33.9S1287.5,353.5,1306.4,353.5z"/>
			<path style="fill:#A8EFED;" d="M1351.4,346.3c23.3,0,42.1-18.8,42.1-41.9s-18.9-41.9-42.1-41.9c-23.3,0-42.1,18.8-42.1,41.9
				S1328.1,346.3,1351.4,346.3z"/>
			<path style="fill:#A8EFED;" d="M1348.3,353.5c18.9,0,34.2-15.3,34.2-34.1c0-18.8-15.3-34.1-34.2-34.1s-34.2,15.3-34.2,34.1
				C1314.1,338.2,1329.4,353.5,1348.3,353.5z"/>
		</g>
		<g>
			<path style="fill:#A8EFED;" d="M1456.8,907.7c18.8,0,34.1-15.2,34.1-33.9s-15.3-33.9-34.1-33.9c-18.8,0-34.1,15.2-34.1,33.9
				S1437.9,907.7,1456.8,907.7z"/>
			<path style="fill:#A8EFED;" d="M1501.8,900.5c23.3,0,42.1-18.8,42.1-41.9s-18.9-41.9-42.1-41.9c-23.3,0-42.1,18.8-42.1,41.9
				S1478.5,900.5,1501.8,900.5z"/>
			<path style="fill:#A8EFED;" d="M1498.7,907.7c18.9,0,34.2-15.3,34.2-34.1s-15.3-34.1-34.2-34.1s-34.2,15.3-34.2,34.1
				S1479.8,907.7,1498.7,907.7z"/>
		</g>
		<g>
			<path style="fill:#A8EFED;" d="M1813.7,410.4c18.8,0,34.1-15.2,34.1-33.9c0-18.7-15.3-33.9-34.1-33.9s-34.1,15.2-34.1,33.9
				S1794.8,410.4,1813.7,410.4z"/>
			<path style="fill:#A8EFED;" d="M1858.7,403.2c23.3,0,42.1-18.8,42.1-41.9s-18.9-41.9-42.1-41.9c-23.3,0-42.1,18.8-42.1,41.9
				S1835.4,403.2,1858.7,403.2z"/>
			<path style="fill:#A8EFED;" d="M1855.6,410.4c18.9,0,34.2-15.3,34.2-34.1c0-18.8-15.3-34.1-34.2-34.1
				c-18.9,0-34.2,15.3-34.2,34.1S1836.7,410.4,1855.6,410.4z"/>
		</g>
		<g>
			<path style="fill:#A8EFED;" d="M640.2,937.8c18.9,0,34.2-15.3,34.2-34.1s-15.3-34.1-34.2-34.1S606,884.9,606,903.7
				C605.9,922.6,621.3,937.8,640.2,937.8z"/>
			<path style="fill:#A8EFED;" d="M643.1,893.3c18.9,0,34.2-15.3,34.2-34.1s-15.3-34.1-34.2-34.1s-34.2,15.3-34.2,34.1
				C608.9,878,624.2,893.3,643.1,893.3z"/>
			<path style="fill:#A8EFED;" d="M681.1,926.4c18.9,0,34.2-15.3,34.2-34.1s-15.3-34.1-34.2-34.1s-34.2,15.3-34.2,34.1
				C646.9,911.2,662.2,926.4,681.1,926.4z"/>
			<path style="fill:#A8EFED;" d="M693.2,901.3c18.9,0,34.2-15.3,34.2-34.1s-15.3-34.1-34.2-34.1S659,848.4,659,867.2
				C658.9,886.1,674.2,901.3,693.2,901.3z"/>
			<path style="fill:#A8EFED;" d="M721.1,918.8c18.9,0,34.2-15.3,34.2-34.1s-15.3-34.1-34.2-34.1s-34.2,15.3-34.2,34.1
				C686.9,903.6,702.2,918.8,721.1,918.8z"/>
		</g>
		<g>
			<path style="fill:#A8EFED;" d="M512.7,1165.6c18.9,0,34.2-15.3,34.2-34.1c0-18.8-15.3-34.1-34.2-34.1
				c-18.9,0-34.2,15.3-34.2,34.1C478.4,1150.4,493.8,1165.6,512.7,1165.6z"/>
			<path style="fill:#A8EFED;" d="M515.6,1121.1c18.9,0,34.2-15.3,34.2-34.1c0-18.8-15.3-34.1-34.2-34.1
				c-18.9,0-34.2,15.3-34.2,34.1C481.4,1105.8,496.7,1121.1,515.6,1121.1z"/>
			<path style="fill:#A8EFED;" d="M553.6,1154.2c18.9,0,34.2-15.3,34.2-34.1c0-18.8-15.3-34.1-34.2-34.1s-34.2,15.3-34.2,34.1
				C519.4,1139,534.7,1154.2,553.6,1154.2z"/>
			<path style="fill:#A8EFED;" d="M565.7,1129.1c18.9,0,34.2-15.3,34.2-34.1c0-18.8-15.3-34.1-34.2-34.1s-34.2,15.3-34.2,34.1
				C531.4,1113.9,546.7,1129.1,565.7,1129.1z"/>
			<path style="fill:#A8EFED;" d="M593.6,1146.6c18.9,0,34.2-15.3,34.2-34.1c0-18.8-15.3-34.1-34.2-34.1s-34.2,15.3-34.2,34.1
				C559.4,1131.4,574.7,1146.6,593.6,1146.6z"/>
		</g>
		<g>
			<path style="fill:#A8EFED;" d="M118.5,1459.8c18.9,0,34.2-15.3,34.2-34.1c0-18.8-15.3-34.1-34.2-34.1s-34.2,15.3-34.2,34.1
				C84.2,1444.6,99.6,1459.8,118.5,1459.8z"/>
			<path style="fill:#A8EFED;" d="M121.4,1415.3c18.9,0,34.2-15.3,34.2-34.1c0-18.8-15.3-34.1-34.2-34.1s-34.2,15.3-34.2,34.1
				C87.2,1400,102.5,1415.3,121.4,1415.3z"/>
			<path style="fill:#A8EFED;" d="M159.4,1448.4c18.9,0,34.2-15.3,34.2-34.1c0-18.8-15.3-34.1-34.2-34.1s-34.2,15.3-34.2,34.1
				C125.2,1433.2,140.5,1448.4,159.4,1448.4z"/>
			<path style="fill:#A8EFED;" d="M171.5,1423.3c18.9,0,34.2-15.3,34.2-34.1c0-18.8-15.3-34.1-34.2-34.1s-34.2,15.3-34.2,34.1
				C137.2,1408.1,152.5,1423.3,171.5,1423.3z"/>
			<path style="fill:#A8EFED;" d="M199.4,1440.8c18.9,0,34.2-15.3,34.2-34.1c0-18.8-15.3-34.1-34.2-34.1s-34.2,15.3-34.2,34.1
				C165.2,1425.6,180.5,1440.8,199.4,1440.8z"/>
		</g>
		<g>
			<path style="fill:#A8EFED;" d="M24.6,685.1c18.9,0,34.2-15.3,34.2-34.1s-15.3-34.1-34.2-34.1S-9.6,632.2-9.6,651
				C-9.7,669.9,5.7,685.1,24.6,685.1z"/>
			<path style="fill:#A8EFED;" d="M27.5,640.6c18.9,0,34.2-15.3,34.2-34.1s-15.3-34.1-34.2-34.1s-34.2,15.3-34.2,34.1
				S8.6,640.6,27.5,640.6z"/>
			<path style="fill:#A8EFED;" d="M65.5,673.7c18.9,0,34.2-15.3,34.2-34.1s-15.3-34.1-34.2-34.1s-34.2,15.3-34.2,34.1
				C31.3,658.5,46.6,673.7,65.5,673.7z"/>
			<path style="fill:#A8EFED;" d="M77.6,648.6c18.9,0,34.2-15.3,34.2-34.1s-15.3-34.1-34.2-34.1s-34.2,15.3-34.2,34.1
				C43.3,633.4,58.6,648.6,77.6,648.6z"/>
			<path style="fill:#A8EFED;" d="M105.5,666.1c18.9,0,34.2-15.3,34.2-34.1s-15.3-34.1-34.2-34.1S71.3,613.2,71.3,632
				C71.3,650.9,86.6,666.1,105.5,666.1z"/>
		</g>
		<g>
			<path style="fill:#A8EFED;" d="M499.3,152.9c18.9,0,34.2-15.3,34.2-34.1s-15.3-34.1-34.2-34.1c-18.9,0-34.2,15.3-34.2,34.1
				C465,137.7,480.4,152.9,499.3,152.9z"/>
			<path style="fill:#A8EFED;" d="M502.2,108.4c18.9,0,34.2-15.3,34.2-34.1s-15.3-34.1-34.2-34.1c-18.9,0-34.2,15.3-34.2,34.1
				S483.3,108.4,502.2,108.4z"/>
			<path style="fill:#A8EFED;" d="M540.2,141.5c18.9,0,34.2-15.3,34.2-34.1s-15.3-34.1-34.2-34.1S506,88.6,506,107.4
				C506,126.3,521.3,141.5,540.2,141.5z"/>
			<path style="fill:#A8EFED;" d="M552.3,116.4c18.9,0,34.2-15.3,34.2-34.1s-15.3-34.1-34.2-34.1s-34.2,15.3-34.2,34.1
				C518,101.2,533.3,116.4,552.3,116.4z"/>
			<path style="fill:#A8EFED;" d="M580.2,133.9c18.9,0,34.2-15.3,34.2-34.1s-15.3-34.1-34.2-34.1S546,81,546,99.8
				C546,118.7,561.3,133.9,580.2,133.9z"/>
		</g>
		<g>
			<path style="fill:#A8EFED;" d="M65,163.7c18.9,0,34.2-15.3,34.2-34.1S83.9,95.5,65,95.5s-34.2,15.3-34.2,34.1
				C30.7,148.5,46.1,163.7,65,163.7z"/>
			<path style="fill:#A8EFED;" d="M67.9,119.2c18.9,0,34.2-15.3,34.2-34.1S86.8,51,67.9,51S33.7,66.3,33.7,85.1S49,119.2,67.9,119.2
				z"/>
			<path style="fill:#A8EFED;" d="M105.9,152.3c18.9,0,34.2-15.3,34.2-34.1s-15.3-34.1-34.2-34.1s-34.2,15.3-34.2,34.1
				C71.7,137.1,87,152.3,105.9,152.3z"/>
			<path style="fill:#A8EFED;" d="M118,127.2c18.9,0,34.2-15.3,34.2-34.1S136.9,59,118,59S83.8,74.3,83.8,93.1
				C83.7,112,99,127.2,118,127.2z"/>
			<path style="fill:#A8EFED;" d="M145.9,144.7c18.9,0,34.2-15.3,34.2-34.1s-15.3-34.1-34.2-34.1s-34.2,15.3-34.2,34.1
				C111.7,129.5,127,144.7,145.9,144.7z"/>
		</g>
		<g>
			<path style="fill:#A8EFED;" d="M1807.4,152.9c18.9,0,34.2-15.3,34.2-34.1s-15.3-34.1-34.2-34.1s-34.2,15.3-34.2,34.1
				C1773.1,137.7,1788.5,152.9,1807.4,152.9z"/>
			<path style="fill:#A8EFED;" d="M1810.3,108.4c18.9,0,34.2-15.3,34.2-34.1s-15.3-34.1-34.2-34.1c-18.9,0-34.2,15.3-34.2,34.1
				S1791.4,108.4,1810.3,108.4z"/>
			<path style="fill:#A8EFED;" d="M1848.3,141.5c18.9,0,34.2-15.3,34.2-34.1s-15.3-34.1-34.2-34.1c-18.9,0-34.2,15.3-34.2,34.1
				C1814.1,126.3,1829.4,141.5,1848.3,141.5z"/>
			<path style="fill:#A8EFED;" d="M1860.4,116.4c18.9,0,34.2-15.3,34.2-34.1s-15.3-34.1-34.2-34.1s-34.2,15.3-34.2,34.1
				C1826.1,101.2,1841.4,116.4,1860.4,116.4z"/>
			<path style="fill:#A8EFED;" d="M1888.3,133.9c18.9,0,34.2-15.3,34.2-34.1s-15.3-34.1-34.2-34.1c-18.9,0-34.2,15.3-34.2,34.1
				C1854.1,118.7,1869.4,133.9,1888.3,133.9z"/>
		</g>
		<g>
			<path style="fill:#A8EFED;" d="M1860.4,774.4c18.9,0,34.2-15.3,34.2-34.1s-15.3-34.1-34.2-34.1s-34.2,15.3-34.2,34.1
				C1826.1,759.2,1841.5,774.4,1860.4,774.4z"/>
			<path style="fill:#A8EFED;" d="M1863.3,729.9c18.9,0,34.2-15.3,34.2-34.1s-15.3-34.1-34.2-34.1c-18.9,0-34.2,15.3-34.2,34.1
				S1844.4,729.9,1863.3,729.9z"/>
			<path style="fill:#A8EFED;" d="M1901.3,763c18.9,0,34.2-15.3,34.2-34.1s-15.3-34.1-34.2-34.1c-18.9,0-34.2,15.3-34.2,34.1
				C1867.1,747.8,1882.4,763,1901.3,763z"/>
			<path style="fill:#A8EFED;" d="M1913.4,737.9c18.9,0,34.2-15.3,34.2-34.1s-15.3-34.1-34.2-34.1s-34.2,15.3-34.2,34.1
				C1879.1,722.7,1894.4,737.9,1913.4,737.9z"/>
			<path style="fill:#A8EFED;" d="M1941.3,755.4c18.9,0,34.2-15.3,34.2-34.1s-15.3-34.1-34.2-34.1c-18.9,0-34.2,15.3-34.2,34.1
				C1907.1,740.2,1922.4,755.4,1941.3,755.4z"/>
		</g>
		<g>
			<path style="fill:#A8EFED;" d="M1726.5,964c18.9,0,34.2-15.3,34.2-34.1s-15.3-34.1-34.2-34.1s-34.2,15.3-34.2,34.1
				C1692.2,948.8,1707.6,964,1726.5,964z"/>
			<path style="fill:#A8EFED;" d="M1729.4,919.5c18.9,0,34.2-15.3,34.2-34.1s-15.3-34.1-34.2-34.1s-34.2,15.3-34.2,34.1
				S1710.5,919.5,1729.4,919.5z"/>
			<path style="fill:#A8EFED;" d="M1767.4,952.6c18.9,0,34.2-15.3,34.2-34.1s-15.3-34.1-34.2-34.1s-34.2,15.3-34.2,34.1
				C1733.2,937.4,1748.5,952.6,1767.4,952.6z"/>
			<path style="fill:#A8EFED;" d="M1779.5,927.5c18.9,0,34.2-15.3,34.2-34.1s-15.3-34.1-34.2-34.1s-34.2,15.3-34.2,34.1
				C1745.2,912.3,1760.5,927.5,1779.5,927.5z"/>
			<path style="fill:#A8EFED;" d="M1807.4,945c18.9,0,34.2-15.3,34.2-34.1s-15.3-34.1-34.2-34.1s-34.2,15.3-34.2,34.1
				C1773.2,929.8,1788.5,945,1807.4,945z"/>
		</g>
	</g>
	<path style="fill:#DBF4C1;" d="M-107.6,1680.9l2208.1,67.8l164.2,120.5H-287.9L-107.6,1680.9z"/>
	<g>
		<ellipse style="fill:#683F28;" cx="956.7" cy="1777.2" rx="28.5" ry="7.5"/>
		<path style="fill:#00F59A;" d="M989.6,1656c0,0-4.6-42.8,48.2-69.7C1033.5,1614.3,1027.4,1671,989.6,1656z"/>
		<path style="fill:#00F59A;" d="M1022.9,1538.1c0,0,15.1-40.3,74.3-40.6C1080.8,1520.6,1049.9,1568.4,1022.9,1538.1z"/>
		<path style="fill:#00F59A;" d="M927.4,1456.1c0,0-41.5-11.3-47.3-70.3C904.6,1400,955.1,1426.3,927.4,1456.1z"/>
		<path style="fill:#00F59A;" d="M1028.6,1474.9c0,0-2.4-51.4,61.8-78C1083.4,1429.7,1072.3,1496.6,1028.6,1474.9z"/>
		<path style="fill:#438C25;" d="M988.4,1202.5c0,0-39,330.7-41.8,572.2c5.3,4,9.9,8.3,18.8,0c0-53,13.3-398,39.5-563.4
			C1006.7,1186.1,988.4,1202.5,988.4,1202.5z"/>
		<path style="fill:#438C25;" d="M910.5,1624.7c40,37.4,30.7,37.4,41.6,51.6c6.6-0.6,6.7-1.6,10.6-8.1
			c-43.2-57.9-56.6-59.4-56.6-59.4S904.3,1618.7,910.5,1624.7z"/>
		<path style="fill:#438C25;" d="M989.7,1657.7c-23.7,49.4-26.5,40.5-36.8,55.2c2.6,6.1,3.6,5.9,10.9,7.7
			c42.3-58.6,39.7-71.8,39.7-71.8S993.5,1650,989.7,1657.7z"/>
		<path style="fill:#438C25;" d="M1028.1,1474.5c-46.8,86.4-50.2,72.2-69.5,98.5c3.4,9.7-0.3,5.2,11.9,6.7
			c79.1-105.1,82-122.6,82-122.6S1035.7,1461,1028.1,1474.5z"/>
		<path style="fill:#00F59A;" d="M852.3,1577.1c59,5,70.9,46.3,70.9,46.3C893.9,1651.5,866.9,1601.4,852.3,1577.1z"/>
		<path style="fill:#438C25;" d="M927.8,1458.9c30.7,46.6,22.8,44,30.9,60.5c5.6,1.3,5.8,0.4,9.6-4.7c-31.7-66.9-42.9-72-42.9-72
			S923,1451.4,927.8,1458.9z"/>
		<path style="fill:#438C25;" d="M1023.2,1535.9c-26.2,8.6-23.1,2.3-31.6,2.7c-1.9,4.7-1.6,5.3-0.6,11.1c34.4-0.6,39.2-8.9,39.2-8.9
			S1027.3,1534.7,1023.2,1535.9z"/>
		<path style="fill:#00F59A;" d="M1016.7,1357.5c0,0,1.8-43,58-61.8C1066.3,1322.8,1051.9,1377.8,1016.7,1357.5z"/>
		<path style="fill:#438C25;" d="M1016.7,1356.5c-33.4,55.7-34.9,45.8-48.3,62.5c1.7,6.7,2.8,6.5,10.4,8.3
			c54.8-66.3,54.1-81,54.1-81S1022,1347.8,1016.7,1356.5z"/>
	</g>
	<path style="fill:#56EA89;" d="M938.2,1788.2c7.4,0,13.3-5.9,13.3-13.1s-6-13.1-13.3-13.1s-13.3,5.9-13.3,13.1
		S930.8,1788.2,938.2,1788.2z"/>
	<path style="fill:#56EA89;" d="M952.8,1793.9c7.4,0,13.3-5.9,13.3-13.1s-6-13.1-13.3-13.1c-7.4,0-13.3,5.9-13.3,13.1
		S945.5,1793.9,952.8,1793.9z"/>
	<path style="fill:#56EA89;" d="M971.9,1790.3c7.4,0,13.3-5.9,13.3-13.1s-6-13.1-13.3-13.1s-13.3,5.9-13.3,13.1
		S964.5,1790.3,971.9,1790.3z"/>
</g>
<g id="EPISODES">
	<g id="OPEN-1">
		<rect x="978.2" y="1569.3" style="fill:#FFFFFF;fill-opacity:0;" width="92.3" height="98.3"/>
	</g>
	<g id="OPEN-2">
		<rect x="844.1" y="1561.7" style="fill:#FFFFFF;fill-opacity:0;" width="94.1" height="102.5"/>
	</g>
	<g id="OPEN-3-1">
		<rect x="1024.3" y="1492.4" style="fill:#FFFFFF;fill-opacity:0;" width="75.5" height="69.3"/>
	</g>
	<g id="OPEN-3-2">
		<rect x="1020.3" y="1394.7" style="fill:#FFFFFF;fill-opacity:0;" width="79.6" height="86.7"/>
	</g>
	<g id="OPEN-4">
		<rect x="862.5" y="1377.9" style="fill:#FFFFFF;fill-opacity:0;" width="86.8" height="81"/>
	</g>
	<g id="OPEN-5-1">
		<rect x="1005.9" y="1282.8" style="fill:#FFFFFF;fill-opacity:0;" width="79.6" height="86.7"/>
	</g>
</g>
</svg>
