<?xml version="1.0" encoding="utf-8"?>
<!-- Generator: Adobe Illustrator 22.0.0, SVG Export Plug-In . SVG Version: 6.00 Build 0)  -->
<svg version="1.1" id="Layer_1" xmlns="http://www.w3.org/2000/svg" xmlns:xlink="http://www.w3.org/1999/xlink" x="0px" y="0px"
	 viewBox="0 0 1976.9 1832.7" style="enable-background:new 0 0 1976.9 1832.7;" xml:space="preserve">
<g id="Layer_1_1_">
	<path style="fill:#80CFE8;" d="M2016.3,0H-29.5v1767.7h2045.7L2016.3,0L2016.3,0z"/>
	<path style="fill:#46CB92;" d="M-107.6,1680.9l2208.1,67.8l164.2,120.5H-287.9L-107.6,1680.9z"/>
	<path style="fill:#4CD697;" d="M918.4,1780.4c15,0.5,27.6-11.2,28.1-26.1c0.5-15-11.2-27.6-26.1-28.1s-27.6,11.2-28.1,26.1
		C891.7,1767.3,903.4,1779.8,918.4,1780.4z"/>
	<path style="fill:#4CD697;" d="M992.1,1785.3c14.8,0.5,27.3-11.1,27.8-25.9c0.5-14.8-11.1-27.3-25.9-27.8
		c-14.8-0.5-27.3,11.1-27.8,25.9C965.6,1772.3,977.2,1784.7,992.1,1785.3z"/>
	<g style="opacity:0.14;">
		<path style="fill:#F0FCFB;" d="M773.1,1535.8c20.4,0,37-16.3,37-36.5s-16.6-36.5-37-36.5s-37,16.3-37,36.5
			C736.1,1519.4,752.7,1535.8,773.1,1535.8z"/>
		<g>
			<path style="fill:#F0FCFB;" d="M1055.4,1467.8c28.4,0,51.3-22.9,51.3-51.1s-23-51.1-51.3-51.1c-28.4,0-51.3,22.9-51.3,51.1
				C1004.1,1444.9,1027.1,1467.8,1055.4,1467.8z"/>
			<path style="fill:#F0FCFB;" d="M1123.3,1457c35.1,0,63.5-28.3,63.5-63.1c0-34.9-28.4-63.1-63.5-63.1s-63.5,28.3-63.5,63.1
				S1088.2,1457,1123.3,1457z"/>
			<path style="fill:#F0FCFB;" d="M1176.7,1467.8c29.5,0,53.4-23.8,53.4-53.1c0-29.3-23.9-53.1-53.4-53.1s-53.4,23.8-53.4,53.1
				C1123.3,1444,1147.2,1467.8,1176.7,1467.8z"/>
			<path style="fill:#F0FCFB;" d="M1118.6,1467.8c28.5,0,51.6-23,51.6-51.3s-23.1-51.4-51.6-51.4s-51.6,23-51.6,51.3
				S1090.2,1467.8,1118.6,1467.8z"/>
		</g>
		<g>
			<path style="fill:#F0FCFB;" d="M762.2,1396.8c18.8,0,34.1-15.2,34.1-33.9S781,1329,762.2,1329s-34.1,15.2-34.1,33.9
				S743.4,1396.8,762.2,1396.8z"/>
			<path style="fill:#F0FCFB;" d="M807.2,1389.6c23.3,0,42.1-18.8,42.1-41.9c0-23.2-18.9-41.9-42.1-41.9
				c-23.3,0-42.1,18.8-42.1,41.9S783.9,1389.6,807.2,1389.6z"/>
			<path style="fill:#F0FCFB;" d="M842.7,1396.8c19.6,0,35.4-15.8,35.4-35.3s-15.9-35.3-35.4-35.3c-19.6,0-35.4,15.8-35.4,35.3
				C807.2,1381,823.1,1396.8,842.7,1396.8z"/>
			<path style="fill:#F0FCFB;" d="M804.1,1396.8c18.9,0,34.2-15.3,34.2-34.1c0-18.8-15.3-34.1-34.2-34.1s-34.2,15.3-34.2,34.1
				C769.9,1381.5,785.2,1396.8,804.1,1396.8z"/>
		</g>
		<path style="fill:#F0FCFB;" d="M765.9,1235.8c29.9,0,54.2-18.4,54.2-41s-24.3-41-54.2-41s-54.2,18.4-54.2,41
			S736,1235.8,765.9,1235.8z"/>
		<path style="fill:#F0FCFB;" d="M811.5,1242.8c25.2,0,45.6-15.4,45.6-34.5s-20.4-34.5-45.6-34.5c-25.2,0-45.6,15.4-45.6,34.5
			C765.9,1227.3,786.3,1242.8,811.5,1242.8z"/>
		<path style="fill:#F0FCFB;" d="M761.9,1242.8c24.3,0,44.1-14.9,44.1-33.3s-19.7-33.4-44.1-33.4c-24.3,0-44.1,14.9-44.1,33.3
			S737.6,1242.8,761.9,1242.8z"/>
		<path style="fill:#F0FCFB;" d="M804.1,1542.8c17.1,0,31-13.9,31-31s-13.9-31-31-31s-31,13.9-31,31S787,1542.8,804.1,1542.8z"/>
		<path style="fill:#F0FCFB;" d="M770.1,1542.8c16.6,0,30-13.4,30-30s-13.4-30-30-30s-30,13.4-30,30
			C740.1,1529.3,753.5,1542.8,770.1,1542.8z"/>
		<g>
			<path style="fill:#F0FCFB;" d="M1124.2,1266.8c18.8,0,34.1-15.2,34.1-33.9c0-18.7-15.3-33.9-34.1-33.9
				c-18.8,0-34.1,15.2-34.1,33.9S1105.4,1266.8,1124.2,1266.8z"/>
			<path style="fill:#F0FCFB;" d="M1169.2,1259.6c23.3,0,42.1-18.8,42.1-41.9s-18.9-41.9-42.1-41.9c-23.3,0-42.1,18.8-42.1,41.9
				S1145.9,1259.6,1169.2,1259.6z"/>
			<path style="fill:#F0FCFB;" d="M1166.1,1266.8c18.9,0,34.2-15.3,34.2-34.1c0-18.8-15.3-34.1-34.2-34.1s-34.2,15.3-34.2,34.1
				S1147.2,1266.8,1166.1,1266.8z"/>
		</g>
		<g>
			<path style="fill:#F0FCFB;" d="M960.6,1158.3c18.8,0,34.1-15.2,34.1-33.9c0-18.7-15.3-33.9-34.1-33.9s-34.1,15.2-34.1,33.9
				S941.7,1158.3,960.6,1158.3z"/>
			<path style="fill:#F0FCFB;" d="M1005.6,1151.1c23.3,0,42.1-18.8,42.1-41.9s-18.9-41.9-42.1-41.9c-23.3,0-42.1,18.8-42.1,41.9
				S982.3,1151.1,1005.6,1151.1z"/>
			<path style="fill:#F0FCFB;" d="M1002.5,1158.3c18.9,0,34.2-15.3,34.2-34.1c0-18.8-15.3-34.1-34.2-34.1s-34.2,15.3-34.2,34.1
				C968.3,1143,983.6,1158.3,1002.5,1158.3z"/>
		</g>
		<g>
			<g>
				<path style="fill:#F0FCFB;" d="M1048,964.9c28.4,0,51.3-22.9,51.3-51.1s-23-51.1-51.3-51.1c-28.4,0-51.3,22.9-51.3,51.1
					S1019.7,964.9,1048,964.9z"/>
				<path style="fill:#F0FCFB;" d="M1115.9,954.1c35.1,0,63.5-28.3,63.5-63.1c0-34.9-28.4-63.1-63.5-63.1s-63.5,28.3-63.5,63.1
					S1080.8,954.1,1115.9,954.1z"/>
				<path style="fill:#F0FCFB;" d="M1169.3,964.9c29.5,0,53.4-23.8,53.4-53.1s-23.9-53.1-53.4-53.1s-53.4,23.8-53.4,53.1
					C1115.9,941.1,1139.8,964.9,1169.3,964.9z"/>
				<path style="fill:#F0FCFB;" d="M1111.2,964.9c28.5,0,51.6-23,51.6-51.3s-23.1-51.4-51.6-51.4s-51.6,23-51.6,51.3
					S1082.8,964.9,1111.2,964.9z"/>
			</g>
		</g>
		<g>
			<g>
				<path style="fill:#F0FCFB;" d="M501.8,734.9c28.4,0,51.3-22.9,51.3-51.1s-23-51.1-51.3-51.1c-28.4,0-51.3,22.9-51.3,51.1
					S473.5,734.9,501.8,734.9z"/>
				<path style="fill:#F0FCFB;" d="M569.7,724.1c35.1,0,63.5-28.3,63.5-63.1c0-34.9-28.4-63.1-63.5-63.1s-63.5,28.3-63.5,63.1
					S534.6,724.1,569.7,724.1z"/>
				<path style="fill:#F0FCFB;" d="M623.1,734.9c29.5,0,53.4-23.8,53.4-53.1s-23.9-53.1-53.4-53.1s-53.4,23.8-53.4,53.1
					C569.7,711.1,593.6,734.9,623.1,734.9z"/>
				<path style="fill:#F0FCFB;" d="M565,734.9c28.5,0,51.6-23,51.6-51.3s-23.1-51.4-51.6-51.4s-51.6,23-51.6,51.3
					S536.6,734.9,565,734.9z"/>
			</g>
		</g>
		<g>
			<g>
				<path style="fill:#F0FCFB;" d="M1548.8,518.9c28.4,0,51.3-22.9,51.3-51.1s-23-51.1-51.3-51.1c-28.4,0-51.3,22.9-51.3,51.1
					C1497.5,496,1520.5,518.9,1548.8,518.9z"/>
				<path style="fill:#F0FCFB;" d="M1616.7,508.1c35.1,0,63.5-28.3,63.5-63.1c0-34.9-28.4-63.1-63.5-63.1s-63.5,28.3-63.5,63.1
					S1581.6,508.1,1616.7,508.1z"/>
				<path style="fill:#F0FCFB;" d="M1670.1,518.9c29.5,0,53.4-23.8,53.4-53.1c0-29.3-23.9-53.1-53.4-53.1s-53.4,23.8-53.4,53.1
					C1616.7,495.1,1640.6,518.9,1670.1,518.9z"/>
				<path style="fill:#F0FCFB;" d="M1612,518.9c28.5,0,51.6-23,51.6-51.3s-23.1-51.4-51.6-51.4s-51.6,23-51.6,51.3
					S1583.6,518.9,1612,518.9z"/>
			</g>
		</g>
		<g>
			<g>
				<path style="fill:#F0FCFB;" d="M1022.2,381.9c28.4,0,51.3-22.9,51.3-51.1s-23-51.1-51.3-51.1c-28.4,0-51.3,22.9-51.3,51.1
					S993.9,381.9,1022.2,381.9z"/>
				<path style="fill:#F0FCFB;" d="M1090.1,371.1c35.1,0,63.5-28.3,63.5-63.1c0-34.9-28.4-63.1-63.5-63.1s-63.5,28.3-63.5,63.1
					S1055,371.1,1090.1,371.1z"/>
				<path style="fill:#F0FCFB;" d="M1143.5,381.9c29.5,0,53.4-23.8,53.4-53.1c0-29.3-23.9-53.1-53.4-53.1s-53.4,23.8-53.4,53.1
					S1114,381.9,1143.5,381.9z"/>
				<path style="fill:#F0FCFB;" d="M1085.4,381.9c28.5,0,51.6-23,51.6-51.3s-23.1-51.4-51.6-51.4s-51.6,23-51.6,51.3
					S1057,381.9,1085.4,381.9z"/>
			</g>
		</g>
		<g>
			<g>
				<path style="fill:#F0FCFB;" d="M240.8,299.4c28.4,0,51.3-22.9,51.3-51.1s-23-51.1-51.3-51.1c-28.4,0-51.3,22.9-51.3,51.1
					S212.5,299.4,240.8,299.4z"/>
				<path style="fill:#F0FCFB;" d="M308.7,288.6c35.1,0,63.5-28.3,63.5-63.1c0-34.9-28.4-63.1-63.5-63.1s-63.5,28.3-63.5,63.1
					S273.6,288.6,308.7,288.6z"/>
				<path style="fill:#F0FCFB;" d="M362.1,299.4c29.5,0,53.4-23.8,53.4-53.1s-23.9-53.1-53.4-53.1s-53.4,23.8-53.4,53.1
					S332.6,299.4,362.1,299.4z"/>
				<path style="fill:#F0FCFB;" d="M304,299.4c28.5,0,51.6-23,51.6-51.3s-23.1-51.4-51.6-51.4s-51.6,23-51.6,51.3
					S275.6,299.4,304,299.4z"/>
			</g>
		</g>
		<g>
			<path style="fill:#F0FCFB;" d="M950.3,972.1c28.4,0,51.3-22.9,51.3-51.1s-23-51.1-51.3-51.1c-28.4,0-51.3,22.9-51.3,51.1
				C899,949.2,922,972.1,950.3,972.1z"/>
			<path style="fill:#F0FCFB;" d="M1018.2,961.3c35.1,0,63.5-28.3,63.5-63.1c0-34.9-28.4-63.1-63.5-63.1s-63.5,28.3-63.5,63.1
				S983.1,961.3,1018.2,961.3z"/>
			<path style="fill:#F0FCFB;" d="M1071.6,972.1c29.5,0,53.4-23.8,53.4-53.1s-23.9-53.1-53.4-53.1s-53.4,23.8-53.4,53.1
				C1018.2,948.3,1042.1,972.1,1071.6,972.1z"/>
			<path style="fill:#F0FCFB;" d="M1013.5,972.1c28.5,0,51.6-23,51.6-51.3s-23.1-51.4-51.6-51.4s-51.6,23-51.6,51.3
				S985.1,972.1,1013.5,972.1z"/>
		</g>
		<g>
			<path style="fill:#F0FCFB;" d="M110.5,1656.9c28.4,0,51.3-22.9,51.3-51.1s-23-51.1-51.3-51.1c-28.4,0-51.3,22.9-51.3,51.1
				S82.2,1656.9,110.5,1656.9z"/>
			<path style="fill:#F0FCFB;" d="M178.4,1646.1c35.1,0,63.5-28.3,63.5-63.1c0-34.9-28.4-63.1-63.5-63.1s-63.5,28.3-63.5,63.1
				S143.3,1646.1,178.4,1646.1z"/>
			<path style="fill:#F0FCFB;" d="M231.8,1656.9c29.5,0,53.4-23.8,53.4-53.1c0-29.3-23.9-53.1-53.4-53.1s-53.4,23.8-53.4,53.1
				C178.4,1633.1,202.3,1656.9,231.8,1656.9z"/>
			<path style="fill:#F0FCFB;" d="M173.7,1656.9c28.5,0,51.6-23,51.6-51.3s-23.1-51.4-51.6-51.4s-51.6,23-51.6,51.3
				S145.3,1656.9,173.7,1656.9z"/>
		</g>
		<g>
			<path style="fill:#F0FCFB;" d="M1601.9,1469.2c28.4,0,51.3-22.9,51.3-51.1s-23-51.1-51.3-51.1c-28.4,0-51.3,22.9-51.3,51.1
				C1550.6,1446.3,1573.6,1469.2,1601.9,1469.2z"/>
			<path style="fill:#F0FCFB;" d="M1669.8,1458.4c35.1,0,63.5-28.3,63.5-63.1c0-34.9-28.4-63.1-63.5-63.1s-63.5,28.3-63.5,63.1
				S1634.7,1458.4,1669.8,1458.4z"/>
			<path style="fill:#F0FCFB;" d="M1723.2,1469.2c29.5,0,53.4-23.8,53.4-53.1c0-29.3-23.9-53.1-53.4-53.1s-53.4,23.8-53.4,53.1
				C1669.8,1445.4,1693.7,1469.2,1723.2,1469.2z"/>
			<path style="fill:#F0FCFB;" d="M1665.1,1469.2c28.5,0,51.6-23,51.6-51.3s-23.1-51.4-51.6-51.4s-51.6,23-51.6,51.3
				S1636.7,1469.2,1665.1,1469.2z"/>
		</g>
		<g>
			<path style="fill:#F0FCFB;" d="M381.8,1409.7c28.4,0,51.3-22.9,51.3-51.1s-23-51.1-51.3-51.1c-28.4,0-51.3,22.9-51.3,51.1
				C330.5,1386.8,353.5,1409.7,381.8,1409.7z"/>
			<path style="fill:#F0FCFB;" d="M449.7,1398.9c35.1,0,63.5-28.3,63.5-63.1c0-34.9-28.4-63.1-63.5-63.1s-63.5,28.3-63.5,63.1
				S414.6,1398.9,449.7,1398.9z"/>
			<path style="fill:#F0FCFB;" d="M503.1,1409.7c29.5,0,53.4-23.8,53.4-53.1c0-29.3-23.9-53.1-53.4-53.1s-53.4,23.8-53.4,53.1
				C449.7,1385.9,473.6,1409.7,503.1,1409.7z"/>
			<path style="fill:#F0FCFB;" d="M445,1409.7c28.5,0,51.6-23,51.6-51.3S473.5,1307,445,1307s-51.6,23-51.6,51.3
				S416.6,1409.7,445,1409.7z"/>
		</g>
		<g>
			<path style="fill:#F0FCFB;" d="M93.9,1066.9c28.4,0,51.3-22.9,51.3-51.1s-23-51.1-51.3-51.1c-28.4,0-51.3,22.9-51.3,51.1
				C42.6,1044,65.6,1066.9,93.9,1066.9z"/>
			<path style="fill:#F0FCFB;" d="M161.8,1056.1c35.1,0,63.5-28.3,63.5-63.1c0-34.9-28.4-63.1-63.5-63.1S98.3,958.2,98.3,993
				C98.3,1027.8,126.7,1056.1,161.8,1056.1z"/>
			<path style="fill:#F0FCFB;" d="M215.2,1066.9c29.5,0,53.4-23.8,53.4-53.1c0-29.3-23.9-53.1-53.4-53.1s-53.4,23.8-53.4,53.1
				C161.8,1043.1,185.7,1066.9,215.2,1066.9z"/>
			<path style="fill:#F0FCFB;" d="M157.1,1066.9c28.5,0,51.6-23,51.6-51.3s-23.1-51.4-51.6-51.4s-51.6,23-51.6,51.3
				C105.5,1043.8,128.7,1066.9,157.1,1066.9z"/>
		</g>
		<g>
			<path style="fill:#F0FCFB;" d="M1699,1234.1c28.4,0,51.3-22.9,51.3-51.1s-23-51.1-51.3-51.1c-28.4,0-51.3,22.9-51.3,51.1
				S1670.7,1234.1,1699,1234.1z"/>
			<path style="fill:#F0FCFB;" d="M1766.9,1223.3c35.1,0,63.5-28.3,63.5-63.1c0-34.9-28.4-63.1-63.5-63.1s-63.5,28.3-63.5,63.1
				S1731.8,1223.3,1766.9,1223.3z"/>
			<path style="fill:#F0FCFB;" d="M1820.3,1234.1c29.5,0,53.4-23.8,53.4-53.1c0-29.3-23.9-53.1-53.4-53.1s-53.4,23.8-53.4,53.1
				C1766.9,1210.3,1790.8,1234.1,1820.3,1234.1z"/>
			<path style="fill:#F0FCFB;" d="M1762.2,1234.1c28.5,0,51.6-23,51.6-51.3s-23.1-51.4-51.6-51.4s-51.6,23-51.6,51.3
				S1733.8,1234.1,1762.2,1234.1z"/>
		</g>
		<g>
			<path style="fill:#F0FCFB;" d="M1395.1,1672.9c28.4,0,51.3-22.9,51.3-51.1s-23-51.1-51.3-51.1c-28.4,0-51.3,22.9-51.3,51.1
				C1343.8,1650,1366.8,1672.9,1395.1,1672.9z"/>
			<path style="fill:#F0FCFB;" d="M1463,1662.1c35.1,0,63.5-28.3,63.5-63.1c0-34.9-28.4-63.1-63.5-63.1s-63.5,28.3-63.5,63.1
				S1427.9,1662.1,1463,1662.1z"/>
			<path style="fill:#F0FCFB;" d="M1516.4,1672.9c29.5,0,53.4-23.8,53.4-53.1c0-29.3-23.9-53.1-53.4-53.1s-53.4,23.8-53.4,53.1
				S1486.9,1672.9,1516.4,1672.9z"/>
			<path style="fill:#F0FCFB;" d="M1458.3,1672.9c28.5,0,51.6-23,51.6-51.3s-23.1-51.4-51.6-51.4s-51.6,23-51.6,51.3
				S1429.9,1672.9,1458.3,1672.9z"/>
		</g>
		<g>
			<path style="fill:#F0FCFB;" d="M927.1,594.7c18.9,0,34.2-15.3,34.2-34.1s-15.3-34.1-34.2-34.1s-34.2,15.3-34.2,34.1
				S908.2,594.7,927.1,594.7z"/>
			<path style="fill:#F0FCFB;" d="M961.4,615.8c18.9,0,34.2-15.3,34.2-34.1s-15.3-34.1-34.2-34.1s-34.2,15.3-34.2,34.1
				C927.1,600.6,942.5,615.8,961.4,615.8z"/>
			<path style="fill:#F0FCFB;" d="M907.1,628.7c18.9,0,34.2-15.3,34.2-34.1s-15.3-34.1-34.2-34.1s-34.2,15.3-34.2,34.1
				C872.9,613.5,888.2,628.7,907.1,628.7z"/>
		</g>
		<g>
			<path style="fill:#F0FCFB;" d="M267.8,513.2c18.9,0,34.2-15.3,34.2-34.1S286.7,445,267.8,445s-34.2,15.3-34.2,34.1
				S248.9,513.2,267.8,513.2z"/>
			<path style="fill:#F0FCFB;" d="M302.1,534.3c18.9,0,34.2-15.3,34.2-34.1c0-18.8-15.3-34.1-34.2-34.1s-34.2,15.3-34.2,34.1
				C267.8,519.1,283.2,534.3,302.1,534.3z"/>
			<path style="fill:#F0FCFB;" d="M247.8,547.2c18.9,0,34.2-15.3,34.2-34.1S266.7,479,247.8,479s-34.2,15.3-34.2,34.1
				C213.6,532,228.9,547.2,247.8,547.2z"/>
		</g>
		<g>
			<path style="fill:#F0FCFB;" d="M226.4,792.3c18.9,0,34.2-15.3,34.2-34.1s-15.3-34.1-34.2-34.1s-34.2,15.3-34.2,34.1
				S207.5,792.3,226.4,792.3z"/>
			<path style="fill:#F0FCFB;" d="M260.7,813.4c18.9,0,34.2-15.3,34.2-34.1s-15.3-34.1-34.2-34.1s-34.2,15.3-34.2,34.1
				C226.4,798.2,241.8,813.4,260.7,813.4z"/>
			<path style="fill:#F0FCFB;" d="M206.4,826.3c18.9,0,34.2-15.3,34.2-34.1s-15.3-34.1-34.2-34.1s-34.2,15.3-34.2,34.1
				C172.2,811.1,187.5,826.3,206.4,826.3z"/>
		</g>
		<g>
			<path style="fill:#F0FCFB;" d="M443.4,1594.2c18.9,0,34.2-15.3,34.2-34.1c0-18.8-15.3-34.1-34.2-34.1s-34.2,15.3-34.2,34.1
				C409.2,1578.9,424.5,1594.2,443.4,1594.2z"/>
			<path style="fill:#F0FCFB;" d="M477.7,1615.3c18.9,0,34.2-15.3,34.2-34.1c0-18.8-15.3-34.1-34.2-34.1s-34.2,15.3-34.2,34.1
				C443.4,1600.1,458.8,1615.3,477.7,1615.3z"/>
			<path style="fill:#F0FCFB;" d="M423.4,1628.2c18.9,0,34.2-15.3,34.2-34.1c0-18.8-15.3-34.1-34.2-34.1s-34.2,15.3-34.2,34.1
				C389.2,1613,404.5,1628.2,423.4,1628.2z"/>
		</g>
		<g>
			<path style="fill:#F0FCFB;" d="M1766,1635.5c18.9,0,34.2-15.3,34.2-34.1c0-18.8-15.3-34.1-34.2-34.1s-34.2,15.3-34.2,34.1
				S1747.1,1635.5,1766,1635.5z"/>
			<path style="fill:#F0FCFB;" d="M1800.3,1656.6c18.9,0,34.2-15.3,34.2-34.1c0-18.8-15.3-34.1-34.2-34.1s-34.2,15.3-34.2,34.1
				C1766,1641.4,1781.4,1656.6,1800.3,1656.6z"/>
			<path style="fill:#F0FCFB;" d="M1746,1669.5c18.9,0,34.2-15.3,34.2-34.1c0-18.8-15.3-34.1-34.2-34.1s-34.2,15.3-34.2,34.1
				C1711.8,1654.3,1727.1,1669.5,1746,1669.5z"/>
		</g>
		<g>
			<path style="fill:#F0FCFB;" d="M1457.3,1276.7c18.9,0,34.2-15.3,34.2-34.1c0-18.8-15.3-34.1-34.2-34.1s-34.2,15.3-34.2,34.1
				C1423.1,1261.4,1438.4,1276.7,1457.3,1276.7z"/>
			<path style="fill:#F0FCFB;" d="M1491.6,1297.8c18.9,0,34.2-15.3,34.2-34.1c0-18.8-15.3-34.1-34.2-34.1s-34.2,15.3-34.2,34.1
				C1457.3,1282.6,1472.7,1297.8,1491.6,1297.8z"/>
			<path style="fill:#F0FCFB;" d="M1437.3,1310.7c18.9,0,34.2-15.3,34.2-34.1c0-18.8-15.3-34.1-34.2-34.1s-34.2,15.3-34.2,34.1
				C1403.1,1295.5,1418.4,1310.7,1437.3,1310.7z"/>
		</g>
		<g>
			<path style="fill:#F0FCFB;" d="M182.4,1226.6c18.9,0,34.2-15.3,34.2-34.1c0-18.8-15.3-34.1-34.2-34.1s-34.2,15.3-34.2,34.1
				C148.2,1211.3,163.5,1226.6,182.4,1226.6z"/>
			<path style="fill:#F0FCFB;" d="M216.7,1247.7c18.9,0,34.2-15.3,34.2-34.1c0-18.8-15.3-34.1-34.2-34.1s-34.2,15.3-34.2,34.1
				C182.4,1232.5,197.8,1247.7,216.7,1247.7z"/>
			<path style="fill:#F0FCFB;" d="M162.4,1260.6c18.9,0,34.2-15.3,34.2-34.1c0-18.8-15.3-34.1-34.2-34.1s-34.2,15.3-34.2,34.1
				C128.2,1245.4,143.5,1260.6,162.4,1260.6z"/>
		</g>
		<g>
			<path style="fill:#F0FCFB;" d="M1449.1,143.6c18.9,0,34.2-15.3,34.2-34.1s-15.3-34.1-34.2-34.1s-34.2,15.3-34.2,34.1
				S1430.2,143.6,1449.1,143.6z"/>
			<path style="fill:#F0FCFB;" d="M1483.4,164.7c18.9,0,34.2-15.3,34.2-34.1s-15.3-34.1-34.2-34.1s-34.2,15.3-34.2,34.1
				C1449.1,149.5,1464.5,164.7,1483.4,164.7z"/>
			<path style="fill:#F0FCFB;" d="M1429.1,177.6c18.9,0,34.2-15.3,34.2-34.1s-15.3-34.1-34.2-34.1s-34.2,15.3-34.2,34.1
				C1394.9,162.4,1410.2,177.6,1429.1,177.6z"/>
		</g>
		<g>
			<path style="fill:#F0FCFB;" d="M700.6,230.6c18.9,0,34.2-15.3,34.2-34.1s-15.3-34.1-34.2-34.1s-34.2,15.3-34.2,34.1
				S681.7,230.6,700.6,230.6z"/>
			<path style="fill:#F0FCFB;" d="M734.9,251.7c18.9,0,34.2-15.3,34.2-34.1s-15.3-34.1-34.2-34.1s-34.2,15.3-34.2,34.1
				C700.6,236.5,716,251.7,734.9,251.7z"/>
			<path style="fill:#F0FCFB;" d="M680.6,264.6c18.9,0,34.2-15.3,34.2-34.1s-15.3-34.1-34.2-34.1s-34.2,15.3-34.2,34.1
				C646.4,249.4,661.7,264.6,680.6,264.6z"/>
		</g>
		<g>
			<path style="fill:#F0FCFB;" d="M1604.8,684c18.9,0,34.2-15.3,34.2-34.1s-15.3-34.1-34.2-34.1s-34.2,15.3-34.2,34.1
				S1585.9,684,1604.8,684z"/>
			<path style="fill:#F0FCFB;" d="M1639.1,705.1c18.9,0,34.2-15.3,34.2-34.1s-15.3-34.1-34.2-34.1s-34.2,15.3-34.2,34.1
				C1604.8,689.9,1620.2,705.1,1639.1,705.1z"/>
			<path style="fill:#F0FCFB;" d="M1584.8,718c18.9,0,34.2-15.3,34.2-34.1s-15.3-34.1-34.2-34.1s-34.2,15.3-34.2,34.1
				C1550.6,702.8,1565.9,718,1584.8,718z"/>
		</g>
		<g>
			<path style="fill:#F0FCFB;" d="M1256.8,682.4c18.8,0,34.1-15.2,34.1-33.9s-15.3-33.9-34.1-33.9c-18.8,0-34.1,15.2-34.1,33.9
				S1237.9,682.4,1256.8,682.4z"/>
			<path style="fill:#F0FCFB;" d="M1301.8,675.2c23.3,0,42.1-18.8,42.1-41.9s-18.9-41.9-42.1-41.9c-23.3,0-42.1,18.8-42.1,41.9
				S1278.5,675.2,1301.8,675.2z"/>
			<path style="fill:#F0FCFB;" d="M1298.7,682.4c18.9,0,34.2-15.3,34.2-34.1s-15.3-34.1-34.2-34.1s-34.2,15.3-34.2,34.1
				C1264.5,667.1,1279.8,682.4,1298.7,682.4z"/>
		</g>
		<g>
			<path style="fill:#F0FCFB;" d="M596.6,462.2c18.8,0,34.1-15.2,34.1-33.9c0-18.7-15.3-33.9-34.1-33.9s-34.1,15.2-34.1,33.9
				S577.7,462.2,596.6,462.2z"/>
			<path style="fill:#F0FCFB;" d="M641.6,455c23.3,0,42.1-18.8,42.1-41.9s-18.9-41.9-42.1-41.9c-23.3,0-42.1,18.8-42.1,41.9
				S618.3,455,641.6,455z"/>
			<path style="fill:#F0FCFB;" d="M638.5,462.2c18.9,0,34.2-15.3,34.2-34.1c0-18.8-15.3-34.1-34.2-34.1s-34.2,15.3-34.2,34.1
				C604.3,446.9,619.6,462.2,638.5,462.2z"/>
		</g>
		<g>
			<path style="fill:#F0FCFB;" d="M872.5,166.4c18.8,0,34.1-15.2,34.1-33.9s-15.3-33.9-34.1-33.9s-34.1,15.2-34.1,33.9
				S853.6,166.4,872.5,166.4z"/>
			<path style="fill:#F0FCFB;" d="M917.5,159.2c23.3,0,42.1-18.8,42.1-41.9s-18.9-41.9-42.1-41.9c-23.3,0-42.1,18.8-42.1,41.9
				S894.2,159.2,917.5,159.2z"/>
			<path style="fill:#F0FCFB;" d="M914.4,166.4c18.9,0,34.2-15.3,34.2-34.1s-15.3-34.1-34.2-34.1s-34.2,15.3-34.2,34.1
				C880.2,151.1,895.5,166.4,914.4,166.4z"/>
		</g>
		<g>
			<path style="fill:#F0FCFB;" d="M389,966.3c18.8,0,34.1-15.2,34.1-33.9s-15.3-33.9-34.1-33.9c-18.8,0-34.1,15.2-34.1,33.9
				S370.1,966.3,389,966.3z"/>
			<path style="fill:#F0FCFB;" d="M434,959.1c23.3,0,42.1-18.8,42.1-41.9s-18.9-41.9-42.1-41.9c-23.3,0-42.1,18.8-42.1,41.9
				S410.7,959.1,434,959.1z"/>
			<path style="fill:#F0FCFB;" d="M430.9,966.3c18.9,0,34.2-15.3,34.2-34.1s-15.3-34.1-34.2-34.1s-34.2,15.3-34.2,34.1
				C396.7,951,412,966.3,430.9,966.3z"/>
		</g>
		<g>
			<path style="fill:#F0FCFB;" d="M1306.4,353.5c18.8,0,34.1-15.2,34.1-33.9c0-18.7-15.3-33.9-34.1-33.9
				c-18.8,0-34.1,15.2-34.1,33.9S1287.5,353.5,1306.4,353.5z"/>
			<path style="fill:#F0FCFB;" d="M1351.4,346.3c23.3,0,42.1-18.8,42.1-41.9s-18.9-41.9-42.1-41.9c-23.3,0-42.1,18.8-42.1,41.9
				S1328.1,346.3,1351.4,346.3z"/>
			<path style="fill:#F0FCFB;" d="M1348.3,353.5c18.9,0,34.2-15.3,34.2-34.1c0-18.8-15.3-34.1-34.2-34.1s-34.2,15.3-34.2,34.1
				C1314.1,338.2,1329.4,353.5,1348.3,353.5z"/>
		</g>
		<g>
			<path style="fill:#F0FCFB;" d="M1456.8,907.7c18.8,0,34.1-15.2,34.1-33.9s-15.3-33.9-34.1-33.9c-18.8,0-34.1,15.2-34.1,33.9
				S1437.9,907.7,1456.8,907.7z"/>
			<path style="fill:#F0FCFB;" d="M1501.8,900.5c23.3,0,42.1-18.8,42.1-41.9s-18.9-41.9-42.1-41.9c-23.3,0-42.1,18.8-42.1,41.9
				S1478.5,900.5,1501.8,900.5z"/>
			<path style="fill:#F0FCFB;" d="M1498.7,907.7c18.9,0,34.2-15.3,34.2-34.1s-15.3-34.1-34.2-34.1s-34.2,15.3-34.2,34.1
				S1479.8,907.7,1498.7,907.7z"/>
		</g>
		<g>
			<path style="fill:#F0FCFB;" d="M1813.7,410.4c18.8,0,34.1-15.2,34.1-33.9c0-18.7-15.3-33.9-34.1-33.9s-34.1,15.2-34.1,33.9
				S1794.8,410.4,1813.7,410.4z"/>
			<path style="fill:#F0FCFB;" d="M1858.7,403.2c23.3,0,42.1-18.8,42.1-41.9s-18.9-41.9-42.1-41.9c-23.3,0-42.1,18.8-42.1,41.9
				S1835.4,403.2,1858.7,403.2z"/>
			<path style="fill:#F0FCFB;" d="M1855.6,410.4c18.9,0,34.2-15.3,34.2-34.1c0-18.8-15.3-34.1-34.2-34.1
				c-18.9,0-34.2,15.3-34.2,34.1S1836.7,410.4,1855.6,410.4z"/>
		</g>
		<g>
			<path style="fill:#F0FCFB;" d="M640.2,937.8c18.9,0,34.2-15.3,34.2-34.1s-15.3-34.1-34.2-34.1S606,884.9,606,903.7
				C605.9,922.6,621.3,937.8,640.2,937.8z"/>
			<path style="fill:#F0FCFB;" d="M643.1,893.3c18.9,0,34.2-15.3,34.2-34.1s-15.3-34.1-34.2-34.1s-34.2,15.3-34.2,34.1
				C608.9,878,624.2,893.3,643.1,893.3z"/>
			<path style="fill:#F0FCFB;" d="M681.1,926.4c18.9,0,34.2-15.3,34.2-34.1s-15.3-34.1-34.2-34.1s-34.2,15.3-34.2,34.1
				C646.9,911.2,662.2,926.4,681.1,926.4z"/>
			<path style="fill:#F0FCFB;" d="M693.2,901.3c18.9,0,34.2-15.3,34.2-34.1s-15.3-34.1-34.2-34.1S659,848.4,659,867.2
				C658.9,886.1,674.2,901.3,693.2,901.3z"/>
			<path style="fill:#F0FCFB;" d="M721.1,918.8c18.9,0,34.2-15.3,34.2-34.1s-15.3-34.1-34.2-34.1s-34.2,15.3-34.2,34.1
				C686.9,903.6,702.2,918.8,721.1,918.8z"/>
		</g>
		<g>
			<path style="fill:#F0FCFB;" d="M512.7,1165.6c18.9,0,34.2-15.3,34.2-34.1c0-18.8-15.3-34.1-34.2-34.1
				c-18.9,0-34.2,15.3-34.2,34.1C478.4,1150.4,493.8,1165.6,512.7,1165.6z"/>
			<path style="fill:#F0FCFB;" d="M515.6,1121.1c18.9,0,34.2-15.3,34.2-34.1c0-18.8-15.3-34.1-34.2-34.1
				c-18.9,0-34.2,15.3-34.2,34.1C481.4,1105.8,496.7,1121.1,515.6,1121.1z"/>
			<path style="fill:#F0FCFB;" d="M553.6,1154.2c18.9,0,34.2-15.3,34.2-34.1c0-18.8-15.3-34.1-34.2-34.1s-34.2,15.3-34.2,34.1
				C519.4,1139,534.7,1154.2,553.6,1154.2z"/>
			<path style="fill:#F0FCFB;" d="M565.7,1129.1c18.9,0,34.2-15.3,34.2-34.1c0-18.8-15.3-34.1-34.2-34.1s-34.2,15.3-34.2,34.1
				C531.4,1113.9,546.7,1129.1,565.7,1129.1z"/>
			<path style="fill:#F0FCFB;" d="M593.6,1146.6c18.9,0,34.2-15.3,34.2-34.1c0-18.8-15.3-34.1-34.2-34.1s-34.2,15.3-34.2,34.1
				C559.4,1131.4,574.7,1146.6,593.6,1146.6z"/>
		</g>
		<g>
			<path style="fill:#F0FCFB;" d="M118.5,1459.8c18.9,0,34.2-15.3,34.2-34.1c0-18.8-15.3-34.1-34.2-34.1s-34.2,15.3-34.2,34.1
				C84.2,1444.6,99.6,1459.8,118.5,1459.8z"/>
			<path style="fill:#F0FCFB;" d="M121.4,1415.3c18.9,0,34.2-15.3,34.2-34.1c0-18.8-15.3-34.1-34.2-34.1s-34.2,15.3-34.2,34.1
				C87.2,1400,102.5,1415.3,121.4,1415.3z"/>
			<path style="fill:#F0FCFB;" d="M159.4,1448.4c18.9,0,34.2-15.3,34.2-34.1c0-18.8-15.3-34.1-34.2-34.1s-34.2,15.3-34.2,34.1
				C125.2,1433.2,140.5,1448.4,159.4,1448.4z"/>
			<path style="fill:#F0FCFB;" d="M171.5,1423.3c18.9,0,34.2-15.3,34.2-34.1c0-18.8-15.3-34.1-34.2-34.1s-34.2,15.3-34.2,34.1
				C137.2,1408.1,152.5,1423.3,171.5,1423.3z"/>
			<path style="fill:#F0FCFB;" d="M199.4,1440.8c18.9,0,34.2-15.3,34.2-34.1c0-18.8-15.3-34.1-34.2-34.1s-34.2,15.3-34.2,34.1
				C165.2,1425.6,180.5,1440.8,199.4,1440.8z"/>
		</g>
		<g>
			<path style="fill:#F0FCFB;" d="M24.6,685.1c18.9,0,34.2-15.3,34.2-34.1s-15.3-34.1-34.2-34.1S-9.6,632.2-9.6,651
				C-9.7,669.9,5.7,685.1,24.6,685.1z"/>
			<path style="fill:#F0FCFB;" d="M27.5,640.6c18.9,0,34.2-15.3,34.2-34.1s-15.3-34.1-34.2-34.1s-34.2,15.3-34.2,34.1
				S8.6,640.6,27.5,640.6z"/>
			<path style="fill:#F0FCFB;" d="M65.5,673.7c18.9,0,34.2-15.3,34.2-34.1s-15.3-34.1-34.2-34.1s-34.2,15.3-34.2,34.1
				C31.3,658.5,46.6,673.7,65.5,673.7z"/>
			<path style="fill:#F0FCFB;" d="M77.6,648.6c18.9,0,34.2-15.3,34.2-34.1s-15.3-34.1-34.2-34.1s-34.2,15.3-34.2,34.1
				C43.3,633.4,58.6,648.6,77.6,648.6z"/>
			<path style="fill:#F0FCFB;" d="M105.5,666.1c18.9,0,34.2-15.3,34.2-34.1s-15.3-34.1-34.2-34.1S71.3,613.2,71.3,632
				C71.3,650.9,86.6,666.1,105.5,666.1z"/>
		</g>
		<g>
			<path style="fill:#F0FCFB;" d="M499.3,152.9c18.9,0,34.2-15.3,34.2-34.1s-15.3-34.1-34.2-34.1c-18.9,0-34.2,15.3-34.2,34.1
				C465,137.7,480.4,152.9,499.3,152.9z"/>
			<path style="fill:#F0FCFB;" d="M502.2,108.4c18.9,0,34.2-15.3,34.2-34.1s-15.3-34.1-34.2-34.1c-18.9,0-34.2,15.3-34.2,34.1
				S483.3,108.4,502.2,108.4z"/>
			<path style="fill:#F0FCFB;" d="M540.2,141.5c18.9,0,34.2-15.3,34.2-34.1s-15.3-34.1-34.2-34.1S506,88.6,506,107.4
				C506,126.3,521.3,141.5,540.2,141.5z"/>
			<path style="fill:#F0FCFB;" d="M552.3,116.4c18.9,0,34.2-15.3,34.2-34.1s-15.3-34.1-34.2-34.1s-34.2,15.3-34.2,34.1
				C518,101.2,533.3,116.4,552.3,116.4z"/>
			<path style="fill:#F0FCFB;" d="M580.2,133.9c18.9,0,34.2-15.3,34.2-34.1s-15.3-34.1-34.2-34.1S546,81,546,99.8
				C546,118.7,561.3,133.9,580.2,133.9z"/>
		</g>
		<g>
			<path style="fill:#F0FCFB;" d="M65,163.7c18.9,0,34.2-15.3,34.2-34.1S83.9,95.5,65,95.5s-34.2,15.3-34.2,34.1
				C30.7,148.5,46.1,163.7,65,163.7z"/>
			<path style="fill:#F0FCFB;" d="M67.9,119.2c18.9,0,34.2-15.3,34.2-34.1S86.8,51,67.9,51S33.7,66.3,33.7,85.1S49,119.2,67.9,119.2
				z"/>
			<path style="fill:#F0FCFB;" d="M105.9,152.3c18.9,0,34.2-15.3,34.2-34.1s-15.3-34.1-34.2-34.1s-34.2,15.3-34.2,34.1
				C71.7,137.1,87,152.3,105.9,152.3z"/>
			<path style="fill:#F0FCFB;" d="M118,127.2c18.9,0,34.2-15.3,34.2-34.1S136.9,59,118,59S83.8,74.3,83.8,93.1
				C83.7,112,99,127.2,118,127.2z"/>
			<path style="fill:#F0FCFB;" d="M145.9,144.7c18.9,0,34.2-15.3,34.2-34.1s-15.3-34.1-34.2-34.1s-34.2,15.3-34.2,34.1
				C111.7,129.5,127,144.7,145.9,144.7z"/>
		</g>
		<g>
			<path style="fill:#F0FCFB;" d="M1807.4,152.9c18.9,0,34.2-15.3,34.2-34.1s-15.3-34.1-34.2-34.1s-34.2,15.3-34.2,34.1
				C1773.1,137.7,1788.5,152.9,1807.4,152.9z"/>
			<path style="fill:#F0FCFB;" d="M1810.3,108.4c18.9,0,34.2-15.3,34.2-34.1s-15.3-34.1-34.2-34.1c-18.9,0-34.2,15.3-34.2,34.1
				S1791.4,108.4,1810.3,108.4z"/>
			<path style="fill:#F0FCFB;" d="M1848.3,141.5c18.9,0,34.2-15.3,34.2-34.1s-15.3-34.1-34.2-34.1c-18.9,0-34.2,15.3-34.2,34.1
				C1814.1,126.3,1829.4,141.5,1848.3,141.5z"/>
			<path style="fill:#F0FCFB;" d="M1860.4,116.4c18.9,0,34.2-15.3,34.2-34.1s-15.3-34.1-34.2-34.1s-34.2,15.3-34.2,34.1
				C1826.1,101.2,1841.4,116.4,1860.4,116.4z"/>
			<path style="fill:#F0FCFB;" d="M1888.3,133.9c18.9,0,34.2-15.3,34.2-34.1s-15.3-34.1-34.2-34.1c-18.9,0-34.2,15.3-34.2,34.1
				C1854.1,118.7,1869.4,133.9,1888.3,133.9z"/>
		</g>
		<g>
			<path style="fill:#F0FCFB;" d="M1860.4,774.4c18.9,0,34.2-15.3,34.2-34.1s-15.3-34.1-34.2-34.1s-34.2,15.3-34.2,34.1
				C1826.1,759.2,1841.5,774.4,1860.4,774.4z"/>
			<path style="fill:#F0FCFB;" d="M1863.3,729.9c18.9,0,34.2-15.3,34.2-34.1s-15.3-34.1-34.2-34.1c-18.9,0-34.2,15.3-34.2,34.1
				S1844.4,729.9,1863.3,729.9z"/>
			<path style="fill:#F0FCFB;" d="M1901.3,763c18.9,0,34.2-15.3,34.2-34.1s-15.3-34.1-34.2-34.1c-18.9,0-34.2,15.3-34.2,34.1
				C1867.1,747.8,1882.4,763,1901.3,763z"/>
			<path style="fill:#F0FCFB;" d="M1913.4,737.9c18.9,0,34.2-15.3,34.2-34.1s-15.3-34.1-34.2-34.1s-34.2,15.3-34.2,34.1
				C1879.1,722.7,1894.4,737.9,1913.4,737.9z"/>
			<path style="fill:#F0FCFB;" d="M1941.3,755.4c18.9,0,34.2-15.3,34.2-34.1s-15.3-34.1-34.2-34.1c-18.9,0-34.2,15.3-34.2,34.1
				C1907.1,740.2,1922.4,755.4,1941.3,755.4z"/>
		</g>
		<g>
			<path style="fill:#F0FCFB;" d="M1726.5,964c18.9,0,34.2-15.3,34.2-34.1s-15.3-34.1-34.2-34.1s-34.2,15.3-34.2,34.1
				C1692.2,948.8,1707.6,964,1726.5,964z"/>
			<path style="fill:#F0FCFB;" d="M1729.4,919.5c18.9,0,34.2-15.3,34.2-34.1s-15.3-34.1-34.2-34.1s-34.2,15.3-34.2,34.1
				S1710.5,919.5,1729.4,919.5z"/>
			<path style="fill:#F0FCFB;" d="M1767.4,952.6c18.9,0,34.2-15.3,34.2-34.1s-15.3-34.1-34.2-34.1s-34.2,15.3-34.2,34.1
				C1733.2,937.4,1748.5,952.6,1767.4,952.6z"/>
			<path style="fill:#F0FCFB;" d="M1779.5,927.5c18.9,0,34.2-15.3,34.2-34.1s-15.3-34.1-34.2-34.1s-34.2,15.3-34.2,34.1
				C1745.2,912.3,1760.5,927.5,1779.5,927.5z"/>
			<path style="fill:#F0FCFB;" d="M1807.4,945c18.9,0,34.2-15.3,34.2-34.1s-15.3-34.1-34.2-34.1s-34.2,15.3-34.2,34.1
				C1773.2,929.8,1788.5,945,1807.4,945z"/>
		</g>
	</g>
	<g>
		<ellipse style="fill:#683F28;" cx="954.5" cy="1772.7" rx="38.9" ry="9.5"/>
		<path style="fill:#00F59A;" d="M1011.2,1545.8c1.9-14.2,9.7-41,40.6-63.2c8.6-6.2,20.4,1.4,18.2,11.8
			c-6.9,32.4-19.2,70.1-49.7,64.3C1014.4,1557.6,1010.4,1551.8,1011.2,1545.8z"/>
		<path style="fill:#00F59A;" d="M1062.1,1392.4c7.1-12.2,26.7-37.2,70.2-43.7c8.2-1.2,13.9,8.1,9,14.8
			c-20.4,28.3-49.6,62.8-76.9,41C1060.8,1401.6,1059.8,1396.4,1062.1,1392.4z"/>
		<path style="fill:#00F59A;" d="M926.3,1284.7c-12.5-6.8-36-24.3-45.2-63.3c-2.3-9.6,8.3-17.1,16.6-11.7
			c28.2,18.4,60.4,44.2,42.9,71.2C937.5,1285.8,931.3,1287.4,926.3,1284.7z"/>
		<path style="fill:#00F59A;" d="M1066.8,1305.5c2.9-16.5,12.6-45.2,45.2-68.7c11.8-8.5,27.8,2.2,24.4,16.4
			c-8.8,36.4-23.9,76.1-56.9,70.3C1071,1322,1065.3,1314,1066.8,1305.5z"/>
		<path style="fill:#596B34;" d="M1028.4,881.7c0,0-86.1,513.3-92.3,888.2c11.7,6.2,21.9,12.9,41.5,0c0-82.3,29.4-617.8,87.2-874.5
			C1068.8,856.3,1028.4,881.7,1028.4,881.7z"/>
		<path style="fill:#596B34;" d="M902.7,1486.8c49.2,49.2,37.4,48.8,50.6,67.3c8.4-0.5,8.6-1.7,13.8-9.8
			c-52.3-75.4-69.3-77.9-69.3-77.9S895.1,1478.9,902.7,1486.8z"/>
		<path style="fill:#596B34;" d="M1010.7,1557.8c-32.2,61.7-35.4,50.3-49.1,68.5c3,7.9,4.3,7.6,13.5,10.2
			c56.2-72.6,53.5-89.4,53.5-89.4S1015.8,1548.1,1010.7,1557.8z"/>
		<path style="fill:#596B34;" d="M1065,1318.3c-58.9,110-63.3,92-87.7,125.5c4.4,12.3-0.3,6.6,15.2,8.4
			c99.8-134,103.4-156.2,103.4-156.2S1074.6,1301.1,1065,1318.3z"/>
		<path style="fill:#00F59A;" d="M848.8,1427c45.4,11.1,62.4,39.8,67.9,52.5c1.6,3.7,0.3,8.1-3,10.3c-30.5,20.6-56.7-19.5-74.1-50.5
			C835.9,1433,841.6,1425.3,848.8,1427z"/>
		<path style="fill:#596B34;" d="M933.2,1292.4c37,60.5,27,56.8,36.6,78.1c7.1,1.9,7.3,0.8,12.4-5.6c-37.3-86.3-51.3-93.3-51.3-93.3
			S927.4,1282.7,933.2,1292.4z"/>
		<path style="fill:#596B34;" d="M1059.1,1396.3c-33.2,11.1-29.3,3.1-40.1,3.6c-2.4,6-2,6.7-0.7,14.1c43.7-1,49.7-11.5,49.7-11.5
			S1064.3,1394.8,1059.1,1396.3z"/>
		<path style="fill:#00F59A;" d="M1081.8,1061.1c0.5-14.1,6-45.1,40.8-71.3c6.8-5.2,16.5,0.4,15.4,8.9c-4.6,34.5-14,78.2-48.2,72.2
			C1085,1070.1,1081.6,1065.9,1081.8,1061.1z"/>
		<path style="fill:#596B34;" d="M1082.4,1066.8c-29,77.2-85.6,175.9-98.5,199.9c3.7,8,5,7.5,14.9,8c53.3-95.4,100-211.4,100-211.4
			S1087.1,1054.7,1082.4,1066.8z"/>
		<path style="fill:#00F59A;" d="M951.8,956.4c24.8,26,28.3,52.4,28,66.6c-0.1,6.7-5.7,12.2-12.4,12.1
			c-29.3-0.5-35.4-37.5-36.9-69.7C929.9,954,943.9,948.1,951.8,956.4z"/>
		<path style="fill:#596B34;" d="M961.4,1005.1c0,0-6.1,17.7,37.3,118c9.9,0.5,11.2,1.1,15.6-6.4c-10.4-25.1-15.8-13.6-36.8-93.4
			C974.2,1010.8,961.4,1005.1,961.4,1005.1z"/>
		<path style="fill:#00F59A;" d="M1086,1159.2c7.8-11.7,24.7-30.1,57.1-37.9c12.2-2.9,21.3,11,13.8,21
			c-18.8,24.8-43.3,49.6-66.8,35.6C1083.7,1174,1081.9,1165.5,1086,1159.2z"/>
		<path style="fill:#596B34;" d="M1080.7,1166.9c-33.2,11.1-29.3,3.1-40.1,3.6c-2.4,6-2,6.7-0.7,14.1c43.7-1,49.7-11.5,49.7-11.5
			S1085.9,1165.3,1080.7,1166.9z"/>
	</g>
	<path style="fill:#4CD697;" d="M809.5,1775.7c15,0.5,27.6-11.2,28.1-26.1c0.5-15-11.2-27.6-26.1-28.1s-27.6,11.2-28.1,26.1
		C782.8,1762.6,794.5,1775.2,809.5,1775.7z"/>
	<path style="fill:#4CD697;" d="M876,1774.9c14.8,0.5,27.3-11.1,27.8-25.9c0.5-14.8-11.1-27.3-25.9-27.8
		c-14.8-0.5-27.3,11.1-27.8,25.9C849.5,1761.9,861.1,1774.3,876,1774.9z"/>
	<path style="fill:#4CD697;" d="M1058.4,1781.7c15,0.5,27.6-11.2,28.1-26.1s-11.2-27.6-26.1-28.1c-15-0.5-27.6,11.2-28.1,26.1
		S1043.4,1781.2,1058.4,1781.7z"/>
	<path style="fill:#4CD697;" d="M1121.1,1781.7c15.1,0.5,27.8-11,28.3-25.9c0.5-14.8-11.3-27.3-26.4-27.9s-27.8,11-28.3,25.9
		C1094.1,1768.6,1105.9,1781.1,1121.1,1781.7z"/>
	<path style="fill:#4CD697;" d="M1176.2,1784.3c15,0.5,27.6-11.2,28.1-26.1s-11.2-27.6-26.1-28.1c-15-0.5-27.6,11.2-28.1,26.1
		C1149.5,1771.2,1161.2,1783.7,1176.2,1784.3z"/>
	<path style="fill:#4CD697;" d="M1223.3,1783.2c14.8,0.5,27.3-11.1,27.8-25.9c0.5-14.8-11.1-27.3-25.9-27.8
		c-14.8-0.5-27.3,11.1-27.8,25.9C1196.9,1770.2,1208.5,1782.7,1223.3,1783.2z"/>
	<path style="fill:#4CD697;" d="M1269.3,1788.7c15,0.5,27.6-11.2,28.1-26.1c0.5-15-11.2-27.6-26.1-28.1c-15-0.5-27.6,11.2-28.1,26.1
		C1242.6,1775.6,1254.3,1788.2,1269.3,1788.7z"/>
	<path style="fill:#4CD697;" d="M1393.9,1794.1c14.8,0.5,27.3-11.1,27.8-25.9c0.5-14.8-11.1-27.3-25.9-27.8
		c-14.8-0.5-27.3,11.1-27.8,25.9C1367.4,1781.1,1379,1793.6,1393.9,1794.1z"/>
	<path style="fill:#4CD697;" d="M1346.1,1786.5c14.8,0.5,27.3-11.1,27.8-25.9s-11.1-27.3-25.9-27.8c-14.8-0.5-27.3,11.1-27.8,25.9
		C1319.7,1773.5,1331.3,1785.9,1346.1,1786.5z"/>
	<path style="fill:#4CD697;" d="M1439.6,1790.4c15,0.5,27.6-11.2,28.1-26.1s-11.2-27.6-26.1-28.1c-15-0.5-27.6,11.2-28.1,26.1
		C1412.9,1777.3,1424.6,1789.8,1439.6,1790.4z"/>
	<path style="fill:#4CD697;" d="M1505.9,1790.4c15.1,0.5,27.8-11,28.3-25.9c0.5-14.8-11.3-27.3-26.4-27.9s-27.8,11-28.3,25.9
		C1479,1777.3,1490.8,1789.8,1505.9,1790.4z"/>
	<path style="fill:#4CD697;" d="M1533.8,1792.3c15,0.5,27.6-11.2,28.1-26.1s-11.2-27.6-26.1-28.1c-15-0.5-27.6,11.2-28.1,26.1
		S1518.8,1791.8,1533.8,1792.3z"/>
	<path style="fill:#4CD697;" d="M1527.6,1790.8c14.8,0.5,27.3-11.1,27.8-25.9c0.5-14.8-11.1-27.3-25.9-27.8
		c-14.8-0.5-27.3,11.1-27.8,25.9C1501.2,1777.8,1512.8,1790.3,1527.6,1790.8z"/>
	<path style="fill:#4CD697;" d="M1572.4,1796.3c15,0.5,27.6-11.2,28.1-26.1c0.5-15-11.2-27.6-26.1-28.1c-15-0.5-27.6,11.2-28.1,26.1
		C1545.8,1783.2,1557.5,1795.8,1572.4,1796.3z"/>
	<path style="fill:#4CD697;" d="M1642.4,1797.9c15,0.5,27.6-11.2,28.1-26.1c0.5-15-11.2-27.6-26.1-28.1c-15-0.5-27.6,11.2-28.1,26.1
		S1627.4,1797.3,1642.4,1797.9z"/>
	<path style="fill:#4CD697;" d="M1677.4,1829.3c14.8,0.5,27.3-11.1,27.8-25.9c0.5-14.8-11.1-27.3-25.9-27.8
		c-14.8-0.5-27.3,11.1-27.8,25.9C1650.9,1816.3,1662.5,1828.8,1677.4,1829.3z"/>
	<path style="fill:#4CD697;" d="M1716.1,1797.7c15,0.5,27.6-11.2,28.1-26.1c0.5-15-11.2-27.6-26.1-28.1c-15-0.5-27.6,11.2-28.1,26.1
		C1689.4,1784.6,1701.1,1797.1,1716.1,1797.7z"/>
	<path style="fill:#4CD697;" d="M1800.6,1797.8c15.1,0.5,27.8-11,28.3-25.9c0.5-14.8-11.3-27.3-26.4-27.9
		c-15.1-0.5-27.8,11-28.3,25.9C1773.6,1784.8,1785.4,1797.3,1800.6,1797.8z"/>
	<path style="fill:#4CD697;" d="M1752.5,1829c15.1,0.5,27.8-11,28.3-25.9c0.5-14.8-11.3-27.3-26.4-27.9c-15.1-0.5-27.8,11-28.3,25.9
		C1725.6,1816,1737.4,1828.5,1752.5,1829z"/>
	<path style="fill:#4CD697;" d="M392,1762.4c15,0.5,27.6-11.2,28.1-26.1c0.5-15-11.2-27.6-26.1-28.1s-27.6,11.2-28.1,26.1
		C365.4,1749.3,377,1761.9,392,1762.4z"/>
	<path style="fill:#4CD697;" d="M446.4,1761.4c14.8,0.5,27.3-11.1,27.8-25.9c0.5-14.8-11.1-27.3-25.9-27.8s-27.3,11.1-27.8,25.9
		S431.6,1760.9,446.4,1761.4z"/>
	<path style="fill:#4CD697;" d="M486.4,1766.9c15,0.5,27.6-11.2,28.1-26.1s-11.2-27.6-26.1-28.1c-15-0.5-27.6,11.2-28.1,26.1
		C459.7,1753.8,471.4,1766.4,486.4,1766.9z"/>
	<path style="fill:#4CD697;" d="M613.4,1772.3c14.8,0.5,27.3-11.1,27.8-25.9c0.5-14.8-11.1-27.3-25.9-27.8
		c-14.8-0.5-27.3,11.1-27.8,25.9C586.9,1759.3,598.5,1771.8,613.4,1772.3z"/>
	<path style="fill:#4CD697;" d="M527.3,1765.8c14.8,0.5,27.3-11.1,27.8-25.9c0.5-14.8-11.1-27.3-25.9-27.8s-27.3,11.1-27.8,25.9
		S512.5,1765.3,527.3,1765.8z"/>
	<path style="fill:#4CD697;" d="M661.5,1768.6c15,0.5,27.6-11.2,28.1-26.1c0.5-15-11.2-27.6-26.1-28.1c-15-0.5-27.6,11.2-28.1,26.1
		C634.8,1755.5,646.5,1768,661.5,1768.6z"/>
	<path style="fill:#4CD697;" d="M760.5,1768.9c15.1,0.5,27.8-11,28.3-25.9c0.5-14.8-11.3-27.3-26.4-27.9
		c-15.1-0.5-27.8,11-28.3,25.9C733.6,1755.9,745.4,1768.3,760.5,1768.9z"/>
	<path style="fill:#4CD697;" d="M685.7,1769.7c15.1,0.5,27.8-11,28.3-25.9c0.5-14.8-11.3-27.3-26.4-27.9
		c-15.1-0.5-27.8,11-28.3,25.9C658.8,1756.7,670.6,1769.1,685.7,1769.7z"/>
	<path style="fill:#4CD697;" d="M12.9,1769.7c15,0.5,27.6-11.2,28.1-26.1s-11.2-27.6-26.1-28.1s-27.6,11.2-28.1,26.1
		C-13.8,1756.6-2.1,1769.2,12.9,1769.7z"/>
	<path style="fill:#4CD697;" d="M30.9,1768.4c14.8,0.5,27.3-11.1,27.8-25.9c0.5-14.8-11.1-27.3-25.9-27.8S5.6,1725.7,5,1740.5
		S16.1,1767.8,30.9,1768.4z"/>
	<path style="fill:#4CD697;" d="M74.6,1773.9c15,0.5,27.6-11.2,28.1-26.1c0.5-15-11.2-27.6-26.1-28.1s-27.6,11.2-28.1,26.1
		C47.9,1760.8,59.6,1773.3,74.6,1773.9z"/>
	<path style="fill:#4CD697;" d="M176.2,1766.9c14.8,0.5,27.3-11.1,27.8-25.9c0.5-14.8-11.1-27.3-25.9-27.8
		c-14.8-0.5-27.3,11.1-27.8,25.9C149.8,1753.9,161.4,1766.4,176.2,1766.9z"/>
	<path style="fill:#4CD697;" d="M123.3,1760.9c14.8,0.5,27.3-11.1,27.8-25.9c0.5-14.8-11.1-27.3-25.9-27.8s-27.3,11.1-27.8,25.9
		C96.9,1747.9,108.5,1760.4,123.3,1760.9z"/>
	<path style="fill:#4CD697;" d="M249.8,1763.4c15,0.5,27.6-11.2,28.1-26.1c0.5-15-11.2-27.6-26.1-28.1c-15-0.5-27.6,11.2-28.1,26.1
		C223.1,1750.3,234.8,1762.9,249.8,1763.4z"/>
	<path style="fill:#4CD697;" d="M337.9,1763.6c15.1,0.5,27.8-11,28.3-25.9c0.5-14.8-11.3-27.3-26.4-27.9
		c-15.1-0.5-27.8,11-28.3,25.9S322.8,1763.1,337.9,1763.6z"/>
	<path style="fill:#4CD697;" d="M273.4,1760.8c15.1,0.5,27.8-11,28.3-25.9s-11.3-27.3-26.4-27.9c-15.1-0.5-27.8,11-28.3,25.9
		S258.3,1760.3,273.4,1760.8z"/>
	<path style="fill:#23A068;" d="M811.9,1822.9c14.8,0.5,27.3-11.2,27.9-26.2c0.5-15-11.1-27.6-25.9-28.1
		c-14.8-0.5-27.3,11.2-27.9,26.2S797.1,1822.4,811.9,1822.9z"/>
	<path style="fill:#23A068;" d="M870.3,1816.6c15,0.5,27.6-11.2,28.1-26.1c0.5-15-11.2-27.6-26.1-28.1s-27.6,11.2-28.1,26.1
		S855.3,1816,870.3,1816.6z"/>
	<path style="fill:#23A068;" d="M1080.4,1832.5c14.8,0.5,27.3-11.2,27.9-26.2c0.5-15-11.1-27.6-25.9-28.1
		c-14.8-0.5-27.3,11.2-27.9,26.2S1065.6,1832,1080.4,1832.5z"/>
	<path style="fill:#23A068;" d="M1132.1,1823.2c15,0.5,27.6-11.2,28.1-26.1c0.5-15-11.2-27.6-26.1-28.1s-27.6,11.2-28.1,26.1
		C1105.5,1810.1,1117.1,1822.7,1132.1,1823.2z"/>
	<path style="fill:#23A068;" d="M1180.7,1831.8c14.8,0.5,27.3-11.2,27.9-26.2c0.5-15-11.1-27.6-25.9-28.1
		c-14.8-0.5-27.3,11.2-27.9,26.2S1165.8,1831.2,1180.7,1831.8z"/>
	<path style="fill:#23A068;" d="M1353.3,1848.9c14.8,0.5,27.3-11.2,27.9-26.2s-11.1-27.6-25.9-28.1s-27.3,11.2-27.9,26.2
		C1326.8,1835.8,1338.4,1848.3,1353.3,1848.9z"/>
	<path style="fill:#23A068;" d="M1231.7,1830.8c15,0.5,27.6-11.2,28.1-26.1c0.5-15-11.2-27.6-26.1-28.1s-27.6,11.2-28.1,26.1
		C1205,1817.7,1216.7,1830.3,1231.7,1830.8z"/>
	<path style="fill:#23A068;" d="M1297.8,1829.4c15,0.5,27.6-11.1,28.1-25.9c0.5-14.8-11.2-27.3-26.2-27.9s-27.6,11.1-28.1,25.9
		C1271.1,1816.4,1282.8,1828.8,1297.8,1829.4z"/>
	<path style="fill:#23A068;" d="M1399.6,1841.7c14.8,0.5,27.3-11.2,27.9-26.2c0.5-15-11.1-27.6-25.9-28.1s-27.3,11.2-27.9,26.2
		C1373.2,1828.6,1384.8,1841.1,1399.6,1841.7z"/>
	<path style="fill:#23A068;" d="M1663.5,1845.4c14.8,0.5,27.3-11.2,27.9-26.2s-11.1-27.6-25.9-28.1c-14.8-0.5-27.3,11.2-27.9,26.2
		C1637.1,1832.3,1648.7,1844.9,1663.5,1845.4z"/>
	<path style="fill:#23A068;" d="M1463.7,1841.5c14.8,0.5,27.3-11.2,27.9-26.2c0.5-15-11.1-27.6-25.9-28.1
		c-14.8-0.5-27.3,11.2-27.9,26.2S1448.8,1841,1463.7,1841.5z"/>
	<path style="fill:#23A068;" d="M1563.8,1832.6c15,0.5,27.6-11.2,28.1-26.1c0.5-15-11.2-27.6-26.1-28.1c-15-0.5-27.6,11.2-28.1,26.1
		S1548.8,1832.1,1563.8,1832.6z"/>
	<path style="fill:#23A068;" d="M1562.7,1838.9c14.8,0.5,27.3-11.2,27.9-26.2c0.5-15-11.1-27.6-25.9-28.1
		c-14.8-0.5-27.3,11.2-27.9,26.2C1536.3,1825.8,1547.9,1838.4,1562.7,1838.9z"/>
	<path style="fill:#23A068;" d="M1560.5,1837.5c15,0.5,27.6-11.2,28.1-26.1s-11.2-27.6-26.1-28.1c-15-0.5-27.6,11.2-28.1,26.1
		C1533.8,1824.4,1545.5,1837,1560.5,1837.5z"/>
	<path style="fill:#23A068;" d="M1629,1836.1c15,0.5,27.6-11.1,28.1-25.9c0.5-14.8-11.2-27.3-26.2-27.9c-15-0.5-27.6,11.1-28.1,25.9
		C1602.3,1823.1,1614,1835.5,1629,1836.1z"/>
	<path style="fill:#23A068;" d="M1686,1847.9c14.8,0.5,27.3-11.2,27.9-26.2s-11.1-27.6-25.9-28.1c-14.8-0.5-27.3,11.2-27.9,26.2
		C1659.6,1834.8,1671.2,1847.4,1686,1847.9z"/>
	<path style="fill:#23A068;" d="M1752.5,1847.8c14.8,0.5,27.3-11.2,27.9-26.2s-11.1-27.6-25.9-28.1s-27.3,11.2-27.9,26.2
		C1726.1,1834.7,1737.7,1847.3,1752.5,1847.8z"/>
	<path style="fill:#23A068;" d="M1817.5,1838.6c15,0.5,27.6-11.2,28.1-26.1c0.5-15-11.2-27.6-26.1-28.1c-15-0.5-27.6,11.2-28.1,26.1
		C1790.9,1825.5,1802.6,1838.1,1817.5,1838.6z"/>
	<path style="fill:#4CD697;" d="M1922.8,1799c15.1,0.5,27.8-11,28.3-25.9c0.5-14.8-11.3-27.3-26.4-27.9c-15.1-0.5-27.8,11-28.3,25.9
		S1907.7,1798.5,1922.8,1799z"/>
	<path style="fill:#4CD697;" d="M1879.6,1830.2c15.1,0.5,27.8-11,28.3-25.9s-11.3-27.3-26.4-27.9s-27.8,11-28.3,25.9
		C1852.7,1817.2,1864.5,1829.7,1879.6,1830.2z"/>
	<path style="fill:#23A068;" d="M1879.6,1849c14.8,0.5,27.3-11.2,27.9-26.2c0.5-15-11.1-27.6-25.9-28.1
		c-14.8-0.5-27.3,11.2-27.9,26.2S1864.8,1848.5,1879.6,1849z"/>
	<path style="fill:#23A068;" d="M1939.8,1839.8c15,0.5,27.6-11.2,28.1-26.1c0.5-15-11.2-27.6-26.1-28.1s-27.6,11.2-28.1,26.1
		C1913.1,1826.7,1924.8,1839.2,1939.8,1839.8z"/>
	<path style="fill:#23A068;" d="M386.4,1816.4c14.8,0.5,27.3-11.2,27.9-26.2c0.5-15-11.1-27.6-25.9-28.1s-27.3,11.2-27.9,26.2
		C359.9,1803.3,371.5,1815.9,386.4,1816.4z"/>
	<path style="fill:#23A068;" d="M444.7,1815.6c15,0.5,27.6-11.2,28.1-26.1c0.5-15-11.2-27.6-26.1-28.1c-15-0.5-27.6,11.2-28.1,26.1
		C418,1802.5,429.7,1815.1,444.7,1815.6z"/>
	<path style="fill:#23A068;" d="M491.6,1786.1c15,0.5,27.6-11.1,28.1-25.9c0.5-14.8-11.2-27.3-26.2-27.9s-27.6,11.1-28.1,25.9
		S476.6,1785.6,491.6,1786.1z"/>
	<path style="fill:#23A068;" d="M608.9,1826.4c14.8,0.5,27.3-11.2,27.9-26.2s-11.1-27.6-25.9-28.1c-14.8-0.5-27.3,11.2-27.9,26.2
		C582.5,1813.3,594.1,1825.8,608.9,1826.4z"/>
	<path style="fill:#23A068;" d="M531.8,1820.4c14.8,0.5,27.3-11.2,27.9-26.2c0.5-15-11.1-27.6-25.9-28.1
		c-14.8-0.5-27.3,11.2-27.9,26.2S517,1819.9,531.8,1820.4z"/>
	<path style="fill:#23A068;" d="M675.4,1826.3c14.8,0.5,27.3-11.2,27.9-26.2c0.5-15-11.1-27.6-25.9-28.1
		c-14.8-0.5-27.3,11.2-27.9,26.2C649,1813.2,660.6,1825.7,675.4,1826.3z"/>
	<path style="fill:#23A068;" d="M726.1,1824.2c14.8,0.5,27.3-11.2,27.9-26.2c0.5-15-11.1-27.6-25.9-28.1
		c-14.8-0.5-27.3,11.2-27.9,26.2C699.7,1811.1,711.3,1823.7,726.1,1824.2z"/>
	<path style="fill:#23A068;" d="M762.5,1789.4c15,0.5,27.6-11.2,28.1-26.1c0.5-15-11.2-27.6-26.1-28.1s-27.6,11.2-28.1,26.1
		C735.8,1776.3,747.5,1788.9,762.5,1789.4z"/>
	<path style="fill:#23A068;" d="M-40.6,1798c14.8,0.5,27.3-11.2,27.9-26.2s-11.1-27.6-25.9-28.1s-27.3,11.2-27.9,26.2
		C-67,1784.9-55.4,1797.5-40.6,1798z"/>
	<path style="fill:#23A068;" d="M27.5,1797.3c15,0.5,27.6-11.2,28.1-26.1s-11.2-27.6-26.1-28.1s-27.6,11.2-28.1,26.1
		C0.8,1784.2,12.5,1796.7,27.5,1797.3z"/>
	<path style="fill:#23A068;" d="M79,1795.7c15,0.5,27.6-11.1,28.1-25.9c0.5-14.8-11.2-27.3-26.2-27.9s-27.6,11.1-28.1,25.9
		C52.3,1782.6,64,1795.1,79,1795.7z"/>
	<path style="fill:#23A068;" d="M169.8,1819.9c14.8,0.5,27.3-11.2,27.9-26.2c0.5-15-11.1-27.6-25.9-28.1
		c-14.8-0.5-27.3,11.2-27.9,26.2C143.4,1806.8,155,1819.4,169.8,1819.9z"/>
	<path style="fill:#23A068;" d="M261.7,1820.1c14.8,0.5,27.3-11.2,27.9-26.2s-11.1-27.6-25.9-28.1c-14.8-0.5-27.3,11.2-27.9,26.2
		C235.3,1807,246.9,1819.5,261.7,1820.1z"/>
	<path style="fill:#23A068;" d="M126.1,1814.5c14.8,0.5,27.3-11.2,27.9-26.2c0.5-15-11.1-27.6-25.9-28.1
		c-14.8-0.5-27.3,11.2-27.9,26.2C99.6,1801.4,111.2,1814,126.1,1814.5z"/>
	<path style="fill:#23A068;" d="M337.9,1783.1c15,0.5,27.6-11.2,28.1-26.1c0.5-15-11.2-27.6-26.1-28.1c-15-0.5-27.6,11.2-28.1,26.1
		C311.2,1770,322.9,1782.6,337.9,1783.1z"/>
	<path style="fill:#56EA89;" d="M929.8,1786c10.3,0,18.6-8.2,18.6-18.3s-8.4-18.3-18.6-18.3s-18.6,8.2-18.6,18.3
		S919.5,1786,929.8,1786z"/>
	<path style="fill:#56EA89;" d="M952.9,1796.5c11.7,0,21-9.3,21-20.7c0-11.4-9.5-20.7-21-20.7c-11.7,0-21,9.3-21,20.7
		C931.9,1787.2,941.4,1796.5,952.9,1796.5z"/>
	<path style="fill:#56EA89;" d="M985.4,1794c12,0,21.6-9.6,21.6-21.3c0-11.7-9.7-21.3-21.6-21.3c-11.9,0-21.6,9.6-21.6,21.3
		C963.8,1784.4,973.3,1794,985.4,1794z"/>
	<path style="fill:#23A068;" d="M1006,1826.4c14.8,0.5,27.3-11.2,27.9-26.2s-11.1-27.6-25.9-28.1s-27.3,11.2-27.9,26.2
		C979.5,1813.3,991.1,1825.8,1006,1826.4z"/>
	<path style="fill:#23A068;" d="M918.4,1829.4c15,0.5,27.6-11.1,28.1-25.9c0.5-14.8-11.2-27.3-26.2-27.9
		c-15-0.5-27.6,11.1-28.1,25.9C891.7,1816.4,903.4,1828.8,918.4,1829.4z"/>
</g>
<g id="EPISODES">
	<g id="OPEN-1">
		<rect x="1004.1" y="1465.1" style="fill:#FFFFFF;fill-opacity:0;" width="92.3" height="98.3"/>
	</g>
	<g id="OPEN-2">
		<rect x="824.2" y="1409.7" style="fill:#FFFFFF;fill-opacity:0;" width="94.1" height="102.5"/>
	</g>
	<g id="OPEN-3-1">
		<rect x="1062.1" y="1342.6" style="fill:#FFFFFF;fill-opacity:0;" width="98.2" height="81.7"/>
	</g>
	<g id="OPEN-3-2">
		<rect x="1056.6" y="1214.6" style="fill:#FFFFFF;fill-opacity:0;" width="96.3" height="117.1"/>
	</g>
	<g id="OPEN-4">
		<rect x="860.4" y="1192.2" style="fill:#FFFFFF;fill-opacity:0;" width="92.5" height="101.3"/>
	</g>
	<g id="OPEN-5-1">
		<rect x="1080.4" y="1109.2" style="fill:#FFFFFF;fill-opacity:0;" width="96.3" height="75.4"/>
	</g>
	<g id="OPEN-5-2">
		<rect x="1062.9" y="966.3" style="fill:#FFFFFF;fill-opacity:0;" width="96.3" height="113.3"/>
	</g>
	<g id="OPEN-6">
		<rect x="896.6" y="937.4" style="fill:#FFFFFF;fill-opacity:0;" width="91.8" height="98.1"/>
	</g>
</g>
</svg>
