<?xml version="1.0" encoding="utf-8"?>
<!-- Generator: Adobe Illustrator 22.0.0, SVG Export Plug-In . SVG Version: 6.00 Build 0)  -->
<svg version="1.1" id="Layer_1" xmlns="http://www.w3.org/2000/svg" xmlns:xlink="http://www.w3.org/1999/xlink" x="0px" y="0px"
	 viewBox="0 0 1976.9 1832.7" style="enable-background:new 0 0 1976.9 1832.7;" xml:space="preserve">
<g id="Layer_1_1_">
	<path style="fill:#71D6FF;" d="M2016.3,0H-29.5v1767.7h2045.7L2016.3,0L2016.3,0z"/>
	<g style="opacity:0.14;">
		<path style="fill:#F0FCFB;" d="M773.1,1535.8c20.4,0,37-16.3,37-36.5s-16.6-36.5-37-36.5s-37,16.3-37,36.5
			C736.1,1519.4,752.7,1535.8,773.1,1535.8z"/>
		<g>
			<path style="fill:#F0FCFB;" d="M1055.4,1467.8c28.4,0,51.3-22.9,51.3-51.1s-23-51.1-51.3-51.1c-28.4,0-51.3,22.9-51.3,51.1
				C1004.1,1444.9,1027.1,1467.8,1055.4,1467.8z"/>
			<path style="fill:#F0FCFB;" d="M1123.3,1457c35.1,0,63.5-28.3,63.5-63.1c0-34.9-28.4-63.1-63.5-63.1s-63.5,28.3-63.5,63.1
				S1088.2,1457,1123.3,1457z"/>
			<path style="fill:#F0FCFB;" d="M1179.4,1467.8c29.5,0,53.4-23.8,53.4-53.1c0-29.3-23.9-53.1-53.4-53.1s-53.4,23.8-53.4,53.1
				C1126,1444,1149.9,1467.8,1179.4,1467.8z"/>
			<path style="fill:#F0FCFB;" d="M1118.6,1467.8c28.5,0,51.6-23,51.6-51.3s-23.1-51.4-51.6-51.4s-51.6,23-51.6,51.3
				S1090.2,1467.8,1118.6,1467.8z"/>
		</g>
		<g>
			<path style="fill:#F0FCFB;" d="M762.2,1396.8c18.8,0,34.1-15.2,34.1-33.9S781,1329,762.2,1329s-34.1,15.2-34.1,33.9
				S743.4,1396.8,762.2,1396.8z"/>
			<path style="fill:#F0FCFB;" d="M807.2,1389.6c23.3,0,42.1-18.8,42.1-41.9c0-23.2-18.9-41.9-42.1-41.9
				c-23.3,0-42.1,18.8-42.1,41.9S783.9,1389.6,807.2,1389.6z"/>
			<path style="fill:#F0FCFB;" d="M842.7,1396.8c19.6,0,35.4-15.8,35.4-35.3s-15.9-35.3-35.4-35.3c-19.6,0-35.4,15.8-35.4,35.3
				C807.2,1381,823.1,1396.8,842.7,1396.8z"/>
			<path style="fill:#F0FCFB;" d="M804.1,1396.8c18.9,0,34.2-15.3,34.2-34.1c0-18.8-15.3-34.1-34.2-34.1s-34.2,15.3-34.2,34.1
				C769.9,1381.5,785.2,1396.8,804.1,1396.8z"/>
		</g>
		<path style="fill:#F0FCFB;" d="M765.9,1235.8c29.9,0,54.2-18.4,54.2-41s-24.3-41-54.2-41s-54.2,18.4-54.2,41
			S736,1235.8,765.9,1235.8z"/>
		<path style="fill:#F0FCFB;" d="M811.5,1242.8c25.2,0,45.6-15.4,45.6-34.5s-20.4-34.5-45.6-34.5c-25.2,0-45.6,15.4-45.6,34.5
			C765.9,1227.3,786.3,1242.8,811.5,1242.8z"/>
		<path style="fill:#F0FCFB;" d="M761.9,1242.8c24.3,0,44.1-14.9,44.1-33.3s-19.7-33.4-44.1-33.4c-24.3,0-44.1,14.9-44.1,33.3
			S737.6,1242.8,761.9,1242.8z"/>
		<path style="fill:#F0FCFB;" d="M804.1,1542.8c17.1,0,31-13.9,31-31s-13.9-31-31-31s-31,13.9-31,31S787,1542.8,804.1,1542.8z"/>
		<path style="fill:#F0FCFB;" d="M770.1,1542.8c16.6,0,30-13.4,30-30s-13.4-30-30-30s-30,13.4-30,30
			C740.1,1529.3,753.5,1542.8,770.1,1542.8z"/>
		<g>
			<path style="fill:#F0FCFB;" d="M1124.2,1266.8c18.8,0,34.1-15.2,34.1-33.9c0-18.7-15.3-33.9-34.1-33.9
				c-18.8,0-34.1,15.2-34.1,33.9S1105.4,1266.8,1124.2,1266.8z"/>
			<path style="fill:#F0FCFB;" d="M1169.2,1259.6c23.3,0,42.1-18.8,42.1-41.9s-18.9-41.9-42.1-41.9c-23.3,0-42.1,18.8-42.1,41.9
				S1145.9,1259.6,1169.2,1259.6z"/>
			<path style="fill:#F0FCFB;" d="M1166.1,1266.8c18.9,0,34.2-15.3,34.2-34.1c0-18.8-15.3-34.1-34.2-34.1s-34.2,15.3-34.2,34.1
				S1147.2,1266.8,1166.1,1266.8z"/>
		</g>
		<g>
			<path style="fill:#F0FCFB;" d="M960.6,1158.3c18.8,0,34.1-15.2,34.1-33.9c0-18.7-15.3-33.9-34.1-33.9s-34.1,15.2-34.1,33.9
				S941.7,1158.3,960.6,1158.3z"/>
			<path style="fill:#F0FCFB;" d="M1005.6,1151.1c23.3,0,42.1-18.8,42.1-41.9s-18.9-41.9-42.1-41.9c-23.3,0-42.1,18.8-42.1,41.9
				S982.3,1151.1,1005.6,1151.1z"/>
			<path style="fill:#F0FCFB;" d="M1002.5,1158.3c18.9,0,34.2-15.3,34.2-34.1c0-18.8-15.3-34.1-34.2-34.1s-34.2,15.3-34.2,34.1
				C968.3,1143,983.6,1158.3,1002.5,1158.3z"/>
		</g>
		<g>
			<g>
				<path style="fill:#F0FCFB;" d="M1048,964.9c28.4,0,51.3-22.9,51.3-51.1s-23-51.1-51.3-51.1c-28.4,0-51.3,22.9-51.3,51.1
					S1019.7,964.9,1048,964.9z"/>
				<path style="fill:#F0FCFB;" d="M1115.9,954.1c35.1,0,63.5-28.3,63.5-63.1c0-34.9-28.4-63.1-63.5-63.1s-63.5,28.3-63.5,63.1
					S1080.8,954.1,1115.9,954.1z"/>
				<path style="fill:#F0FCFB;" d="M1169.3,964.9c29.5,0,53.4-23.8,53.4-53.1s-23.9-53.1-53.4-53.1s-53.4,23.8-53.4,53.1
					C1115.9,941.1,1139.8,964.9,1169.3,964.9z"/>
				<path style="fill:#F0FCFB;" d="M1111.2,964.9c28.5,0,51.6-23,51.6-51.3s-23.1-51.4-51.6-51.4s-51.6,23-51.6,51.3
					S1082.8,964.9,1111.2,964.9z"/>
			</g>
		</g>
		<g>
			<g>
				<path style="fill:#F0FCFB;" d="M501.8,734.9c28.4,0,51.3-22.9,51.3-51.1s-23-51.1-51.3-51.1c-28.4,0-51.3,22.9-51.3,51.1
					S473.5,734.9,501.8,734.9z"/>
				<path style="fill:#F0FCFB;" d="M569.7,724.1c35.1,0,63.5-28.3,63.5-63.1c0-34.9-28.4-63.1-63.5-63.1s-63.5,28.3-63.5,63.1
					S534.6,724.1,569.7,724.1z"/>
				<path style="fill:#F0FCFB;" d="M623.1,734.9c29.5,0,53.4-23.8,53.4-53.1s-23.9-53.1-53.4-53.1s-53.4,23.8-53.4,53.1
					C569.7,711.1,593.6,734.9,623.1,734.9z"/>
				<path style="fill:#F0FCFB;" d="M565,734.9c28.5,0,51.6-23,51.6-51.3s-23.1-51.4-51.6-51.4s-51.6,23-51.6,51.3
					S536.6,734.9,565,734.9z"/>
			</g>
		</g>
		<g>
			<g>
				<path style="fill:#F0FCFB;" d="M1548.8,518.9c28.4,0,51.3-22.9,51.3-51.1s-23-51.1-51.3-51.1c-28.4,0-51.3,22.9-51.3,51.1
					C1497.5,496,1520.5,518.9,1548.8,518.9z"/>
				<path style="fill:#F0FCFB;" d="M1616.7,508.1c35.1,0,63.5-28.3,63.5-63.1c0-34.9-28.4-63.1-63.5-63.1s-63.5,28.3-63.5,63.1
					S1581.6,508.1,1616.7,508.1z"/>
				<path style="fill:#F0FCFB;" d="M1670.1,518.9c29.5,0,53.4-23.8,53.4-53.1c0-29.3-23.9-53.1-53.4-53.1s-53.4,23.8-53.4,53.1
					C1616.7,495.1,1640.6,518.9,1670.1,518.9z"/>
				<path style="fill:#F0FCFB;" d="M1612,518.9c28.5,0,51.6-23,51.6-51.3s-23.1-51.4-51.6-51.4s-51.6,23-51.6,51.3
					S1583.6,518.9,1612,518.9z"/>
			</g>
		</g>
		<g>
			<g>
				<path style="fill:#F0FCFB;" d="M1022.2,381.9c28.4,0,51.3-22.9,51.3-51.1s-23-51.1-51.3-51.1c-28.4,0-51.3,22.9-51.3,51.1
					S993.9,381.9,1022.2,381.9z"/>
				<path style="fill:#F0FCFB;" d="M1090.1,371.1c35.1,0,63.5-28.3,63.5-63.1c0-34.9-28.4-63.1-63.5-63.1s-63.5,28.3-63.5,63.1
					S1055,371.1,1090.1,371.1z"/>
				<path style="fill:#F0FCFB;" d="M1143.5,381.9c29.5,0,53.4-23.8,53.4-53.1c0-29.3-23.9-53.1-53.4-53.1s-53.4,23.8-53.4,53.1
					S1114,381.9,1143.5,381.9z"/>
				<path style="fill:#F0FCFB;" d="M1085.4,381.9c28.5,0,51.6-23,51.6-51.3s-23.1-51.4-51.6-51.4s-51.6,23-51.6,51.3
					S1057,381.9,1085.4,381.9z"/>
			</g>
		</g>
		<g>
			<g>
				<path style="fill:#F0FCFB;" d="M240.8,299.4c28.4,0,51.3-22.9,51.3-51.1s-23-51.1-51.3-51.1c-28.4,0-51.3,22.9-51.3,51.1
					S212.5,299.4,240.8,299.4z"/>
				<path style="fill:#F0FCFB;" d="M308.7,288.6c35.1,0,63.5-28.3,63.5-63.1c0-34.9-28.4-63.1-63.5-63.1s-63.5,28.3-63.5,63.1
					S273.6,288.6,308.7,288.6z"/>
				<path style="fill:#F0FCFB;" d="M362.1,299.4c29.5,0,53.4-23.8,53.4-53.1s-23.9-53.1-53.4-53.1s-53.4,23.8-53.4,53.1
					S332.6,299.4,362.1,299.4z"/>
				<path style="fill:#F0FCFB;" d="M304,299.4c28.5,0,51.6-23,51.6-51.3s-23.1-51.4-51.6-51.4s-51.6,23-51.6,51.3
					S275.6,299.4,304,299.4z"/>
			</g>
		</g>
		<g>
			<path style="fill:#F0FCFB;" d="M950.3,972.1c28.4,0,51.3-22.9,51.3-51.1s-23-51.1-51.3-51.1c-28.4,0-51.3,22.9-51.3,51.1
				C899,949.2,922,972.1,950.3,972.1z"/>
			<path style="fill:#F0FCFB;" d="M1018.2,961.3c35.1,0,63.5-28.3,63.5-63.1c0-34.9-28.4-63.1-63.5-63.1s-63.5,28.3-63.5,63.1
				S983.1,961.3,1018.2,961.3z"/>
			<path style="fill:#F0FCFB;" d="M1071.6,972.1c29.5,0,53.4-23.8,53.4-53.1s-23.9-53.1-53.4-53.1s-53.4,23.8-53.4,53.1
				C1018.2,948.3,1042.1,972.1,1071.6,972.1z"/>
			<path style="fill:#F0FCFB;" d="M1013.5,972.1c28.5,0,51.6-23,51.6-51.3s-23.1-51.4-51.6-51.4s-51.6,23-51.6,51.3
				S985.1,972.1,1013.5,972.1z"/>
		</g>
		<g>
			<path style="fill:#F0FCFB;" d="M110.5,1656.9c28.4,0,51.3-22.9,51.3-51.1s-23-51.1-51.3-51.1c-28.4,0-51.3,22.9-51.3,51.1
				S82.2,1656.9,110.5,1656.9z"/>
			<path style="fill:#F0FCFB;" d="M178.4,1646.1c35.1,0,63.5-28.3,63.5-63.1c0-34.9-28.4-63.1-63.5-63.1s-63.5,28.3-63.5,63.1
				S143.3,1646.1,178.4,1646.1z"/>
			<path style="fill:#F0FCFB;" d="M231.8,1656.9c29.5,0,53.4-23.8,53.4-53.1c0-29.3-23.9-53.1-53.4-53.1s-53.4,23.8-53.4,53.1
				C178.4,1633.1,202.3,1656.9,231.8,1656.9z"/>
			<path style="fill:#F0FCFB;" d="M173.7,1656.9c28.5,0,51.6-23,51.6-51.3s-23.1-51.4-51.6-51.4s-51.6,23-51.6,51.3
				S145.3,1656.9,173.7,1656.9z"/>
		</g>
		<g>
			<path style="fill:#F0FCFB;" d="M1601.9,1469.2c28.4,0,51.3-22.9,51.3-51.1s-23-51.1-51.3-51.1c-28.4,0-51.3,22.9-51.3,51.1
				C1550.6,1446.3,1573.6,1469.2,1601.9,1469.2z"/>
			<path style="fill:#F0FCFB;" d="M1669.8,1458.4c35.1,0,63.5-28.3,63.5-63.1c0-34.9-28.4-63.1-63.5-63.1s-63.5,28.3-63.5,63.1
				S1634.7,1458.4,1669.8,1458.4z"/>
			<path style="fill:#F0FCFB;" d="M1723.2,1469.2c29.5,0,53.4-23.8,53.4-53.1c0-29.3-23.9-53.1-53.4-53.1s-53.4,23.8-53.4,53.1
				C1669.8,1445.4,1693.7,1469.2,1723.2,1469.2z"/>
			<path style="fill:#F0FCFB;" d="M1665.1,1469.2c28.5,0,51.6-23,51.6-51.3s-23.1-51.4-51.6-51.4s-51.6,23-51.6,51.3
				S1636.7,1469.2,1665.1,1469.2z"/>
		</g>
		<g>
			<path style="fill:#F0FCFB;" d="M381.8,1409.7c28.4,0,51.3-22.9,51.3-51.1s-23-51.1-51.3-51.1c-28.4,0-51.3,22.9-51.3,51.1
				C330.5,1386.8,353.5,1409.7,381.8,1409.7z"/>
			<path style="fill:#F0FCFB;" d="M449.7,1398.9c35.1,0,63.5-28.3,63.5-63.1c0-34.9-28.4-63.1-63.5-63.1s-63.5,28.3-63.5,63.1
				S414.6,1398.9,449.7,1398.9z"/>
			<path style="fill:#F0FCFB;" d="M503.1,1409.7c29.5,0,53.4-23.8,53.4-53.1c0-29.3-23.9-53.1-53.4-53.1s-53.4,23.8-53.4,53.1
				C449.7,1385.9,473.6,1409.7,503.1,1409.7z"/>
			<path style="fill:#F0FCFB;" d="M445,1409.7c28.5,0,51.6-23,51.6-51.3S473.5,1307,445,1307s-51.6,23-51.6,51.3
				S416.6,1409.7,445,1409.7z"/>
		</g>
		<g>
			<path style="fill:#F0FCFB;" d="M93.9,1066.9c28.4,0,51.3-22.9,51.3-51.1s-23-51.1-51.3-51.1c-28.4,0-51.3,22.9-51.3,51.1
				C42.6,1044,65.6,1066.9,93.9,1066.9z"/>
			<path style="fill:#F0FCFB;" d="M161.8,1056.1c35.1,0,63.5-28.3,63.5-63.1c0-34.9-28.4-63.1-63.5-63.1S98.3,958.2,98.3,993
				C98.3,1027.8,126.7,1056.1,161.8,1056.1z"/>
			<path style="fill:#F0FCFB;" d="M215.2,1066.9c29.5,0,53.4-23.8,53.4-53.1c0-29.3-23.9-53.1-53.4-53.1s-53.4,23.8-53.4,53.1
				C161.8,1043.1,185.7,1066.9,215.2,1066.9z"/>
			<path style="fill:#F0FCFB;" d="M157.1,1066.9c28.5,0,51.6-23,51.6-51.3s-23.1-51.4-51.6-51.4s-51.6,23-51.6,51.3
				C105.5,1043.8,128.7,1066.9,157.1,1066.9z"/>
		</g>
		<g>
			<path style="fill:#F0FCFB;" d="M1699,1234.1c28.4,0,51.3-22.9,51.3-51.1s-23-51.1-51.3-51.1c-28.4,0-51.3,22.9-51.3,51.1
				S1670.7,1234.1,1699,1234.1z"/>
			<path style="fill:#F0FCFB;" d="M1766.9,1223.3c35.1,0,63.5-28.3,63.5-63.1c0-34.9-28.4-63.1-63.5-63.1s-63.5,28.3-63.5,63.1
				S1731.8,1223.3,1766.9,1223.3z"/>
			<path style="fill:#F0FCFB;" d="M1820.3,1234.1c29.5,0,53.4-23.8,53.4-53.1c0-29.3-23.9-53.1-53.4-53.1s-53.4,23.8-53.4,53.1
				C1766.9,1210.3,1790.8,1234.1,1820.3,1234.1z"/>
			<path style="fill:#F0FCFB;" d="M1762.2,1234.1c28.5,0,51.6-23,51.6-51.3s-23.1-51.4-51.6-51.4s-51.6,23-51.6,51.3
				S1733.8,1234.1,1762.2,1234.1z"/>
		</g>
		<g>
			<path style="fill:#F0FCFB;" d="M1395.1,1672.9c28.4,0,51.3-22.9,51.3-51.1s-23-51.1-51.3-51.1c-28.4,0-51.3,22.9-51.3,51.1
				C1343.8,1650,1366.8,1672.9,1395.1,1672.9z"/>
			<path style="fill:#F0FCFB;" d="M1463,1662.1c35.1,0,63.5-28.3,63.5-63.1c0-34.9-28.4-63.1-63.5-63.1s-63.5,28.3-63.5,63.1
				S1427.9,1662.1,1463,1662.1z"/>
			<path style="fill:#F0FCFB;" d="M1516.4,1672.9c29.5,0,53.4-23.8,53.4-53.1c0-29.3-23.9-53.1-53.4-53.1s-53.4,23.8-53.4,53.1
				S1486.9,1672.9,1516.4,1672.9z"/>
			<path style="fill:#F0FCFB;" d="M1458.3,1672.9c28.5,0,51.6-23,51.6-51.3s-23.1-51.4-51.6-51.4s-51.6,23-51.6,51.3
				S1429.9,1672.9,1458.3,1672.9z"/>
		</g>
		<g>
			<path style="fill:#F0FCFB;" d="M927.1,594.7c18.9,0,34.2-15.3,34.2-34.1s-15.3-34.1-34.2-34.1s-34.2,15.3-34.2,34.1
				S908.2,594.7,927.1,594.7z"/>
			<path style="fill:#F0FCFB;" d="M961.4,615.8c18.9,0,34.2-15.3,34.2-34.1s-15.3-34.1-34.2-34.1s-34.2,15.3-34.2,34.1
				C927.1,600.6,942.5,615.8,961.4,615.8z"/>
			<path style="fill:#F0FCFB;" d="M907.1,628.7c18.9,0,34.2-15.3,34.2-34.1s-15.3-34.1-34.2-34.1s-34.2,15.3-34.2,34.1
				C872.9,613.5,888.2,628.7,907.1,628.7z"/>
		</g>
		<g>
			<path style="fill:#F0FCFB;" d="M267.8,513.2c18.9,0,34.2-15.3,34.2-34.1S286.7,445,267.8,445s-34.2,15.3-34.2,34.1
				S248.9,513.2,267.8,513.2z"/>
			<path style="fill:#F0FCFB;" d="M302.1,534.3c18.9,0,34.2-15.3,34.2-34.1c0-18.8-15.3-34.1-34.2-34.1s-34.2,15.3-34.2,34.1
				C267.8,519.1,283.2,534.3,302.1,534.3z"/>
			<path style="fill:#F0FCFB;" d="M247.8,547.2c18.9,0,34.2-15.3,34.2-34.1S266.7,479,247.8,479s-34.2,15.3-34.2,34.1
				C213.6,532,228.9,547.2,247.8,547.2z"/>
		</g>
		<g>
			<path style="fill:#F0FCFB;" d="M226.4,792.3c18.9,0,34.2-15.3,34.2-34.1s-15.3-34.1-34.2-34.1s-34.2,15.3-34.2,34.1
				S207.5,792.3,226.4,792.3z"/>
			<path style="fill:#F0FCFB;" d="M260.7,813.4c18.9,0,34.2-15.3,34.2-34.1s-15.3-34.1-34.2-34.1s-34.2,15.3-34.2,34.1
				C226.4,798.2,241.8,813.4,260.7,813.4z"/>
			<path style="fill:#F0FCFB;" d="M206.4,826.3c18.9,0,34.2-15.3,34.2-34.1s-15.3-34.1-34.2-34.1s-34.2,15.3-34.2,34.1
				C172.2,811.1,187.5,826.3,206.4,826.3z"/>
		</g>
		<g>
			<path style="fill:#F0FCFB;" d="M443.4,1594.2c18.9,0,34.2-15.3,34.2-34.1c0-18.8-15.3-34.1-34.2-34.1s-34.2,15.3-34.2,34.1
				C409.2,1578.9,424.5,1594.2,443.4,1594.2z"/>
			<path style="fill:#F0FCFB;" d="M477.7,1615.3c18.9,0,34.2-15.3,34.2-34.1c0-18.8-15.3-34.1-34.2-34.1s-34.2,15.3-34.2,34.1
				C443.4,1600.1,458.8,1615.3,477.7,1615.3z"/>
			<path style="fill:#F0FCFB;" d="M423.4,1628.2c18.9,0,34.2-15.3,34.2-34.1c0-18.8-15.3-34.1-34.2-34.1s-34.2,15.3-34.2,34.1
				C389.2,1613,404.5,1628.2,423.4,1628.2z"/>
		</g>
		<g>
			<path style="fill:#F0FCFB;" d="M1766,1635.5c18.9,0,34.2-15.3,34.2-34.1c0-18.8-15.3-34.1-34.2-34.1s-34.2,15.3-34.2,34.1
				S1747.1,1635.5,1766,1635.5z"/>
			<path style="fill:#F0FCFB;" d="M1800.3,1656.6c18.9,0,34.2-15.3,34.2-34.1c0-18.8-15.3-34.1-34.2-34.1s-34.2,15.3-34.2,34.1
				C1766,1641.4,1781.4,1656.6,1800.3,1656.6z"/>
			<path style="fill:#F0FCFB;" d="M1746,1669.5c18.9,0,34.2-15.3,34.2-34.1c0-18.8-15.3-34.1-34.2-34.1s-34.2,15.3-34.2,34.1
				C1711.8,1654.3,1727.1,1669.5,1746,1669.5z"/>
		</g>
		<g>
			<path style="fill:#F0FCFB;" d="M1457.3,1276.7c18.9,0,34.2-15.3,34.2-34.1c0-18.8-15.3-34.1-34.2-34.1s-34.2,15.3-34.2,34.1
				C1423.1,1261.4,1438.4,1276.7,1457.3,1276.7z"/>
			<path style="fill:#F0FCFB;" d="M1491.6,1297.8c18.9,0,34.2-15.3,34.2-34.1c0-18.8-15.3-34.1-34.2-34.1s-34.2,15.3-34.2,34.1
				C1457.3,1282.6,1472.7,1297.8,1491.6,1297.8z"/>
			<path style="fill:#F0FCFB;" d="M1437.3,1310.7c18.9,0,34.2-15.3,34.2-34.1c0-18.8-15.3-34.1-34.2-34.1s-34.2,15.3-34.2,34.1
				C1403.1,1295.5,1418.4,1310.7,1437.3,1310.7z"/>
		</g>
		<g>
			<path style="fill:#F0FCFB;" d="M182.4,1226.6c18.9,0,34.2-15.3,34.2-34.1c0-18.8-15.3-34.1-34.2-34.1s-34.2,15.3-34.2,34.1
				C148.2,1211.3,163.5,1226.6,182.4,1226.6z"/>
			<path style="fill:#F0FCFB;" d="M216.7,1247.7c18.9,0,34.2-15.3,34.2-34.1c0-18.8-15.3-34.1-34.2-34.1s-34.2,15.3-34.2,34.1
				C182.4,1232.5,197.8,1247.7,216.7,1247.7z"/>
			<path style="fill:#F0FCFB;" d="M162.4,1260.6c18.9,0,34.2-15.3,34.2-34.1c0-18.8-15.3-34.1-34.2-34.1s-34.2,15.3-34.2,34.1
				C128.2,1245.4,143.5,1260.6,162.4,1260.6z"/>
		</g>
		<g>
			<path style="fill:#F0FCFB;" d="M1449.1,143.6c18.9,0,34.2-15.3,34.2-34.1s-15.3-34.1-34.2-34.1s-34.2,15.3-34.2,34.1
				S1430.2,143.6,1449.1,143.6z"/>
			<path style="fill:#F0FCFB;" d="M1483.4,164.7c18.9,0,34.2-15.3,34.2-34.1s-15.3-34.1-34.2-34.1s-34.2,15.3-34.2,34.1
				C1449.1,149.5,1464.5,164.7,1483.4,164.7z"/>
			<path style="fill:#F0FCFB;" d="M1429.1,177.6c18.9,0,34.2-15.3,34.2-34.1s-15.3-34.1-34.2-34.1s-34.2,15.3-34.2,34.1
				C1394.9,162.4,1410.2,177.6,1429.1,177.6z"/>
		</g>
		<g>
			<path style="fill:#F0FCFB;" d="M700.6,230.6c18.9,0,34.2-15.3,34.2-34.1s-15.3-34.1-34.2-34.1s-34.2,15.3-34.2,34.1
				S681.7,230.6,700.6,230.6z"/>
			<path style="fill:#F0FCFB;" d="M734.9,251.7c18.9,0,34.2-15.3,34.2-34.1s-15.3-34.1-34.2-34.1s-34.2,15.3-34.2,34.1
				C700.6,236.5,716,251.7,734.9,251.7z"/>
			<path style="fill:#F0FCFB;" d="M680.6,264.6c18.9,0,34.2-15.3,34.2-34.1s-15.3-34.1-34.2-34.1s-34.2,15.3-34.2,34.1
				C646.4,249.4,661.7,264.6,680.6,264.6z"/>
		</g>
		<g>
			<path style="fill:#F0FCFB;" d="M1604.8,684c18.9,0,34.2-15.3,34.2-34.1s-15.3-34.1-34.2-34.1s-34.2,15.3-34.2,34.1
				S1585.9,684,1604.8,684z"/>
			<path style="fill:#F0FCFB;" d="M1639.1,705.1c18.9,0,34.2-15.3,34.2-34.1s-15.3-34.1-34.2-34.1s-34.2,15.3-34.2,34.1
				C1604.8,689.9,1620.2,705.1,1639.1,705.1z"/>
			<path style="fill:#F0FCFB;" d="M1584.8,718c18.9,0,34.2-15.3,34.2-34.1s-15.3-34.1-34.2-34.1s-34.2,15.3-34.2,34.1
				C1550.6,702.8,1565.9,718,1584.8,718z"/>
		</g>
		<g>
			<path style="fill:#F0FCFB;" d="M1256.8,682.4c18.8,0,34.1-15.2,34.1-33.9s-15.3-33.9-34.1-33.9c-18.8,0-34.1,15.2-34.1,33.9
				S1237.9,682.4,1256.8,682.4z"/>
			<path style="fill:#F0FCFB;" d="M1301.8,675.2c23.3,0,42.1-18.8,42.1-41.9s-18.9-41.9-42.1-41.9c-23.3,0-42.1,18.8-42.1,41.9
				S1278.5,675.2,1301.8,675.2z"/>
			<path style="fill:#F0FCFB;" d="M1298.7,682.4c18.9,0,34.2-15.3,34.2-34.1s-15.3-34.1-34.2-34.1s-34.2,15.3-34.2,34.1
				C1264.5,667.1,1279.8,682.4,1298.7,682.4z"/>
		</g>
		<g>
			<path style="fill:#F0FCFB;" d="M596.6,462.2c18.8,0,34.1-15.2,34.1-33.9c0-18.7-15.3-33.9-34.1-33.9s-34.1,15.2-34.1,33.9
				S577.7,462.2,596.6,462.2z"/>
			<path style="fill:#F0FCFB;" d="M641.6,455c23.3,0,42.1-18.8,42.1-41.9s-18.9-41.9-42.1-41.9c-23.3,0-42.1,18.8-42.1,41.9
				S618.3,455,641.6,455z"/>
			<path style="fill:#F0FCFB;" d="M638.5,462.2c18.9,0,34.2-15.3,34.2-34.1c0-18.8-15.3-34.1-34.2-34.1s-34.2,15.3-34.2,34.1
				C604.3,446.9,619.6,462.2,638.5,462.2z"/>
		</g>
		<g>
			<path style="fill:#F0FCFB;" d="M872.5,166.4c18.8,0,34.1-15.2,34.1-33.9s-15.3-33.9-34.1-33.9s-34.1,15.2-34.1,33.9
				S853.6,166.4,872.5,166.4z"/>
			<path style="fill:#F0FCFB;" d="M917.5,159.2c23.3,0,42.1-18.8,42.1-41.9s-18.9-41.9-42.1-41.9c-23.3,0-42.1,18.8-42.1,41.9
				S894.2,159.2,917.5,159.2z"/>
			<path style="fill:#F0FCFB;" d="M914.4,166.4c18.9,0,34.2-15.3,34.2-34.1s-15.3-34.1-34.2-34.1s-34.2,15.3-34.2,34.1
				C880.2,151.1,895.5,166.4,914.4,166.4z"/>
		</g>
		<g>
			<path style="fill:#F0FCFB;" d="M389,966.3c18.8,0,34.1-15.2,34.1-33.9s-15.3-33.9-34.1-33.9c-18.8,0-34.1,15.2-34.1,33.9
				S370.1,966.3,389,966.3z"/>
			<path style="fill:#F0FCFB;" d="M434,959.1c23.3,0,42.1-18.8,42.1-41.9s-18.9-41.9-42.1-41.9c-23.3,0-42.1,18.8-42.1,41.9
				S410.7,959.1,434,959.1z"/>
			<path style="fill:#F0FCFB;" d="M430.9,966.3c18.9,0,34.2-15.3,34.2-34.1s-15.3-34.1-34.2-34.1s-34.2,15.3-34.2,34.1
				C396.7,951,412,966.3,430.9,966.3z"/>
		</g>
		<g>
			<path style="fill:#F0FCFB;" d="M1306.4,353.5c18.8,0,34.1-15.2,34.1-33.9c0-18.7-15.3-33.9-34.1-33.9
				c-18.8,0-34.1,15.2-34.1,33.9S1287.5,353.5,1306.4,353.5z"/>
			<path style="fill:#F0FCFB;" d="M1351.4,346.3c23.3,0,42.1-18.8,42.1-41.9s-18.9-41.9-42.1-41.9c-23.3,0-42.1,18.8-42.1,41.9
				S1328.1,346.3,1351.4,346.3z"/>
			<path style="fill:#F0FCFB;" d="M1348.3,353.5c18.9,0,34.2-15.3,34.2-34.1c0-18.8-15.3-34.1-34.2-34.1s-34.2,15.3-34.2,34.1
				C1314.1,338.2,1329.4,353.5,1348.3,353.5z"/>
		</g>
		<g>
			<path style="fill:#F0FCFB;" d="M1456.8,907.7c18.8,0,34.1-15.2,34.1-33.9s-15.3-33.9-34.1-33.9c-18.8,0-34.1,15.2-34.1,33.9
				S1437.9,907.7,1456.8,907.7z"/>
			<path style="fill:#F0FCFB;" d="M1501.8,900.5c23.3,0,42.1-18.8,42.1-41.9s-18.9-41.9-42.1-41.9c-23.3,0-42.1,18.8-42.1,41.9
				S1478.5,900.5,1501.8,900.5z"/>
			<path style="fill:#F0FCFB;" d="M1498.7,907.7c18.9,0,34.2-15.3,34.2-34.1s-15.3-34.1-34.2-34.1s-34.2,15.3-34.2,34.1
				S1479.8,907.7,1498.7,907.7z"/>
		</g>
		<g>
			<path style="fill:#F0FCFB;" d="M1813.7,410.4c18.8,0,34.1-15.2,34.1-33.9c0-18.7-15.3-33.9-34.1-33.9s-34.1,15.2-34.1,33.9
				S1794.8,410.4,1813.7,410.4z"/>
			<path style="fill:#F0FCFB;" d="M1858.7,403.2c23.3,0,42.1-18.8,42.1-41.9s-18.9-41.9-42.1-41.9c-23.3,0-42.1,18.8-42.1,41.9
				S1835.4,403.2,1858.7,403.2z"/>
			<path style="fill:#F0FCFB;" d="M1855.6,410.4c18.9,0,34.2-15.3,34.2-34.1c0-18.8-15.3-34.1-34.2-34.1
				c-18.9,0-34.2,15.3-34.2,34.1S1836.7,410.4,1855.6,410.4z"/>
		</g>
		<g>
			<path style="fill:#F0FCFB;" d="M640.2,937.8c18.9,0,34.2-15.3,34.2-34.1s-15.3-34.1-34.2-34.1S606,884.9,606,903.7
				C605.9,922.6,621.3,937.8,640.2,937.8z"/>
			<path style="fill:#F0FCFB;" d="M643.1,893.3c18.9,0,34.2-15.3,34.2-34.1s-15.3-34.1-34.2-34.1s-34.2,15.3-34.2,34.1
				C608.9,878,624.2,893.3,643.1,893.3z"/>
			<path style="fill:#F0FCFB;" d="M681.1,926.4c18.9,0,34.2-15.3,34.2-34.1s-15.3-34.1-34.2-34.1s-34.2,15.3-34.2,34.1
				C646.9,911.2,662.2,926.4,681.1,926.4z"/>
			<path style="fill:#F0FCFB;" d="M693.2,901.3c18.9,0,34.2-15.3,34.2-34.1s-15.3-34.1-34.2-34.1S659,848.4,659,867.2
				C658.9,886.1,674.2,901.3,693.2,901.3z"/>
			<path style="fill:#F0FCFB;" d="M721.1,918.8c18.9,0,34.2-15.3,34.2-34.1s-15.3-34.1-34.2-34.1s-34.2,15.3-34.2,34.1
				C686.9,903.6,702.2,918.8,721.1,918.8z"/>
		</g>
		<g>
			<path style="fill:#F0FCFB;" d="M512.7,1165.6c18.9,0,34.2-15.3,34.2-34.1c0-18.8-15.3-34.1-34.2-34.1
				c-18.9,0-34.2,15.3-34.2,34.1C478.4,1150.4,493.8,1165.6,512.7,1165.6z"/>
			<path style="fill:#F0FCFB;" d="M515.6,1121.1c18.9,0,34.2-15.3,34.2-34.1c0-18.8-15.3-34.1-34.2-34.1
				c-18.9,0-34.2,15.3-34.2,34.1C481.4,1105.8,496.7,1121.1,515.6,1121.1z"/>
			<path style="fill:#F0FCFB;" d="M553.6,1154.2c18.9,0,34.2-15.3,34.2-34.1c0-18.8-15.3-34.1-34.2-34.1s-34.2,15.3-34.2,34.1
				C519.4,1139,534.7,1154.2,553.6,1154.2z"/>
			<path style="fill:#F0FCFB;" d="M565.7,1129.1c18.9,0,34.2-15.3,34.2-34.1c0-18.8-15.3-34.1-34.2-34.1s-34.2,15.3-34.2,34.1
				C531.4,1113.9,546.7,1129.1,565.7,1129.1z"/>
			<path style="fill:#F0FCFB;" d="M593.6,1146.6c18.9,0,34.2-15.3,34.2-34.1c0-18.8-15.3-34.1-34.2-34.1s-34.2,15.3-34.2,34.1
				C559.4,1131.4,574.7,1146.6,593.6,1146.6z"/>
		</g>
		<g>
			<path style="fill:#F0FCFB;" d="M118.5,1459.8c18.9,0,34.2-15.3,34.2-34.1c0-18.8-15.3-34.1-34.2-34.1s-34.2,15.3-34.2,34.1
				C84.2,1444.6,99.6,1459.8,118.5,1459.8z"/>
			<path style="fill:#F0FCFB;" d="M121.4,1415.3c18.9,0,34.2-15.3,34.2-34.1c0-18.8-15.3-34.1-34.2-34.1s-34.2,15.3-34.2,34.1
				C87.2,1400,102.5,1415.3,121.4,1415.3z"/>
			<path style="fill:#F0FCFB;" d="M159.4,1448.4c18.9,0,34.2-15.3,34.2-34.1c0-18.8-15.3-34.1-34.2-34.1s-34.2,15.3-34.2,34.1
				C125.2,1433.2,140.5,1448.4,159.4,1448.4z"/>
			<path style="fill:#F0FCFB;" d="M171.5,1423.3c18.9,0,34.2-15.3,34.2-34.1c0-18.8-15.3-34.1-34.2-34.1s-34.2,15.3-34.2,34.1
				C137.2,1408.1,152.5,1423.3,171.5,1423.3z"/>
			<path style="fill:#F0FCFB;" d="M199.4,1440.8c18.9,0,34.2-15.3,34.2-34.1c0-18.8-15.3-34.1-34.2-34.1s-34.2,15.3-34.2,34.1
				C165.2,1425.6,180.5,1440.8,199.4,1440.8z"/>
		</g>
		<g>
			<path style="fill:#F0FCFB;" d="M24.6,685.1c18.9,0,34.2-15.3,34.2-34.1s-15.3-34.1-34.2-34.1S-9.6,632.2-9.6,651
				C-9.7,669.9,5.7,685.1,24.6,685.1z"/>
			<path style="fill:#F0FCFB;" d="M27.5,640.6c18.9,0,34.2-15.3,34.2-34.1s-15.3-34.1-34.2-34.1s-34.2,15.3-34.2,34.1
				S8.6,640.6,27.5,640.6z"/>
			<path style="fill:#F0FCFB;" d="M65.5,673.7c18.9,0,34.2-15.3,34.2-34.1s-15.3-34.1-34.2-34.1s-34.2,15.3-34.2,34.1
				C31.3,658.5,46.6,673.7,65.5,673.7z"/>
			<path style="fill:#F0FCFB;" d="M77.6,648.6c18.9,0,34.2-15.3,34.2-34.1s-15.3-34.1-34.2-34.1s-34.2,15.3-34.2,34.1
				C43.3,633.4,58.6,648.6,77.6,648.6z"/>
			<path style="fill:#F0FCFB;" d="M105.5,666.1c18.9,0,34.2-15.3,34.2-34.1s-15.3-34.1-34.2-34.1S71.3,613.2,71.3,632
				C71.3,650.9,86.6,666.1,105.5,666.1z"/>
		</g>
		<g>
			<path style="fill:#F0FCFB;" d="M499.3,152.9c18.9,0,34.2-15.3,34.2-34.1s-15.3-34.1-34.2-34.1c-18.9,0-34.2,15.3-34.2,34.1
				C465,137.7,480.4,152.9,499.3,152.9z"/>
			<path style="fill:#F0FCFB;" d="M502.2,108.4c18.9,0,34.2-15.3,34.2-34.1s-15.3-34.1-34.2-34.1c-18.9,0-34.2,15.3-34.2,34.1
				S483.3,108.4,502.2,108.4z"/>
			<path style="fill:#F0FCFB;" d="M540.2,141.5c18.9,0,34.2-15.3,34.2-34.1s-15.3-34.1-34.2-34.1S506,88.6,506,107.4
				C506,126.3,521.3,141.5,540.2,141.5z"/>
			<path style="fill:#F0FCFB;" d="M552.3,116.4c18.9,0,34.2-15.3,34.2-34.1s-15.3-34.1-34.2-34.1s-34.2,15.3-34.2,34.1
				C518,101.2,533.3,116.4,552.3,116.4z"/>
			<path style="fill:#F0FCFB;" d="M580.2,133.9c18.9,0,34.2-15.3,34.2-34.1s-15.3-34.1-34.2-34.1S546,81,546,99.8
				C546,118.7,561.3,133.9,580.2,133.9z"/>
		</g>
		<g>
			<path style="fill:#F0FCFB;" d="M65,163.7c18.9,0,34.2-15.3,34.2-34.1S83.9,95.5,65,95.5s-34.2,15.3-34.2,34.1
				C30.7,148.5,46.1,163.7,65,163.7z"/>
			<path style="fill:#F0FCFB;" d="M67.9,119.2c18.9,0,34.2-15.3,34.2-34.1S86.8,51,67.9,51S33.7,66.3,33.7,85.1S49,119.2,67.9,119.2
				z"/>
			<path style="fill:#F0FCFB;" d="M105.9,152.3c18.9,0,34.2-15.3,34.2-34.1s-15.3-34.1-34.2-34.1s-34.2,15.3-34.2,34.1
				C71.7,137.1,87,152.3,105.9,152.3z"/>
			<path style="fill:#F0FCFB;" d="M118,127.2c18.9,0,34.2-15.3,34.2-34.1S136.9,59,118,59S83.8,74.3,83.8,93.1
				C83.7,112,99,127.2,118,127.2z"/>
			<path style="fill:#F0FCFB;" d="M145.9,144.7c18.9,0,34.2-15.3,34.2-34.1s-15.3-34.1-34.2-34.1s-34.2,15.3-34.2,34.1
				C111.7,129.5,127,144.7,145.9,144.7z"/>
		</g>
		<g>
			<path style="fill:#F0FCFB;" d="M1807.4,152.9c18.9,0,34.2-15.3,34.2-34.1s-15.3-34.1-34.2-34.1s-34.2,15.3-34.2,34.1
				C1773.1,137.7,1788.5,152.9,1807.4,152.9z"/>
			<path style="fill:#F0FCFB;" d="M1810.3,108.4c18.9,0,34.2-15.3,34.2-34.1s-15.3-34.1-34.2-34.1c-18.9,0-34.2,15.3-34.2,34.1
				S1791.4,108.4,1810.3,108.4z"/>
			<path style="fill:#F0FCFB;" d="M1848.3,141.5c18.9,0,34.2-15.3,34.2-34.1s-15.3-34.1-34.2-34.1c-18.9,0-34.2,15.3-34.2,34.1
				C1814.1,126.3,1829.4,141.5,1848.3,141.5z"/>
			<path style="fill:#F0FCFB;" d="M1860.4,116.4c18.9,0,34.2-15.3,34.2-34.1s-15.3-34.1-34.2-34.1s-34.2,15.3-34.2,34.1
				C1826.1,101.2,1841.4,116.4,1860.4,116.4z"/>
			<path style="fill:#F0FCFB;" d="M1888.3,133.9c18.9,0,34.2-15.3,34.2-34.1s-15.3-34.1-34.2-34.1c-18.9,0-34.2,15.3-34.2,34.1
				C1854.1,118.7,1869.4,133.9,1888.3,133.9z"/>
		</g>
		<g>
			<path style="fill:#F0FCFB;" d="M1860.4,774.4c18.9,0,34.2-15.3,34.2-34.1s-15.3-34.1-34.2-34.1s-34.2,15.3-34.2,34.1
				C1826.1,759.2,1841.5,774.4,1860.4,774.4z"/>
			<path style="fill:#F0FCFB;" d="M1863.3,729.9c18.9,0,34.2-15.3,34.2-34.1s-15.3-34.1-34.2-34.1c-18.9,0-34.2,15.3-34.2,34.1
				S1844.4,729.9,1863.3,729.9z"/>
			<path style="fill:#F0FCFB;" d="M1901.3,763c18.9,0,34.2-15.3,34.2-34.1s-15.3-34.1-34.2-34.1c-18.9,0-34.2,15.3-34.2,34.1
				C1867.1,747.8,1882.4,763,1901.3,763z"/>
			<path style="fill:#F0FCFB;" d="M1913.4,737.9c18.9,0,34.2-15.3,34.2-34.1s-15.3-34.1-34.2-34.1s-34.2,15.3-34.2,34.1
				C1879.1,722.7,1894.4,737.9,1913.4,737.9z"/>
			<path style="fill:#F0FCFB;" d="M1941.3,755.4c18.9,0,34.2-15.3,34.2-34.1s-15.3-34.1-34.2-34.1c-18.9,0-34.2,15.3-34.2,34.1
				C1907.1,740.2,1922.4,755.4,1941.3,755.4z"/>
		</g>
		<g>
			<path style="fill:#F0FCFB;" d="M1726.5,964c18.9,0,34.2-15.3,34.2-34.1s-15.3-34.1-34.2-34.1s-34.2,15.3-34.2,34.1
				C1692.2,948.8,1707.6,964,1726.5,964z"/>
			<path style="fill:#F0FCFB;" d="M1729.4,919.5c18.9,0,34.2-15.3,34.2-34.1s-15.3-34.1-34.2-34.1s-34.2,15.3-34.2,34.1
				S1710.5,919.5,1729.4,919.5z"/>
			<path style="fill:#F0FCFB;" d="M1767.4,952.6c18.9,0,34.2-15.3,34.2-34.1s-15.3-34.1-34.2-34.1s-34.2,15.3-34.2,34.1
				C1733.2,937.4,1748.5,952.6,1767.4,952.6z"/>
			<path style="fill:#F0FCFB;" d="M1779.5,927.5c18.9,0,34.2-15.3,34.2-34.1s-15.3-34.1-34.2-34.1s-34.2,15.3-34.2,34.1
				C1745.2,912.3,1760.5,927.5,1779.5,927.5z"/>
			<path style="fill:#F0FCFB;" d="M1807.4,945c18.9,0,34.2-15.3,34.2-34.1s-15.3-34.1-34.2-34.1s-34.2,15.3-34.2,34.1
				C1773.2,929.8,1788.5,945,1807.4,945z"/>
		</g>
	</g>
	<path style="fill:#46CB92;" d="M-91.5,1680.9l2208.1,67.8l164.2,120.5H-271.8L-91.5,1680.9z"/>
	<path style="fill:#4CD697;" d="M812.5,1847.7c30.4,0,55-24.6,55-55s-24.6-55-55-55s-55,24.6-55,55S782.1,1847.7,812.5,1847.7z"/>
	<path style="fill:#4CD697;" d="M849,1843.7c30.1,0,54.5-24.4,54.5-54.5s-24.4-54.5-54.5-54.5s-54.5,24.4-54.5,54.5
		S818.9,1843.7,849,1843.7z"/>
	<path style="fill:#4CD697;" d="M898.5,1852.7c30.4,0,55-24.6,55-55s-24.6-55-55-55s-55,24.6-55,55S868.1,1852.7,898.5,1852.7z"/>
	<path style="fill:#4CD697;" d="M1031,1857.7c30.1,0,54.5-24.4,54.5-54.5s-24.4-54.5-54.5-54.5s-54.5,24.4-54.5,54.5
		S1000.9,1857.7,1031,1857.7z"/>
	<path style="fill:#4CD697;" d="M1086.5,1847.7c30.4,0,55-24.6,55-55s-24.6-55-55-55s-55,24.6-55,55S1056.1,1847.7,1086.5,1847.7z"
		/>
	<path style="fill:#4CD697;" d="M1189,1843.7c30.7,0,55.5-24.4,55.5-54.5s-24.8-54.5-55.5-54.5s-55.5,24.4-55.5,54.5
		S1158.3,1843.7,1189,1843.7z"/>
	<path style="fill:#4CD697;" d="M1254.2,1846.2c30.4,0,55-24.6,55-55s-24.6-55-55-55s-55,24.6-55,55S1223.8,1846.2,1254.2,1846.2z"
		/>
	<path style="fill:#4CD697;" d="M1290.7,1842.2c30.1,0,54.5-24.4,54.5-54.5s-24.4-54.5-54.5-54.5s-54.5,24.4-54.5,54.5
		S1260.6,1842.2,1290.7,1842.2z"/>
	<path style="fill:#4CD697;" d="M1340.2,1851.2c30.4,0,55-24.6,55-55s-24.6-55-55-55s-55,24.6-55,55S1309.8,1851.2,1340.2,1851.2z"
		/>
	<path style="fill:#4CD697;" d="M1472.7,1856.2c30.1,0,54.5-24.4,54.5-54.5s-24.4-54.5-54.5-54.5s-54.5,24.4-54.5,54.5
		S1442.6,1856.2,1472.7,1856.2z"/>
	<path style="fill:#4CD697;" d="M1412.2,1843.2c30.1,0,54.5-24.4,54.5-54.5s-24.4-54.5-54.5-54.5s-54.5,24.4-54.5,54.5
		S1382.1,1843.2,1412.2,1843.2z"/>
	<path style="fill:#4CD697;" d="M1528.2,1846.2c30.4,0,55-24.6,55-55s-24.6-55-55-55s-55,24.6-55,55S1497.8,1846.2,1528.2,1846.2z"
		/>
	<path style="fill:#4CD697;" d="M1630.7,1842.2c30.7,0,55.5-24.4,55.5-54.5s-24.8-54.5-55.5-54.5s-55.5,24.4-55.5,54.5
		S1600,1842.2,1630.7,1842.2z"/>
	<path style="fill:#4CD697;" d="M1687.2,1844.2c30.4,0,55-24.6,55-55s-24.6-55-55-55s-55,24.6-55,55S1656.8,1844.2,1687.2,1844.2z"
		/>
	<path style="fill:#4CD697;" d="M1723.7,1840.2c30.1,0,54.5-24.4,54.5-54.5s-24.4-54.5-54.5-54.5s-54.5,24.4-54.5,54.5
		S1693.6,1840.2,1723.7,1840.2z"/>
	<path style="fill:#4CD697;" d="M1773.2,1849.2c30.4,0,55-24.6,55-55s-24.6-55-55-55s-55,24.6-55,55S1742.8,1849.2,1773.2,1849.2z"
		/>
	<path style="fill:#4CD697;" d="M1841.5,1849.2c30.4,0,55-24.6,55-55s-24.6-55-55-55s-55,24.6-55,55S1811.1,1849.2,1841.5,1849.2z"
		/>
	<path style="fill:#4CD697;" d="M1905.7,1854.2c30.1,0,54.5-24.4,54.5-54.5s-24.4-54.5-54.5-54.5s-54.5,24.4-54.5,54.5
		S1875.6,1854.2,1905.7,1854.2z"/>
	<path style="fill:#4CD697;" d="M1961.2,1844.2c30.4,0,55-24.6,55-55s-24.6-55-55-55s-55,24.6-55,55S1930.8,1844.2,1961.2,1844.2z"
		/>
	<path style="fill:#4CD697;" d="M2063.7,1840.2c30.7,0,55.5-24.4,55.5-54.5s-24.8-54.5-55.5-54.5s-55.5,24.4-55.5,54.5
		S2033,1840.2,2063.7,1840.2z"/>
	<path style="fill:#4CD697;" d="M2016.2,1849.2c30.7,0,55.5-24.4,55.5-54.5s-24.8-54.5-55.5-54.5s-55.5,24.4-55.5,54.5
		S1985.5,1849.2,2016.2,1849.2z"/>
	<path style="fill:#4CD697;" d="M360.9,1840.7c30.4,0,55-24.6,55-55s-24.6-55-55-55s-55,24.6-55,55S330.5,1840.7,360.9,1840.7z"/>
	<path style="fill:#4CD697;" d="M397.4,1836.7c30.1,0,54.5-24.4,54.5-54.5s-24.4-54.5-54.5-54.5s-54.5,24.4-54.5,54.5
		S367.3,1836.7,397.4,1836.7z"/>
	<path style="fill:#4CD697;" d="M446.9,1845.7c30.4,0,55-24.6,55-55s-24.6-55-55-55s-55,24.6-55,55S416.5,1845.7,446.9,1845.7z"/>
	<path style="fill:#4CD697;" d="M579.4,1850.7c30.1,0,54.5-24.4,54.5-54.5s-24.4-54.5-54.5-54.5s-54.5,24.4-54.5,54.5
		S549.3,1850.7,579.4,1850.7z"/>
	<path style="fill:#4CD697;" d="M502.7,1841.2c30.1,0,54.5-24.4,54.5-54.5s-24.4-54.5-54.5-54.5c-30.1,0-54.5,24.4-54.5,54.5
		S472.6,1841.2,502.7,1841.2z"/>
	<path style="fill:#4CD697;" d="M634.9,1840.7c30.4,0,55-24.6,55-55s-24.6-55-55-55s-55,24.6-55,55S604.5,1840.7,634.9,1840.7z"/>
	<path style="fill:#4CD697;" d="M737.4,1836.7c30.7,0,55.5-24.4,55.5-54.5s-24.8-54.5-55.5-54.5s-55.5,24.4-55.5,54.5
		S706.7,1836.7,737.4,1836.7z"/>
	<path style="fill:#4CD697;" d="M684.1,1841.2c30.7,0,55.5-24.4,55.5-54.5s-24.8-54.5-55.5-54.5s-55.5,24.4-55.5,54.5
		S653.4,1841.2,684.1,1841.2z"/>
	<path style="fill:#4CD697;" d="M-90.8,1850.2c30.4,0,55-24.6,55-55s-24.6-55-55-55s-55,24.6-55,55S-121.2,1850.2-90.8,1850.2z"/>
	<path style="fill:#4CD697;" d="M-54.3,1846.2c30.1,0,54.5-24.4,54.5-54.5s-24.4-54.5-54.5-54.5s-54.5,24.4-54.5,54.5
		S-84.4,1846.2-54.3,1846.2z"/>
	<path style="fill:#4CD697;" d="M-4.8,1855.2c30.4,0,55-24.6,55-55s-24.6-55-55-55s-55,24.6-55,55S-35.2,1855.2-4.8,1855.2z"/>
	<path style="fill:#4CD697;" d="M127.7,1860.2c30.1,0,54.5-24.4,54.5-54.5s-24.4-54.5-54.5-54.5s-54.5,24.4-54.5,54.5
		S97.6,1860.2,127.7,1860.2z"/>
	<path style="fill:#4CD697;" d="M64.2,1850.7c30.1,0,54.5-24.4,54.5-54.5s-24.4-54.5-54.5-54.5s-54.5,24.4-54.5,54.5
		S34.1,1850.7,64.2,1850.7z"/>
	<path style="fill:#4CD697;" d="M183.2,1850.2c30.4,0,55-24.6,55-55s-24.6-55-55-55s-55,24.6-55,55S152.8,1850.2,183.2,1850.2z"/>
	<path style="fill:#4CD697;" d="M285.7,1846.2c30.7,0,55.5-24.4,55.5-54.5s-24.8-54.5-55.5-54.5s-55.5,24.4-55.5,54.5
		S255,1846.2,285.7,1846.2z"/>
	<path style="fill:#4CD697;" d="M230.9,1843.2c30.7,0,55.5-24.4,55.5-54.5s-24.8-54.5-55.5-54.5s-55.5,24.4-55.5,54.5
		S200.2,1843.2,230.9,1843.2z"/>
	<path style="fill:#23A068;" d="M817,1886.7c30.1,0,54.5-24.6,54.5-55s-24.4-55-54.5-55s-54.5,24.6-54.5,55S786.9,1886.7,817,1886.7
		z"/>
	<path style="fill:#23A068;" d="M861.5,1882.7c30.4,0,55-24.6,55-55s-24.6-55-55-55s-55,24.6-55,55S831.1,1882.7,861.5,1882.7z"/>
	<path style="fill:#23A068;" d="M926.5,1876.7c30.4,0,55-24.4,55-54.5s-24.6-54.5-55-54.5s-55,24.4-55,54.5
		S896.1,1876.7,926.5,1876.7z"/>
	<path style="fill:#23A068;" d="M971.5,1892.2c30.4,0,55-24.4,55-54.5s-24.6-54.5-55-54.5s-55,24.4-55,54.5
		S941.1,1892.2,971.5,1892.2z"/>
	<path style="fill:#23A068;" d="M1038,1896.7c30.1,0,54.5-24.6,54.5-55s-24.4-55-54.5-55s-54.5,24.6-54.5,55
		S1007.9,1896.7,1038,1896.7z"/>
	<path style="fill:#23A068;" d="M1131,1892.7c30.1,0,54.5-24.6,54.5-55s-24.4-55-54.5-55s-54.5,24.6-54.5,55
		S1100.9,1892.7,1131,1892.7z"/>
	<path style="fill:#23A068;" d="M1210.5,1870.7c30.4,0,55-24.6,55-55s-24.6-55-55-55s-55,24.6-55,55S1180.1,1870.7,1210.5,1870.7z"
		/>
	<path style="fill:#23A068;" d="M1262.8,1885.7c30.1,0,54.5-24.6,54.5-55s-24.4-55-54.5-55s-54.5,24.6-54.5,55
		S1232.7,1885.7,1262.8,1885.7z"/>
	<path style="fill:#23A068;" d="M1427.3,1912.7c30.1,0,54.5-24.6,54.5-55s-24.4-55-54.5-55s-54.5,24.6-54.5,55
		S1397.2,1912.7,1427.3,1912.7z"/>
	<path style="fill:#23A068;" d="M1307.3,1881.7c30.4,0,55-24.6,55-55s-24.6-55-55-55s-55,24.6-55,55S1276.9,1881.7,1307.3,1881.7z"
		/>
	<path style="fill:#23A068;" d="M1372.3,1875.7c30.4,0,55-24.4,55-54.5s-24.6-54.5-55-54.5s-55,24.4-55,54.5
		S1341.9,1875.7,1372.3,1875.7z"/>
	<path style="fill:#23A068;" d="M1483.8,1895.7c30.1,0,54.5-24.6,54.5-55s-24.4-55-54.5-55s-54.5,24.6-54.5,55
		S1453.7,1895.7,1483.8,1895.7z"/>
	<path style="fill:#23A068;" d="M1878.8,1887.7c30.1,0,54.5-24.6,54.5-55s-24.4-55-54.5-55s-54.5,24.6-54.5,55
		S1848.7,1887.7,1878.8,1887.7z"/>
	<path style="fill:#23A068;" d="M1576.8,1891.7c30.1,0,54.5-24.6,54.5-55s-24.4-55-54.5-55s-54.5,24.6-54.5,55
		S1546.7,1891.7,1576.8,1891.7z"/>
	<path style="fill:#23A068;" d="M1656.3,1869.7c30.4,0,55-24.6,55-55s-24.6-55-55-55s-55,24.6-55,55S1625.9,1869.7,1656.3,1869.7z"
		/>
	<path style="fill:#23A068;" d="M1703.6,1881.2c30.1,0,54.5-24.6,54.5-55s-24.4-55-54.5-55s-54.5,24.6-54.5,55
		S1673.5,1881.2,1703.6,1881.2z"/>
	<path style="fill:#23A068;" d="M1748.1,1877.2c30.4,0,55-24.6,55-55s-24.6-55-55-55s-55,24.6-55,55S1717.7,1877.2,1748.1,1877.2z"
		/>
	<path style="fill:#23A068;" d="M1813.1,1871.2c30.4,0,55-24.4,55-54.5s-24.6-54.5-55-54.5s-55,24.4-55,54.5
		S1782.7,1871.2,1813.1,1871.2z"/>
	<path style="fill:#23A068;" d="M1924.6,1891.2c30.1,0,54.5-24.6,54.5-55s-24.4-55-54.5-55s-54.5,24.6-54.5,55
		S1894.5,1891.2,1924.6,1891.2z"/>
	<path style="fill:#23A068;" d="M2017.6,1887.2c30.1,0,54.5-24.6,54.5-55s-24.4-55-54.5-55s-54.5,24.6-54.5,55
		S1987.5,1887.2,2017.6,1887.2z"/>
	<path style="fill:#23A068;" d="M2097.1,1865.2c30.4,0,55-24.6,55-55s-24.6-55-55-55s-55,24.6-55,55S2066.7,1865.2,2097.1,1865.2z"
		/>
	<path style="fill:#23A068;" d="M349.4,1894.2c30.1,0,54.5-24.6,54.5-55s-24.4-55-54.5-55s-54.5,24.6-54.5,55
		S319.3,1894.2,349.4,1894.2z"/>
	<path style="fill:#23A068;" d="M393.9,1890.2c30.4,0,55-24.6,55-55s-24.6-55-55-55s-55,24.6-55,55S363.5,1890.2,393.9,1890.2z"/>
	<path style="fill:#23A068;" d="M458.9,1884.2c30.4,0,55-24.4,55-54.5s-24.6-54.5-55-54.5s-55,24.4-55,54.5
		S428.5,1884.2,458.9,1884.2z"/>
	<path style="fill:#23A068;" d="M570.4,1904.2c30.1,0,54.5-24.6,54.5-55s-24.4-55-54.5-55s-54.5,24.6-54.5,55
		S540.3,1904.2,570.4,1904.2z"/>
	<path style="fill:#23A068;" d="M511.9,1895.2c30.1,0,54.5-24.6,54.5-55s-24.4-55-54.5-55s-54.5,24.6-54.5,55
		S481.8,1895.2,511.9,1895.2z"/>
	<path style="fill:#23A068;" d="M663.4,1900.2c30.1,0,54.5-24.6,54.5-55s-24.4-55-54.5-55s-54.5,24.6-54.5,55
		S633.3,1900.2,663.4,1900.2z"/>
	<path style="fill:#23A068;" d="M742.9,1878.2c30.4,0,55-24.6,55-55s-24.6-55-55-55s-55,24.6-55,55S712.5,1878.2,742.9,1878.2z"/>
	<path style="fill:#23A068;" d="M-106.4,1901.7c30.1,0,54.5-24.6,54.5-55s-24.4-55-54.5-55s-54.5,24.6-54.5,55
		S-136.5,1901.7-106.4,1901.7z"/>
	<path style="fill:#23A068;" d="M-61.9,1897.7c30.4,0,55-24.6,55-55s-24.6-55-55-55s-55,24.6-55,55S-92.3,1897.7-61.9,1897.7z"/>
	<path style="fill:#23A068;" d="M3.1,1891.7c30.4,0,55-24.4,55-54.5s-24.6-54.5-55-54.5s-55,24.4-55,54.5S-27.3,1891.7,3.1,1891.7z"
		/>
	<path style="fill:#23A068;" d="M114.6,1911.7c30.1,0,54.5-24.6,54.5-55s-24.4-55-54.5-55s-54.5,24.6-54.5,55
		S84.5,1911.7,114.6,1911.7z"/>
	<path style="fill:#23A068;" d="M207.6,1907.7c30.1,0,54.5-24.6,54.5-55s-24.4-55-54.5-55s-54.5,24.6-54.5,55
		S177.5,1907.7,207.6,1907.7z"/>
	<path style="fill:#23A068;" d="M69.8,1902.7c30.1,0,54.5-24.6,54.5-55s-24.4-55-54.5-55s-54.5,24.6-54.5,55
		S39.7,1902.7,69.8,1902.7z"/>
	<path style="fill:#23A068;" d="M287.1,1885.7c30.4,0,55-24.6,55-55s-24.6-55-55-55s-55,24.6-55,55S256.7,1885.7,287.1,1885.7z"/>
	<g>
		<ellipse style="fill:#683F28;" cx="954.5" cy="1772.7" rx="38.9" ry="9.5"/>
		<path style="fill:#683F28;" d="M1004.1,614.2c0,0-61.8,780.8-68,1155.7c11.7,6.2,21.9,12.9,41.5,0c0-82.3,28.6-891.6,86.4-1148.3
			C1037.3,597.4,1004.1,614.2,1004.1,614.2z"/>
		<path style="fill:#683F28;" d="M896.6,1457.6c49.2,49.2,40.8,52.4,54,70.9c8.4-0.5,10.5-6.8,15.7-14.9
			c-52.3-75.4-69.3-77.9-69.3-77.9S889,1449.7,896.6,1457.6z"/>
		<path style="fill:#683F28;" d="M1041.4,1292.6c-45.9,116-68.9,126.7-73.1,157.2c5.8,11.7-5.8,18,9.8,18
			c83.8-144.6,85.9-181.4,85.9-181.4S1049,1274.4,1041.4,1292.6z"/>
		<path style="fill:#25E286;" d="M902.4,1410.4c1.8,1.7,3.5,3.3,5.2,5c28.4,28.9-13.3,72.7-43.4,45.5c-1.8-1.6-3.6-3.4-5.4-5.2
			C830.4,1426.8,872.5,1383,902.4,1410.4z"/>
		<path style="fill:#683F28;" d="M1051.4,1381.9c-33.2,11.1-37,4.5-47.8,5c-2.4,6-0.3,11.8,1,19.2c43.7-1,49.7-11.5,49.7-11.5
			S1056.6,1380.4,1051.4,1381.9z"/>
		<path style="fill:#683F28;" d="M1072.8,994c-29,77.2-86.8,179-99.7,203c3.7,8,8.1,13.6,18,14.1c53.3-95.4,100-211.4,100-211.4
			S1077.5,981.9,1072.8,994z"/>
		<path style="fill:#25E286;" d="M879,1223.9c-1.6-2.1-3.3-4.3-4.9-6.6c-27.5-39.4,30.6-82.1,60.1-44.2c1.8,2.3,3.5,4.6,5.1,6.9
			C966.6,1219.6,908.4,1261.9,879,1223.9z"/>
		<path style="fill:#25E286;" d="M1022.8,1269.7c1.6-3.3,3.4-6.6,5.4-10c24.1-40.6,86.3-6.9,65.3,35.4c-1.7,3.5-3.5,6.8-5.4,10
			C1063.6,1346,1001.5,1312.3,1022.8,1269.7z"/>
		<path style="fill:#25E286;" d="M1050.9,1366.8c2.1-1.7,4.3-3.4,6.6-5.1c38.8-28.5,82.9,28.6,45.7,59.1c-2.3,1.9-4.5,3.6-6.8,5.3
			C1057.3,1454.4,1013.6,1397.2,1050.9,1366.8z"/>
		<path style="fill:#25E286;" d="M1005,1506.1c1.2-2.4,2.5-4.9,3.9-7.4c23.4-41.9,87.1-8.2,65.9,34.8c-1.3,2.7-2.7,5.2-4.1,7.7
			C1047,1582.9,983.7,1549.1,1005,1506.1z"/>
		<path style="fill:#25E286;" d="M1065.3,972.8c0.9-2.3,2-4.6,3.1-7c18.7-39.3,78.4-12.7,61.8,27.6c-1,2.5-2.1,4.9-3.2,7.2
			C1107.9,1039.8,1048.6,1013,1065.3,972.8z"/>
		<path style="fill:#25E286;" d="M1081.1,1071.6c1.7-1.4,3.6-2.8,5.5-4.2c32.7-24,69.9,24.1,38.5,49.9c-1.9,1.5-3.8,3-5.7,4.4
			C1086.6,1145.5,1049.7,1097.2,1081.1,1071.6z"/>
		<path style="fill:#25E286;" d="M1022.8,554.7c1.5,4.1,2.8,8.2,4,12.2c21.6,71.9-84.9,107.5-110.5,36.9c-1.5-4.1-2.9-8.4-4.2-12.7
			C890.7,519.2,997.6,484,1022.8,554.7z"/>
		<path style="fill:#25E286;" d="M1069.6,497.2c1.5,4.1,2.8,8.2,4,12.2c21.6,71.9-84.9,107.5-110.5,36.9c-1.5-4.1-2.9-8.4-4.2-12.7
			C937.5,461.7,1044.5,426.5,1069.6,497.2z"/>
		<path style="fill:#25E286;" d="M1148.1,545.5c1.5,4.1,2.8,8.2,4,12.2c21.6,71.9-84.9,107.5-110.5,36.9c-1.5-4.1-2.9-8.4-4.2-12.7
			C1016,510,1123,474.8,1148.1,545.5z"/>
		<path style="fill:#25E286;" d="M1106.9,562.5c1.5,4.1,2.8,8.2,4,12.2c21.6,71.9-84.9,107.5-110.5,36.9c-1.5-4.1-2.9-8.4-4.2-12.7
			C974.8,527,1081.8,491.8,1106.9,562.5z"/>
		<path style="fill:#25E286;" d="M1069.6,560.2c1.5,4.1,2.8,8.2,4,12.2c21.6,71.9-84.9,107.5-110.5,36.9c-1.5-4.1-2.9-8.4-4.2-12.7
			C937.5,524.7,1044.5,489.5,1069.6,560.2z"/>
		<path style="fill:#25E286;" d="M958.6,901.3c1.1,3,2,5.9,2.9,8.7c15.4,51.4-60.7,76.8-79,26.4c-1.1-3-2.1-6-3-9.1
			C864.1,875.9,940.6,850.8,958.6,901.3z"/>
		<path style="fill:#683F28;" d="M1009.7,1524.2c-32.2,61.7-37.4,57.8-51.1,76c3,7.9,6.8,10.8,16,13.4
			c56.2-72.6,53.5-89.4,53.5-89.4S1014.8,1514.5,1009.7,1524.2z"/>
		<path style="fill:#683F28;" d="M915,1218.7c34.1,66.9,34.1,78.7,42.5,102c7.3,2.6,8.2-5.5,14.1-11.9
			c-32.3-94.2-46.5-102.7-46.5-102.7S909.7,1208,915,1218.7z"/>
		<path style="fill:#683F28;" d="M1073,1103.3c-33.2,11.1-29.3,3.1-40.1,3.6c-2.4,6-4.9,14.8-3.6,22.3c43.7-1,57.8-16.7,57.8-16.7
			S1078.2,1101.7,1073,1103.3z"/>
		<path style="fill:#683F28;" d="M923.5,935c0,0,5.9,19.5,49.3,119.8c9.9,0.5,13-3,17.4-10.5c-10.4-25.1-15.8-13.6-36.8-93.4
			C950.1,938.4,923.5,935,923.5,935z"/>
		<path style="fill:#683F28;" d="M938.5,768c0,0,5.9,19.5,49.3,119.8c9.9,0.5,13-3,17.4-10.5c-10.4-25.1-15.8-13.6-36.8-93.4
			C965.1,771.4,938.5,768,938.5,768z"/>
		<path style="fill:#25E286;" d="M976.6,744.2c1.1,3,2,5.9,2.9,8.7c15.4,51.4-60.7,76.8-79,26.4c-1.1-3-2.1-6-3-9.1
			C882.2,718.8,958.6,693.7,976.6,744.2z"/>
	</g>
	<path style="fill:#56EA89;" d="M986.4,1812.2c15.5,0,28-12.8,28-28.5s-12.5-28.5-28-28.5s-28,12.8-28,28.5
		S970.9,1812.2,986.4,1812.2z"/>
	<path style="fill:#56EA89;" d="M939.7,1810.2c15.5,0,28-12.8,28-28.5s-12.5-28.5-28-28.5s-28,12.8-28,28.5
		S924.3,1810.2,939.7,1810.2z"/>
	<path style="fill:#56EA89;" d="M917.9,1819.2c18.5,0,33.5-14.6,33.5-32.5s-15-32.5-33.5-32.5s-33.5,14.5-33.5,32.5
		S899.4,1819.2,917.9,1819.2z"/>
	<path style="fill:#56EA89;" d="M960.9,1825.2c18.5,0,33.5-14.8,33.5-33s-15-33-33.5-33s-33.5,14.8-33.5,33
		S942.4,1825.2,960.9,1825.2z"/>
	<path style="fill:#56EA89;" d="M874.4,1873.7c18.5,0,33.5-14.8,33.5-33s-15-33-33.5-33s-33.5,14.8-33.5,33
		S855.9,1873.7,874.4,1873.7z"/>
	<path style="fill:#56EA89;" d="M926.5,1860.7c18.5,0,33.5-14.8,33.5-33s-15-33-33.5-33s-33.5,14.8-33.5,33S908,1860.7,926.5,1860.7
		z"/>
	<path style="fill:#56EA89;" d="M981.5,1869.7c18.5,0,33.5-14.8,33.5-33s-15-33-33.5-33s-33.5,14.8-33.5,33S963,1869.7,981.5,1869.7
		z"/>
	<path style="fill:#56EA89;" d="M1013.2,1873.7c18.5,0,33.5-14.8,33.5-33s-15-33-33.5-33c-18.5,0-33.5,14.8-33.5,33
		S994.7,1873.7,1013.2,1873.7z"/>
	<path style="fill:#56EA89;" d="M1024.5,1873.7c18.5,0,33.5-14.8,33.5-33s-15-33-33.5-33s-33.5,14.8-33.5,33
		S1006,1873.7,1024.5,1873.7z"/>
	<path style="fill:#56EA89;" d="M996.9,1829.7c18.5,0,33.5-14.8,33.5-33s-15-33-33.5-33s-33.5,14.8-33.5,33
		S978.4,1829.7,996.9,1829.7z"/>
	<path style="fill:#56EA89;" d="M1031.9,1835.2c18.5,0,33.5-14.8,33.5-33s-15-33-33.5-33s-33.5,14.8-33.5,33
		S1013.4,1835.2,1031.9,1835.2z"/>
	<path style="fill:#56EA89;" d="M1073.4,1847.2c18.5,0,33.5-14.8,33.5-33s-15-33-33.5-33s-33.5,14.8-33.5,33
		S1054.9,1847.2,1073.4,1847.2z"/>
	<path style="fill:#56EA89;" d="M874.4,1831.2c18.2,0,33-15,33-33.5s-14.8-33.5-33-33.5s-33,15-33,33.5S856.2,1831.2,874.4,1831.2z"
		/>
	<path style="fill:#56EA89;" d="M827.4,1848.2c18.2,0,33-15,33-33.5s-14.8-33.5-33-33.5s-33,15-33,33.5S809.2,1848.2,827.4,1848.2z"
		/>
</g>
<g id="EPISODES">
	<g id="OPEN-1">
		<rect x="993.8" y="1474.1" style="fill:#FFFFFF;fill-opacity:0;" width="92.3" height="98.3"/>
	</g>
	<g id="OPEN-2">
		<rect x="833.6" y="1386.4" style="fill:#FFFFFF;fill-opacity:0;" width="94.1" height="102.5"/>
	</g>
	<g id="OPEN-3-1">
		<rect x="1033.7" y="1352.1" style="fill:#FFFFFF;fill-opacity:0;" width="98.2" height="81.7"/>
	</g>
	<g id="OPEN-3-2">
		<rect x="1015.5" y="1230" style="fill:#FFFFFF;fill-opacity:0;" width="88.7" height="99"/>
	</g>
	<g id="OPEN-4">
		<rect x="857.1" y="1150.9" style="fill:#FFFFFF;fill-opacity:0;" width="92.5" height="96.1"/>
	</g>
	<g id="OPEN-5-1">
		<rect x="1067.4" y="1057.3" style="fill:#FFFFFF;fill-opacity:0;" width="71.3" height="70.8"/>
	</g>
	<g id="OPEN-5-2">
		<rect x="1058.1" y="942.3" style="fill:#FFFFFF;fill-opacity:0;" width="75.8" height="82.1"/>
	</g>
	<g id="OPEN-6">
		<rect x="874" y="869.4" style="fill:#FFFFFF;fill-opacity:0;" width="90" height="97.6"/>
	</g>
	<g id="OPEN-7-1">
		<rect x="893.5" y="712.9" style="fill:#FFFFFF;fill-opacity:0;" width="90" height="97.6"/>
	</g>
</g>
</svg>
