<?xml version="1.0" encoding="utf-8"?>
<!-- Generator: Adobe Illustrator 22.0.0, SVG Export Plug-In . SVG Version: 6.00 Build 0)  -->
<svg version="1.1" id="Layer_1" xmlns="http://www.w3.org/2000/svg" xmlns:xlink="http://www.w3.org/1999/xlink" x="0px" y="0px"
	 viewBox="0 0 512 512" style="enable-background:new 0 0 512 512;" xml:space="preserve">
<g id="Left">
	<defs>
		<path id="AYAK_1_" d="M192.7,444.5h-36.2c-9.2,0-16.7,7.5-16.7,16.7v6.6c0,16.2,0,16.2,16.2,16.2h54.8c9.9,0,18,0,18-18v0
			C228.7,454.2,204.5,444.5,192.7,444.5z"/>
	</defs>
	<clipPath id="AYAK_2_">
		<use xlink:href="#AYAK_1_"  style="overflow:visible;"/>
	</clipPath>
	<path style="clip-path:url(#AYAK_2_);fill:var(--skin-color);" d="M192.7,444.5h-36.2c-9.2,0-16.7,7.5-16.7,16.7v6.6
		c0,16.2,0,16.2,16.2,16.2h54.8c9.9,0,18,0,18-18v0C228.7,454.2,204.5,444.5,192.7,444.5z"/>
	<path style="opacity:0.3;clip-path:url(#AYAK_2_);fill:none;stroke:#7f3e37;stroke-width:2;stroke-miterlimit:10;" d="
		M232.7,467.5c0,0-14-10.9-21-10.7"/>
	<path style="opacity:0.2;clip-path:url(#AYAK_2_);fill:none;stroke:#7f3e37;stroke-width:2;stroke-miterlimit:10;" d="M236.1,477
		c0,0-14-10.9-21-10.7"/>
	<path style="opacity:0.2;clip-path:url(#AYAK_2_);fill:none;stroke:#7f3e37;stroke-width:2;stroke-miterlimit:10;" d="
		M237.7,485.1c0,0-14-10.9-21-10.7"/>
</g>
<g id="Right">
	<defs>
		<path id="AYAK_3_" d="M305.5,444.5h-36.2c-9.2,0-16.7,7.5-16.7,16.7v6.6c0,16.2,0,16.2,16.2,16.2h54.8c9.9,0,18,0,18-18v0
			C341.5,454.2,317.3,444.5,305.5,444.5z"/>
	</defs>
	<clipPath id="AYAK_4_">
		<use xlink:href="#AYAK_3_"  style="overflow:visible;"/>
	</clipPath>
	<path style="clip-path:url(#AYAK_4_);fill:var(--skin-color);" d="M305.5,444.5h-36.2c-9.2,0-16.7,7.5-16.7,16.7v6.6
		c0,16.2,0,16.2,16.2,16.2h54.8c9.9,0,18,0,18-18v0C341.5,454.2,317.3,444.5,305.5,444.5z"/>
	<path style="opacity:0.3;clip-path:url(#AYAK_4_);fill:none;stroke:#7f3e37;stroke-width:2;stroke-miterlimit:10;" d="
		M345.5,467.5c0,0-14-10.9-21-10.7"/>
	<path style="opacity:0.2;clip-path:url(#AYAK_4_);fill:none;stroke:#7f3e37;stroke-width:2;stroke-miterlimit:10;" d="M348.9,477
		c0,0-14-10.9-21-10.7"/>
	<path style="opacity:0.2;clip-path:url(#AYAK_4_);fill:none;stroke:#7f3e37;stroke-width:2;stroke-miterlimit:10;" d="
		M350.5,485.1c0,0-14-10.9-21-10.7"/>
</g>
</svg>
